<svg width="500" height="500" viewbox = "0 0 500 500"  xmlns="http://www.w3.org/2000/svg">

<!--
<topfunctions>


//put helper functions here, along with contsants and variables


function YofX(){
    
    X = currentjson.plotparams.g*(x - currentjson.plotparams.x0);

    Y = Math.sin((Math.PI*2*X));     
    if(Y>= 0){         
        Y = 1;     
        
    }     
    else{         
        Y = -1;     
    }
    y = currentjson.plotparams.y0 - currentjson.plotparams.G*(Y);

}




function plotfunction(){
    /*plot one function:*/
    currentStroke = currentjson.style.color;
    currentLineWidth = currentjson.style.linewidth;
    ctx.strokeStyle = currentStroke;
    ctx.lineWidth = currentLineWidth;
    ctx.beginPath();	
    x = 0;
    YofX();
    currentSVG += "	<path d = \"M";
    currentSVG += Math.round(x).toString() + " ";
    currentSVG += Math.round(y).toString() + " ";
    for(x = 1;x < currentjson.plotparams.plotwidth;x++){
        ctx.moveTo(x-1,y);
        YofX();
        ctx.lineTo(x,y);
        currentSVG += "L" + x + " " + y + " ";
    }
    ctx.stroke();
    currentSVG += "\""+ " stroke = \"" + currentStroke + "\" stroke-width = \"" + currentLineWidth.toString() + "\" fill = \"" + "none" + "\" "+"/>";
    /*finish plot one function*/

}





























</topfunctions>
-->

<!--
<currentjson>
{
    "constants": {},
    "YofXstring": "",
    "style": {
        "linewidth": 4,
        "color": "blue",
        "fill": "none"
    },
    "plotparams": {
        "G": 59.14660544591749,
        "g": 0.01832980710832436,
        "duration": 450.78888054094654,
        "plotwidth": 500,
        "plotheight": 500,
        "x0": 46,
        "y0": 242
    },
    "funcparams": {},
    "image": {
        "url": "",
        "xoverw": 0.038011695906432746,
        "yoverw": -0.08771929824561403,
        "woverw": 0.8536631795472632,
        "angle": "0"
    }
}
</currentjson>
-->
	<path d = "M0 183 L1 182.8533945540825 L2 182.8533945540825 L3 182.8533945540825 L4 182.8533945540825 L5 182.8533945540825 L6 182.8533945540825 L7 182.8533945540825 L8 182.8533945540825 L9 182.8533945540825 L10 182.8533945540825 L11 182.8533945540825 L12 182.8533945540825 L13 182.8533945540825 L14 182.8533945540825 L15 182.8533945540825 L16 182.8533945540825 L17 182.8533945540825 L18 182.8533945540825 L19 301.1466054459175 L20 301.1466054459175 L21 301.1466054459175 L22 301.1466054459175 L23 301.1466054459175 L24 301.1466054459175 L25 301.1466054459175 L26 301.1466054459175 L27 301.1466054459175 L28 301.1466054459175 L29 301.1466054459175 L30 301.1466054459175 L31 301.1466054459175 L32 301.1466054459175 L33 301.1466054459175 L34 301.1466054459175 L35 301.1466054459175 L36 301.1466054459175 L37 301.1466054459175 L38 301.1466054459175 L39 301.1466054459175 L40 301.1466054459175 L41 301.1466054459175 L42 301.1466054459175 L43 301.1466054459175 L44 301.1466054459175 L45 301.1466054459175 L46 182.8533945540825 L47 182.8533945540825 L48 182.8533945540825 L49 182.8533945540825 L50 182.8533945540825 L51 182.8533945540825 L52 182.8533945540825 L53 182.8533945540825 L54 182.8533945540825 L55 182.8533945540825 L56 182.8533945540825 L57 182.8533945540825 L58 182.8533945540825 L59 182.8533945540825 L60 182.8533945540825 L61 182.8533945540825 L62 182.8533945540825 L63 182.8533945540825 L64 182.8533945540825 L65 182.8533945540825 L66 182.8533945540825 L67 182.8533945540825 L68 182.8533945540825 L69 182.8533945540825 L70 182.8533945540825 L71 182.8533945540825 L72 182.8533945540825 L73 182.8533945540825 L74 301.1466054459175 L75 301.1466054459175 L76 301.1466054459175 L77 301.1466054459175 L78 301.1466054459175 L79 301.1466054459175 L80 301.1466054459175 L81 301.1466054459175 L82 301.1466054459175 L83 301.1466054459175 L84 301.1466054459175 L85 301.1466054459175 L86 301.1466054459175 L87 301.1466054459175 L88 301.1466054459175 L89 301.1466054459175 L90 301.1466054459175 L91 301.1466054459175 L92 301.1466054459175 L93 301.1466054459175 L94 301.1466054459175 L95 301.1466054459175 L96 301.1466054459175 L97 301.1466054459175 L98 301.1466054459175 L99 301.1466054459175 L100 301.1466054459175 L101 182.8533945540825 L102 182.8533945540825 L103 182.8533945540825 L104 182.8533945540825 L105 182.8533945540825 L106 182.8533945540825 L107 182.8533945540825 L108 182.8533945540825 L109 182.8533945540825 L110 182.8533945540825 L111 182.8533945540825 L112 182.8533945540825 L113 182.8533945540825 L114 182.8533945540825 L115 182.8533945540825 L116 182.8533945540825 L117 182.8533945540825 L118 182.8533945540825 L119 182.8533945540825 L120 182.8533945540825 L121 182.8533945540825 L122 182.8533945540825 L123 182.8533945540825 L124 182.8533945540825 L125 182.8533945540825 L126 182.8533945540825 L127 182.8533945540825 L128 301.1466054459175 L129 301.1466054459175 L130 301.1466054459175 L131 301.1466054459175 L132 301.1466054459175 L133 301.1466054459175 L134 301.1466054459175 L135 301.1466054459175 L136 301.1466054459175 L137 301.1466054459175 L138 301.1466054459175 L139 301.1466054459175 L140 301.1466054459175 L141 301.1466054459175 L142 301.1466054459175 L143 301.1466054459175 L144 301.1466054459175 L145 301.1466054459175 L146 301.1466054459175 L147 301.1466054459175 L148 301.1466054459175 L149 301.1466054459175 L150 301.1466054459175 L151 301.1466054459175 L152 301.1466054459175 L153 301.1466054459175 L154 301.1466054459175 L155 301.1466054459175 L156 182.8533945540825 L157 182.8533945540825 L158 182.8533945540825 L159 182.8533945540825 L160 182.8533945540825 L161 182.8533945540825 L162 182.8533945540825 L163 182.8533945540825 L164 182.8533945540825 L165 182.8533945540825 L166 182.8533945540825 L167 182.8533945540825 L168 182.8533945540825 L169 182.8533945540825 L170 182.8533945540825 L171 182.8533945540825 L172 182.8533945540825 L173 182.8533945540825 L174 182.8533945540825 L175 182.8533945540825 L176 182.8533945540825 L177 182.8533945540825 L178 182.8533945540825 L179 182.8533945540825 L180 182.8533945540825 L181 182.8533945540825 L182 182.8533945540825 L183 301.1466054459175 L184 301.1466054459175 L185 301.1466054459175 L186 301.1466054459175 L187 301.1466054459175 L188 301.1466054459175 L189 301.1466054459175 L190 301.1466054459175 L191 301.1466054459175 L192 301.1466054459175 L193 301.1466054459175 L194 301.1466054459175 L195 301.1466054459175 L196 301.1466054459175 L197 301.1466054459175 L198 301.1466054459175 L199 301.1466054459175 L200 301.1466054459175 L201 301.1466054459175 L202 301.1466054459175 L203 301.1466054459175 L204 301.1466054459175 L205 301.1466054459175 L206 301.1466054459175 L207 301.1466054459175 L208 301.1466054459175 L209 301.1466054459175 L210 182.8533945540825 L211 182.8533945540825 L212 182.8533945540825 L213 182.8533945540825 L214 182.8533945540825 L215 182.8533945540825 L216 182.8533945540825 L217 182.8533945540825 L218 182.8533945540825 L219 182.8533945540825 L220 182.8533945540825 L221 182.8533945540825 L222 182.8533945540825 L223 182.8533945540825 L224 182.8533945540825 L225 182.8533945540825 L226 182.8533945540825 L227 182.8533945540825 L228 182.8533945540825 L229 182.8533945540825 L230 182.8533945540825 L231 182.8533945540825 L232 182.8533945540825 L233 182.8533945540825 L234 182.8533945540825 L235 182.8533945540825 L236 182.8533945540825 L237 301.1466054459175 L238 301.1466054459175 L239 301.1466054459175 L240 301.1466054459175 L241 301.1466054459175 L242 301.1466054459175 L243 301.1466054459175 L244 301.1466054459175 L245 301.1466054459175 L246 301.1466054459175 L247 301.1466054459175 L248 301.1466054459175 L249 301.1466054459175 L250 301.1466054459175 L251 301.1466054459175 L252 301.1466054459175 L253 301.1466054459175 L254 301.1466054459175 L255 301.1466054459175 L256 301.1466054459175 L257 301.1466054459175 L258 301.1466054459175 L259 301.1466054459175 L260 301.1466054459175 L261 301.1466054459175 L262 301.1466054459175 L263 301.1466054459175 L264 301.1466054459175 L265 182.8533945540825 L266 182.8533945540825 L267 182.8533945540825 L268 182.8533945540825 L269 182.8533945540825 L270 182.8533945540825 L271 182.8533945540825 L272 182.8533945540825 L273 182.8533945540825 L274 182.8533945540825 L275 182.8533945540825 L276 182.8533945540825 L277 182.8533945540825 L278 182.8533945540825 L279 182.8533945540825 L280 182.8533945540825 L281 182.8533945540825 L282 182.8533945540825 L283 182.8533945540825 L284 182.8533945540825 L285 182.8533945540825 L286 182.8533945540825 L287 182.8533945540825 L288 182.8533945540825 L289 182.8533945540825 L290 182.8533945540825 L291 182.8533945540825 L292 301.1466054459175 L293 301.1466054459175 L294 301.1466054459175 L295 301.1466054459175 L296 301.1466054459175 L297 301.1466054459175 L298 301.1466054459175 L299 301.1466054459175 L300 301.1466054459175 L301 301.1466054459175 L302 301.1466054459175 L303 301.1466054459175 L304 301.1466054459175 L305 301.1466054459175 L306 301.1466054459175 L307 301.1466054459175 L308 301.1466054459175 L309 301.1466054459175 L310 301.1466054459175 L311 301.1466054459175 L312 301.1466054459175 L313 301.1466054459175 L314 301.1466054459175 L315 301.1466054459175 L316 301.1466054459175 L317 301.1466054459175 L318 301.1466054459175 L319 182.8533945540825 L320 182.8533945540825 L321 182.8533945540825 L322 182.8533945540825 L323 182.8533945540825 L324 182.8533945540825 L325 182.8533945540825 L326 182.8533945540825 L327 182.8533945540825 L328 182.8533945540825 L329 182.8533945540825 L330 182.8533945540825 L331 182.8533945540825 L332 182.8533945540825 L333 182.8533945540825 L334 182.8533945540825 L335 182.8533945540825 L336 182.8533945540825 L337 182.8533945540825 L338 182.8533945540825 L339 182.8533945540825 L340 182.8533945540825 L341 182.8533945540825 L342 182.8533945540825 L343 182.8533945540825 L344 182.8533945540825 L345 182.8533945540825 L346 182.8533945540825 L347 301.1466054459175 L348 301.1466054459175 L349 301.1466054459175 L350 301.1466054459175 L351 301.1466054459175 L352 301.1466054459175 L353 301.1466054459175 L354 301.1466054459175 L355 301.1466054459175 L356 301.1466054459175 L357 301.1466054459175 L358 301.1466054459175 L359 301.1466054459175 L360 301.1466054459175 L361 301.1466054459175 L362 301.1466054459175 L363 301.1466054459175 L364 301.1466054459175 L365 301.1466054459175 L366 301.1466054459175 L367 301.1466054459175 L368 301.1466054459175 L369 301.1466054459175 L370 301.1466054459175 L371 301.1466054459175 L372 301.1466054459175 L373 301.1466054459175 L374 182.8533945540825 L375 182.8533945540825 L376 182.8533945540825 L377 182.8533945540825 L378 182.8533945540825 L379 182.8533945540825 L380 182.8533945540825 L381 182.8533945540825 L382 182.8533945540825 L383 182.8533945540825 L384 182.8533945540825 L385 182.8533945540825 L386 182.8533945540825 L387 182.8533945540825 L388 182.8533945540825 L389 182.8533945540825 L390 182.8533945540825 L391 182.8533945540825 L392 182.8533945540825 L393 182.8533945540825 L394 182.8533945540825 L395 182.8533945540825 L396 182.8533945540825 L397 182.8533945540825 L398 182.8533945540825 L399 182.8533945540825 L400 182.8533945540825 L401 301.1466054459175 L402 301.1466054459175 L403 301.1466054459175 L404 301.1466054459175 L405 301.1466054459175 L406 301.1466054459175 L407 301.1466054459175 L408 301.1466054459175 L409 301.1466054459175 L410 301.1466054459175 L411 301.1466054459175 L412 301.1466054459175 L413 301.1466054459175 L414 301.1466054459175 L415 301.1466054459175 L416 301.1466054459175 L417 301.1466054459175 L418 301.1466054459175 L419 301.1466054459175 L420 301.1466054459175 L421 301.1466054459175 L422 301.1466054459175 L423 301.1466054459175 L424 301.1466054459175 L425 301.1466054459175 L426 301.1466054459175 L427 301.1466054459175 L428 182.8533945540825 L429 182.8533945540825 L430 182.8533945540825 L431 182.8533945540825 L432 182.8533945540825 L433 182.8533945540825 L434 182.8533945540825 L435 182.8533945540825 L436 182.8533945540825 L437 182.8533945540825 L438 182.8533945540825 L439 182.8533945540825 L440 182.8533945540825 L441 182.8533945540825 L442 182.8533945540825 L443 182.8533945540825 L444 182.8533945540825 L445 182.8533945540825 L446 182.8533945540825 L447 182.8533945540825 L448 182.8533945540825 L449 182.8533945540825 L450 182.8533945540825 L451 182.8533945540825 L452 182.8533945540825 L453 182.8533945540825 L454 182.8533945540825 L455 182.8533945540825 L456 301.1466054459175 L457 301.1466054459175 L458 301.1466054459175 L459 301.1466054459175 L460 301.1466054459175 L461 301.1466054459175 L462 301.1466054459175 L463 301.1466054459175 L464 301.1466054459175 L465 301.1466054459175 L466 301.1466054459175 L467 301.1466054459175 L468 301.1466054459175 L469 301.1466054459175 L470 301.1466054459175 L471 301.1466054459175 L472 301.1466054459175 L473 301.1466054459175 L474 301.1466054459175 L475 301.1466054459175 L476 301.1466054459175 L477 301.1466054459175 L478 301.1466054459175 L479 301.1466054459175 L480 301.1466054459175 L481 301.1466054459175 L482 301.1466054459175 L483 182.8533945540825 L484 182.8533945540825 L485 182.8533945540825 L486 182.8533945540825 L487 182.8533945540825 L488 182.8533945540825 L489 182.8533945540825 L490 182.8533945540825 L491 182.8533945540825 L492 182.8533945540825 L493 182.8533945540825 L494 182.8533945540825 L495 182.8533945540825 L496 182.8533945540825 L497 182.8533945540825 L498 182.8533945540825 L499 182.8533945540825 " stroke = "blue" stroke-width = "4" fill = "none" /></svg>