<svg width="400" height="400" viewbox = "0 0 400 400"  xmlns="http://www.w3.org/2000/svg">

<!--
<topfunctions>



function YofX(){
    
    X = currentjson.plotparams.g*(x - currentjson.plotparams.x0) - currentjson.funcparams.X0;
    Y = Math.sin(X);
    y = currentjson.plotparams.y0 - currentjson.plotparams.G*(Y - currentjson.funcparams.Y0);

}



function plotfunction(){
    /*plot one function:*/
    currentStroke = currentjson.style.color;
    currentLineWidth = currentjson.style.linewidth;
    ctx.strokeStyle = currentStroke;
    ctx.lineWidth = currentLineWidth;
    ctx.beginPath();	
    x = 0;
    YofX();
    currentSVG += "	<path d = \"M";
    currentSVG += Math.round(x).toString() + " ";
    currentSVG += Math.round(y).toString() + " ";
    for(x = 1;x < currentjson.plotparams.plotwidth;x++){
        ctx.moveTo(x-1,y);
        YofX();
        ctx.lineTo(x,y);
        currentSVG += "L" + x + " " + y + " ";
    }
    ctx.stroke();
    currentSVG += "\""+ " stroke = \"" + currentStroke + "\" stroke-width = \"" + currentLineWidth.toString() + "\" fill = \"" + "none" + "\" "+"/>";
    /*finish plot one function*/

}





























</topfunctions>
-->

<!--
<currentjson>
{
    "constants": {},
    "imgurl": "",
    "style": {
        "linewidth": 4,
        "color": "blue",
        "fill": "none"
    },
    "plotparams": {
        "G": 10,
        "g": 1,
        "duration": 450.78888054094654,
        "plotwidth": 400,
        "plotheight": 400,
        "x0": 0,
        "y0": 200.00000000000003
    },
    "funcparams": {
        "phi": 0.2688139066614501,
        "T": 1.4465183912692552,
        "X0": 0,
        "Y0": 0
    }
}
</currentjson>
-->
	<path d = "M0 200 L1 191.58529015192107 L2 190.9070257317432 L3 198.58879991940137 L4 207.56802495307932 L5 209.5892427466314 L6 202.7941549819893 L7 193.43013401281215 L8 190.1064175337662 L9 195.87881514758246 L10 205.44021110889372 L11 209.99990206550706 L12 205.36572918000437 L13 195.79832963173362 L14 190.09392644305132 L15 193.49712159842886 L16 202.8790331666507 L17 209.6139749187956 L18 207.5098724677168 L19 198.5012279033705 L20 190.87054749272374 L21 191.63344361463948 L22 200.08851309290407 L23 208.46220404175173 L24 209.05578362006628 L25 201.32351750097777 L26 192.374415495204 L27 190.436240715955 L28 197.29094211692134 L29 206.6363388421297 L30 209.88031624092864 L31 204.0403764532307 L32 194.48573318758312 L33 190.00088139892736 L34 194.7091731387998 L35 204.28182669496155 L36 209.9177885344312 L37 206.43538133357004 L38 197.03631421290618 L39 190.36204613715915 L40 192.54886839520654 L41 201.5862266880471 L42 209.16521547915636 L43 208.31774742628602 L44 199.8229807489459 L45 191.49096475465885 L46 190.98211652351193 L47 198.76426877254778 L48 207.6825466132367 L49 209.53752652759474 L50 202.62374853703932 L51 193.29770824156628 L52 190.13372407959517 L53 196.0407484981817 L54 205.5878904885162 L55 209.99755173358622 L56 205.21551002086915 L57 195.63835244752178 L58 190.07127351915466 L59 193.63261992860865 L60 203.0481062110222 L61 209.66117770008395 L62 207.39180696649225 L63 198.32644299697196 L64 190.7997396180321 L65 191.731713205099 L66 200.2655115402397 L67 208.55519978975326 L68 208.97927680689293 L69 201.14784813783191 L70 192.26109318442113 L71 190.4894534674563 L72 197.46176637237966 L73 206.7677195688731 L74 209.8514626046825 L75 203.87781635409434 L76 194.33892363101822 L77 190.00479841419272 L78 194.86021544012468 L79 204.4411266870751 L80 209.93888653923378 L81 206.29887994274458 L82 196.86771217566917 L83 190.31635538899818 L84 192.66809679926712 L85 201.7607561994859 L86 209.23458447004063 L87 208.21817836630825 L88 199.64601697266343 L89 191.3993059418755 L90 191.06003336399445 L91 198.94012488248845 L92 207.79466069615808 L93 209.4828214126995 L94 202.45251985467658 L95 193.1673828526388 L96 190.16412254565657 L97 196.2039226097248 L98 205.73381871990426 L99 209.99206834186356 L100 205.0636564110976 L101 195.47974212821651 L102 190.05173208641597 L103 193.77011368557655 L104 203.21622403162533 L105 209.70535283537487 L106 207.27142500080856 L107 198.15218255439336 L108 190.73181494582218 L109 191.83257393363687 L110 200.44242678085072 L111 208.64551448610612 L112 208.89995604366837 L113 200.9718190589321 L114 192.15019611318692 L115 190.54564665975232 L116 197.63338606635716 L117 206.89697940935392 L118 209.81952169044087 L119 203.71404101438094 L120 194.1938881578769 L121 190.01184775276423 L122 195.01286846103608 L123 204.59903490689595 L124 209.95686986889183 L125 206.1604045918866 L126 196.70009174326222 L127 190.27369932757594 L128 192.7896228949827 L129 201.9347339203847 L130 209.30105950186766 L131 208.11603387136702 L132 199.46916412853943 L133 191.31034243785768 L134 191.14075183540055 L135 199.11631313896 L136 207.90433206722892 L137 209.42514454558253 L138 202.28052259500865 L139 193.03919868775262 L140 190.1976034055969 L141 196.36828634626744 L142 205.8779500716741 L143 209.9834536087392 L144 204.91021593898472 L145 195.3225483795487 L146 190.0353082687823 L147 193.9095597811671 L148 203.3833339432428 L149 209.74648648094498 L150 207.1487642962917 L151 197.9785011858435 L152 190.66679476251142 L153 191.93599419224518 L154 200.6192033725606 L155 208.7331198277465 L156 208.81784618814783 L157 200.79548542874724 L158 192.0417590347255 L159 190.60480268286855 L160 197.80574741620998 L161 207.02407785577373 L162 209.78450350793383 L163 203.54910175844938 L164 194.05067221976793 L165 190.02202720550113 L166 195.16708436271747 L167 204.75550186871902 L168 209.9717328877408 L169 206.01999867677608 L170 196.53350544502973 L171 190.23409132056437 L172 192.9134085981768 L173 202.10810532913484 L174 209.36461974251216 L175 208.01134595178044 L176 199.2924776391966 L177 191.22410212222889 L178 191.22424664195734 L179 199.2927783276101 L180 208.01152635733834 L181 209.36451400117647 L182 202.10781065900196 L183 192.91319591760794 L184 190.23415616709374 L185 196.53378819905726 L186 206.02023937555285 L187 209.97171023392153 L188 204.75523669012063 L189 195.1668204633204 L190 190.02200721319403 L191 194.05091451538576 L192 203.5493835765185 L193 209.78456574622115 L194 207.02386329268495 L195 197.8054533200594 L196 190.6046994443007 L197 192.04194157080354 L198 200.79578591664287 L199 208.81798836067554 L200 208.73297297213998 L201 200.61890250718724 L202 191.93581593134172 L203 190.66690299833041 L204 197.9787964068721 L205 207.14897507767768 L206 209.74641903125413 L207 203.3830502754098 L208 193.90932069808943 L209 190.03533358233895 L210 195.32281481657245 L211 204.91047853850466 L212 209.98347093796775 L213 205.87770619819844 L214 196.36800548623643 L215 190.1975437804278 L216 193.0394151165509 L217 202.2808160941353 L218 209.42524527329405 L219 207.90414741493186 L220 199.1160128751247 L221 191.14061202121246 L222 191.31049161783653 L223 199.46946514730067 L224 208.11620997364977 L225 209.30094878004527 L226 201.9344381715901 L227 192.7894140292937 L228 190.2737693751438 L229 196.70037630267606 L230 206.16064204053367 L231 209.95684189758106 L232 204.59876723232145 L233 195.0126071819672 L234 190.01183308797195 L235 194.19413359010358 L236 203.71432089436925 L237 209.81957869782028 L238 206.8967611318027 L239 197.63309318724927 L240 190.54554845078886 L241 192.150382867236 L242 200.97211907518226 L243 208.9000934885628 L244 208.64536299344275 L245 200.44212563228564 L246 191.83240000377194 L247 190.73192814497315 L248 198.15247880778284 L249 207.27163193443653 L250 209.70528019541808 L251 203.21593860292506 L252 193.7698778899635 L253 190.05176271328935 L254 195.48001101937018 L255 205.06391634924495 L256 209.99208034107065 L257 205.73357174815544 L258 196.203643731707 L259 190.16406816053322 L260 193.1676029618415 L261 202.45281209081946 L262 209.48291709522053 L263 207.79447185498867 L264 198.93982513732888 L265 191.05989829916209 L266 191.39945973535433 L267 199.64631822743826 L268 208.21835011012843 L269 209.2344688024299 L270 201.76045946471214 L271 192.66789181391286 L272 190.3164306156528 L273 196.86799845129332 L274 206.29911406684965 L275 209.9388532591973 L276 204.44085660040912 L277 194.85995686326433 L278 190.00478908151092 L279 194.3391721229396 L280 203.8780942082923 L281 209.85151436328889 L282 206.76749764526386 L283 197.46147480209768 L284 190.48936031887416 L285 192.2612840979157 L286 201.1481475884167 L287 208.9794094810813 L288 208.55504370750825 L289 200.2652102028576 L290 191.7315436607792 L291 190.79985774504038 L292 198.32674018988163 L293 207.39200998751278 L294 209.66109989262532 L295 203.04781911090305 L296 193.6323874943545 L297 190.07130944974685 L298 195.63862370853954 L299 205.21576721618374 L300 209.99755839901152 L301 205.58764049589092 L302 196.04047168957263 L303 190.13367495156092 L304 193.29793196219498 L305 202.62403941861666 L306 209.53761713494 L307 207.6823536423745 L308 198.7639696399989 L309 190.9819862503623 L310 191.49112311344143 L311 199.82328214532632 L312 208.31791475782208 L313 209.1650949020055 L314 201.58592906028576 L315 192.5486673544259 L316 190.3621265193258 L317 197.0366021150268 L318 206.43561205976266 L319 209.91774995609836 L320 204.28155428084455 L321 194.7089173451815 L322 190.00087740128077 L323 194.48598466132609 L324 204.04065219456365 L325 209.88036273454173 L326 206.63611334200945 L327 197.29065194683838 L328 190.4361526569454 L329 192.3746105083151 L330 201.32381629205454 L331 209.0559114819707 L332 208.46204341883853 L333 200.0882116611389 L334 191.63327850899708 L335 190.87067051057033 L336 198.50152594266524 L337 207.51007151250658 L338 209.61389196821864 L339 202.8787444850849 L340 193.4968925983745 L341 190.0939676661023 L342 195.79860317760696 L343 205.36598355188568 L344 209.99990339506175 L345 205.43995817373536 L346 195.8785404951292 L347 190.10637367821695 L348 193.43036127475662 L349 202.79444441784386 L350 209.58932825040617 L351 207.56782791299807 L352 198.5885014932061 L353 190.9069002911016 L354 191.5854530263805 L355 200.00030144353363 L356 208.41487271489214 L357 209.09284881935264 L358 201.41090165312113 L359 192.43177801371644 L360 190.41084276585696 L361 197.20613445640433 L362 206.5700932431625 L363 209.89353860169444 L364 204.12091019621946 L365 194.55953596089137 L366 190.0000992731344 L367 194.63452519675272 L368 204.2019439103218 L369 209.90611477099822 L370 206.5026493956078 L371 197.1206781543997 L372 190.38594213936355 L373 192.49032658389714 L374 201.49907013456237 L375 209.12957551682712 L376 208.36639127211566 L377 199.91118547541123 L378 191.5376353430246 L379 190.94434425006705 L380 198.67678129130175 L381 207.6257795109779 L382 209.56367121634506 L383 202.7087677105341 L384 193.36343566378042 L385 190.11973026166257 L386 195.95989929177375 L387 205.51451828114918 L388 209.99911459434009 L389 205.2905710627743 L390 195.71790089481235 L391 190.08217289624815 L392 193.5648493984704 L393 202.96397368652146 L394 209.63803423624972 L395 207.45093055724217 L396 198.41347568563296 L397 190.8346639520211 L398 191.68241991280829 L399 200.17732064727375 " stroke = "blue" stroke-width = "4" fill = "none" /></svg>