<svg width="500" height="500" viewbox = "0 0 500 500"  xmlns="http://www.w3.org/2000/svg">

<!--
<topfunctions>


//put helper functions here, along with contsants and variables


function YofX(){
    
    X = currentjson.plotparams.g*(x - currentjson.plotparams.x0);
    eval(currentjson.YofXstring);
    y = currentjson.plotparams.y0 - currentjson.plotparams.G*(Y);

}




function plotfunction(){
    /*plot one function:*/
    currentStroke = currentjson.style.color;
    currentLineWidth = currentjson.style.linewidth;
    ctx.strokeStyle = currentStroke;
    ctx.lineWidth = currentLineWidth;
    ctx.beginPath();	
    x = 0;
    YofX();
    currentSVG += "	<path d = \"M";
    currentSVG += Math.round(x).toString() + " ";
    currentSVG += Math.round(y).toString() + " ";
    for(x = 1;x < currentjson.plotparams.plotwidth;x++){
        ctx.moveTo(x-1,y);
        YofX();
        ctx.lineTo(x,y);
        currentSVG += "L" + x + " " + y + " ";
    }
    ctx.stroke();
    currentSVG += "\""+ " stroke = \"" + currentStroke + "\" stroke-width = \"" + currentLineWidth.toString() + "\" fill = \"" + "none" + "\" "+"/>";
    /*finish plot one function*/

}





























</topfunctions>
-->

<!--
<currentjson>
{
    "constants": {},
    "YofXstring": "Y =  (1/Math.PI)*0.5/(X*X + 0.25);",
    "style": {
        "linewidth": 4,
        "color": "blue",
        "fill": "none"
    },
    "plotparams": {
        "G": 225.08117895663068,
        "g": "0.005",
        "duration": 450.78888054094654,
        "plotwidth": 500,
        "plotheight": 500,
        "x0": "240",
        "y0": 200
    },
    "funcparams": {},
    "image": {
        "url": "",
        "xoverw": 0.038011695906432746,
        "yoverw": -0.08771929824561403,
        "woverw": 0.8536631795472632,
        "angle": "0"
    }
}
</currentjson>
-->
	<path d = "M0 179 L1 178.65181852004633 L2 178.4990203301727 L3 178.34467365207317 L4 178.18875899421622 L5 178.0312565869533 L6 177.8721463784673 L7 177.71140803067445 L8 177.54902091507944 L9 177.3849641085846 L10 177.21921638925326 L11 177.05175623202751 L12 176.8825618044016 L13 176.71161096205088 L14 176.53888124441727 L15 176.36434987025203 L16 176.18799373311668 L17 176.0097893968429 L18 175.8297130909525 L19 175.6477407060388 L20 175.4638477891101 L21 175.27800953889735 L22 175.090200801127 L23 174.9003960637606 L24 174.70856945220328 L25 174.51469472448252 L26 174.31874526639956 L27 174.1206940866555 L28 173.92051381195452 L29 173.71817668208632 L30 173.5136545449913 L31 173.3069188518103 L32 173.09794065192304 L33 172.88669058797763 L34 172.6731388909152 L35 172.45725537499334 L36 172.2390094328121 L37 172.0183700303468 L38 171.79530570199256 L39 171.56978454562469 L40 171.34177421768058 L41 171.11124192826816 L42 170.8781544363066 L43 170.64247804470546 L44 170.40417859558883 L45 170.16322146557064 L46 169.91957156108887 L47 169.6731933138062 L48 169.42405067608462 L49 169.17210711654286 L50 168.91732561570564 L51 168.65966866175344 L52 168.39909824638386 L53 168.13557586079364 L54 167.86906249179364 L55 167.59951861806738 L56 167.32690420658585 L57 167.0511787091915 L58 166.77230105936437 L59 166.49022966918523 L60 166.2049224265101 L61 165.91633669237243 L62 165.62442929862846 L63 165.3291565458644 L64 165.03047420158214 L65 164.7283374986838 L66 164.42270113427423 L67 164.11351926880286 L68 163.80074552556664 L69 163.48433299059732 L70 163.16423421295704 L71 162.84040120546743 L72 162.51278544589863 L73 162.18133787864627 L74 161.84600891692486 L75 161.50674844550784 L76 161.16350582404675 L77 160.81622989100137 L78 160.46486896821625 L79 160.10937086617938 L80 159.74968289000083 L81 159.38575184615033 L82 159.01752404999513 L83 158.64494533418076 L84 158.26796105789927 L85 157.88651611709125 L86 157.50055495563024 L87 157.11002157753987 L88 156.7148595602957 L89 156.31501206926708 L90 155.91042187335475 L91 155.5010313618841 L92 155.08678256281436 L93 154.6676171623281 L94 154.2434765258663 L95 153.8143017206778 L96 153.3800335399541 L97 152.94061252862258 L98 152.49597901087486 L99 152.04607311950835 L100 151.59083482716315 L101 151.13020397953784 L102 150.66412033067172 L103 150.19252358038267 L104 149.7153534139539 L105 149.23254954416402 L106 148.7440517557601 L107 148.24979995247315 L108 147.74973420668135 L109 147.24379481182686 L110 146.73192233769626 L111 146.21405768867646 L112 145.69014216510118 L113 145.16011752780548 L114 144.62392606600824 L115 144.08151066864505 L116 143.53281489927608 L117 142.97778307469576 L118 142.41636034737297 L119 141.84849279185218 L120 141.27412749524711 L121 140.69321265196098 L122 140.10569766276663 L123 139.5115332383819 L124 138.9106715076752 L125 138.30306613063635 L126 137.68867241624758 L127 137.06744744538756 L128 136.43935019890125 L129 135.80434169096497 L130 135.16238510787463 L131 134.51344595238012 L132 133.85749219368674 L133 133.19449442323787 L134 132.52442601638865 L135 131.84726330007274 L136 131.1629857265579 L137 130.47157605337617 L138 129.77302052950546 L139 129.0673090878684 L140 128.35443554420146 L141 127.63439780233469 L142 126.9071980659064 L143 126.17284305652169 L144 125.43134423834458 L145 124.68271804909485 L146 123.92698613739803 L147 123.16417560641479 L148 122.39431926364978 L149 121.6174558768136 L150 120.83363043558172 L151 120.04289441906306 L152 119.24530606875729 L153 118.44093066674421 L154 117.62984081881059 L155 116.81211674217877 L156 115.9878465574595 L157 115.15712658440579 L158 114.32006164099673 L159 113.47676534533116 L160 112.62736041975789 L161 111.77197899661532 L162 110.91076292489613 L163 110.04386407709393 L164 109.17144465542782 L165 108.29367749657787 L166 107.41074637400035 L167 106.52284629682492 L168 105.63018380426958 L169 104.73297725443982 L170 103.83145710631071 L171 102.92586619362031 L172 102.0164599893346 L173 101.10350685927457 L174 100.18728830342917 L175 99.26809918341156 L176 98.34624793445157 L177 97.42205676025694 L178 96.49586180901686 L179 95.56801332876827 L180 94.63887580029626 L181 93.70882804569612 L182 92.7782633106876 L183 91.84758931874325 L184 90.91722829506922 L185 89.98761695846673 L186 89.05920647909797 L187 88.13246240018964 L188 87.20786452172773 L189 86.28590674422897 L190 85.36709687072235 L191 84.45195636513421 L192 83.54102006534698 L193 82.63483584929392 L194 81.73396425256101 L195 80.83897803609392 L196 79.95046170275045 L197 79.06901096160261 L198 78.19523213907082 L199 77.32974153617235 L200 76.47316473138186 L201 75.62613582883684 L202 74.78929665187253 L203 73.96329588213823 L204 73.14878814483261 L205 72.34643304089347 L206 71.55689412728839 L207 70.78083784687792 L208 70.01893240965435 L209 69.27184662750017 L210 68.54024870495684 L211 67.82480498884138 L212 67.12617867989886 L213 66.4450285100223 L214 65.78200738891246 L215 65.13776102437922 L216 64.5129265208046 L217 63.90813096058784 L218 63.32398997367696 L219 62.76110630054873 L220 62.220068354233604 L221 61.70144878718554 L222 61.20580306896835 L223 60.7336680808659 L224 60.28556073362222 L225 59.861976614574985 L226 59.46338867046188 L227 59.0902459321496 L228 58.74297228746346 L229 58.42196530817404 L230 58.127595137032614 L231 57.860203440534605 L232 57.620102432832795 L233 57.40757397592088 L234 57.22286876086383 L235 57.06620557446675 L236 56.93777065535437 L237 56.83771714297424 L238 56.7661646225539 L239 56.72319876852606 L240 56.70887108840293 L241 56.72319876852606 L242 56.7661646225539 L243 56.83771714297424 L244 56.93777065535437 L245 57.06620557446675 L246 57.22286876086383 L247 57.40757397592088 L248 57.620102432832795 L249 57.860203440534605 L250 58.127595137032614 L251 58.42196530817404 L252 58.74297228746346 L253 59.0902459321496 L254 59.46338867046188 L255 59.861976614574985 L256 60.28556073362222 L257 60.7336680808659 L258 61.20580306896835 L259 61.70144878718554 L260 62.220068354233604 L261 62.76110630054873 L262 63.32398997367696 L263 63.90813096058784 L264 64.5129265208046 L265 65.13776102437922 L266 65.78200738891246 L267 66.4450285100223 L268 67.12617867989886 L269 67.82480498884138 L270 68.54024870495684 L271 69.27184662750017 L272 70.01893240965435 L273 70.78083784687792 L274 71.55689412728839 L275 72.34643304089347 L276 73.14878814483261 L277 73.96329588213823 L278 74.78929665187253 L279 75.62613582883684 L280 76.47316473138186 L281 77.32974153617235 L282 78.19523213907082 L283 79.06901096160261 L284 79.95046170275045 L285 80.83897803609392 L286 81.73396425256101 L287 82.63483584929392 L288 83.54102006534698 L289 84.45195636513421 L290 85.36709687072235 L291 86.28590674422897 L292 87.20786452172773 L293 88.13246240018964 L294 89.05920647909797 L295 89.98761695846673 L296 90.91722829506922 L297 91.84758931874325 L298 92.7782633106876 L299 93.70882804569612 L300 94.63887580029626 L301 95.56801332876827 L302 96.49586180901686 L303 97.42205676025694 L304 98.34624793445157 L305 99.26809918341156 L306 100.18728830342917 L307 101.10350685927457 L308 102.0164599893346 L309 102.92586619362031 L310 103.83145710631071 L311 104.73297725443982 L312 105.63018380426958 L313 106.52284629682492 L314 107.41074637400035 L315 108.29367749657787 L316 109.17144465542782 L317 110.04386407709393 L318 110.91076292489613 L319 111.77197899661532 L320 112.62736041975789 L321 113.47676534533116 L322 114.32006164099673 L323 115.15712658440579 L324 115.9878465574595 L325 116.81211674217877 L326 117.62984081881059 L327 118.44093066674421 L328 119.24530606875729 L329 120.04289441906306 L330 120.83363043558172 L331 121.6174558768136 L332 122.39431926364978 L333 123.16417560641479 L334 123.92698613739803 L335 124.68271804909485 L336 125.43134423834458 L337 126.17284305652169 L338 126.9071980659064 L339 127.63439780233469 L340 128.35443554420146 L341 129.0673090878684 L342 129.77302052950546 L343 130.47157605337617 L344 131.1629857265579 L345 131.84726330007274 L346 132.52442601638865 L347 133.19449442323787 L348 133.85749219368674 L349 134.51344595238012 L350 135.16238510787463 L351 135.80434169096497 L352 136.43935019890125 L353 137.06744744538756 L354 137.68867241624758 L355 138.30306613063635 L356 138.9106715076752 L357 139.5115332383819 L358 140.10569766276663 L359 140.69321265196098 L360 141.27412749524711 L361 141.84849279185218 L362 142.41636034737297 L363 142.97778307469576 L364 143.53281489927608 L365 144.08151066864505 L366 144.62392606600824 L367 145.16011752780548 L368 145.69014216510118 L369 146.21405768867646 L370 146.73192233769626 L371 147.24379481182686 L372 147.74973420668135 L373 148.24979995247315 L374 148.7440517557601 L375 149.23254954416402 L376 149.7153534139539 L377 150.19252358038267 L378 150.66412033067172 L379 151.13020397953784 L380 151.59083482716315 L381 152.04607311950835 L382 152.49597901087486 L383 152.94061252862258 L384 153.3800335399541 L385 153.8143017206778 L386 154.2434765258663 L387 154.6676171623281 L388 155.08678256281436 L389 155.5010313618841 L390 155.91042187335475 L391 156.31501206926708 L392 156.7148595602957 L393 157.11002157753987 L394 157.50055495563024 L395 157.88651611709125 L396 158.26796105789927 L397 158.64494533418076 L398 159.01752404999513 L399 159.38575184615033 L400 159.74968289000083 L401 160.10937086617938 L402 160.46486896821625 L403 160.81622989100137 L404 161.16350582404675 L405 161.50674844550784 L406 161.84600891692486 L407 162.18133787864627 L408 162.51278544589863 L409 162.84040120546743 L410 163.16423421295704 L411 163.48433299059732 L412 163.80074552556664 L413 164.11351926880286 L414 164.42270113427423 L415 164.7283374986838 L416 165.03047420158214 L417 165.3291565458644 L418 165.62442929862846 L419 165.91633669237243 L420 166.2049224265101 L421 166.49022966918523 L422 166.77230105936437 L423 167.0511787091915 L424 167.32690420658585 L425 167.59951861806738 L426 167.86906249179364 L427 168.13557586079364 L428 168.39909824638386 L429 168.65966866175344 L430 168.91732561570564 L431 169.17210711654286 L432 169.42405067608462 L433 169.6731933138062 L434 169.91957156108887 L435 170.16322146557064 L436 170.40417859558883 L437 170.64247804470546 L438 170.8781544363066 L439 171.11124192826816 L440 171.34177421768058 L441 171.56978454562469 L442 171.79530570199256 L443 172.0183700303468 L444 172.2390094328121 L445 172.45725537499334 L446 172.6731388909152 L447 172.88669058797763 L448 173.09794065192304 L449 173.3069188518103 L450 173.5136545449913 L451 173.71817668208632 L452 173.92051381195452 L453 174.1206940866555 L454 174.31874526639956 L455 174.51469472448252 L456 174.70856945220328 L457 174.9003960637606 L458 175.090200801127 L459 175.27800953889735 L460 175.4638477891101 L461 175.6477407060388 L462 175.8297130909525 L463 176.0097893968429 L464 176.18799373311668 L465 176.36434987025203 L466 176.53888124441727 L467 176.71161096205088 L468 176.8825618044016 L469 177.05175623202751 L470 177.21921638925326 L471 177.3849641085846 L472 177.54902091507944 L473 177.71140803067445 L474 177.8721463784673 L475 178.0312565869533 L476 178.18875899421622 L477 178.34467365207317 L478 178.4990203301727 L479 178.65181852004633 L480 178.80308743911286 L481 178.95284603463566 L482 179.1011129876324 L483 179.24790671673782 L484 179.39324538201836 L485 179.53714688874015 L486 179.67962889108895 L487 179.8207087958432 L488 179.9604037659995 L489 180.09873072435147 L490 180.2357063570211 L491 180.371347116944 L492 180.50566922730775 L493 180.63868868494413 L494 180.7704212636753 L495 180.90088251761452 L496 181.03008778442106 L497 181.15805218851042 L498 181.28479064421958 L499 181.410317858928 " stroke = "blue" stroke-width = "4" fill = "none" /></svg>