<svg width="500" height="500" viewbox = "0 0 500 500"  xmlns="http://www.w3.org/2000/svg">

<!--
<topfunctions>


//put helper functions here, along with contsants and variables


function YofX(){
    
    X = currentjson.plotparams.g*(x - currentjson.plotparams.x0);
    eval(currentjson.YofXstring);
    y = currentjson.plotparams.y0 - currentjson.plotparams.G*(Y);

}




function plotfunction(){
    /*plot one function:*/
    currentStroke = currentjson.style.color;
    currentLineWidth = currentjson.style.linewidth;
    ctx.strokeStyle = currentStroke;
    ctx.lineWidth = currentLineWidth;
    ctx.beginPath();	
    x = 0;
    YofX();
    currentSVG += "	<path d = \"M";
    currentSVG += Math.round(x).toString() + " ";
    currentSVG += Math.round(y).toString() + " ";
    for(x = 1;x < currentjson.plotparams.plotwidth;x++){
        ctx.moveTo(x-1,y);
        YofX();
        ctx.lineTo(x,y);
        currentSVG += "L" + x + " " + y + " ";
    }
    ctx.stroke();
    currentSVG += "\""+ " stroke = \"" + currentStroke + "\" stroke-width = \"" + currentLineWidth.toString() + "\" fill = \"" + "none" + "\" "+"/>";
    /*finish plot one function*/

}





























</topfunctions>
-->

<!--
<currentjson>
{
    "constants": {},
    "YofXstring": "Y = X*X",
    "style": {
        "linewidth": 4,
        "color": "blue",
        "fill": "none"
    },
    "plotparams": {
        "G": 291.683780824842,
        "g": 0.003173960979675239,
        "duration": 450.78888054094654,
        "plotwidth": 500,
        "plotheight": 500,
        "x0": "240",
        "y0": 200
    },
    "funcparams": {},
    "image": {
        "url": "",
        "xoverw": 0.038011695906432746,
        "yoverw": -0.08771929824561403,
        "woverw": 0.8536631795472632,
        "angle": "0"
    }
}
</currentjson>
-->
	<path d = "M0 31 L1 32.15390210868236 L2 33.55553353485061 L3 34.951288099693244 L4 36.34116580321023 L5 37.72516664540157 L6 39.10329062626727 L7 40.47553774580723 L8 41.841908004021604 L9 43.20240140091033 L10 44.557017936473386 L11 45.90575761071082 L12 47.2486204236225 L13 48.58560637520864 L14 49.91671546546908 L15 51.241947694403905 L16 52.561303062013025 L17 53.8747815682965 L18 55.182383213254326 L19 56.48410799688651 L20 57.77995591919304 L21 59.06992698017393 L22 60.35402117982912 L23 61.63223851815869 L24 62.90457899516261 L25 64.17104261084089 L26 65.43162936519349 L27 66.68633925822041 L28 67.93517228992172 L29 69.17812846029739 L30 70.41520776934738 L31 71.64641021707172 L32 72.87173580347039 L33 74.09118452854344 L34 75.30475639229083 L35 76.51245139471256 L36 77.71426953580864 L37 78.91021081557903 L38 80.1002752340238 L39 81.28446279114293 L40 82.4627734869364 L41 83.63520732140421 L42 84.80176429454635 L43 85.96244440636285 L44 87.11724765685372 L45 88.26617404601892 L46 89.40922357385847 L47 90.54639624037232 L48 91.67769204556058 L49 92.80311098942316 L50 93.9226530719601 L51 95.03631829317139 L52 96.14410665305698 L53 97.24601815161697 L54 98.34205278885128 L55 99.43221056475996 L56 100.51649147934299 L57 101.59489553260032 L58 102.66742272453202 L59 103.73407305513808 L60 104.79484652441849 L61 105.84974313237323 L62 106.8987628790023 L63 107.94190576430574 L64 108.97917178828354 L65 110.0105609509357 L66 111.03607325226218 L67 112.05570869226297 L68 113.06946727093815 L69 114.07734898828768 L70 115.07935384431156 L71 116.07548183900978 L72 117.0657329723823 L73 118.05010724442923 L74 119.02860465515047 L75 120.00122520454609 L76 120.96796889261606 L77 121.92883571936031 L78 122.88382568477896 L79 123.83293878887196 L80 124.7761750316393 L81 125.71353441308098 L82 126.64501693319698 L83 127.57062259198739 L84 128.4903513894521 L85 129.40420332559117 L86 130.31217840040458 L87 131.21427661389237 L88 132.11049796605448 L89 133.00084245689092 L90 133.88531008640172 L91 134.76390085458686 L92 135.63661476144637 L93 136.50345180698022 L94 137.3644119911884 L95 138.21949531407094 L96 139.06870177562783 L97 139.91203137585907 L98 140.74948411476464 L99 141.58105999234456 L100 142.40675900859884 L101 143.22658116352744 L102 144.04052645713043 L103 144.84859488940774 L104 145.65078646035937 L105 146.4471011699854 L106 147.23753901828576 L107 148.02210000526046 L108 148.8007841309095 L109 149.57359139523288 L110 150.3405217982306 L111 151.1015753399027 L112 151.85675202024916 L113 152.60605183926992 L114 153.34947479696507 L115 154.08702089333454 L116 154.81869012837834 L117 155.5444825020965 L118 156.26439801448905 L119 156.97843666555588 L120 157.6865984552971 L121 158.38888338371265 L122 159.08529145080257 L123 159.77582265656682 L124 160.46047700100542 L125 161.13925448411834 L126 161.81215510590562 L127 162.47917886636728 L128 163.14032576550326 L129 163.79559580331357 L130 164.44498897979827 L131 165.0885052949573 L132 165.72614474879066 L133 166.35790734129836 L134 166.98379307248044 L135 167.60380194233684 L136 168.2179339508676 L137 168.82618909807272 L138 169.42856738395216 L139 170.02506880850595 L140 170.6156933717341 L141 171.2004410736366 L142 171.77931191421342 L143 172.35230589346463 L144 172.91942301139014 L145 173.48066326799002 L146 174.03602666326424 L147 174.58551319721283 L148 175.12912286983575 L149 175.666855681133 L150 176.19871163110463 L151 176.72469071975058 L152 177.2447929470709 L153 177.75901831306555 L154 178.26736681773454 L155 178.76983846107788 L156 179.26643324309558 L157 179.75715116378763 L158 180.241992223154 L159 180.72095642119473 L160 181.1940437579098 L161 181.66125423329925 L162 182.12258784736304 L163 182.57804460010115 L164 183.02762449151362 L165 183.47132752160044 L166 183.9091536903616 L167 184.3411029977971 L168 184.76717544390695 L169 185.18737102869116 L170 185.6016897521497 L171 186.0101316142826 L172 186.41269661508986 L173 186.80938475457143 L174 187.20019603272738 L175 187.58513044955765 L176 187.96418800506228 L177 188.33736869924127 L178 188.70467253209458 L179 189.06609950362227 L180 189.4216496138243 L181 189.77132286270063 L182 190.11511925025135 L183 190.4530387764764 L184 190.7850814413758 L185 191.11124724494957 L186 191.43153618719765 L187 191.74594826812012 L188 192.0544834877169 L189 192.35714184598805 L190 192.65392334293352 L191 192.94482797855335 L192 193.22985575284753 L193 193.50900666581606 L194 193.78228071745895 L195 194.04967790777616 L196 194.31119823676772 L197 194.56684170443364 L198 194.8166083107739 L199 195.0604980557885 L200 195.29851093947747 L201 195.53064696184074 L202 195.7569061228784 L203 195.9772884225904 L204 196.19179386097673 L205 196.40042243803742 L206 196.60317415377247 L207 196.80004900818184 L208 196.99104700126557 L209 197.17616813302365 L210 197.35541240345606 L211 197.52877981256285 L212 197.69627036034396 L213 197.85788404679943 L214 198.01362087192922 L215 198.1634808357334 L216 198.3074639382119 L217 198.44557017936472 L218 198.57779955919193 L219 198.70415207769346 L220 198.82462773486935 L221 198.9392265307196 L222 199.0479484652442 L223 199.1507935384431 L224 199.24776175031639 L225 199.33885310086401 L226 199.424067590086 L227 199.5034052179823 L228 199.57686598455297 L229 199.64444988979798 L230 199.70615693371735 L231 199.76198711631105 L232 199.8119404375791 L233 199.8560168975215 L234 199.89421649613826 L235 199.92653923342934 L236 199.95298510939477 L237 199.97355412403456 L238 199.9882462773487 L239 199.99706156933718 L240 200 L241 199.99706156933718 L242 199.9882462773487 L243 199.97355412403456 L244 199.95298510939477 L245 199.92653923342934 L246 199.89421649613826 L247 199.8560168975215 L248 199.8119404375791 L249 199.76198711631105 L250 199.70615693371735 L251 199.64444988979798 L252 199.57686598455297 L253 199.5034052179823 L254 199.424067590086 L255 199.33885310086401 L256 199.24776175031639 L257 199.1507935384431 L258 199.0479484652442 L259 198.9392265307196 L260 198.82462773486935 L261 198.70415207769346 L262 198.57779955919193 L263 198.44557017936472 L264 198.3074639382119 L265 198.1634808357334 L266 198.01362087192922 L267 197.85788404679943 L268 197.69627036034396 L269 197.52877981256285 L270 197.35541240345606 L271 197.17616813302365 L272 196.99104700126557 L273 196.80004900818184 L274 196.60317415377247 L275 196.40042243803742 L276 196.19179386097673 L277 195.9772884225904 L278 195.7569061228784 L279 195.53064696184074 L280 195.29851093947747 L281 195.0604980557885 L282 194.8166083107739 L283 194.56684170443364 L284 194.31119823676772 L285 194.04967790777616 L286 193.78228071745895 L287 193.50900666581606 L288 193.22985575284753 L289 192.94482797855335 L290 192.65392334293352 L291 192.35714184598805 L292 192.0544834877169 L293 191.74594826812012 L294 191.43153618719765 L295 191.11124724494957 L296 190.7850814413758 L297 190.4530387764764 L298 190.11511925025135 L299 189.77132286270063 L300 189.4216496138243 L301 189.06609950362227 L302 188.70467253209458 L303 188.33736869924127 L304 187.96418800506228 L305 187.58513044955765 L306 187.20019603272738 L307 186.80938475457143 L308 186.41269661508986 L309 186.0101316142826 L310 185.6016897521497 L311 185.18737102869116 L312 184.76717544390695 L313 184.3411029977971 L314 183.9091536903616 L315 183.47132752160044 L316 183.02762449151362 L317 182.57804460010115 L318 182.12258784736304 L319 181.66125423329925 L320 181.1940437579098 L321 180.72095642119473 L322 180.241992223154 L323 179.75715116378763 L324 179.26643324309558 L325 178.76983846107788 L326 178.26736681773454 L327 177.75901831306555 L328 177.2447929470709 L329 176.72469071975058 L330 176.19871163110463 L331 175.666855681133 L332 175.12912286983575 L333 174.58551319721283 L334 174.03602666326424 L335 173.48066326799002 L336 172.91942301139014 L337 172.35230589346463 L338 171.77931191421342 L339 171.2004410736366 L340 170.6156933717341 L341 170.02506880850595 L342 169.42856738395216 L343 168.82618909807272 L344 168.2179339508676 L345 167.60380194233684 L346 166.98379307248044 L347 166.35790734129836 L348 165.72614474879066 L349 165.0885052949573 L350 164.44498897979827 L351 163.79559580331357 L352 163.14032576550326 L353 162.47917886636728 L354 161.81215510590562 L355 161.13925448411834 L356 160.46047700100542 L357 159.77582265656682 L358 159.08529145080257 L359 158.38888338371265 L360 157.6865984552971 L361 156.97843666555588 L362 156.26439801448905 L363 155.5444825020965 L364 154.81869012837834 L365 154.08702089333454 L366 153.34947479696507 L367 152.60605183926992 L368 151.85675202024916 L369 151.1015753399027 L370 150.3405217982306 L371 149.57359139523288 L372 148.8007841309095 L373 148.02210000526046 L374 147.23753901828576 L375 146.4471011699854 L376 145.65078646035937 L377 144.84859488940774 L378 144.04052645713043 L379 143.22658116352744 L380 142.40675900859884 L381 141.58105999234456 L382 140.74948411476464 L383 139.91203137585907 L384 139.06870177562783 L385 138.21949531407094 L386 137.3644119911884 L387 136.50345180698022 L388 135.63661476144637 L389 134.76390085458686 L390 133.88531008640172 L391 133.00084245689092 L392 132.11049796605448 L393 131.21427661389237 L394 130.31217840040458 L395 129.40420332559117 L396 128.4903513894521 L397 127.57062259198739 L398 126.64501693319698 L399 125.71353441308098 L400 124.7761750316393 L401 123.83293878887196 L402 122.88382568477896 L403 121.92883571936031 L404 120.96796889261606 L405 120.00122520454609 L406 119.02860465515047 L407 118.05010724442923 L408 117.0657329723823 L409 116.07548183900978 L410 115.07935384431156 L411 114.07734898828768 L412 113.06946727093815 L413 112.05570869226297 L414 111.03607325226218 L415 110.0105609509357 L416 108.97917178828354 L417 107.94190576430574 L418 106.8987628790023 L419 105.84974313237323 L420 104.79484652441849 L421 103.73407305513808 L422 102.66742272453202 L423 101.59489553260032 L424 100.51649147934299 L425 99.43221056475996 L426 98.34205278885128 L427 97.24601815161697 L428 96.14410665305698 L429 95.03631829317139 L430 93.9226530719601 L431 92.80311098942316 L432 91.67769204556058 L433 90.54639624037232 L434 89.40922357385847 L435 88.26617404601892 L436 87.11724765685372 L437 85.96244440636285 L438 84.80176429454635 L439 83.63520732140421 L440 82.4627734869364 L441 81.28446279114293 L442 80.1002752340238 L443 78.91021081557903 L444 77.71426953580864 L445 76.51245139471256 L446 75.30475639229083 L447 74.09118452854344 L448 72.87173580347039 L449 71.64641021707172 L450 70.41520776934738 L451 69.17812846029739 L452 67.93517228992172 L453 66.68633925822041 L454 65.43162936519349 L455 64.17104261084089 L456 62.90457899516261 L457 61.63223851815869 L458 60.35402117982912 L459 59.06992698017393 L460 57.77995591919304 L461 56.48410799688651 L462 55.182383213254326 L463 53.8747815682965 L464 52.561303062013025 L465 51.241947694403905 L466 49.91671546546908 L467 48.58560637520864 L468 47.2486204236225 L469 45.90575761071082 L470 44.557017936473386 L471 43.20240140091033 L472 41.841908004021604 L473 40.47553774580723 L474 39.10329062626727 L475 37.72516664540157 L476 36.34116580321023 L477 34.951288099693244 L478 33.55553353485061 L479 32.15390210868236 L480 30.746393821188406 L481 29.333008672368834 L482 27.91374666222356 L483 26.488607790752667 L484 25.057592057956157 L485 23.620699463833944 L486 22.177930008386056 L487 20.72928369161255 L488 19.27476051351337 L489 17.814360474088602 L490 16.34808357333813 L491 14.875929811261983 L492 13.397899187860219 L493 11.91399170313278 L494 10.424207357079752 L495 8.928546149700992 L496 7.427008080996615 L497 5.919593150966534 L498 4.406301359610836 L499 2.887132706929549 " stroke = "blue" stroke-width = "4" fill = "none" /></svg>