<svg width="500" height="500" viewbox = "0 0 500 500"  xmlns="http://www.w3.org/2000/svg">

<!--
<topfunctions>



function YofX(){
    X = currentjson.plotparams.g*(x - currentjson.plotparams.x0);

    Y = Math.tan(X);

    y = currentjson.plotparams.y0 - currentjson.plotparams.G*(Y);
}





function plotfunction(){
    
    /*plot one function:*/
    currentStroke = "red";
    currentLineWidth = 4;
    ctx.strokeStyle = currentStroke;
    ctx.lineWidth = currentLineWidth;
    ctx.beginPath();	
    x = 0;
    intx = x;
    YofX();
    currentSVG += "	<path d = \"M";
    currentSVG += Math.round(x).toString() + " ";
    currentSVG += Math.round(y).toString() + " ";
    for(x = 1;x < currentjson.plotparams.plotwidth;x++){
        ctx.moveTo(x-1,y);
        YofX();
        ctx.lineTo(x,y);
        currentSVG += "L" + x + " " + y + " ";
    }
    ctx.stroke();
    currentSVG += "\""+ " stroke = \"" + currentStroke + "\" stroke-width = \"" + currentLineWidth.toString() + "\" fill = \"" + "none" + "\" "+"/>";
    /*finish plot one function*/
    
    

}































</topfunctions>
-->

<!--
<currentjson>
{
    "constants": {},
    "YofXstring": "Y =  (1/Math.PI)*0.5/(X*X + 0.25);",
    "style": {
        "linewidth": 4,
        "color": "blue",
        "fill": "none"
    },
    "plotparams": {
        "G": 32.59551857071829,
        "g": 0.017491604678875183,
        "duration": 450.78888054094654,
        "plotwidth": 500,
        "plotheight": 500,
        "x0": 19,
        "y0": 239
    },
    "funcparams": {},
    "image": {
        "url": "",
        "xoverw": 0.038011695906432746,
        "yoverw": -0.08771929824561403,
        "woverw": 0.8536631795472632,
        "angle": "0"
    },
    "A": 13.676183278839833,
    "B": 1
}
</currentjson>
-->

<!--
<equation>
# Equations

$x$, $x_0$, $y$ and $y_0$ are all in pixels. x varies from 0 to the width in pixels of the plot.  Y and X are in the units of the system being studied.   

$$X = g(x - x_0)$$
$$Y = \sin{(X)}$$
$$y = y_0 - GY$$ 
</equation>
-->
	<path d = "M0 250 L1 249.61578316737962 L2 248.98866877619668 L3 248.36824211164722 L4 247.75402294460932 L5 247.1455481356836 L6 246.54237013877767 L7 245.94405559766776 L8 245.35018402574843 L9 244.76034656003972 L10 244.17414478127557 L11 243.59118959255588 L12 243.01110014961836 L13 242.43350283628536 L14 241.85803027906996 L15 241.28432039529494 L16 240.7120154693882 L17 240.14076125227913 L18 239.57020607902967 L19 239 L20 238.42979392097033 L21 237.85923874772087 L22 237.2879845306118 L23 236.71567960470506 L24 236.14196972093004 L25 235.56649716371464 L26 234.98889985038164 L27 234.40881040744412 L28 233.82585521872443 L29 233.23965343996028 L30 232.64981597425157 L31 232.05594440233224 L32 231.45762986122233 L33 230.8544518643164 L34 230.24597705539068 L35 229.63175788835278 L36 229.01133122380332 L37 228.38421683262038 L38 227.74991579579526 L39 227.10790878863108 L40 226.45765423614267 L41 225.7985863250437 L42 225.1301128560528 L43 224.45161291836078 L44 223.7624343659428 L45 223.0618910729288 L46 222.34925994241772 L47 221.6237776398713 L48 220.8846370184924 L49 220.1309831996908 L50 219.36190926677807 L51 218.57645152429265 L52 217.77358426870393 L53 216.95221400851332 L54 216.11117306276861 L55 215.24921245649497 L56 214.36499401924007 L57 213.45708157848225 L58 212.52393112264102 L59 211.5638797883425 L60 210.57513350279976 L61 209.55575308389191 L62 208.5036385668125 L63 207.41651148581605 L64 206.29189479114495 L65 205.1270900228165 L66 203.9191512922647 L67 202.66485553692783 L68 201.36066840801834 L69 200.00270502314743 L70 198.58668465709079 L71 197.10787824788846 L72 195.56104735142026 L73 193.94037287219987 L74 192.23937151375253 L75 190.45079740522368 L76 188.56652574060666 L77 186.57741447118914 L78 184.47313906351457 L79 182.2419939963185 L80 179.87065291271762 L81 177.34387701793472 L82 174.64415820581104 L83 171.75127920659978 L84 168.6417673371098 L85 165.28821056332447 L86 161.65839360811196 L87 157.71419632773478 L88 153.41017436229538 L89 148.6917097487992 L90 143.49257140077876 L91 137.73165341675553 L92 131.3085487045632 L93 124.09744201578705 L94 115.93852767071435 L95 106.62569664303263 L96 95.88845326776845 L97 83.36463930019917 L98 68.55800871082019 L99 50.769835483016976 L100 28.983905584989117 L101 1.6630737955442498 L102 -33.63361237020706 L103 -81.02967142367118 L104 -148.08281311011297 L105 -250.30019926346165 L106 -425.31935124085715 L107 -794.2834613415619 L108 -2081.8852231965443 L109 9692.160649969277 L110 1795.4098793956452 L111 1086.7326139159786 L112 821.2574865396674 L113 682.1948978353125 L114 596.5741759079131 L115 538.5243003280625 L116 496.5527610884409 L117 464.77510291045155 L118 439.8661177706215 L119 419.804958598458 L120 403.292685884858 L121 389.45633420819996 L122 377.687523237346 L123 367.54927505464934 L124 358.71962105857017 L125 350.9560988956384 L126 344.07263624594043 L127 337.9240565357972 L128 332.39542733422996 L129 327.3945730367494 L130 322.8467068829451 L131 318.6905139628833 L132 314.8752473596334 L133 311.35854433709426 L134 308.1047625375945 L135 305.08369723997794 L136 302.26958160062424 L137 299.6402996261011 L138 297.1767608749565 L139 294.86239939802874 L140 292.68276904050805 L141 290.6252141554928 L142 288.67859982746506 L143 286.83308942407825 L144 285.0799600634108 L145 283.41144866418006 L146 281.8206228234026 L147 280.3012719714095 L148 278.8478151827692 L149 277.45522274239534 L150 276.11894912938857 L151 274.83487552429693 L152 273.5992602962856 L153 272.4086962060776 L154 271.2600732842681 L155 270.15054652476124 L156 269.0775076788779 L157 268.038560554251 L158 267.03149931950276 L159 266.0542893952061 L160 265.10505057716057 L161 264.1820420922423 L162 263.2836493321406 L163 262.40837204786294 L164 261.5548138193315 L165 260.7216726408016 L166 259.9077324850767 L167 259.11185572830374 L168 258.3329763330743 L169 257.5700937011148 L170 256.8222671184125 L171 256.08861072550815 L172 255.36828895416087 L173 254.660512378877 L174 253.9645339380667 L175 253.2796454850131 L176 252.6051746335261 L177 251.9404818672191 L178 251.28495788488047 L179 250.63802115748626 L180 249.99911567508096 L181 249.36770886409718 L182 248.74328965772995 L183 248.12536670377654 L184 247.51346669592328 L185 246.90713281583922 L186 246.30592327464635 L187 245.7094099433974 L188 245.1171770631244 L189 244.52882002583658 L190 243.94394421856208 L191 243.36216392315114 L192 242.783101265103 L193 242.20638520514797 L194 241.631650567722 L195 241.0585371008161 L196 240.48668856197287 L197 239.91575182544284 L198 239.3453760057052 L199 238.77521159270592 L200 238.2049095942711 L201 237.6341206812185 L202 237.06249433071335 L203 236.4896779633999 L204 235.9153160697836 L205 235.33904932124216 L206 234.7605136609063 L207 234.17933936946537 L208 233.59515010072724 L209 233.00756188147867 L210 232.41618206986251 L211 231.82060826609364 L212 231.22042716888114 L213 230.615213370396 L214 230.00452808201763 L215 229.38791778239758 L216 228.76491277858503 L217 228.13502567005227 L218 227.49774970442644 L219 226.85255701255633 L220 226.19889670920267 L221 225.53619284411187 L222 224.86384218648948 L223 224.1812118238989 L224 223.48763655433513 L225 222.78241604761755 L226 222.06481174925986 L227 221.3340434965438 L228 220.58928581257865 L229 219.82966383957805 L230 219.0542488673324 L231 218.26205340677305 L232 217.45202575146715 L233 216.62304396167707 L234 215.77390919604997 L235 214.9033383048221 L236 214.00995558531514 L237 213.09228358510015 L238 212.1487328200485 L239 211.17759025302388 L240 210.17700635351088 L241 209.14498052818243 L242 208.07934467623772 L243 206.97774457999986 L244 205.8376187891364 L245 204.6561745939285 L246 203.43036060671992 L247 202.1568353777978 L248 200.83193135839136 L249 199.45161338396935 L250 198.01143067882344 L251 196.5064611693007 L252 194.9312466266168 L253 193.27971682603098 L254 191.5451004876039 L255 189.7198202286447 L256 187.79536807422198 L257 185.76215719247034 L258 183.60934438142965 L259 181.32461634527863 L260 178.89393083727484 L261 176.30120114237573 L262 173.5279088806385 L263 170.55262538374484 L264 167.3504154246598 L265 163.89208811964838 L266 160.14324726214738 L267 156.06307550827935 L268 151.60276112692134 L269 146.7034383998169 L270 141.29345673366146 L271 135.28470855919272 L272 128.5676144907408 L273 121.00415575109115 L274 112.41800518296462 L275 102.58024215693496 L276 91.18816014459563 L277 77.83292881341413 L278 61.94861508746163 L279 42.7286942625077 L280 18.982987308560098 L281 -11.121263721294184 L282 -50.56073578085807 L283 -104.5135222328023 L284 -182.85585439982964 L285 -307.05366729898117 L286 -534.2214604439457 L287 -1083.6599942065122 L288 -4321.444400216311 L289 3389.953644822917 L290 1409.6865569087106 L291 957.6188888439657 L292 757.1964131861012 L293 643.994720167982 L294 571.2163343819044 L295 520.4629394791879 L296 483.03051934388236 L297 454.26748564158055 L298 431.46214263793394 L299 412.9268992131457 L300 397.55651633883315 L301 384.59685680917516 L302 373.51572180602625 L303 363.9267996591367 L304 355.5428812384688 L305 348.14599421985696 L306 341.5677238313229 L307 335.6758846818504 L308 330.3652744313896 L309 325.55112168827355 L310 321.1643546562943 L311 317.14812636725037 L312 313.4552236466981 L313 310.04610825586644 L314 306.88741729073456 L315 303.9508019418105 L316 301.21201877154533 L317 298.6502116855785 L318 296.24733948800554 L319 293.9877157075842 L320 291.8576358177729 L321 289.84507307991424 L322 287.93942870921774 L323 286.1313253704519 L324 284.4124354811938 L325 282.7753376636797 L326 281.2133961034127 L327 279.7206586593014 L328 278.2917704097174 L329 276.92189997230366 L330 275.6066764474158 L331 274.34213523892 L332 273.12467132654007 L333 271.9509988197295 L334 270.8181158283303 L335 269.72327385092024 L336 268.6639510160529 L337 267.63782862103034 L338 266.6427705024164 L339 265.6768048461348 L340 264.73810810578306 L341 263.8249907481774 L342 262.93588458706466 L343 262.0693315009452 L344 261.2239733602899 L345 260.3985430141039 L346 259.5918562066051 L347 258.80280431239817 L348 258.03034779347684 L349 257.27351029411676 L350 256.5313733005847 L351 255.8030713018939 L352 255.0877873958142 L353 254.38474929121145 L354 253.6932256637151 L355 253.01252282682438 L356 252.34198168499944 L357 251.6809749391272 L358 251.02890451809674 L359 250.38519921313178 L360 249.74931249406856 L361 249.12072048898938 L362 248.49892011056315 L363 247.88342731414886 L364 247.27377547420713 L365 246.66951386687668 L366 246.0702062477204 L367 245.47542951465334 L368 244.88477244695142 L369 244.297834512012 L370 243.71422473221793 L371 243.13356060484546 L372 242.5554670684722 L373 241.9795755097842 L374 241.40552280506162 L375 240.8329503909468 L376 240.261503359367 L377 239.69082957170596 L378 239.12057878749238 L379 238.55040180300483 L380 237.9799495952813 L381 237.40887246707024 L382 236.83681918826835 L383 236.26343612935878 L384 235.68836638229172 L385 235.11124886413663 L386 234.53171739867858 L387 233.94939977093168 L388 233.3639167492921 L389 232.77488106975477 L390 232.18189637626108 L391 231.5845561108289 L392 230.98244234663272 L393 230.3751245566441 L394 229.76215830980362 L395 229.14308388596112 L396 228.51742479998674 L397 227.88468622449932 L398 227.24435329957282 L399 226.595889316542 L400 225.93873376161667 L401 225.27230020340474 L402 224.59597400660678 L403 223.90910985204678 L404 223.2110290408034 L405 222.50101655745772 L406 221.7783178643188 L407 221.04213539486523 L408 220.29162471046726 L409 219.525890279641 L410 218.74398083352108 L411 217.94488424479113 L412 217.12752186982402 L413 216.29074228506943 L414 215.43331433855406 L415 214.55391942546098 L416 213.65114288279023 L417 212.72346438167546 L418 211.76924717654293 L419 210.7867260473492 L420 209.7739937438809 L421 208.72898570862407 L422 207.649462815886 L423 206.5329918182579 L424 205.37692313538795 L425 204.1783655521673 L426 202.93415731102775 L427 201.64083298256335 L428 200.29458537559213 L429 198.89122159629164 L430 197.42611217868136 L431 195.89413197581828 L432 194.28959120995114 L433 192.60615471393436 L434 190.8367469334278 L435 188.97343967047394 L436 187.00731879455077 L437 184.92832517375138 L438 182.72506381340807 L439 180.38457353163838 L440 177.8920473108551 L441 175.23049054408432 L442 172.3803004644529 L443 169.31874470157345 L444 166.01930956086557 L445 162.45087840079 L446 158.57668608327674 L447 154.35297490586186 L448 149.7272476088732 L449 144.63596912350465 L450 139.0015028528956 L451 132.7279665596829 L452 125.69553561142793 L453 117.75246971024585 L454 108.70372601465556 L455 98.29432258473594 L456 86.18439349848052 L457 71.91065541266357 L458 54.824787216274075 L459 33.990794892420695 L460 8.005537937525304 L461 -25.334263828212954 L462 -69.69722171067093 L463 -131.67841378383787 L464 -224.44438534362695 L465 -378.6334280400538 L466 -685.7236207904994 L467 -1597.9260926805723 L468 -129554.76338435612 L469 2129.4522984128275 L470 1177.1071976975206 L471 862.5845484086193 L472 705.7942482233652 L473 611.824285631615 L474 549.1890804681043 L475 504.43177704994 L476 470.83603271293737 L477 444.67530492938783 L478 423.7158018109923 L479 406.53707225163055 L480 392.1927079169983 L481 380.02781745023947 L482 369.5748063160041 L483 360.49088464100475 L484 352.51903065604756 L485 345.46274338683673 L486 339.1692178271103 L487 333.517837227597 L488 328.41212017322175 L489 323.7739700644824 L490 319.53949394130603 L491 315.65591272494265 L492 312.0792443569414 L493 308.77254329952206 L494 305.70454652482806 L495 302.84862055082164 L496 300.18193422339533 L497 297.68480272707416 L498 295.34016285167513 L499 293.13314986257035 " stroke = "red" stroke-width = "4" fill = "none" /></svg>