<svg width="500" height="500" viewbox = "0 0 500 500"  xmlns="http://www.w3.org/2000/svg">

<!--
<topfunctions>


//put helper functions here, along with contsants and variables


function YofX(){
    
    X = currentjson.plotparams.g*(x - currentjson.plotparams.x0);
    Y =  Math.exp(-X/A)*Math.sin(X);
    y = currentjson.plotparams.y0 - currentjson.plotparams.G*(Y);

}




function plotfunction(){
    /*plot one function:*/
    currentStroke = currentjson.style.color;
    currentLineWidth = currentjson.style.linewidth;
    ctx.strokeStyle = currentStroke;
    ctx.lineWidth = currentLineWidth;
    ctx.beginPath();	
    x = 0;
    YofX();
    currentSVG += "	<path d = \"M";
    currentSVG += Math.round(x).toString() + " ";
    currentSVG += Math.round(y).toString() + " ";
    for(x = 1;x < currentjson.plotparams.plotwidth;x++){
        ctx.moveTo(x-1,y);
        YofX();
        ctx.lineTo(x,y);
        currentSVG += "L" + x + " " + y + " ";
    }
    ctx.stroke();
    currentSVG += "\""+ " stroke = \"" + currentStroke + "\" stroke-width = \"" + currentLineWidth.toString() + "\" fill = \"" + "none" + "\" "+"/>";
    /*finish plot one function*/

}





























</topfunctions>
-->

<!--
<currentjson>
{
    "constants": {},
    "YofXstring": "tau = 100;Y =  Math.exp(-X/tau)*Math.sin(X)",
    "style": {
        "linewidth": 4,
        "color": "blue",
        "fill": "none"
    },
    "plotparams": {
        "G": 78.47599703514612,
        "g": 0.13183254493651786,
        "duration": 450.78888054094654,
        "plotwidth": 500,
        "plotheight": 500,
        "x0": "0",
        "y0": 200
    },
    "funcparams": {},
    "image": {
        "url": "",
        "xoverw": 0.038011695906432746,
        "yoverw": -0.08771929824561403,
        "woverw": 0.8536631795472632,
        "angle": "0"
    },
    "A": 6.812920690579613,
    "B": 1
}
</currentjson>
-->

<!--
<equation>
# Equations
$$X = g(x - x_0)$$
$$Y = \sin{(X)}$$
$$y = y_0 - GY$$ 
</equation>
-->
	<path d = "M0 200 L1 189.88194593636933 L2 180.32393407032745 L3 171.47091195690086 L4 163.45006542396607 L5 156.36928115474953 L6 150.3160032323803 L7 145.3564885750708 L8 141.5354590669586 L9 138.87614137468833 L10 137.3806790402423 L11 137.03089555185366 L12 137.7893818000672 L13 139.60087669467353 L14 142.3939058056848 L15 146.08263973849623 L16 150.56893158588224 L17 155.74449122885844 L18 161.49315348176262 L19 167.693197077538 L20 174.21967223761675 L21 180.94669602560552 L22 187.7496767930503 L23 194.50743172739328 L24 201.10416473734477 L25 207.4312755833327 L26 213.3889751996163 L27 218.88768647591363 L28 223.8492142841344 L29 228.20767316400685 L30 231.91016573537033 L31 234.917209502763 L32 237.20291418184163 L33 238.75491593459375 L34 239.57407888503997 L35 239.6739779402394 L36 239.08018021196762 L37 237.82934518007986 L38 235.96816612595603 L39 233.55217726942087 L40 230.64445245033582 L41 227.31422210105708 L42 223.63543566149775 L43 219.68529650653153 L44 215.54279590586083 L45 211.2872715465558 L46 206.99701475217742 L47 202.7479487694396 L48 198.6123984083125 L49 194.65796896281205 L50 190.9465497588556 L51 187.53345492581138 L52 184.46671112395276 L53 181.78649903511266 L54 179.52475249157752 L55 177.70491622993228 L56 176.34186046072801 L57 175.44194778659474 L58 175.00324552177216 L59 175.01587420131375 L60 175.46248104966207 L61 176.31882543164983 L62 177.55446185430355 L63 179.13350493932802 L64 181.01545995217597 L65 183.15610195672514 L66 185.50838646174105 L67 188.02337452810704 L68 190.65115570086172 L69 193.3417527994336 L70 196.04599352105362 L71 198.7163349605522 L72 201.30762849604372 L73 203.7778140034349 L74 206.08853401060054 L75 208.20566015069346 L76 210.09972608916212 L77 211.74626294655008 L78 213.1260350856962 L79 214.22517594546034 L80 215.03522535329265 L81 215.55307140781076 L82 215.7808015646672 L83 215.72546896200072 L84 215.39878126654543 L85 214.81672039238734 L86 213.9991023293833 L87 212.9690870090611 L88 211.75264862776018 L89 210.3780171388468 L90 208.87510172055056 L91 207.274906929171 L92 205.60895196804017 L93 203.90870305249544 L94 202.20502824452 L95 200.52768338413827 L96 198.90483687640514 L97 197.36264012261742 L98 195.92484933294702 L99 194.61250334641352 L100 193.44366093457683 L101 192.433199898979 L102 191.59267911011918 L103 190.93026349766282 L104 190.45071090653693 L105 190.15541869895705 L106 190.04252702396627 L107 190.10707480751606 L108 190.34120374917643 L109 190.7344049557057 L110 191.2738023041272 L111 191.94446621250995 L112 192.72975120786504 L113 193.6116505177002 L114 194.57116087287596 L115 195.58865079044452 L116 196.6442258001694 L117 197.71808437969818 L118 198.79085876162196 L119 199.84393526029513 L120 200.85974932560086 L121 201.8220511522731 L122 202.71613834375543 L123 203.52905283538257 L124 204.24974000928674 L125 204.86916866938137 L126 205.38041127594346 L127 205.77868455317068 L128 206.06135126787316 L129 206.22788462236917 L130 206.27979729998745 L131 206.22053773886628 L132 206.05535668184072 L133 205.79114745139063 L134 205.43626372459778 L135 205.0003188310179 L136 204.49397076496317 L137 203.928697192992 L138 203.31656474887436 L139 202.66999684469835 L140 202.00154409205928 L141 201.3236612264744 L142 200.64849416728947 L143 199.98768053120813 L144 199.35216655766376 L145 198.75204300656523 L146 198.1964021618279 L147 197.69321762609928 L148 197.2492481317834 L149 196.86996612933441 L150 196.55951145404094 L151 196.32066992499028 L152 196.1548763019008 L153 196.0622406237456 L154 196.04159658354973 L155 196.09057026163003 L156 196.20566724921582 L157 196.38237594930257 L158 196.61528464429347 L159 196.89820977209237 L160 197.22433275452147 L161 197.58634267404955 L162 197.97658209576505 L163 198.38719337944758 L164 198.8102629188623 L165 199.23796087873552 L166 199.6626741703921 L167 200.07713061036506 L168 200.4745124376479 L169 200.84855761956044 L170 201.19364764814682 L171 201.50488081322308 L172 201.77813022923107 L173 202.0100861856174 L174 202.1982826793932 L175 202.34110826895844 L176 202.43780165563703 L177 202.48843264951503 L178 202.49386940540614 L179 202.45573301989575 L180 202.3763407587825 L181 202.25863933376118 L182 202.10612976636736 L183 201.92278546510965 L184 201.71296519801197 L185 201.4813226676937 L186 201.23271439039033 L187 200.97210754522334 L188 200.70448939728874 L189 200.43477980989354 L190 200.16774825002636 L191 199.90793655971308 L192 199.65958861733148 L193 199.42658785047627 L194 199.2124033889281 L195 199.02004546610084 L196 198.8520304934211 L197 198.71035604777487 L198 198.5964858306595 L199 198.51134448205096 L200 198.45532196507028 L201 198.42828708188242 L202 198.429609539159 L203 198.4581898548484 L204 198.51249628852585 L205 198.59060788650442 L206 198.69026266105504 L207 198.80890987103288 L208 198.94376533908832 L209 199.09186872825995 L210 199.25014170756592 L211 199.41544596138453 L212 199.584640039809 L213 199.75463410538413 L214 199.92244170407173 L215 200.08522777314568 L216 200.2403521940428 L217 200.38540830193375 L218 200.51825587380765 L219 200.63704823103322 L220 200.74025320852348 L221 200.82666785869617 L222 200.89542687237434 L223 200.94600480870673 L224 200.9782123303499 L225 200.99218673694836 L226 200.98837717797454 L227 200.96752500404622 L228 200.93063978294995 L229 200.87897156200995 L230 200.81398000163557 L231 200.73730103556983 L232 200.65071173148482 L233 200.55609403129287 L234 200.45539804423356 L235 200.35060554802246 L236 200.24369432485477 L237 200.13660392074507 L238 200.03120336959373 L239 199.92926136865353 L240 199.83241933096718 L241 199.7421676741618 L242 199.65982563506623 L243 199.58652482731625 L244 199.5231966857813 L245 199.47056386859606 L246 199.429135616074 L247 199.3992069969993 L248 199.380861907833 L249 199.37397963021334 L250 199.37824469764158 L251 199.39315977415674 L252 199.41806120670805 L253 199.45213687928225 L254 199.49444597093606 L255 199.5439402018797 L256 199.5994861416678 L257 199.6598881512528 L258 199.7239115358925 L259 199.79030549829247 L260 199.85782550042725 L261 199.92525466762999 L262 199.99142389910443 L263 200.0552303842568 L264 200.1156542633777 L265 200.1717732133994 L266 200.22277478385828 L267 200.26796635395397 L268 200.3067826278649 L269 200.33879063143308 L270 200.36369221818026 L271 200.38132413562755 L272 200.39165574337875 L273 200.3947845117918 L274 200.39092946376476 L275 200.380422751762 L276 200.3636995873399 L277 200.3412867608318 L278 200.31379000434734 L279 200.2818804617452 L280 200.24628053475695 L281 200.20774937507215 L282 200.16706828810686 L283 200.12502630562716 L284 200.08240617170068 L285 200.03997096998032 L286 199.99845160051734 L287 199.9585352916242 L288 199.92085530726675 L289 199.88598198358292 L290 199.854415199942 L291 199.82657836101012 L292 199.80281393711033 L293 199.78338058127204 L294 199.7684518132493 L295 199.75811623390737 L296 199.7523792081549 L297 199.75116593140817 L298 199.75432577374275 L299 199.76163777768824 L300 199.7728171702683 L301 199.78752273754455 L302 199.80536490068323 L303 199.82591432647666 L304 199.84871090229956 L305 199.8732729055968 L306 199.89910620106696 L307 199.925713304557 L308 199.95260216111288 L309 199.97929449539234 L310 200.0053336054659 L311 200.03029148560628 L312 200.05377517967835 L313 200.07543228385597 L314 200.0949555352695 L315 200.11208644149022 L316 200.1266179241483 L317 200.13839596813818 L318 200.14732028548278 L319 200.15334401971646 L320 200.15647253235153 L321 200.15676132737545 L322 200.15431318259255 L323 200.1492745678033 L324 200.1418314391796 L325 200.13220450664943 L326 200.12064407659327 L327 200.1074245756565 L328 200.0928388630099 L329 200.0771924379955 L330 200.0607976478542 L331 200.04396799625593 L332 200.02701264777656 L333 200.01023121644684 L334 199.99390891821324 L335 199.97831215779146 L336 199.9636846101645 L337 199.95024384608766 L338 199.93817853962975 L339 199.92764628421432 L340 199.9187720320395 L341 199.9116471603487 L342 199.90632915699405 L343 199.90284190725004 L344 199.90117655406664 L345 199.90129289503307 L346 199.9031212713864 L347 199.9065648975372 L348 199.91150257388085 L349 199.9177917211703 L350 199.92527167147756 L351 199.93376714877618 L352 199.94309187142068 L353 199.95305220925147 L354 199.96345082965658 L355 199.97409026960673 L356 199.98477637435903 L357 199.99532154809313 L358 200.00554776709365 L359 200.01528931209495 L360 200.02439518293596 L361 200.03273116559575 L362 200.0401815288612 L363 200.04665033518313 L364 200.05206235757146 L365 200.05636360154068 L366 200.0595214380221 L367 200.0615243597002 L368 200.06238137930507 L369 200.0621210939166 L370 200.0607904442299 L371 200.05845320193748 L372 200.05518822185235 L373 200.0510874980977 L374 200.04625406560223 L375 200.0407997892654 L376 200.03484308350195 L377 200.0285066044636 L378 200.02191495610668 L379 200.01519244946957 L380 200.00846095210468 L381 200.00183786163993 L382 199.99543423399567 L383 199.98935309293535 L384 199.98368794346203 L385 199.97852150717344 L386 199.9739246931413 L387 199.96995581326934 L388 199.96666004649416 L389 199.96406915169956 L390 199.96220142489463 L391 199.96106189212844 L392 199.96064272583692 L393 199.96092386890078 L394 199.96187384767708 L395 199.96345075269303 L396 199.96560336358317 L397 199.96827239323292 L398 199.97139182496807 L399 199.9748903160051 L400 199.97869264024223 L401 199.98272114380848 L402 199.98689718757504 L403 199.99114255204003 L404 199.99538078158477 L405 199.99953844702725 L406 200.00354630761967 L407 200.00734035610066 L408 200.0108627330689 L409 200.01406249973863 L410 200.01689626101523 L411 200.01932863373807 L412 200.021332557826 L413 200.0228894508784 L414 200.02398920948596 L415 200.0246300630476 L416 200.02481828823485 L417 200.02456779435846 L418 200.02389959174874 L419 200.02284115683477 L420 200.0214257088849 L421 200.01969141433892 L422 200.0176805353172 L423 200.01543853923192 L424 200.01301318646128 L425 200.01045361278346 L426 200.0078094227255 L427 200.00512980917873 L428 200.00246271359288 L429 199.99985403981222 L430 199.99734693318828 L431 199.9949811350268 L432 199.9927924207348 L433 199.9908121282611 L434 199.9890667816022 L435 199.98757781231177 L436 199.98636138013657 L437 199.98542829213437 L438 199.98478401794202 L439 199.9844287972782 L440 199.98435783431026 L441 199.9845615722071 L442 199.98502604006077 L443 199.98573326339593 L444 199.98666172871552 L445 199.98778689195257 L446 199.98908172032037 L447 199.99051725687013 L448 199.99206319707747 L449 199.993688466974 L450 199.99536179271252 L451 199.99705225198645 L452 199.9987297984034 L453 200.00036575072136 L454 200.00193323977356 L455 200.00340760691674 L456 200.00476674891414 L457 200.00599140528934 L458 200.00706538533814 L459 200.00797573314128 L460 200.00871283006228 L461 200.00927043532124 L462 200.00964566628957 L463 200.00983892113675 L464 200.0098537473627 L465 200.00969666055587 L466 200.0093769184186 L467 200.00890625568715 L468 200.00829858604044 L469 200.0075696774347 L470 200.00673680751794 L471 200.00581840587276 L472 200.00483368980915 L473 200.00380230028458 L474 200.0027439442785 L475 200.00167804959457 L476 200.0006234376217 L477 199.99959801906292 L478 199.9986185170509 L479 199.99770022142556 L480 199.9968567772635 L481 199.99610001003683 L482 199.99543978905052 L483 199.99488393008082 L484 199.99443813741877 L485 199.9941059848314 L486 199.99388893429398 L487 199.9937863907339 L488 199.99379579046706 L489 199.99391272051002 L490 199.99413106552097 L491 199.99444317876532 L492 199.99484007322152 L493 199.9953116287385 L494 199.99584681103374 L495 199.99643389827403 L496 199.9970607110108 L497 199.99771484134442 L498 199.99838387736193 L499 199.9990556191244 " stroke = "blue" stroke-width = "4" fill = "none" /></svg>