<svg width="500" height="500" viewbox = "0 0 500 500"  xmlns="http://www.w3.org/2000/svg">

<!--
<topfunctions>


//put helper functions here, along with contsants and variables


function YofX(){
    
    X = currentjson.plotparams.g*(x - currentjson.plotparams.x0);
    Y =  Math.exp(-X/A)*Math.sin(X);
    y = currentjson.plotparams.y0 - currentjson.plotparams.G*(Y);

}




function plotfunction(){
    /*plot one function:*/
    currentStroke = currentjson.style.color;
    currentLineWidth = currentjson.style.linewidth;
    ctx.strokeStyle = currentStroke;
    ctx.lineWidth = currentLineWidth;
    ctx.beginPath();	
    x = 0;
    YofX();
    currentSVG += "	<path d = \"M";
    currentSVG += Math.round(x).toString() + " ";
    currentSVG += Math.round(y).toString() + " ";
    for(x = 1;x < currentjson.plotparams.plotwidth;x++){
        ctx.moveTo(x-1,y);
        YofX();
        ctx.lineTo(x,y);
        currentSVG += "L" + x + " " + y + " ";
    }
    ctx.stroke();
    currentSVG += "\""+ " stroke = \"" + currentStroke + "\" stroke-width = \"" + currentLineWidth.toString() + "\" fill = \"" + "none" + "\" "+"/>";
    /*finish plot one function*/

}





























</topfunctions>
-->

<!--
<currentjson>
{
    "constants": {},
    "YofXstring": "tau = 100;Y =  Math.exp(-X/tau)*Math.sin(X)",
    "style": {
        "linewidth": 4,
        "color": "blue",
        "fill": "none"
    },
    "plotparams": {
        "G": 317.29409395051727,
        "g": 0.028307008866980045,
        "duration": 450.78888054094654,
        "plotwidth": 500,
        "plotheight": 500,
        "x0": "0",
        "y0": 200
    },
    "funcparams": {},
    "image": {
        "url": "",
        "xoverw": 0.038011695906432746,
        "yoverw": -0.08771929824561403,
        "woverw": 0.8536631795472632,
        "angle": "0"
    },
    "A": 2.2058056838408575,
    "B": 1
}
</currentjson>
-->

<!--
<equation>
# Equations
$$X = g(x - x_0)$$
$$Y = \sin{(X)}$$
$$y = y_0 - GY$$ 
</equation>
-->
	<path d = "M0 200 L1 191.13406207322797 L2 182.50123578793017 L3 174.10384654464167 L4 165.94393630609972 L5 158.02326883214806 L6 150.34333504728744 L7 142.90535853239277 L8 135.71030113221357 L9 128.75886867037707 L10 122.05151676371896 L11 115.5884567278815 L12 109.36966156623392 L13 103.39487203429324 L14 97.66360277194885 L15 92.17514849592546 L16 86.92859024505262 L17 81.9228016710473 L18 77.1564553676573 L19 72.62802923115797 L20 68.33581284534239 L21 64.27791388429554 L22 60.452264526396505 L23 56.85662787314675 L24 53.48860436658279 L25 50.34563819918765 L26 47.42502371038006 L27 44.72391176382138 L28 42.23931609994429 L29 39.96811965827422 L30 37.90708086427952 L31 36.05283987565355 L32 34.40192478310186 L33 32.95075776087151 L34 31.695661162433538 L35 30.632863556893625 L36 29.758505701877823 L37 29.06864644880585 L38 28.55926857663536 L39 28.226284550325744 L40 28.06554220043799 L41 28.07283032045251 L42 28.243884178553174 L43 28.57439094078785 L44 29.059995002679784 L45 29.696303226526595 L46 30.47889008177995 L47 31.403302686062574 L48 32.465065744531415 L49 33.659686385453 L50 34.982658890010725 L51 36.429469314511806 L52 37.995600003314905 L53 39.67653399094212 L54 41.467759291986454 L55 43.364773077566895 L56 45.363085737223116 L57 47.45822482527919 L58 49.645738890840846 L59 51.92120119072217 L60 54.28021328472795 L61 56.71840851284409 L62 59.231455354012525 L63 61.81506066628833 L64 64.46497280829513 L65 67.1769846420093 L66 69.94693641701767 L67 72.77071853650035 L68 75.64427420529921 L69 78.56360196053387 L70 81.52475808532863 L71 84.52385890631032 L72 87.55708297563132 L73 90.62067313836273 L74 93.710938486192 L75 96.82425619844125 L76 99.95707327150708 L77 103.10590813789986 L78 106.26735217613576 L79 109.43807111280717 L80 112.61480631822762 L81 115.79437599711127 L82 118.9736762758117 L83 122.14968218770498 L84 125.31944855835731 L85 128.48011079217264 L86 131.62888556226784 L87 134.76307140536764 L88 137.8800492235606 L89 140.97728269479674 L90 144.05231859404802 L91 147.1027870270891 L92 150.12640157889 L93 153.12095937864223 L94 156.08434108346898 L95 159.01451078289602 L96 161.90951582618123 L97 164.76748657462304 L98 167.5866360809845 L99 170.36525969818564 L100 173.10173461942952 L101 175.79451935193794 L102 178.44215312648123 L103 181.04325524489155 L104 183.59652436775386 L105 186.10073774446954 L106 188.5547503878871 L107 190.95749419569148 L108 193.30797702073946 L109 195.60528169252066 L110 197.84856499191628 L111 200.0370565814163 L112 202.17005789294436 L113 204.24694097542434 L114 206.26714730420883 L115 208.23018655446998 L116 210.13563534063658 L117 211.98313592393941 L118 213.77239489010532 L119 215.50318179921777 L120 217.1753278097363 L121 218.78872427864218 L122 220.34332133964958 L123 221.83912646139459 L124 223.27620298748369 L125 224.65466866025403 L126 225.9746941300657 L127 227.2365014519144 L128 228.440362571119 L129 229.58659779980562 L130 230.67557428587347 L131 231.70770447609337 L132 232.68344457495346 L133 233.60329300082876 L134 234.4677888410154 L135 235.27751030713108 L136 236.03307319234568 L137 236.73512933186652 L138 237.38436506806428 L139 237.98149972158544 L140 238.5272840697573 L141 239.0224988335523 L142 239.46795317433714 L143 239.86448320159246 L144 240.212950492748 L145 240.51424062623795 L146 240.76926172884026 L147 240.97894303832322 L148 241.144233482382 L149 241.26610027480774 L150 241.34552752979107 L151 241.383514895222 L152 241.38107620580809 L153 241.339238156793 L154 241.25903899901846 L155 241.14152725603304 L156 240.98776046391225 L157 240.79880393441667 L158 240.5757295420756 L159 240.31961453574735 L160 240.03154037516833 L161 239.7125915929682 L162 239.3638546825901 L163 238.9864170125206 L164 238.581365767198 L165 238.14978691493258 L166 237.6927642031388 L167 237.211378181146 L168 236.70670525081923 L169 236.17981674519285 L170 235.6317780352835 L171 235.06364766522228 L172 234.47647651581136 L173 233.871306996584 L174 233.24917226641503 L175 232.61109548270227 L176 231.95808907911035 L177 231.29115407184264 L178 230.6112793943792 L179 229.9194412605942 L180 229.21660255614117 L181 228.5037122579698 L182 227.78170488181536 L183 227.05149995747846 L184 226.31400153169167 L185 225.57009769834787 L186 224.82066015584493 L187 224.06654379128187 L188 223.30858629122244 L189 222.54760777872426 L190 221.784410476314 L191 221.0197783945727 L192 220.25447704597883 L193 219.48925318364257 L194 218.72483456454904 L195 217.96192973691595 L196 217.20122785125673 L197 216.44339849472914 L198 215.68909154833682 L199 214.93893706654129 L200 214.1935451788313 L201 213.45350601278653 L202 212.71938963816498 L203 211.99174603153432 L204 211.2711050609602 L205 210.55797649025848 L206 209.85285000231087 L207 209.15619524093913 L208 208.46846187082747 L209 207.79007965497894 L210 207.12145854918725 L211 206.4629888130029 L212 205.81504113667032 L213 205.17796678350928 L214 204.55209774721456 L215 203.9377469235451 L216 203.33520829587442 L217 202.74475713407452 L218 202.16665020620533 L219 201.6011260024833 L220 201.04840497100494 L221 200.50868976470204 L222 199.9821654990089 L223 199.46900001972412 L224 198.96934418055366 L225 198.4833321298243 L226 198.01108160586293 L227 197.55269424053924 L228 197.1082558704764 L229 196.677836855438 L230 196.26149240340612 L231 195.8592629018712 L232 195.47117425485965 L233 195.0972382252333 L234 194.7374527818001 L235 194.39180245078327 L236 194.06025867120357 L237 193.74278015373613 L238 193.4393132426121 L239 193.1497922801426 L240 192.8741399734509 L241 192.61226776300717 L242 192.36407619256897 L243 192.12945528013842 L244 191.90828488955734 L245 191.70043510236928 L246 191.50576658958727 L247 191.32413098301515 L248 191.15537124577975 L249 190.99932204174027 L250 190.8558101034517 L251 190.72465459836718 L252 190.60566749297544 L253 190.4986539145779 L254 190.40341251042065 L255 190.3197358039055 L256 190.2474105476147 L257 190.18621807289324 L258 190.13593463574276 L259 190.0963317587905 L260 190.06717656910698 L261 190.04823213165474 L262 190.039257778162 L263 190.04000943122236 L264 190.0502399234332 L265 190.06969931139398 L266 190.09813518439526 L267 190.13529296763843 L268 190.18091621983592 L269 190.23474692505002 L270 190.2965257786387 L271 190.36599246718433 L272 190.44288594229127 L273 190.5269446881465 L274 190.6179069827462 L275 190.71551115269958 L276 190.81949582152978 L277 190.9296001513999 L278 191.04556407820027 L279 191.16712853994073 L280 191.2940356984002 L281 191.42602915399257 L282 191.56285415381646 L283 191.70425779286245 L284 191.84998920836006 L285 191.99979976725243 L286 192.15344324679427 L287 192.31067600827504 L288 192.47125716387615 L289 192.63494873667665 L290 192.80151581382876 L291 192.97072669292993 L292 193.1423530216247 L293 193.31616993047444 L294 193.49195615913874 L295 193.66949417591798 L296 193.8485702907112 L297 194.02897476144813 L298 194.21050189405955 L299 194.39295013605422 L300 194.57612216377532 L301 194.75982496341314 L302 194.94386990585505 L303 195.1280728154577 L304 195.31225403282951 L305 195.49623847171588 L306 195.6798556700816 L307 195.86293983548958 L308 196.04532988487668 L309 196.22686947883048 L310 196.4074070504743 L311 196.586795829069 L312 196.76489385844314 L313 196.94156401036494 L314 197.11667399297158 L315 197.2900963543726 L316 197.46170848154694 L317 197.63139259465348 L318 197.7990357368766 L319 197.96452975992992 L320 198.12777130534212 L321 198.2886617816491 L322 198.4471073376183 L323 198.60301883163132 L324 198.7563117973512 L325 198.90690640580118 L326 199.05472742398234 L327 199.199704170157 L328 199.34177046592512 L329 199.48086458522064 L330 199.61692920035452 L331 199.74991132523058 L332 199.87976225586024 L333 200.00643750830093 L334 200.12989675414303 L335 200.2501037536687 L336 200.36702628680538 L337 200.48063608199595 L338 200.59090874310562 L339 200.69782367448573 L340 200.80136400431178 L341 200.90151650631344 L342 200.99827152001103 L343 201.09162286957314 L344 201.18156778140715 L345 201.2681068005936 L346 201.35124370627352 L347 201.4309854260956 L348 201.50734194982874 L349 201.58032624224384 L350 201.6499541553658 L351 201.71624434019589 L352 201.77921815800187 L353 201.83889959127146 L354 201.8953151544224 L355 201.94849380436102 L356 201.99846685097748 L357 202.04526786766567 L358 202.0889326019517 L359 202.1294988863139 L360 202.16700654927422 L361 202.20149732683925 L362 202.23301477436604 L363 202.26160417892666 L364 202.2873124722415 L365 202.3101881442508 L366 202.33028115739017 L367 202.3476428616342 L368 202.3623259103695 L369 202.37438417715668 L370 202.38387267343793 L371 202.3908474672447 L372 202.39536560295767 L373 202.3974850221691 L374 202.39726448569454 L375 202.39476349677994 L376 202.3900422255463 L377 202.38316143471303 L378 202.3741824066383 L379 202.36316687171282 L380 202.35017693814044 L381 202.33527502313802 L382 202.31852378558415 L383 202.29998606014357 L384 202.2797247928936 L385 202.25780297847555 L386 202.2342835987919 L387 202.2092295632696 L388 202.18270365070563 L389 202.15476845271124 L390 202.12548631876723 L391 202.0949193029029 L392 202.06312911200746 L393 202.0301770557826 L394 201.99612399834157 L395 201.96103031146 L396 201.92495582948058 L397 201.8879598058731 L398 201.85010087144883 L399 201.81143699422802 L400 201.77202544095576 L401 201.73192274026226 L402 201.69118464746012 L403 201.64986611097137 L404 201.60802124037437 L405 201.5657032760605 L406 201.52296456048865 L407 201.47985651102408 L408 201.43642959434803 L409 201.3927333024222 L410 201.3488161299916 L411 201.30472555360893 L412 201.26050801216078 L413 201.21620888887716 L414 201.1718724948036 L415 201.12754205371448 L416 201.0832596884452 L417 201.0390664086209 L418 200.99500209975747 L419 200.9511055137109 L420 200.90741426044937 L421 200.863964801123 L422 200.82079244240472 L423 200.77793133207527 L424 200.7354144558254 L425 200.69327363524718 L426 200.6515395269862 L427 200.61024162302635 L428 200.56940825207798 L429 200.52906658203995 L430 200.48924262350647 L431 200.4499612342888 L432 200.4112461249212 L433 200.37311986512208 L434 200.3356038911786 L435 200.29871851422567 L436 200.26248292938755 L437 200.22691522575235 L438 200.19203239714852 L439 200.15785035369257 L440 200.12438393407763 L441 200.09164691857245 L442 200.05965204270024 L443 200.0284110115671 L444 199.9979345148103 L445 199.96823224213566 L446 199.93931289941523 L447 199.91118422531483 L448 199.883853008423 L449 199.85732510485158 L450 199.83160545627973 L451 199.80669810841255 L452 199.78260622982657 L453 199.759332131174 L454 199.73687728471856 L455 199.71524234417564 L456 199.6944271648305 L457 199.67443082390793 L458 199.65525164116778 L459 199.6368871997008 L460 199.61933436690026 L461 199.60258931558448 L462 199.58664754524642 L463 199.57150390340718 L464 199.55715260704983 L465 199.54358726411155 L466 199.53080089501202 L467 199.5187859541964 L468 199.50753435167232 L469 199.4970374745201 L470 199.48728620835678 L471 199.47827095873433 L472 199.46998167245357 L473 199.4624078587753 L474 199.45553861051133 L475 199.44936262497816 L476 199.44386822479686 L477 199.4390433785232 L478 199.43487572109257 L479 199.4313525740653 L480 199.4284609656573 L481 199.4261876505434 L482 199.4245191294194 L483 199.42344166831066 L484 199.42294131761537 L485 199.42300393087075 L486 199.42361518323148 L487 199.42476058965008 L488 199.42642552274924 L489 199.4285952303772 L490 199.43125485283707 L491 199.43438943978225 L492 199.4379839667701 L493 199.442023351467 L494 199.4464924694976 L495 199.451376169933 L496 199.45665929041158 L497 199.46232667188733 L498 199.4683631730019 L499 199.47475368407507 " stroke = "blue" stroke-width = "4" fill = "none" /></svg>