<svg width="500" height="500" viewbox = "0 0 500 500"  xmlns="http://www.w3.org/2000/svg">

<!--
<topfunctions>


//put helper functions here, along with contsants and variables


function YofX(){
    
    X = currentjson.plotparams.g*(x - currentjson.plotparams.x0);
    Y =  Math.exp(-X/A)*Math.sin(X);
    y = currentjson.plotparams.y0 - currentjson.plotparams.G*(Y);

}




function plotfunction(){
    /*plot one function:*/
    currentStroke = currentjson.style.color;
    currentLineWidth = currentjson.style.linewidth;
    ctx.strokeStyle = currentStroke;
    ctx.lineWidth = currentLineWidth;
    ctx.beginPath();	
    x = 0;
    YofX();
    currentSVG += "	<path d = \"M";
    currentSVG += Math.round(x).toString() + " ";
    currentSVG += Math.round(y).toString() + " ";
    for(x = 1;x < currentjson.plotparams.plotwidth;x++){
        ctx.moveTo(x-1,y);
        YofX();
        ctx.lineTo(x,y);
        currentSVG += "L" + x + " " + y + " ";
    }
    ctx.stroke();
    currentSVG += "\""+ " stroke = \"" + currentStroke + "\" stroke-width = \"" + currentLineWidth.toString() + "\" fill = \"" + "none" + "\" "+"/>";
    /*finish plot one function*/

}





























</topfunctions>
-->

<!--
<currentjson>
{
    "constants": {},
    "YofXstring": "tau = 100;Y =  Math.exp(-X/tau)*Math.sin(X)",
    "style": {
        "linewidth": 4,
        "color": "blue",
        "fill": "none"
    },
    "plotparams": {
        "G": 317.29409395051727,
        "g": 0.2977308282016494,
        "duration": 450.78888054094654,
        "plotwidth": 500,
        "plotheight": 500,
        "x0": "0",
        "y0": 200
    },
    "funcparams": {},
    "image": {
        "url": "",
        "xoverw": 0.038011695906432746,
        "yoverw": -0.08771929824561403,
        "woverw": 0.8536631795472632,
        "angle": "0"
    },
    "A": 6.812920690579613,
    "B": 1
}
</currentjson>
-->

<!--
<equation>
# Equations
$$X = g(x - x_0)$$
$$Y = \sin{(X)}$$
$$y = y_0 - GY$$ 
</equation>
-->
	<path d = "M0 200 L1 110.90128861006089 L2 36.926893757204596 L3 -16.8229637743174 L4 -47.41536362913487 L5 -54.1556994312987 L6 -38.4601272072899 L7 -3.5570434970822475 L8 45.94240833221059 L9 104.55688157694719 L10 166.47936115394694 L11 226.10415173779617 L12 278.4924367308805 L13 319.74148467505677 L14 347.233794276735 L15 359.754785523711 L16 357.47991031542557 L17 341.84322025675453 L18 315.3086232260584 L19 281.0716577131416 L20 242.72326429323044 L21 203.90766945932924 L22 168.00431594586283 L23 137.85919909222304 L24 115.58459470370263 L25 102.43868940543571 L26 98.78878497121644 L27 104.15424873775432 L28 117.31883989030304 L29 136.49693904219458 L30 159.53486470915547 L31 184.12701558323099 L32 208.02699732643904 L33 229.2359847598517 L34 246.15401481555884 L35 257.6842928466864 L36 263.28546840531016 L37 262.9717363031962 L38 257.26512082143245 L39 247.10805118065775 L40 233.74707500942924 L41 218.60013254085086 L42 203.1201893043076 L43 188.66726739500228 L44 176.39918500149255 L45 167.18884107125348 L46 161.57294172959865 L47 159.73394949021682 L48 161.5140281945093 L49 166.4571058643167 L50 173.87308245661004 L51 182.9168036797841 L52 192.67376885638424 L53 202.24463351599962 L54 210.82133557425306 L55 217.74899496180356 L56 222.56945046197944 L57 225.0442239238108 L58 225.15665737298994 L59 223.0947821525376 L60 219.2180068773808 L61 214.01184514999392 L62 208.03557998698193 L63 201.86795991839662 L64 196.05576470602614 L65 191.06942678358223 L66 187.26893698970224 L67 184.8821079294856 L68 183.99603132363143 L69 184.56136027730807 L70 186.40797461830527 L71 189.26972853475633 L72 192.81539070407172 L73 196.68259605078538 L74 200.51163531024443 L75 203.9761881539247 L76 206.80861088184423 L77 208.81805824128753 L78 209.90047958821467 L79 210.0403092004168 L80 209.30440040578327 L81 207.8293746587731 L82 205.80402537253102 L83 203.44870464811203 L84 200.99371931579233 L85 198.65867836574478 L86 196.63448943720803 L87 195.0693319861287 L88 194.05948142135077 L89 193.64536787071233 L90 193.8127706543524 L91 194.4986158594588 L92 195.60049285735457 L93 196.98875956021402 L94 198.5199780242874 L95 200.05041283766946 L96 201.44842541135787 L97 202.60478996492483 L98 203.44021738289555 L99 203.90967314012465 L100 204.00338601786035 L101 203.7447377553105 L102 203.1854762844895 L103 202.39888847401238 L104 201.47169068407297 L105 200.49544231258457 L106 199.55826117581637 L107 198.73752840966924 L108 198.09412786959433 L109 197.66858734341886 L110 197.4792944866364 L111 197.5227673749409 L112 197.7757844378289 L113 198.1990348644337 L114 198.74184808960536 L115 199.34750504677257 L116 199.95862542993743 L117 200.52216099350602 L118 200.9935981541898 L119 201.34007440734908 L120 201.5422312734019 L121 201.59475005711508 L122 201.50563455102713 L123 201.2944072808914 L124 200.9894654452456 L125 200.6248944144104 L126 200.23705840617086 L127 199.8612803816938 L128 199.52888941194493 L129 199.2648588544807 L130 199.08618914572193 L131 199.00111206253442 L132 199.00911618201516 L133 199.10172262146193 L134 199.2638815090775 L135 199.47581706006397 L136 199.7151249326337 L137 199.95892025879294 L138 200.18584725642123 L139 200.37778906648018 L140 200.5211557609086 L141 200.60767498287967 L142 200.63465880480464 L143 200.60476767511258 L144 200.52533385699493 L145 200.40733944837825 L146 200.2641658398564 L147 200.11024135673367 L148 199.95971198573562 L149 199.8252476472815 L150 199.71707539762326 L151 199.6423037682625 L152 199.6045720221477 L153 199.604027317842 L154 199.6376043038376 L155 199.69955777131898 L156 199.78218134827773 L157 199.8766348165152 L158 199.97379976458336 L159 200.06508757052526 L160 200.1431341716595 L161 200.2023313067367 L162 200.2391621993373 L163 200.25232916124594 L164 200.2426795491366 L165 200.21295332253897 L166 200.1673888578124 L167 200.11123280319717 L168 200.05020418611574 L169 199.9899627185648 L170 199.93562670514032 L171 199.89137788963862 L172 199.86017996984125 L173 199.84362549114996 L174 199.84191355072483 L175 199.85394928315 L176 199.87754637418072 L177 199.9097065523654 L178 199.94694556404738 L179 199.9856336891642 L180 200.02232027724102 L181 200.0540157124496 L182 200.0784101055605 L183 200.09401518828065 L184 200.10022362629942 L185 200.09728755808294 L186 200.08622496638841 L187 200.0686679796216 L188 200.04667101768112 L189 200.02249865328793 L190 199.99841314238884 L191 199.97647993576288 L192 199.95840640399203 L193 199.9454248749287 L194 199.93822634050514 L195 199.93694629728165 L196 199.94119957611576 L197 199.95015706366962 L198 199.962654207378 L199 199.97731930630297 L200 199.9927088916829 L201 200.00743795342737 L202 200.02029423704423 L203 200.0303281081462 L204 200.03691229587147 L205 200.03976889476604 L206 200.03896404161137 L207 200.0348734306147 L208 200.02812407518186 L209 200.01951931601366 L210 200.0099549312169 L211 200.00033431239964 L212 199.99149008458554 L213 199.98411837578774 L214 199.97873033412182 L215 199.975623621268 L216 199.97487466361756 L217 199.97635059070947 L218 199.97973818592206 L219 199.98458593424354 L220 199.990354452519 L221 199.9964702607736 L222 200.00237798761097 L223 200.00758664811624 L224 200.01170650781904 L225 200.0144741481889 L226 200.01576456403689 L227 200.01559033707576 L228 200.01408903837074 L229 200.01150092892235 L230 200.0081396893563 L231 200.00435928102905 L232 200.00052011413905 L233 199.99695749230253 L234 199.99395485862888 L235 199.99172374380794 L236 199.99039158091043 L237 199.98999777714624 L238 199.9904976895969 L239 199.9917735012914 L240 199.99365048416814 L241 199.9959167985514 L242 199.99834482928972 L243 200.0007120938332 L244 200.00281995879473 L245 200.00450873772016 L246 200.00566817366354 L247 200.0062427907231 L248 200.00623208342486 L249 200.0056859596828 L250 200.004696226733 L251 200.00338518390228 L252 200.00189254601293 L253 200.0003619624625 L254 199.99892832594116 L255 199.99770689687065 L256 199.9967850275198 L257 199.99621698042242 L258 199.99602202804095 L259 199.996185722602 L260 199.99666396150988 L261 199.9973892645173 L262 199.99827853735593 L263 199.9992415293109 L264 200.0001891988309 L265 200.00104127495436 L266 200.00173243114267 L267 200.0022166563506 L268 200.00246959804892 L269 200.00248884529609 L270 200.00229229989912 L271 200.0019149358452 L272 200.00140436076512 L273 200.00081566165312 L274 200.00020603830507 L275 199.9996297040699 L276 199.9991334703668 L277 199.99875333772488 L278 199.99851230247248 L279 199.99841946608564 L280 199.99847041482153 L281 199.99864873065505 L282 199.9989284088124 L283 199.99927689798227 L284 199.9996584494618 L285 200.00003746116545 L286 200.00038152915252 L287 200.0006639685471 L288 200.00086563131498 L289 200.00097592331363 L290 200.00099300010368 L291 200.0009231934026 L292 200.00077978192573 L293 200.00058126726157 L294 200.00034934457761 L295 200.00010676833156 L296 199.9998753054443 L297 199.99967394475874 L298 199.99951749542308 L299 199.99941566226795 L300 199.99937263782698 L301 199.9993872028717 L302 199.99945328425105 L303 199.99956088375723 L304 199.99969726703097 L305 199.99984828843034 L306 199.99999972646984 L307 200.000138514022 L308 200.00025376622185 L309 200.00033753454616 L310 200.0003852450915 L311 200.00039580976332 L312 200.0003714281823 L313 200.0003171232396 L314 200.0002400725607 L315 200.00014881049012 L316 200.00005238010874 L317 199.99995951243915 L318 199.9998779011993 L319 199.99981362751961 L320 199.9997707715804 L321 199.9997512289467 L322 199.9997547302754 L323 199.9997790456776 L324 199.9998203406958 L325 199.999873640573 L326 199.99993335379688 L327 199.99999380490377 L328 200.00004972991647 L329 200.00009669490692 L330 200.0001314080976 L331 200.0001519075532 L332 200.0001576187223 L333 200.0001492877695 L334 200.00012880683067 L335 200.00009895527438 L336 200.0000630862651 L337 200.00002479017917 L338 199.99998756577628 L339 199.99995452677547 L340 199.99992816612297 L341 199.9999101934109 L342 199.99990145331498 L343 199.9999019252907 L344 199.9999107977523 L345 199.99992660411854 L346 199.99994740383906 L347 199.99997098905885 L348 199.99999509699 L349 200.00001760923712 L350 200.00003672201507 L351 200.0000510750468 L352 200.0000598315064 L353 200.00006270622555 L354 200.00005994406507 L355 200.00005225448444 L356 200.00004071160518 L357 200.00002663125645 L358 200.00001143751044 L359 199.99999653107236 L360 199.99998317069594 L361 199.99997237673946 L362 199.99996486330852 L363 199.9999610024332 L364 199.99996082068105 L365 199.99996402578296 L366 199.99997005846865 L367 199.9999781629413 L368 199.99998746836638 L369 199.99999707344068 L370 200.00000612650513 L371 200.00001389468122 L372 200.0000198169991 L373 200.00002353828572 L374 200.00002492250624 L375 200.00002404613102 L376 200.0000211737699 L377 200.00001671965524 L378 200.00001119947225 L379 200.00000517749015 L380 199.99999921393703 L381 199.99999381712664 L382 199.9999894040593 L383 199.99998627217843 L384 199.99998458377942 L385 199.99998436335358 L386 199.99998550701366 L387 199.9999878021781 L388 199.9999909549619 L389 199.9999946222717 L390 199.99999844544962 L391 200.00000208244077 L392 200.00000523583992 L393 200.0000076747483 L394 200.00000924907803 L395 200.00000989570512 L396 200.00000963662347 L397 200.00000856992864 L398 200.00000685500694 L399 200.00000469368976 L400 200.00000230933225 L401 199.9999999257909 L402 199.9999977481171 L403 199.99999594648497 L404 199.9999946444657 L405 199.99999391229355 L406 199.99999376528567 L407 199.99999416712004 L408 199.99999503728282 L409 199.99999626169574 L410 199.99999770534225 L411 199.999999225639 L412 200.00000068533924 L413 200.00000196389746 L414 200.00000296644512 L415 200.0000036298059 L416 200.0000039252801 L417 200.0000038582291 L418 200.00000346476315 L419 200.00000280606076 L420 200.0000019610056 L421 200.00000101791642 L422 200.00000006615693 L423 199.9999991883581 L424 199.99999845387046 L425 199.99999791390778 L426 199.99999759865742 L427 199.99999751644233 L428 199.99999765483474 L429 199.9999979834621 L430 199.99999845812286 L431 199.99999902574757 L432 199.99999962970804 L433 200.0000002149885 L434 200.0000007327849 L435 200.0000011441853 L436 200.00000142269027 L437 200.00000155545484 L438 200.00000154325085 L439 200.00000139926115 L440 200.00000114690633 L441 200.00000081697237 L442 200.00000044434506 L443 200.00000006466448 L444 199.999999711195 L445 199.99999941216137 L446 199.9999991887417 L447 199.9999990538345 L448 199.9999990116417 L449 199.99999905803494 L450 199.99999918160788 L451 199.99999936526697 L452 199.99999958817847 L453 199.99999982787423 L454 200.00000006232216 L455 200.00000027178564 L456 200.00000044032987 L457 200.0000005568751 L458 200.00000061574372 L459 200.00000061669667 L460 200.00000056449898 L461 200.00000046809086 L462 200.00000033946887 L463 200.00000019239786 L464 200.00000004107827 L465 199.99999989888772 L466 199.99999977729865 L467 199.99999968505045 L468 199.99999962762615 L469 199.999999607053 L470 199.99999962201738 L471 199.99999966825732 L472 199.99999973917605 L473 199.99999982660515 L474 199.99999992163902 L475 200.00000001546286 L476 200.0000001001038 L477 200.00000016904644 L478 200.0000002176716 L479 200.00000024349518 L480 200.00000024620314 L481 200.00000022749705 L482 200.00000019077885 L483 200.00000014071585 L484 200.00000008273312 L485 200.0000000224833 L486 199.999999965341 L487 199.99999991596368 L488 199.99999987795067 L489 199.9999998536222 L490 199.99999984392656 L491 199.99999984847355 L492 199.99999986567985 L493 199.9999998930053 L494 199.99999992725145 L495 199.999999964892 L496 200.00000000240365 L497 200.00000003656908 L498 200.0000000647281 L499 200.00000008496022 " stroke = "blue" stroke-width = "4" fill = "none" /></svg>