<svg width="500" height="500" viewbox = "0 0 500 500"  xmlns="http://www.w3.org/2000/svg">

<!--
<topfunctions>


//put helper functions here, along with contsants and variables


function YofX(){
    
    X = currentjson.plotparams.g*(x - currentjson.plotparams.x0);
    Y =  Math.exp(-X/A)*Math.sin(X);
    y = currentjson.plotparams.y0 - currentjson.plotparams.G*(Y);

}




function plotfunction(){
    /*plot one function:*/
    currentStroke = currentjson.style.color;
    currentLineWidth = currentjson.style.linewidth;
    ctx.strokeStyle = currentStroke;
    ctx.lineWidth = currentLineWidth;
    ctx.beginPath();	
    x = 0;
    YofX();
    currentSVG += "	<path d = \"M";
    currentSVG += Math.round(x).toString() + " ";
    currentSVG += Math.round(y).toString() + " ";
    for(x = 1;x < currentjson.plotparams.plotwidth;x++){
        ctx.moveTo(x-1,y);
        YofX();
        ctx.lineTo(x,y);
        currentSVG += "L" + x + " " + y + " ";
    }
    ctx.stroke();
    currentSVG += "\""+ " stroke = \"" + currentStroke + "\" stroke-width = \"" + currentLineWidth.toString() + "\" fill = \"" + "none" + "\" "+"/>";
    /*finish plot one function*/

}





























</topfunctions>
-->

<!--
<currentjson>
{
    "constants": {},
    "YofXstring": "tau = 100;Y =  Math.exp(-X/tau)*Math.sin(X)",
    "style": {
        "linewidth": 4,
        "color": "blue",
        "fill": "none"
    },
    "plotparams": {
        "G": 317.29409395051727,
        "g": 0.13183254493651786,
        "duration": 450.78888054094654,
        "plotwidth": 500,
        "plotheight": 500,
        "x0": "0",
        "y0": 200
    },
    "funcparams": {},
    "image": {
        "url": "",
        "xoverw": 0.038011695906432746,
        "yoverw": -0.08771929824561403,
        "woverw": 0.8536631795472632,
        "angle": "0"
    },
    "A": 6.812920690579613,
    "B": 1
}
</currentjson>
-->

<!--
<equation>
# Equations
$$X = g(x - x_0)$$
$$Y = \sin{(X)}$$
$$y = y_0 - GY$$ 
</equation>
-->
	<path d = "M0 200 L1 159.09069119282114 L2 120.44574459028448 L3 84.65121204110834 L4 52.22133119175888 L5 23.592309401134997 L6 -0.8822994776617179 L7 -20.93460552126089 L8 -36.3837892403499 L9 -47.1359405932989 L10 -53.18239281272935 L11 -54.59663715775403 L12 -51.52992611242567 L13 -44.205691276356106 L14 -32.91291801271936 L15 -17.99863166715369 L16 0.14034025666177286 L17 21.066159228665782 L18 44.309146254951884 L19 69.37715799737319 L20 95.7649976023968 L21 122.96369527345078 L22 150.4695021484175 L23 177.79245196798712 L24 204.46435806035078 L25 230.04612801611367 L26 254.13429475748603 L27 276.3666801775384 L28 296.42712579143307 L29 314.0492435542741 L30 329.0191588171941 L31 341.177235983351 L32 350.4187954739798 L33 356.6938478282501 L34 360.0058868717713 L35 360.4097986588598 L36 358.0089561171908 L37 352.95158082896546 L38 345.42646303538817 L39 335.6581386535322 L40 323.9016277867021 L41 310.4368428684847 L42 295.5627762203775 L43 279.5915764713364 L44 262.8426210653844 L45 245.6366880809927 L46 228.29032494045595 L47 211.1105044594882 L48 194.3896502569875 L49 178.40110400838904 L50 163.39509659108273 L51 149.5952740525688 L52 137.1958177506208 L53 126.35918618870673 L54 117.21449421422565 L55 109.85653356903096 L56 104.34542747757219 L57 100.70690121016048 L58 98.93314053313998 L59 98.9842008010477 L60 100.78992128441173 L61 104.25229226481133 L62 109.24821654727167 L63 115.63260239645416 L64 123.24172153118514 L65 131.896763722005 L66 141.40751871628177 L67 151.5761166310885 L68 162.2007595513435 L69 173.0793797770275 L70 184.0131638894643 L71 194.80988644916312 L72 205.28700258105997 L73 215.27445482211107 L74 224.6171562690081 L75 233.17711913381748 L76 240.83520515418104 L77 247.49248177453504 L78 253.07117548074518 L79 257.51522100292766 L80 260.79041217760243 L81 262.8841669673706 L82 263.80492537140356 L83 263.5812046326772 L84 262.2603411807883 L85 259.9069530791077 L86 256.60116032336543 L87 252.43660313181522 L88 247.51830035614424 L89 241.960391323204 L90 235.88380480058873 L91 229.41389838770536 L92 222.6781105044671 L93 215.80366532976606 L94 208.915368589289 L95 202.1335290737104 L96 195.5720372577946 L97 189.3366284681828 L98 183.52335379650756 L99 178.21727746134155 L100 173.4914146746788 L101 169.405919352858 L102 166.00752631264712 L103 163.32924799171172 L104 161.39032130518908 L105 160.19639606696953 L106 159.7399525290211 L107 160.00093208037072 L108 160.94756204645384 L109 162.5373528777838 L110 164.71824384333675 L111 167.4298716683432 L112 170.60493538855988 L113 174.1706300345854 L114 178.0501216025012 L115 182.16403609477726 L116 186.43193620387 L117 190.77376042905283 L118 195.11120102727028 L119 199.36899915830182 L120 203.4761378459317 L121 207.36691588936515 L122 210.98188856957324 L123 214.26866384895658 L124 217.1825457046184 L125 219.68701921113137 L126 221.7540749449422 L127 223.36437316881717 L128 224.50725102344734 L129 225.18057856083033 L130 225.39047186109718 L131 225.15087364681227 L132 224.48301371757503 L133 223.41476314980622 L134 221.97989752458713 L135 220.21728544896308 L136 218.17001931776025 L137 215.88450562403244 L138 213.4095321726339 L139 210.795329294254 L140 208.0926416125371 L141 205.35182610503855 L142 202.62199114399476 L143 199.95018993276992 L144 197.38068029865408 L145 194.95426119474777 L146 192.7076945367432 L147 190.6732191890464 L148 188.87816205358192 L149 187.34464933803284 L150 186.08941922141736 L151 185.12373532543648 L152 184.45339866953654 L153 184.07885416321335 L154 183.99538619495692 L155 184.19339653443637 L156 184.65875659065978 L157 185.3732250779105 L158 186.3149213435501 L159 187.4588440138231 L160 188.7774242184166 L161 190.24110246090294 L162 191.818918206035 L163 193.47910144860737 L164 195.1896559016656 L165 196.9189239809445 L166 198.6361244518677 L167 200.3118544275477 L168 201.918548341658 L169 203.4308875482353 L170 204.82615530001215 L171 206.08453300594937 L172 207.18933484536964 L173 208.12717899897834 L174 208.8880949252903 L175 209.4655672448042 L176 209.85651787526837 L177 210.06122907277168 L178 210.0832109602235 L179 209.92901795415514 L180 209.60801922195256 L181 209.13212890619016 L182 208.5155023345859 L183 207.77420478952257 L184 206.9258596386939 L185 205.98928272913471 L186 204.98410992374508 L187 203.9304245175243 L188 202.84839101706945 L189 201.7579014101135 L190 200.67823960210487 L191 199.6277691654083 L192 198.6236489459844 L193 197.68158041545027 L194 196.81558995680376 L195 196.03784854358744 L196 195.358530528645 L197 194.78571251338445 L198 194.32531253463196 L199 193.98106909606332 L200 193.75455889628535 L201 193.6452514763068 L202 193.65059843460256 L203 193.76615434614362 L204 193.98572607916225 L205 194.30154683511304 L206 194.70447094686054 L207 195.184185259669 L208 195.72943278971007 L209 196.32824430474145 L210 196.96817349918354 L211 197.63653153760455 L212 198.32061691203359 L213 199.0079367939265 L214 199.68641635449515 L215 200.34459287019396 L216 200.97179181557487 L217 201.5582825651557 L218 202.09541177082062 L219 202.57571294287527 L220 202.99299123255776 L221 203.34238288308137 L222 203.62038927701317 L223 203.82488595228682 L224 203.95510738029338 L225 204.01160869085555 L226 203.99620588479235 L227 203.9118963903807 L228 203.76276209135855 L229 203.5538571781549 L230 203.29108334867198 L231 202.98105500902574 L232 202.6309571979312 L233 202.2483989815553 L234 201.84126504015248 L235 201.4175680959362 L236 200.9853047164351 L237 200.55231687268002 L238 200.12616144117302 L239 199.71398961735616 L240 199.32243796124598 L241 198.95753252830488 L242 198.62460725591657 L243 198.32823748350768 L244 198.07218918786253 L245 197.859384219824 L246 197.69188153945598 L247 197.57087416865136 L248 197.49670131752015 L249 197.46887489767013 L250 197.48611941518385 L251 197.54642404166674 L252 197.64710549558825 L253 197.7848802300761 L254 197.95594431857882 L255 198.15605935701558 L256 198.38064266023625 L257 198.6248600213165 L258 198.88371932337546 L259 199.152163343705 L260 199.42516016706873 L261 199.69778972670142 L262 199.96532511511685 L263 200.22330744932685 L264 200.46761323329872 L265 200.69451333107784 L266 200.90072284354255 L267 201.08344136677826 L268 201.24038329713173 L269 201.3697980338031 L270 201.47048011116928 L271 201.54176946692652 L272 201.5835422158475 L273 201.5961924500122 L274 201.58060572264216 L275 201.53812499233916 L276 201.47050990615023 L277 201.3798903823666 L278 201.26871551661245 L279 201.139698877247 L280 200.99576127842445 L281 200.83997212170215 L282 200.67549038056805 L283 200.50550626768313 L284 200.33318457329045 L285 200.16161059665862 L286 199.9937395123415 L287 199.83234992135073 L288 199.6800022360908 L289 199.53900243921854 L290 199.41137164263506 L291 199.29882175577757 L292 199.2027374544063 L293 199.12416452426098 L294 199.0638045402845 L295 199.02201573343083 L296 198.99881979509468 L297 198.99391427543753 L298 199.00669014765913 L299 199.03625403667604 L300 199.0814545485984 L301 199.14091208747948 L302 199.2130515084628 L303 199.29613693183646 L304 199.38830803056948 L305 199.48761710437856 L306 199.5920662657736 L307 199.69964408719005 L308 199.8083610923966 L309 199.91628351887857 L310 200.0215648297279 L311 200.12247451250036 L312 200.21742376723714 L313 200.30498775504537 L314 200.3839241509149 L315 200.45318781844662 L316 200.51194149852645 L317 200.55956247739223 L318 200.59564527076796 L319 200.62000042862624 L320 200.63264962862954 L321 200.63381728445958 L322 200.6239189472597 L323 200.6035468236204 L324 200.57345277140013 L325 200.5345291648186 L326 200.4877880424509 L327 200.43433896590932 L328 200.37536602317942 L329 200.31210440897803 L330 200.2458170054416 L331 200.17777137037965 L332 200.10921751777974 L333 200.04136684687242 L334 199.97537254256423 L335 199.91231173220748 L336 199.85316964231555 L337 199.7988259548075 L338 199.75004351654056 L339 199.7074595091301 L340 199.6715791392121 L341 199.64277186319077 L342 199.62127011590758 L343 199.60717047028723 L344 199.60043711551126 L345 199.60090750522178 L346 199.60829999515943 L347 199.62222326189968 L348 199.64218727128946 L349 199.66761554702106 L350 199.69785847664548 L351 199.7322073842603 L352 199.76990909605252 L353 199.81018072670219 L354 199.85222442113644 L355 199.8952417969797 L356 199.93844784791673 L357 199.98108408666388 L358 200.02243072786496 L359 200.06181773550603 L360 200.09863458584618 L361 200.13233862485365 L362 200.16246192817212 L363 200.18861660117287 L364 200.21049848614436 L365 200.22788927262215 L366 200.2406570347797 L367 200.2487552462471 L368 200.25222034728813 L369 200.25116796159537 L370 200.2457878797531 L371 200.23633794342177 L372 200.223136978324 L373 200.20655693503136 L374 200.18701440429246 L375 200.1649616781873 L376 200.1408775297909 L377 200.11525788236662 L378 200.08860653453976 L379 200.06142610060985 L380 200.03420931537593 L381 200.00743084084155 L382 199.98153969822283 L383 199.956952433125 L384 199.93404710490816 L385 199.91315817347603 L386 199.89457233833542 L387 199.87852536613306 L388 199.86519992431255 L389 199.85472442036945 L390 199.84717282871466 L391 199.84256547066587 L392 199.84087069782186 L393 199.84200741525245 L394 199.84584836874768 L395 199.85222410995752 L396 199.8609275447378 L397 199.8717189634702 L398 199.88433144758554 L399 199.89847654399364 L400 199.91385009857484 L401 199.93013814125442 L402 199.94702271836422 L403 199.96418757287134 L404 199.98132357947406 L405 199.99813384935732 L406 200.01433842838017 L407 200.02967852243006 L408 200.04392019441786 L409 200.05685748868217 L410 200.06831495020796 L411 200.07814951782612 L412 200.0862517822363 L413 200.09254661108977 L414 200.09699315428932 L415 200.09958425294215 L416 200.10034528488185 L417 200.0993324882236 L418 200.0966308119196 L419 200.09235134864775 L420 200.08662841052956 L421 200.0796163120868 L422 200.07148592749343 L423 200.06242109055736 L424 200.05261490600483 L425 200.04226603957832 L426 200.0315750522654 L427 200.0207408407283 L428 200.0099572418017 L429 199.99940985387525 L430 199.98927312220277 L431 199.97970772880242 L432 199.97085832077403 L433 199.96285160368942 L434 199.95579481935167 L435 199.94977461980312 L436 199.94485634212 L437 199.94108368139032 L438 199.93847875244583 L439 199.93704252451718 L440 199.93675560709693 L441 199.9375793600128 L442 199.93945729609982 L443 199.94231674097256 L444 199.9460707112752 L445 199.95061997045428 L446 199.95585521956608 L447 199.96165937989662 L448 199.96790992421487 L449 199.97448121427456 L450 199.9812468036796 L451 199.9880816673825 L452 199.99486432183147 L453 200.00147880304974 L454 200.00781647364184 L455 200.01377763379935 L456 200.01927291573148 L457 200.0242244454941 L458 200.02856676084374 L459 200.0322474784171 L460 200.03522770815027 L461 200.0374822173264 L462 200.03899935090374 L463 200.03978071876088 L464 200.03984066414685 L465 200.03920553088415 L466 200.03791274970806 L467 200.03600976649557 L468 200.03355283702342 L469 200.03060571428063 L470 200.0272382552408 L471 200.0235249743792 L472 200.0195435711093 L473 200.0153734577362 L474 200.0110943135047 L475 200.00678468889635 L476 200.0025206825371 L477 199.99837471096845 L478 199.99441438914823 L479 199.9907015369459 L480 199.98729132412535 L481 199.98423156342656 L482 199.98156215841652 L483 199.97931470983585 L484 199.97751228126995 L485 199.97616932217105 L486 199.9752917435965 L487 199.9748771395492 L488 199.97491514454347 L489 199.97538791600792 L490 199.9762707283968 L491 199.97753266443868 L492 199.97913738781438 L493 199.9810439807365 L494 199.98320782940215 L495 199.9855815401037 L496 199.98811586890352 L497 199.99076064819113 L498 199.99346569412904 L499 199.99618167993285 " stroke = "blue" stroke-width = "4" fill = "none" /></svg>