<svg width="500" height="500" viewbox = "0 0 500 500"  xmlns="http://www.w3.org/2000/svg">

<!--
<topfunctions>


phi = (Math.sqrt(5) + 1)/2;
tau = 1/(4*Math.log(phi));


function XYofT(){
    T = currentjson.plotparams.g*t;
    X = Math.exp(-T/tau)*Math.cos(2*Math.PI*T);
    Y = Math.exp(-T/tau)*Math.sin(2*Math.PI*T);
    y = currentjson.plotparams.y0 - currentjson.plotparams.G*(Y);
    x = currentjson.plotparams.x0 - currentjson.plotparams.G*(X);    
}




function plotfunction(){
    
    /*plot one function:*/
    currentStroke = currentjson.style.color;
    currentLineWidth = currentjson.style.linewidth;
    ctx.strokeStyle = currentStroke;
    ctx.lineWidth = currentLineWidth;
    ctx.beginPath();	
    x = 0;
    y = 0;
    t = 0;
    intx = x;
    XYofT();
    currentSVG += "	<path d = \"M";
    currentSVG += Math.round(x).toString() + " ";
    currentSVG += Math.round(y).toString() + " ";
    for(t = 1;t < currentjson.plotparams.duration;t++){
        ctx.moveTo(x,y);
        XYofT();
        ctx.lineTo(x,y);
        currentSVG += "L" + x + " " + y + " ";
    }
    ctx.stroke();
    currentSVG += "\""+ " stroke = \"" + currentStroke + "\" stroke-width = \"" + currentLineWidth.toString() + "\" fill = \"" + "none" + "\" "+"/>";
    /*finish plot one function*/
    
    

}


</topfunctions>
-->

<!--
<currentjson>
{
    "constants": {},
    "YofXstring": "Y =  (1/Math.PI)*0.5/(X*X + 0.25);",
    "style": {
        "linewidth": 4,
        "color": "blue",
        "fill": "none"
    },
    "plotparams": {
        "G": 348.65641542719624,
        "g": 0.01815145840566179,
        "duration": 450.78888054094654,
        "plotwidth": 500,
        "plotheight": 500,
        "x0": 281,
        "y0": 278
    },
    "funcparams": {},
    "image": {
        "url": "",
        "xoverw": 0.038011695906432746,
        "yoverw": -0.08771929824561403,
        "woverw": 0.8536631795472632,
        "angle": "0"
    },
    "A": 15.1294995023664,
    "B": 0.8948585376606706
}
</currentjson>
-->

<!--
<equation>
# Equations

$x$, $x_0$, $y$ and $y_0$ are all in pixels. x varies from 0 to the width in pixels of the plot.  Y and X are in the units of the system being studied.   When T scales by $1/4$ it is a quarter turn, which should be a ratio of $\phi$ less where $\phi$ is the Golden Ratio $(\sqrt{5} + 1)/2$.  So 

$$
\frac{e^{-(T + 1/4)/\tau}}{e^{-T/\tau}} = \phi = e^{-1/4\tau}
$$
$$
\ln{(\phi)} = -\frac{1}{4\tau}
$$
$$
\tau = -\frac{1}{4\ln{\phi}}
$$


$$X = g(x - x_0)$$
$$(X,Y) = \left(e^{-T/A}\cos{\left(\frac{T}{2\pi}\right)},e^{-T/A}\sin{\left(\frac{T}{2\pi}\right)}\right)$$
$$y = y_0 - GY$$ 
</equation>
-->
	<path d = "M-68 278 L-53.49784464644608 239.68459386823997 L-35.703587945690515 204.48108452486986 L-14.763266907005061 172.66264282646208 L8.82335994373841 144.43753975201648 L34.55394092407087 119.9506679249181 L61.930601430026115 99.28583036785588 L90.466475534952 82.46871329342878 L119.69164565375559 69.47045595932812 L149.1584486963401 60.2117282916054 L178.44611863554493 54.56722603677346 L207.16474655299646 52.370493562967425 L234.95854987255993 53.418985999290896 L261.5084525326196 57.47928507762313 L286.5339871881899 64.29238671119097 L309.7945390910403 73.57898289159127 L331.08995900597074 85.04466578904862 L350.26057933544774 98.38498787572843 L367.1866735099519 113.29031833476489 L381.7874036395006 129.45044284561817 L394.01930540904044 146.55886092971926 L403.8743622461957 164.3167422838303 L411.3777229159509 182.4365108125807 L416.5851179361198 200.64503229352255 L419.58003060275905 218.6863886728469 L420.4706780175587 236.32422881125086 L419.38685637860624 253.34369200013924 L416.47670299681806 269.552906680808 L411.9034251025573 284.7840724657818 L405.84204258383465 298.8941387343936 L398.47618842459997 311.7650977163069 L389.99500686561964 323.3039140591386 L380.5901852679107 333.44211638135266 L370.4531513951536 342.13507923001754 L359.7724634203821 349.36102619438645 L348.73141547404816 355.1197866782021 L337.50587705209136 359.4313400211847 L326.2623801563513 362.3341813051485 L315.15646370304074 363.8835433103572 L304.3312805601863 364.1495087360379 L293.916468608309 363.21504600277865 L284.0272835005675 361.17400075475757 L274.76398736336387 358.12907362010725 L266.21148455409514 354.1898129138934 L258.43919280120923 349.4706488271144 L251.5011356088514 344.0889932842275 L245.43623972417475 338.1634271182229 L240.26881974421872 331.81199355262123 L236.00923058027436 325.15061423898226 L232.65466749504935 318.29164131968145 L230.190092771433 311.3425562095427 L228.58926774689763 304.40482305433954 L227.81586893661793 297.57290216399815 L227.8246672502214 290.93342616498194 L228.5627498580689 284.564539197642 L229.9707650573746 278.5353972243959 L231.98417149897992 272.9058254337487 L234.53447433373873 267.72612683986864 L237.55043219414043 263.03703450036534 L240.95922041267946 258.8697983150388 L244.68753746444673 255.24639613106916 L248.66264327896073 252.17985786735008 L252.81331976777932 249.67469058118422 L257.07074563362266 247.72739183012365 L261.3692792387969 246.32703832339524 L265.6471449926277 245.4559367017075 L269.8470203483302 245.09032331974456 L273.91652206033757 245.20110011892862 L277.8085918268959 245.75459405414537 L281.48178281533325 246.71332806093005 L284.90044982682167 248.03679220202395 L288.0348469940183 249.68220439653146 L290.86113791139366 251.6052509930945 L293.361323969293 253.76079838243456 L295.5230973960063 256.10356783636837 L297.3396261065793 258.5887667924584 L298.80927791400825 261.1726708589345 L299.9352919808143 263.81315187734737 L300.72540558146886 266.4701484355022 L301.19144431484284 269.1060762566183 L301.34888385820545 271.6861768896357 L301.21639119880217 274.17880407877135 L300.8153530251109 276.5556480878027 L300.16939861763893 278.79189908759326 L299.30392415924115 280.86635147696734 L298.2456248984105 282.7614516915655 L297.0220410569981 284.4632926585743 L295.6611227875381 285.96155857441994 L294.1908188658242 287.2494241162054 L292.63869316235173 288.32341254566035 L291.03157228204117 289.1832174276802 L289.39522710508584 289.83149286624695 L287.7540903119997 290.27361726175576 L286.131011341436 290.51743561947706 L284.54704961778236 290.572985393825 L283.0213063037593 290.4522107426619 L281.57079428723705 290.1686698959793 L280.2103456063095 289.7372401203007 L278.952555056514 289.17382449070095 L277.8077583122317 288.4950643732501 L276.7840425331396 287.7180611789081 L275.88728711764867 286.8601105822908 L275.12123200927186 285.93845201210996 L274.48757075875267 284.97003582103406 L273.98606539377965 283.9713101375483 L273.6146800477607 282.9580289970812 L273.36973024739837 281.9450829497857 L273.24604475311816 280.9463529530362 L273.23713688373175 279.9745879825644 L273.3353823336431 279.0413064413074 L273.5322006037045 278.156721113064 L273.81823731153395 277.32968710194905 L274.1835448195668 276.56767192086403 L274.6177588151031 275.8767466446652 L275.1102686918425 275.26159682775904 L275.65037981262117 274.7255517023321 L276.2274659741054 274.2706300226455 L276.83111064202075 273.8976008026655 L277.45123577623815 273.6060571081706 L278.07821731506533 273.39450100940104 L278.70298663401775 273.26043777495386 L279.3171175330681 273.20047739031844 L279.912898535112 273.21044151326805 L280.483390494664 273.28547403110446 L281.0224697174971 273.4201534591663 L281.5248569772667 273.60860551356035 L281.98613298268094 273.8446143011993 L282.402740997397 274.1217306942843 L282.77197744377185 274.4333765917263 L283.0919714304329 274.77294391402467 L283.3616542322245 275.1338873282614 L283.5807198195789 275.50980985364583 L283.7495775831739 275.8945406531057 L283.8692984295277 276.2822044705447 L283.9415554348261 276.66728232453085 L283.9685602388351 277.04466321546363 L283.95299633945956 277.4096867430099 L283.8979504127197 277.7581766623336 L283.80684273410765 278.0864655300878 L283.683357717002 278.39141070325263 L283.53137551366075 278.6704020548335 L283.3549055459134 278.9213618595621 L283.1580227476631 279.1427373796303 L282.94480721130003 279.33348674491447 L282.719287836696 279.4930587740644 L282.48539048610434 279.6213674223742 L282.2468910524721 279.7187615698086 L282.0073737537273 279.78599087837426 L281.7701948727764 279.8241684527607 L281.5384520733719 279.8347310325202 L281.3149593366874 279.8193974287852 L281.1022274832676 279.78012589449594 L280.90245017073624 279.71907108524897 L280.71749518988673 279.63854122914535 L280.54890082102526 279.5409560794156 L280.3978769590526 279.42880617412663 L280.26531066998945 279.30461387394917 L280.15177580359045 279.17089659277207 L280.0575462563518 279.03013257785557 L279.98261245649314 278.88472953714773 L279.9267006271855 278.7369963522205 L279.88929437611154 278.5891180568355 L279.8696581580129 278.44313420417734 L279.8668621617697 278.3009206909743 L279.87980818426945 278.1641750546745 L279.90725606932483 278.0344052110828 L279.9478503106058 277.9129215548412 L280.00014644236774 277.8008323042149 L280.0626368700622 277.6990419351162 L280.1337758240859 277.6082525173623 L280.2120031533367 277.5289677389471 L280.2957667102932 277.4614993816719 L280.38354311542383 277.40597599380357 L280.4738567252979 277.3623534924381 L280.5652966652811 277.3304274198039 L280.6565318236509 277.3098465736485 L280.7463237389131 277.3001277318786 L280.83353734562144 277.30067119549426 L280.91714957573896 277.31077688124515 L280.9962558422128 277.32966070602373 L281.0700744587046 277.3564710184145 L281.13794907410363 277.3903048486784 L281.199349222394 277.4302237663825 L281.25386910752684 277.47526915449527 L281.3012247590991 277.524476729681 L281.34124970783745 277.57689016036505 L281.3738893401462 277.6315736565436 L281.3991940983613 277.6876234279307 L281.4173116979478 277.7441779295476 L281.42847853481516 277.8004268359621 L281.4330104553535 277.855618706806 L281.4312930588913 277.90906732668134 L281.4237716972394 277.96015672190407 L281.4109413290303 278.008344874528 L281.3933363779126 278.05316617059486 L281.37152073354304 278.0942326344345 L281.34607802298586 278.1312340140069 L281.3176022678017 278.1639367936585 L281.2866890290347 278.1921822202356 L281.25392712871144 278.2158834362389 L281.21989102257214 278.2350218196354 L281.1851338847709 278.2496426341126 L281.15018145141227 278.2598500960186 L281.1155266562114 278.2658019650669 L281.0816250784455 278.26770376519556 L281.0488912108551 278.2658027398672 L281.01769554338097 278.26038164270017 L280.9883624477021 278.2517524597748 L280.96116883756474 278.24025015439287 L280.93634357092986 278.22622651863287 L280.9140675520789 278.2100442088872 L280.89447448503466 278.19207103483006 L280.8776522239968 278.17267456310174 L280.8636446619633 278.15221708853653 L280.8524540952911 278.1310510171532 L280.84404399961744 278.10951469648904 L280.83834215127814 278.08792872031853 L280.8352440280587 278.06659272645953 L280.8346164237475 278.0457826983413 L280.8363012124495 278.0257487733723 L280.84011920088227 278.00671355398464 L280.84587400984174 277.9888709106117 L280.8533559295919 277.9723852598271 L280.8623456980192 277.95739129548326 L280.8726181549072 277.94399414596666 L280.8839457305324 277.93226992665154 L280.89610173188163 277.92226665329656 L280.90886339504107 277.914005479486 L280.9220146776441 277.90748221926077 L280.9353487705911 277.9026691147916 L280.9486703135143 277.8995168082924 L280.96179730357227 277.8979564773242 L280.9745626920719 277.89790209315225 L280.98681566807295 277.8992527628536 L280.9984226324816 277.9018951173751 L281.0092678701529 277.90570570966224 L281.0192539311591 277.9105533892633 L281.02830173561864 277.9163016224021 L281.0363504193058 277.92281072935526 L281.0433569396537 277.92994001400547 L281.0492954637319 277.9375497636176 L281.05415656131277 277.9455031001482 L281.05794622725807 277.9536676676976 L281.0606847581637 277.9619171440022 L281.06240550851817 277.9701325670964 L281.06315355157955 277.978203471408 L281.0629842697817 277.98602883055685 L281.061961898775 277.9935178069603 L281.06015804821396 278.00059031099613 L281.0576502211655 278.0071773749014 L281.05452035255297 278.01322134877864 L281.05085338541255 278.0186759280259 L281.04673590195176 278.0235060231909 L281.04225482450204 278.02768748467156 L281.03749619947723 278.03120669583785 L281.03254407542914 278.0340600490403 L281.0274794842466 278.03625331960205 L281.02237953252273 278.03780095327147 L281.01731660812516 278.0387252827572 L281.0123577050856 278.0390556888852 L281.00756386808854 278.03882772162933 L281.00298975611315 278.0380821957887 L280.99868332317476 278.0368642754348 L280.9946856126456 278.03522256045414 L280.9910306603117 278.0332081875815 L280.98774550015816 278.03087395728704 L280.98485026586934 278.02827349675397 L280.98235838019207 278.0254604680024 L280.980276823631 278.0224878289795 L280.9786064734354 278.01940715418453 L280.9773425034786 278.0162680201355 L280.9764748354339 278.0131174597354 L280.9759886315896 278.0099994883782 L280.97586481973 278.0069547034569 L280.9760806407141 278.0040199578163 L280.9766102097022 278.0012281066423 L280.9774250824082 277.9986078263061 L280.97849481826444 277.9961835027924 L280.97978753297815 277.9939751865469 L280.98127043361166 277.99199860988097 L280.98291033002005 277.99026526247144 L280.9846741172238 277.98878251999855 L280.98652922405523 277.9875538205702 L280.9884440241988 277.98657888328586 L280.9903882065198 277.9858539630953 L280.992333102347 277.98537213600525 L280.9942519681222 277.9851236086707 L280.9961202225496 277.9850960464753 L280.99791563805957 277.98527491435044 L280.99961848704436 277.9856438247948 L281.00121164390913 277.98618488783166 L281.0026806445205 277.9868790579694 L281.0040137051125 277.9877064736061 L281.00520170312524 277.9886467847278 L281.00623812281003 277.9896794651946 L281.0071189687249 277.990784106367 L281.0078426504748 277.99194068930194 L281.00840984221986 277.9931298332291 L281.0088233205823 277.9943330184971 L281.0090877846356 277.9955327826539 L281.0092096616555 277.99671288878113 L281.0091969022601 277.99785846564663 L281.00905876846707 277.99895611965223 L281.00880561805553 277.99999401894405 L281.00844868844115 278.0009619504099 L281.00799988306426 278.00185135061076 L281.0074715630535 278.0026553119823 L281.0068763466681 278.0033685658884 L281.0062269187468 278.0039874443234 L281.005535852104 278.00450982222895 L281.0048154425173 278.0049350425257 L281.0040775586552 278.00526382605517 L281.00333350799536 278.0054981686874 L281.00259391949584 278.005641227871 L281.00186864349763 278.0056972008977 L281.00116666907064 278.00567119710934 L281.00049605875984 278.0055691062117 L280.9998639004527 278.00539746476477 L280.9992762758733 278.0051633228051 L280.9987382450134 278.0048741124227 L280.9982538456384 278.0045375199629 L280.9978261068575 278.004161363365 L280.99745707562283 278.0037534759718 L280.99714785492097 278.0033215979715 L280.9968986523437 278.00287327644315 L280.99670883767055 278.0024157748001 L280.9965770080648 278.00195599223855 L280.996501059474 278.00150039362137 L280.99647826283666 278.0010549500566 L280.99650534372375 278.00062509026304 L280.99657856409146 278.0002156626635 L280.99669380487916 277.9998309080009 L280.99684664826276 277.99947444214433 L280.9970324584575 277.99914924863185 L280.9972464600587 277.99885768039604 L280.9974838130115 277.9986014700289 L280.99773968340844 277.9983817478687 L280.998009309424 277.9981990671319 L280.99828806180994 277.9980534352715 L280.998571498488 277.997944350709 L280.99885541288864 277.9978708440748 L280.99913587579505 277.99783152308555 L280.9994092705561 277.9978246201981 L280.99967232163215 277.9978480421975 L280.9999221165325 277.99789942090825 L281.000156121289 277.9979761642575 L281.00037218968976 277.99807550696477 L281.00056856656727 277.99819456018776 L281.0007438854972 277.998330359514 L281.0008971613168 277.99847991075023 L281.0010277779151 277.99864023303024 L281.00113547178125 277.9988083988305 L281.00122031182394 277.9989815705528 L281.0012826759899 277.99915703340343 L281.0013232252186 277.999332224368 L281.0013428752704 277.99950475714684 L281.0013427669588 277.99967244298244 L281.0013242353025 277.99983330736956 L281.0012887780934 277.99998560269665 L281.00123802435263 278.0001278169199 L281.00117370311364 278.00025867841833 L281.00109761293976 278.0003771572214 L281.00101159254467 278.0004824628367 L281.00091749284445 278.00057403893726 L281.00081715072866 278.0006515551935 L281.00071236479425 278.00071489655403 L281.00060487324237 278.00076415029554 L281.0004963340965 278.00079959116897 L281.0003883078559 278.00082166497566 L281.00028224265856 278.0008309709036 L281.00017946198756 278.0008282429508 L281.0000811549186 278.00081433075155 L280.99998836886994 278.0007901801106 L280.9999020047867 278.0007568135297 L280.9998228146604 278.00071531099684 L280.99975140125997 278.00066679128264 L280.99968821993025 278.0006123939665 L280.99963358229127 278.0005532623905 L280.9995876616616 278.00049052771226 L280.9995505000137 278.0004252942009 L280.9995220162623 278.000358625895 L280.99950201568316 278.00029153471263 L280.9994902002553 278.00022497007996 L280.9994861797235 278.00015981011717 L280.99948948317973 278.00009685439784 L280.99949957097044 278.00003681827565 L280.99951584674335 277.9999803287496 L280.99953766945987 277.999927921821 L280.9995643652095 277.99988004127823 L280.99959523867886 277.9998370388288 L280.9996295841397 277.9997991754867 L280.9996666958388 277.9997666241108 L280.9997058776864 277.99973947298196 L280.9997464521588 277.99971773029966 L280.9997877683446 277.9997013294743 L280.9998292090833 277.9996901350889 L280.99987019715803 277.99968394940305 L280.9999102005226 277.99968251927345 L280.99994873655595 277.9996855433678 L280.9999853753502 277.9996926795531 L281.00001974205435 277.99970355234575 L281.0000515183031 277.99971776031583 L281.00008044277473 277.9997348833487 L281.00010631092755 277.99975448967217 L281.0001289739757 277.99977614256994 L281.0001483371679 277.99979940670954 L281.0001643574413 277.9998238540243 L281.00017704052397 277.9998490690985 L281.0001864375632 277.99987465401546 L281.000192641358 277.99990023263825 L281.0001957822745 277.99992545430274 L281.00019602392064 277.9999499969112 L281.0001935586572 277.99997356942566 L281.00018860301697 277.9999959137663 L281.000181393101 278.0000168061294 L281.00017218001733 278.0000360577458 L281.00016122542144 278.0000535151075 L281.00014879721294 278.0000690596947 L281.00013516543703 278.0000826072414 L281.000120598433 278.0000941065799 L281.0001053592662 278.0001035381094 L281.00008970247313 278.0001109119345 L281.00007387114357 278.0001162657216 L281.0000580943561 278.0001196623217 L281.0000425849799 278.000121187208 L281.0000275378467 278.00012094577585 L281.00001312829374 278.0001190605516 L280.99999951107327 278.0001156683543 L280.99998681961756 278.0001109174536 L280.9999751656461 278.0001049647614 L280.9999646390981 278.00009797309497 L280.9999553083675 278.00009010854353 L280.9999472208186 278.0000815379677 L280.99994040355534 278.0000724266572 L280.99993486441645 278.00006293616804 L280.9999305931683 278.000053222357 L280.999927562865 278.0000434336272 L280.99992573134625 278.00003370939385 L280.99992504284285 278.0000241787777 L280.9999254296607 278.00001495952716 L280.99992681391484 278.0000061571698 L280.99992910928603 277.9999978643888 L280.99993222277527 277.9999901606175 L280.9999360564308 277.9999831118434 L280.99994050902666 277.99997677061015 L280.9999454776737 277.99997117620325 L280.99995085934347 277.99996635500617 L280.99995655229213 277.9999623210084 L280.9999624573701 277.9999590764506 L280.99996847920795 277.9999566125862 L280.9999745272703 277.99995491054324 " stroke = "blue" stroke-width = "4" fill = "none" /></svg>