<svg width="500" height="500" viewbox = "0 0 500 500"  xmlns="http://www.w3.org/2000/svg">

<!--
<topfunctions>


//put helper functions here, along with contsants and variables


function YofX(){
    
    X = currentjson.plotparams.g*(x - currentjson.plotparams.x0);
    eval(currentjson.YofXstring);
    y = currentjson.plotparams.y0 - currentjson.plotparams.G*(Y);

}




function plotfunction(){
    /*plot one function:*/
    currentStroke = currentjson.style.color;
    currentLineWidth = currentjson.style.linewidth;
    ctx.strokeStyle = currentStroke;
    ctx.lineWidth = currentLineWidth;
    ctx.beginPath();	
    x = 0;
    YofX();
    currentSVG += "	<path d = \"M";
    currentSVG += Math.round(x).toString() + " ";
    currentSVG += Math.round(y).toString() + " ";
    for(x = 1;x < currentjson.plotparams.plotwidth;x++){
        ctx.moveTo(x-1,y);
        YofX();
        ctx.lineTo(x,y);
        currentSVG += "L" + x + " " + y + " ";
    }
    ctx.stroke();
    currentSVG += "\""+ " stroke = \"" + currentStroke + "\" stroke-width = \"" + currentLineWidth.toString() + "\" fill = \"" + "none" + "\" "+"/>";
    /*finish plot one function*/

}





























</topfunctions>
-->

<!--
<currentjson>
{
    "constants": {},
    "YofXstring": "Y =  X*X*X - 1.5*X*X",
    "style": {
        "linewidth": 4,
        "color": "blue",
        "fill": "none"
    },
    "plotparams": {
        "G": 130.9058528116375,
        "g": 0.008713609126058534,
        "duration": 450.78888054094654,
        "plotwidth": 500,
        "plotheight": 500,
        "x0": 158,
        "y0": 202
    },
    "funcparams": {},
    "image": {
        "url": "",
        "xoverw": 0.038011695906432746,
        "yoverw": -0.08771929824561403,
        "woverw": 0.8536631795472632,
        "angle": "0"
    }
}
</currentjson>
-->
	<path d = "M0 916 L1 904.6502616976841 L2 893.6201398158418 L3 882.7009000003974 L4 871.8920226090007 L5 861.1929879993011 L6 850.603276528949 L7 840.1223685555939 L8 829.7497444368859 L9 819.4848845304748 L10 809.3272691940102 L11 799.2763787851424 L12 789.3316936615211 L13 779.492694180796 L14 769.7588607006171 L15 760.1296735786344 L16 750.6046131724972 L17 741.1831598398562 L18 731.8647939383605 L19 722.6489958256607 L20 713.5352458594061 L21 704.5230243972466 L22 695.6118117968323 L23 686.8010884158131 L24 678.0903346118384 L25 669.4790307425587 L26 660.9666571656232 L27 652.5526942386825 L28 644.236622319386 L29 636.0179217653834 L30 627.896072934325 L31 619.8705561838606 L32 611.9408518716397 L33 604.1064403553125 L34 596.366801992529 L35 588.7214171409385 L36 581.1697661581912 L37 573.711329401937 L38 566.3455872298259 L39 559.0720199995075 L40 551.8901080686315 L41 544.7993317948484 L42 537.7991715358075 L43 530.8891076491589 L44 524.0686204925523 L45 517.3371904236378 L46 510.69429780006504 L47 504.1394229794841 L48 497.6720463195446 L49 491.29164817789655 L50 484.99770891218986 L51 478.78970888007433 L52 472.6671284391998 L53 466.629447947216 L54 460.6761477617731 L55 454.8067082405209 L56 449.02060974110907 L57 443.3173326211876 L58 437.6963572384063 L59 432.1571639504151 L60 426.6992331148639 L61 421.32204508940237 L62 416.0250802316806 L63 410.8078188993484 L64 405.6697414500554 L65 400.6103282414518 L66 395.6290596311874 L67 390.72541597691185 L68 385.89887763627513 L69 381.1489249669272 L70 376.47503832651785 L71 371.87669807269685 L72 367.3533845631142 L73 362.90457815541976 L74 358.5297592072634 L75 354.22840807629484 L76 350.000005120164 L77 345.8440306965209 L78 341.7599651630153 L79 337.74728887729697 L80 333.80548219701586 L81 329.9340254798219 L82 326.1323990833648 L83 322.40008336529456 L84 318.736558683261 L85 315.141305394914 L86 311.61380385790335 L87 308.153534429879 L88 304.7599774684908 L89 301.43261333138855 L90 298.17092237622217 L91 294.97438496064154 L92 291.8424814422965 L93 288.7746921788369 L94 285.7704975279126 L95 282.8293778471735 L96 279.9508134942694 L97 277.13428482685026 L98 274.3792722025659 L99 271.68525597906614 L100 269.05171651400093 L101 266.47813416502004 L102 263.9639892897734 L103 261.5087622459108 L104 259.11193339108223 L105 256.77298308293746 L106 254.49139167912637 L107 252.26663953729883 L108 250.09820701510472 L109 247.98557447019388 L110 245.92822226021616 L111 243.92563074282148 L112 241.97728027565967 L113 240.08265121638055 L114 238.2412239226341 L115 236.45247875207008 L116 234.71589606233837 L117 233.03095621108886 L118 231.39713955597142 L119 229.8139264546359 L120 228.28079726473214 L121 226.79723234391005 L122 225.3627120498195 L123 223.97671674011028 L124 222.6387267724323 L125 221.34822250443545 L126 220.10468429376957 L127 218.9075924980845 L128 217.75642747503014 L129 216.65066958225637 L130 215.589799177413 L131 214.5732966181499 L132 213.600642262117 L133 212.67131646696407 L134 211.78479959034104 L135 210.94057198989776 L136 210.13811402328412 L137 209.37690604814992 L138 208.65642842214507 L139 207.9761615029194 L140 207.33558564812282 L141 206.7341812154052 L142 206.1714285624163 L143 205.64680804680611 L144 205.15980002622445 L145 204.70988485832117 L146 204.29654290074615 L147 203.91925451114923 L148 203.57750004718028 L149 203.27075986648921 L150 202.99851432672583 L151 202.76024378554 L152 202.55542860058165 L153 202.38354912950058 L154 202.24408572994668 L155 202.1365187595698 L156 202.06032857601983 L157 202.0149955369466 L158 202 L159 202.0148223228299 L160 202.05894286308612 L161 202.13184197841858 L162 202.2330000264771 L163 202.36189736491158 L164 202.51801435137187 L165 202.70083134350782 L166 202.9098286989693 L167 203.1444867754062 L168 203.40428593046835 L169 203.6887065218056 L170 203.9972289070679 L171 204.329333443905 L172 204.68450048996687 L173 205.0622104029033 L174 205.46194354036416 L175 205.88318025999936 L176 206.32540091945873 L177 206.78808587639213 L178 207.27071548844947 L179 207.77277011328053 L180 208.29373010853527 L181 208.83307583186348 L182 209.39028764091506 L183 209.96484589333986 L184 210.55623094678776 L185 211.1639231589086 L186 211.78740288735227 L187 212.42615048976862 L188 213.0796463238075 L189 213.74737074711882 L190 214.4288041173524 L191 215.1234267921581 L192 215.83071912918584 L193 216.55016148608541 L194 217.28123422050675 L195 218.02341769009968 L196 218.77619225251405 L197 219.53903826539974 L198 220.31143608640664 L199 221.09286607318458 L200 221.88280858338345 L201 222.68074397465307 L202 223.48615260464337 L203 224.29851483100416 L204 225.1173110113853 L205 225.94202150343673 L206 226.77212666480824 L207 227.6071068531497 L208 228.446442426111 L209 229.289613741342 L210 230.13610115649254 L211 230.98538502921252 L212 231.8369457171518 L213 232.6902635779602 L214 233.54481896928763 L215 234.40009224878392 L216 235.25556377409896 L217 236.11071390288262 L218 236.96502299278475 L219 237.8179714014552 L220 238.66903948654388 L221 239.5177076057006 L222 240.36345611657524 L223 241.20576537681768 L224 242.04411574407777 L225 242.8779875760054 L226 243.7068612302504 L227 244.53021706446268 L228 245.34753543629202 L229 246.15829670338837 L230 246.96198122340155 L231 247.75806935398145 L232 248.5460414527779 L233 249.3253778774408 L234 250.09555898562 L235 250.85606513496532 L236 251.6063766831267 L237 252.34597398775398 L238 253.074337406497 L239 253.79094729700563 L240 254.49528401692976 L241 255.18682792391922 L242 255.8650593756239 L243 256.52945872969366 L244 257.1795063437783 L245 257.81468257552785 L246 258.434467782592 L247 259.0383423226207 L248 259.62578655326377 L249 260.19628083217117 L250 260.7493055169926 L251 261.2843409653781 L252 261.8008675349774 L253 262.29836558344044 L254 262.776315468417 L255 263.23419754755713 L256 263.67149217851045 L257 264.087679718927 L258 264.4822405264566 L259 264.85465495874905 L260 265.2044033734543 L261 265.5309661282222 L262 265.83382358070253 L263 266.11245608854523 L264 266.3663440094002 L265 266.5949677009172 L266 266.79780752074623 L267 266.97434382653705 L268 267.12405697593954 L269 267.2464273266035 L270 267.34093523617895 L271 267.4070610623156 L272 267.44428516266345 L273 267.4520878948723 L274 267.429949616592 L275 267.3773506854724 L276 267.29377145916345 L277 267.1786922953149 L278 267.0315935515767 L279 266.8519555855987 L280 266.63925875503065 L281 266.39298341752266 L282 266.1126099307244 L283 265.7976186522857 L284 265.4474899398566 L285 265.0617041510868 L286 264.6397416436263 L287 264.1810827751248 L288 263.68520790323237 L289 263.1515973855987 L290 262.57973157987374 L291 261.9690908437073 L292 261.3191555347493 L293 260.62940601064963 L294 259.8993226290581 L295 259.12838574762446 L296 258.3160757239989 L297 257.4618729158309 L298 256.56525768077057 L299 255.62571037646774 L300 254.64271136057226 L301 253.61574099073385 L302 252.54427962460258 L303 251.4278076198282 L304 250.26580533406067 L305 249.05775312494976 L306 247.80313135014535 L307 246.50142036729733 L308 245.15210053405562 L309 243.75465220806987 L310 242.30855574699024 L311 240.8132915084664 L312 239.2683398501482 L313 237.67318112968567 L314 236.02729570472852 L315 234.33016393292655 L316 232.5812661719299 L317 230.78008277938827 L318 228.92609411295143 L319 227.01878053026945 L320 225.057622388992 L321 223.042100046769 L322 220.97169386125037 L323 218.84588419008603 L324 216.6641513909256 L325 214.42597582141926 L326 212.13083783921658 L327 209.77821780196774 L328 207.36759606732235 L329 204.8984529929303 L330 202.37026893644156 L331 199.782524255506 L332 197.13469930777325 L333 194.4262744508935 L334 191.65673004251633 L335 188.825546440292 L336 185.9322040018698 L337 182.97618308490007 L338 179.95696404703241 L339 176.8740272459169 L340 173.72685303920323 L341 170.51492178454134 L342 167.23771383958098 L343 163.8947095619722 L344 160.4853893093648 L345 157.0092334394086 L346 153.46572230975343 L347 149.85433627804943 L348 146.17455570194588 L349 142.42586093909318 L350 138.607732347141 L351 134.71965028373927 L352 130.76109510653794 L353 126.73154717318631 L354 122.63048684133506 L355 118.4573944686335 L356 114.21175041273167 L357 109.89303503127964 L358 105.50072868192696 L359 101.03431172232345 L360 96.49326451011916 L361 91.87706740296377 L362 87.18520075850768 L363 82.41714493440024 L364 77.57238028829124 L365 72.65038717783099 L366 67.6506459606689 L367 62.57263699445505 L368 57.41584063683939 L369 52.179737245471784 L370 46.86380717800185 L371 41.467530792079486 L372 35.99038844535477 L373 30.43186049547751 L374 24.791427300097723 L375 19.068569216864745 L376 13.262766603429014 L377 7.373499817440177 L378 1.4002492165478486 L379 -4.6575048415978415 L380 -10.800281999347078 L381 -17.028601899049818 L382 -23.34298418305633 L383 -29.743948493717085 L384 -36.23201447338167 L385 -42.80770176440063 L386 -49.47153000912394 L387 -56.22401884990154 L388 -63.065687929083936 L389 -69.997056889021 L390 -77.01864537206308 L391 -84.1309730205599 L392 -91.33455947686235 L393 -98.62992438331969 L394 -106.01758738228239 L395 -113.4980681161012 L396 -121.07188622712556 L397 -128.73956135770544 L398 -136.50161315019147 L399 -144.35856124693356 L400 -152.31092529028177 L401 -160.35922492258675 L402 -168.50397978619844 L403 -176.74570952346602 L404 -185.0849337767409 L405 -193.52217218837262 L406 -202.05794440071162 L407 -210.6927700561074 L408 -219.4271687969109 L409 -228.26166026547168 L410 -237.19676410413973 L411 -246.23299995526617 L412 -255.37088746120014 L413 -264.61094626429207 L414 -273.9536960068926 L415 -283.3996563313513 L416 -292.94934688001774 L417 -302.60328729524326 L418 -312.36199721937794 L419 -322.2259962947704 L420 -332.195804163773 L421 -342.2719404687339 L422 -352.45492485200396 L423 -362.74527695593395 L424 -373.14351642287363 L425 -383.65016289517246 L426 -394.2657360151808 L427 -404.9907554252495 L428 -415.82574076772835 L429 -426.7712116849665 L430 -437.82768781931634 L431 -448.9956888131262 L432 -460.2757343087461 L433 -471.66834394852685 L434 -483.1740373748189 L435 -494.7933342299714 L436 -506.52675415633576 L437 -518.3748167962615 L438 -530.3380417920976 L439 -542.4169487861959 L440 -554.612057420906 L441 -566.9238873385774 L442 -579.3529581815611 L443 -591.8997895922074 L444 -604.5649012128656 L445 -617.3488126858856 L446 -630.2520436536188 L447 -643.2751137584146 L448 -656.4185426426226 L449 -669.6828499485939 L450 -683.0685553186784 L451 -696.5761783952256 L452 -710.2062388205863 L453 -723.9592562371108 L454 -737.8357502871482 L455 -751.8362406130502 L456 -765.9612468571656 L457 -780.2112886618447 L458 -794.5868856694382 L459 -809.0885575222961 L460 -823.7168238627685 L461 -838.4722043332049 L462 -853.3552185759565 L463 -868.3663862333726 L464 -883.506226947804 L465 -898.7752603616004 L466 -914.1740061171122 L467 -929.7029838566887 L468 -945.3627132226809 L469 -961.1537138574395 L470 -977.0765054033125 L471 -993.1316075026525 L472 -1009.3195397978088 L473 -1025.6408219311297 L474 -1042.0959735449683 L475 -1058.6855142816732 L476 -1075.4099637835934 L477 -1092.2698416930814 L478 -1109.2656676524866 L479 -1126.3979613041577 L480 -1143.6672422904467 L481 -1161.0740302537029 L482 -1178.6188448362761 L483 -1196.302205680518 L484 -1214.1246324287763 L485 -1232.0866447234034 L486 -1250.1887622067472 L487 -1268.43150452116 L488 -1286.8153913089907 L489 -1305.3409422125892 L490 -1324.0086768743074 L491 -1342.8191149364934 L492 -1361.772776041498 L493 -1380.8701798316713 L494 -1400.1118459493653 L495 -1419.4982940369264 L496 -1439.0300437367077 L497 -1458.7076146910586 L498 -1478.5315265423283 L499 -1498.5022989328686 " stroke = "blue" stroke-width = "4" fill = "none" /></svg>