<svg width="401" height="454" viewbox = "0 0 401 454"  xmlns="http://www.w3.org/2000/svg">

<!--
<topfunctions>


function YofX(){
    
    X = currentjson.plotparams.g*(x - currentjson.plotparams.x0);
    eval(currentjson.YofXstring);
    y = currentjson.plotparams.y0 - currentjson.plotparams.G*(Y);

}




function plotfunction(){
    /*plot one function:*/
    currentStroke = currentjson.style.color;
    currentLineWidth = currentjson.style.linewidth;
    ctx.strokeStyle = currentStroke;
    ctx.lineWidth = currentLineWidth;
    ctx.beginPath();	
    x = 0;
    YofX();
    currentSVG += "	<path d = \"M";
    currentSVG += Math.round(x).toString() + " ";
    currentSVG += Math.round(y).toString() + " ";
    for(x = 1;x < currentjson.plotparams.plotwidth;x++){
        ctx.moveTo(x-1,y);
        YofX();
        ctx.lineTo(x,y);
        currentSVG += "L" + x + " " + y + " ";
    }
    ctx.stroke();
    currentSVG += "\""+ " stroke = \"" + currentStroke + "\" stroke-width = \"" + currentLineWidth.toString() + "\" fill = \"" + "none" + "\" "+"/>";
    /*finish plot one function*/

}





























</topfunctions>
-->

<!--
<currentjson>
{
    "constants": {},
    "YofXstring": "Y = X/Math.tanh(X) - 0.5",
    "style": {
        "linewidth": 10,
        "color": "red",
        "fill": "none"
    },
    "plotparams": {
        "G": 130.02746261746327,
        "g": 0.01202624831387794,
        "duration": 450.78888054094654,
        "plotwidth": 401,
        "plotheight": 454,
        "x0": 208,
        "y0": 246
    },
    "funcparams": {},
    "image": {
        "url": "https://i.imgur.com/5226cet.png",
        "xoverw": -0.16666666666666666,
        "yoverw": -0.3333333333333333,
        "woverw": 1.3861584140507315,
        "angle": 88.42105263157895
    }
}
</currentjson>
-->
	<path d = "M0 -19 L1 -17.167091130479946 L2 -15.691130896215043 L3 -14.216797745533995 L4 -12.744119366147288 L5 -11.273123849557521 L6 -9.803839695098162 L7 -8.336295813961272 L8 -6.870521533208802 L9 -5.40654659976795 L10 -3.9444011844072975 L11 -2.484115885692262 L12 -1.0257217339169529 L13 0.4307498049891194 L14 1.8852668255821925 L15 3.3377969790553266 L16 4.788307469421852 L17 6.236765049734174 L18 7.683136018339184 L19 9.12738621517471 L20 10.569481018107524 L21 12.009385339317475 L22 13.447063621728972 L23 14.882479835494024 L24 16.315597474528346 L25 17.746379553104163 L26 19.174788602503014 L27 20.600786667730716 L28 22.024335304298035 L29 23.44539557507025 L30 24.86392804718875 L31 26.279892789067844 L32 27.693249367469946 L33 29.103956844662605 L34 30.511973775661573 L35 31.917258205561353 L36 33.31976766695905 L37 34.71945917747351 L38 36.11628923736441 L39 37.510213827253466 L40 38.90118840595346 L41 40.28916790840725 L42 41.67410674374116 L43 43.055958793436645 L44 44.434677409624015 L45 45.81021541350185 L46 47.18252509388657 L47 48.551558205896185 L48 49.917265969771165 L49 51.27959906983807 L50 52.63850765361903 L51 53.993941331091094 L52 55.34584917410058 L53 56.69417971593512 L54 58.03888095105913 L55 59.37990033501566 L56 60.717184784499636 L57 62.05068067760621 L58 63.38033385425902 L59 64.70608961682186 L60 66.02789273089886 L61 67.34568742632646 L62 68.65941739836248 L63 69.96902580907576 L64 71.27445528894069 L65 72.57564793864105 L66 73.8725453310876 L67 75.16508851365268 L68 76.45321801062724 L69 77.73687382590288 L70 79.01599544588453 L71 80.29052184263696 L72 81.56039147726881 L73 82.82554230355885 L74 84.08591177182817 L75 85.3414368330615 L76 86.59205394328234 L77 87.83769906818483 L78 89.07830768802657 L79 90.31381480278532 L80 91.54415493758378 L81 92.76926214838525 L82 93.98907002796327 L83 95.20351171214938 L84 96.41251988636114 L85 97.61602679241344 L86 98.81396423561645 L87 100.00626359216264 L88 101.19285581680532 L89 102.37367145083118 L90 103.54864063032952 L91 104.71769309475974 L92 105.88075819581988 L93 107.03776490661681 L94 108.1886418311413 L95 109.33331721404824 L96 110.47171895074408 L97 111.60377459778229 L98 112.72941138356802 L99 113.8485562193724 L100 114.96113571065771 L101 116.06707616871296 L102 117.16630362260085 L103 118.25874383141546 L104 119.3443222968507 L105 120.42296427607901 L106 121.49459479493945 L107 122.55913866143435 L108 123.61652047953348 L109 124.66666466328346 L110 125.70949545122212 L111 126.7449369210947 L112 127.77291300486995 L113 128.79334750405388 L114 129.80616410529848 L115 130.81128639630197 L116 131.80863788199784 L117 132.7981420010284 L118 133.7797221424999 L119 134.7533016630145 L120 135.71880390397462 L121 136.67615220915542 L122 137.62526994254034 L123 138.5660805064137 L124 139.49850735970617 L125 140.42247403658592 L126 141.33790416528996 L127 142.2447214871894 L128 143.1428498760814 L129 144.03221335770138 L130 144.9127361294469 L131 145.78434258030808 L132 146.64695731099363 L133 147.50050515424698 L134 148.34491119534198 L135 149.18010079275103 L136 150.0059995989758 L137 150.8225335815312 L138 151.62962904407323 L139 152.42721264766107 L140 153.21521143214346 L141 153.99355283765777 L142 154.76216472623338 L143 155.52097540348603 L144 156.26991364039432 L145 157.0089086951458 L146 157.7378903350407 L147 158.45678885844345 L148 159.16553511676784 L149 159.8640605364855 L150 160.5522971411437 L151 161.23017757338164 L152 161.89763511693135 L153 162.55460371859067 L154 163.2010180101558 L155 163.83681333029935 L156 164.4619257463819 L157 165.07629207618223 L158 165.67984990953397 L159 166.27253762985484 L160 166.8542944355541 L161 167.42506036130547 L162 167.9847762991713 L163 168.53338401956415 L164 169.0708261920322 L165 169.59704640585426 L166 170.11198919043133 L167 170.61560003545964 L168 171.10782541087283 L169 171.58861278653836 L170 172.05791065169498 L171 172.51566853411805 L172 172.9618370189981 L173 173.3963677675203 L174 173.8192135351312 L175 174.23032818947905 L176 174.62966672801554 L177 175.01718529524572 L178 175.39284119961349 L179 175.7565929300095 L180 176.10840017189088 L181 176.44822382299893 L182 176.77602600866413 L183 177.09177009668628 L184 177.39542071177902 L185 177.68694374956726 L186 177.96630639012693 L187 178.23347711105706 L188 178.48842570007307 L189 178.73112326711282 L190 178.961542255945 L191 179.17965645527107 L192 179.38544100931222 L193 179.578872427873 L194 179.75992859587336 L195 179.92858878234182 L196 180.08483364886294 L197 180.22864525747127 L198 180.3600070779873 L199 180.47890399478734 L200 180.58532231300413 L201 180.67924976415114 L202 180.76067551116793 L203 180.82959015288094 L204 180.88598572787714 L205 180.92985571778704 L206 180.96119504997412 L207 180.98000009962948 L208 NaN L209 180.98000009962948 L210 180.96119504997412 L211 180.92985571778704 L212 180.88598572787714 L213 180.82959015288094 L214 180.76067551116793 L215 180.67924976415114 L216 180.58532231300413 L217 180.47890399478734 L218 180.3600070779873 L219 180.22864525747127 L220 180.08483364886294 L221 179.92858878234182 L222 179.75992859587336 L223 179.578872427873 L224 179.38544100931222 L225 179.17965645527107 L226 178.961542255945 L227 178.73112326711282 L228 178.48842570007307 L229 178.23347711105706 L230 177.96630639012693 L231 177.68694374956726 L232 177.39542071177902 L233 177.09177009668628 L234 176.77602600866413 L235 176.44822382299893 L236 176.10840017189088 L237 175.7565929300095 L238 175.39284119961349 L239 175.01718529524572 L240 174.62966672801554 L241 174.23032818947905 L242 173.8192135351312 L243 173.3963677675203 L244 172.9618370189981 L245 172.51566853411805 L246 172.05791065169498 L247 171.58861278653836 L248 171.10782541087283 L249 170.61560003545964 L250 170.11198919043133 L251 169.59704640585426 L252 169.0708261920322 L253 168.53338401956415 L254 167.9847762991713 L255 167.42506036130547 L256 166.8542944355541 L257 166.27253762985484 L258 165.67984990953397 L259 165.07629207618223 L260 164.4619257463819 L261 163.83681333029935 L262 163.2010180101558 L263 162.55460371859067 L264 161.89763511693135 L265 161.23017757338164 L266 160.5522971411437 L267 159.8640605364855 L268 159.16553511676784 L269 158.45678885844345 L270 157.7378903350407 L271 157.0089086951458 L272 156.26991364039432 L273 155.52097540348603 L274 154.76216472623338 L275 153.99355283765777 L276 153.21521143214346 L277 152.42721264766107 L278 151.62962904407323 L279 150.8225335815312 L280 150.0059995989758 L281 149.18010079275103 L282 148.34491119534198 L283 147.50050515424698 L284 146.64695731099363 L285 145.78434258030808 L286 144.9127361294469 L287 144.03221335770138 L288 143.1428498760814 L289 142.2447214871894 L290 141.33790416528996 L291 140.42247403658592 L292 139.49850735970617 L293 138.5660805064137 L294 137.62526994254034 L295 136.67615220915542 L296 135.71880390397462 L297 134.7533016630145 L298 133.7797221424999 L299 132.7981420010284 L300 131.80863788199784 L301 130.81128639630197 L302 129.80616410529848 L303 128.79334750405388 L304 127.77291300486995 L305 126.7449369210947 L306 125.70949545122212 L307 124.66666466328346 L308 123.61652047953348 L309 122.55913866143435 L310 121.49459479493945 L311 120.42296427607901 L312 119.3443222968507 L313 118.25874383141546 L314 117.16630362260085 L315 116.06707616871296 L316 114.96113571065771 L317 113.8485562193724 L318 112.72941138356802 L319 111.60377459778229 L320 110.47171895074408 L321 109.33331721404824 L322 108.1886418311413 L323 107.03776490661681 L324 105.88075819581988 L325 104.71769309475974 L326 103.54864063032952 L327 102.37367145083118 L328 101.19285581680532 L329 100.00626359216264 L330 98.81396423561645 L331 97.61602679241344 L332 96.41251988636114 L333 95.20351171214938 L334 93.98907002796327 L335 92.76926214838525 L336 91.54415493758378 L337 90.31381480278532 L338 89.07830768802657 L339 87.83769906818483 L340 86.59205394328234 L341 85.3414368330615 L342 84.08591177182817 L343 82.82554230355885 L344 81.56039147726881 L345 80.29052184263696 L346 79.01599544588453 L347 77.73687382590288 L348 76.45321801062724 L349 75.16508851365268 L350 73.8725453310876 L351 72.57564793864105 L352 71.27445528894069 L353 69.96902580907576 L354 68.65941739836248 L355 67.34568742632646 L356 66.02789273089886 L357 64.70608961682186 L358 63.38033385425902 L359 62.05068067760621 L360 60.717184784499636 L361 59.37990033501566 L362 58.03888095105913 L363 56.69417971593512 L364 55.34584917410058 L365 53.993941331091094 L366 52.63850765361903 L367 51.27959906983807 L368 49.917265969771165 L369 48.551558205896185 L370 47.18252509388657 L371 45.81021541350185 L372 44.434677409624015 L373 43.055958793436645 L374 41.67410674374116 L375 40.28916790840725 L376 38.90118840595346 L377 37.510213827253466 L378 36.11628923736441 L379 34.71945917747351 L380 33.31976766695905 L381 31.917258205561353 L382 30.511973775661573 L383 29.103956844662605 L384 27.693249367469946 L385 26.279892789067844 L386 24.86392804718875 L387 23.44539557507025 L388 22.024335304298035 L389 20.600786667730716 L390 19.174788602503014 L391 17.746379553104163 L392 16.315597474528346 L393 14.882479835494024 L394 13.447063621728972 L395 12.009385339317475 L396 10.569481018107524 L397 9.12738621517471 L398 7.683136018339184 L399 6.236765049734174 L400 4.788307469421852 " stroke = "red" stroke-width = "10" fill = "none" /></svg>