<svg width="400" height="400" viewbox = "0 0 400 400"  xmlns="http://www.w3.org/2000/svg">

<!--
<topfunctions>



function YofX(){
    
    X = currentjson.plotparams.g*(x - currentjson.plotparams.x0) - currentjson.funcparams.X0;
    Y = Math.sin(X);
    y = currentjson.plotparams.y0 - currentjson.plotparams.G*(Y - currentjson.funcparams.Y0);

}



function plotfunction(){
    /*plot one function:*/
    currentStroke = currentjson.style.color;
    currentLineWidth = currentjson.style.linewidth;
    ctx.strokeStyle = currentStroke;
    ctx.lineWidth = currentLineWidth;
    ctx.beginPath();	
    x = 0;
    YofX();
    currentSVG += "	<path d = \"M";
    currentSVG += Math.round(x).toString() + " ";
    currentSVG += Math.round(y).toString() + " ";
    for(x = 1;x < currentjson.plotparams.plotwidth;x++){
        ctx.moveTo(x-1,y);
        YofX();
        ctx.lineTo(x,y);
        currentSVG += "L" + x + " " + y + " ";
    }
    ctx.stroke();
    currentSVG += "\""+ " stroke = \"" + currentStroke + "\" stroke-width = \"" + currentLineWidth.toString() + "\" fill = \"" + "none" + "\" "+"/>";
    /*finish plot one function*/

}





























</topfunctions>
-->

<!--
<currentjson>
{
    "constants": {},
    "style": {
        "linewidth": 4,
        "color": "blue",
        "fill": "none"
    },
    "plotparams": {
        "G": 60.81227182221651,
        "g": 0.016444049367592785,
        "duration": 450.78888054094654,
        "plotwidth": 400,
        "plotheight": 400,
        "x0": 120,
        "y0": 165
    },
    "funcparams": {
        "phi": 0.2688139066614501,
        "T": 1.4465183912692552,
        "X0": 0,
        "Y0": 0
    },
    "image": {
        "url": "https://i.imgur.com/5226cet.png",
        "xoverw": 0.02631578947368421,
        "yoverw": -0.02631578947368421,
        "woverw": 1.5700245115152258,
        "angle": 91.57894736842105
    }
}
</currentjson>
-->
	<path d = "M0 221 L1 221.33680855465633 L2 221.70570277381188 L3 222.05926373315205 L4 222.39739582955787 L5 222.72000763188515 L6 223.02701190568757 L7 223.31832563680493 L8 223.59387005381024 L9 223.85357064930946 L10 224.09735720008862 L11 224.32516378610188 L12 224.5369288082966 L13 224.7325950052697 L14 224.91210946875108 L15 225.07542365791025 L16 225.2224934124816 L17 225.3532789647055 L18 225.46774495008154 L19 225.56586041693092 L20 225.64759883476606 L21 225.71293810146432 L22 225.76186054924443 L23 225.79435294944392 L24 225.81040651609612 L25 225.8100169083059 L26 225.7931842314235 L27 225.75991303701593 L28 225.71021232163636 L29 225.64409552439133 L30 225.56158052330687 L31 225.46268963049425 L32 225.3474495861168 L33 225.21589155115927 L34 225.06805109900205 L35 224.90396820580182 L36 224.7236872396823 L37 224.52725694873686 L38 224.314730447847 L39 224.08616520432025 L40 223.84162302235075 L41 223.5811700263074 L42 223.3048766428539 L43 223.0128175819053 L44 222.7050718164262 L45 222.38172256107674 L46 222.04285724971095 L47 221.68856751173487 L48 221.3189491473297 L49 220.9341021015475 L50 220.53413043728585 L51 220.11914230714933 L52 219.6892499242048 L53 219.2445695316391 L54 218.78522137132666 L55 218.31132965131616 L56 217.8230225122444 L57 217.3204319926872 L58 216.80369399345594 L59 216.27294824084993 L60 215.72833824887434 L61 215.1700112804339 L62 214.5981183075129 L63 214.0128139703523 L64 213.4142565356349 L65 212.80260785368986 L66 212.17803331472834 L67 211.54070180412188 L68 210.89078565673563 L69 210.22846061032888 L70 209.55390575803554 L71 208.86730349993712 L72 208.16883949374179 L73 207.45870260458216 L74 206.73708485394627 L75 206.0041813677548 L76 205.2601903235987 L77 204.5053128971521 L78 203.7397532077741 L79 202.96371826331483 L80 202.1774179041404 L81 201.38106474639187 L82 200.57487412449373 L83 199.7590640329273 L84 198.93385506728504 L85 198.09947036462103 L86 197.25613554311494 L87 196.4040786410644 L88 195.54353005522347 L89 194.6747224785032 L90 193.7978908370513 L91 192.91327222672786 L92 192.02110584899452 L93 191.1216329462344 L94 190.21509673651965 L95 189.30174234784556 L96 188.38181675184734 L97 187.45556869701915 L98 186.52324864145223 L99 185.58510868511084 L100 184.64140250166432 L101 183.69238526989346 L102 182.73831360469015 L103 181.77944548766834 L104 180.81604019740587 L105 179.8483582393351 L106 178.87666127530238 L107 177.90121205281423 L108 176.9222743339904 L109 175.94011282424233 L110 174.95499310069678 L111 173.96718154038336 L112 172.97694524820625 L113 171.98455198471862 L114 170.99027009372026 L115 169.994368429697 L116 168.9971162851224 L117 167.99878331764083 L118 166.999639477152 L119 165.99995493281605 L120 165 L121 164.00004506718395 L122 163.000360522848 L123 162.00121668235917 L124 161.0028837148776 L125 160.005631570303 L126 159.00972990627974 L127 158.01544801528138 L128 157.02305475179375 L129 156.03281845961664 L130 155.04500689930322 L131 154.05988717575767 L132 153.0777256660096 L133 152.09878794718577 L134 151.12333872469762 L135 150.1516417606649 L136 149.18395980259413 L137 148.22055451233166 L138 147.26168639530985 L139 146.30761473010654 L140 145.35859749833568 L141 144.41489131488916 L142 143.47675135854777 L143 142.54443130298085 L144 141.61818324815266 L145 140.69825765215444 L146 139.78490326348035 L147 138.8783670537656 L148 137.97889415100548 L149 137.08672777327214 L150 136.2021091629487 L151 135.3252775214968 L152 134.45646994477653 L153 133.5959213589356 L154 132.74386445688506 L155 131.90052963537897 L156 131.06614493271496 L157 130.2409359670727 L158 129.42512587550627 L159 128.61893525360813 L160 127.82258209585959 L161 127.03628173668517 L162 126.2602467922259 L163 125.4946871028479 L164 124.73980967640131 L165 123.9958186322452 L166 123.26291514605373 L167 122.54129739541784 L168 121.83116050625821 L169 121.13269650006286 L170 120.44609424196446 L171 119.77153938967112 L172 119.10921434326437 L173 118.45929819587812 L174 117.82196668527165 L175 117.19739214631014 L176 116.5857434643651 L177 115.98718602964769 L178 115.4018816924871 L179 114.8299887195661 L180 114.27166175112566 L181 113.72705175915007 L182 113.19630600654406 L183 112.67956800731281 L184 112.17697748775561 L185 111.68867034868386 L186 111.21477862867334 L187 110.75543046836091 L188 110.3107500757952 L189 109.88085769285067 L190 109.46586956271415 L191 109.0658978984525 L192 108.6810508526703 L193 108.31143248826513 L194 107.95714275028905 L195 107.61827743892326 L196 107.29492818357379 L197 106.9871824180947 L198 106.69512335714609 L199 106.41882997369261 L200 106.15837697764927 L201 105.91383479567975 L202 105.68526955215299 L203 105.47274305126315 L204 105.2763127603177 L205 105.09603179419818 L206 104.93194890099797 L207 104.78410844884073 L208 104.6525504138832 L209 104.53731036950575 L210 104.43841947669313 L211 104.35590447560867 L212 104.28978767836364 L213 104.24008696298407 L214 104.20681576857649 L215 104.18998309169409 L216 104.18959348390389 L217 104.20564705055608 L218 104.23813945075558 L219 104.2870618985357 L220 104.35240116523394 L221 104.43413958306908 L222 104.53225504991846 L223 104.64672103529449 L224 104.77750658751839 L225 104.92457634208975 L226 105.08789053124892 L227 105.2674049947303 L228 105.46307119170339 L229 105.67483621389812 L230 105.90264279991138 L231 106.14642935069052 L232 106.40612994618978 L233 106.68167436319507 L234 106.97298809431243 L235 107.27999236811485 L236 107.60260417044213 L237 107.94073626684795 L238 108.29429722618814 L239 108.66319144534367 L240 109.04731917507189 L241 109.44657654697875 L242 109.86085560160478 L243 110.29004431761763 L244 110.73402664210246 L245 111.1926825219429 L246 111.66588793628341 L247 112.15351493006466 L248 112.65543164862257 L249 113.17150237334201 L250 113.70158755835516 L251 114.24554386827472 L252 114.80322421695209 L253 115.37447780724935 L254 115.95915017181505 L255 116.55708321485218 L256 117.16811525486753 L257 117.7920810683903 L258 118.42881193464873 L259 119.07813568119231 L260 119.73987673044729 L261 120.41385614719306 L262 121.09989168694617 L263 121.79779784523959 L264 122.50738590778302 L265 123.22846400149157 L266 123.96083714636816 L267 124.70430730822648 L268 125.45867345223928 L269 126.22373159729862 L270 126.99927487117225 L271 127.78509356644213 L272 128.58097519720948 L273 129.38670455655097 L274 130.20206377471098 L275 131.02683237801358 L276 131.86078734847888 L277 132.70370318412714 L278 133.55535195995478 L279 134.41550338956526 L280 135.2839248874389 L281 136.16038163182407 L282 137.04463662823295 L283 137.9364507735254 L284 138.8355829205622 L285 139.7417899434117 L286 140.65482680309108 L287 141.5744466138251 L288 142.50040070980413 L289 143.43243871242365 L290 144.37030859798665 L291 145.31375676585114 L292 146.26252810700393 L293 147.2163660730421 L294 148.1750127455441 L295 149.1382089058109 L296 150.1056941049589 L297 151.0772067343456 L298 152.0524840963087 L299 153.03126247519955 L300 154.01327720869241 L301 154.9982627593489 L302 155.98595278641986 L303 156.9760802178638 L304 157.96837732256347 L305 158.9625757827206 L306 159.95840676640904 L307 160.9556010002673 L308 161.95388884231 L309 162.95300035483953 L310 163.95266537743706 L311 164.95261360001444 L312 165.95257463590596 L313 166.95227809498115 L314 167.95145365675862 L315 168.9498311435006 L316 169.94714059326947 L317 170.9431123329254 L318 171.93747705104641 L319 172.92996587075007 L320 173.92031042239825 L321 174.9082429161642 L322 175.8934962144434 L323 176.8758039040874 L324 177.8549003684424 L325 178.83052085917205 L326 179.80240156784552 L327 180.77027969727163 L328 181.73389353255916 L329 182.69298251188508 L330 183.6472872969502 L331 184.59654984310478 L332 185.5405134691238 L333 186.4789229266138 L334 187.41152446903212 L335 188.33806592030032 L336 189.2582967429926 L337 190.17196810608124 L338 191.07883295222092 L339 191.9786460645529 L340 192.8711641330121 L341 193.75614582011798 L342 194.63335182623274 L343 195.50254495426776 L344 196.36349017382207 L345 197.21595468473458 L346 198.05970798003358 L347 198.89452190826572 L348 199.72017073518856 L349 200.53643120480916 L350 201.34308259975256 L351 202.13990680094417 L352 202.92668834658892 L353 203.70321449043269 L354 204.46927525928868 L355 205.2246635098146 L356 205.96917498452413 L357 206.7026083670184 L358 207.4247653364221 L359 208.13545062100945 L360 208.834472051006 L361 209.52164061055123 L362 210.1967704888088 L363 210.85967913020974 L364 211.5101872838157 L365 212.1481190517885 L366 212.77330193695298 L367 213.38556688944038 L368 213.9847483523996 L369 214.57068430676378 L370 215.1432163150605 L371 215.70218956425313 L372 216.24745290760265 L373 216.77885890553767 L374 217.2962638655223 L375 217.79952788091055 L376 218.2885148687773 L377 218.76309260671522 L378 219.22313276858776 L379 219.6685109592286 L380 220.09910674807819 L381 220.51480370174832 L382 220.9154894155057 L383 221.30105554366642 L384 221.6713978288924 L385 222.02641613038298 L386 222.36601445095286 L387 222.6901009629899 L388 222.99858803328533 L389 223.29139224672969 L390 223.56843442886858 L391 223.82963966731143 L392 224.0749373319876 L393 224.3042610942452 L394 224.51754894478603 L395 224.71474321043323 L396 224.895790569726 L397 225.06064206733765 L398 225.20925312731345 L399 225.34158356512376 " stroke = "blue" stroke-width = "4" fill = "none" /></svg>