<svg width="500" height="500" viewbox = "0 0 500 500"  xmlns="http://www.w3.org/2000/svg">

<!--
<topfunctions>


//put helper functions here, along with contsants and variables


function YofX(){
    
    X = currentjson.plotparams.g*(x - currentjson.plotparams.x0);
    eval(currentjson.YofXstring);
    y = currentjson.plotparams.y0 - currentjson.plotparams.G*(Y);

}




function plotfunction(){
    /*plot one function:*/
    currentStroke = currentjson.style.color;
    currentLineWidth = currentjson.style.linewidth;
    ctx.strokeStyle = currentStroke;
    ctx.lineWidth = currentLineWidth;
    ctx.beginPath();	
    x = 0;
    YofX();
    currentSVG += "	<path d = \"M";
    currentSVG += Math.round(x).toString() + " ";
    currentSVG += Math.round(y).toString() + " ";
    for(x = 1;x < currentjson.plotparams.plotwidth;x++){
        ctx.moveTo(x-1,y);
        YofX();
        ctx.lineTo(x,y);
        currentSVG += "L" + x + " " + y + " ";
    }
    ctx.stroke();
    currentSVG += "\""+ " stroke = \"" + currentStroke + "\" stroke-width = \"" + currentLineWidth.toString() + "\" fill = \"" + "none" + "\" "+"/>";
    /*finish plot one function*/

}





























</topfunctions>
-->

<!--
<currentjson>
{
    "constants": {},
    "YofXstring": "Y =  (1/Math.PI)*0.5/(X*X + 0.25);",
    "style": {
        "linewidth": 4,
        "color": "blue",
        "fill": "none"
    },
    "plotparams": {
        "G": 244.84367468222268,
        "g": "0.005",
        "duration": 450.78888054094654,
        "plotwidth": 500,
        "plotheight": 500,
        "x0": -4,
        "y0": 201
    },
    "funcparams": {},
    "image": {
        "url": "",
        "xoverw": 0.038011695906432746,
        "yoverw": -0.08771929824561403,
        "woverw": 0.8536631795472632,
        "angle": "0"
    }
}
</currentjson>
-->
	<path d = "M0 45 L1 45.51638459666955 L2 45.68680306711963 L3 45.88772570222034 L4 46.118914505327126 L5 46.38009677428951 L6 46.670965899169545 L7 46.991182252901154 L8 47.34037417011163 L9 47.71813900891064 L10 48.12404429007577 L11 48.557628907737154 L12 49.01840440538345 L13 49.505856310779706 L14 50.01944552320927 L15 50.55860974631912 L16 51.12276495977045 L17 51.711306922863 L18 52.32361270332052 L19 52.95904222448593 L20 53.61693982428258 L21 54.29663581944587 L22 54.99744806871607 L23 55.71868352890414 L24 56.45963979799819 L25 57.21960663975764 L26 57.99786748455162 L27 58.793700901524744 L28 59.606382037519296 L29 60.435184018542 L30 61.27937930993298 L31 62.138241031769496 L32 63.01104422641751 L33 63.89706707552227 L34 64.79559206410454 L35 65.70590708980231 L36 66.62730651565627 L37 67.5590921651924 L38 68.50057425889258 L39 69.4510722914687 L40 70.40991584966594 L41 71.37644537061226 L42 72.35001284100466 L43 73.32998243767817 L44 74.31573111033912 L45 75.30664910746007 L46 76.30214044652901 L47 77.30162333002241 L48 78.30453050862818 L49 79.31030959338061 L50 80.31842331848966 L51 81.32834975674568 L52 82.33958248946503 L53 83.3516307330072 L54 84.36401942394586 L55 85.37628926501095 L56 86.38799673394209 L57 87.39871405740199 L58 88.40802915209568 L59 89.41554553522889 L60 90.42088220641405 L61 91.42367350310106 L62 92.42356893156955 L63 93.4202329754719 L64 94.413344883863 L65 95.4025984405943 L66 96.38770171688675 L67 97.36837680883004 L68 98.3443595614866 L69 99.31539928120637 L70 100.28125843768497 L71 101.2417123572232 L72 102.19654890857076 L73 103.14556818266134 L74 104.08858216747156 L75 105.02541441916216 L76 105.95589973058613 L77 106.8798837981772 L78 107.79722288816147 L79 108.70778350296717 L80 109.6114420486405 L81 110.50808450401233 L82 111.39760609229778 L83 112.27991095575231 L84 113.15491183395021 L85 114.02252974619789 L86 114.88269367854213 L87 115.73534027578428 L88 116.5804135388655 L89 117.41786452794318 L90 118.24765107143834 L91 119.0697374812937 L92 119.88409427464678 L93 120.69069790208731 L94 121.48953048263682 L95 122.28057954555894 L96 123.06383777908063 L97 123.83930278608052 L98 124.60697684677575 L99 125.3668666884183 L100 126.11898326199137 L101 126.8633415258793 L102 127.59996023646697 L103 128.3288617456111 L104 129.05007180491197 L105 129.76361937670185 L106 130.46953645165667 L107 131.1678578729274 L108 131.85862116667906 L109 132.54186637891925 L110 133.2176359184907 L111 133.88597440609743 L112 134.54692852922972 L113 135.20054690284996 L114 135.8468799356969 L115 136.48597970206583 L116 137.11789981891854 L117 137.74269532817712 L118 138.3604225840545 L119 138.9711391452749 L120 139.57490367203707 L121 140.17177582757512 L122 140.76181618417115 L123 141.34508613347668 L124 141.9216478010011 L125 142.49156396462644 L126 143.05489797701162 L127 143.61171369174966 L128 144.16207539314513 L129 144.70604772948147 L130 145.2436956496499 L131 145.77508434301552 L132 146.300279182398 L133 146.81934567004805 L134 147.33234938650367 L135 147.83935594221248 L136 148.34043093181123 L137 148.83563989095452 L138 149.32504825558988 L139 149.80872132357752 L140 150.28672421855845 L141 150.75912185597463 L142 151.22597891115123 L143 151.68735978935152 L144 152.14332859771855 L145 152.59394911902154 L146 153.03928478712655 L147 153.47939866411429 L148 153.9143534189709 L149 154.34421130777972 L150 154.76903415534503 L151 155.1888833381811 L152 155.6038197688028 L153 156.01390388125523 L154 156.4191956178244 L155 156.81975441687064 L156 157.21563920173068 L157 157.60690837063592 L158 157.99361978759555 L159 158.37583077419708 L160 158.753598102277 L161 159.1269779874174 L162 159.4960260832254 L163 159.86079747635495 L164 160.2213466822314 L165 160.57772764144116 L166 160.92999371675097 L167 161.27819769072175 L168 161.6223917638847 L169 161.96262755344767 L170 162.29895609250204 L171 162.63142782970124 L172 162.96009262938335 L173 163.2849997721119 L174 163.60619795560916 L175 163.9237352960589 L176 164.23765932975502 L177 164.54801701507478 L178 164.8548547347559 L179 165.15821829845737 L180 165.45815294558582 L181 165.75470334836885 L182 166.0479136151586 L183 166.33782729394943 L184 166.62448737609412 L185 166.9079363002037 L186 167.1882159562172 L187 167.4653676896283 L188 167.7394323058555 L189 168.0104500747447 L190 168.27846073519214 L191 168.5435034998774 L192 168.8056170600961 L193 169.0648395906823 L194 169.32120875501204 L195 169.5747617100787 L196 169.82553511163226 L197 170.07356511937488 L198 170.3188874022048 L199 170.56153714350236 L200 170.80154904645096 L201 171.03895733938708 L202 171.27379578117348 L203 171.50609766658994 L204 171.73589583173649 L205 171.96322265944397 L206 172.18811008468785 L207 172.41058960000024 L208 172.63069226087674 L209 172.84844869117399 L210 173.06388908849402 L211 173.2770432295529 L212 173.48794047552974 L213 173.6966097773934 L214 173.9030796812046 L215 174.1073783333899 L216 174.30953348598652 L217 174.50957250185436 L218 174.70752235985447 L219 174.90340965999115 L220 175.09726062851655 L221 175.28910112299567 L222 175.47895663733075 L223 175.66685230674335 L224 175.85281291271318 L225 176.03686288787196 L226 176.21902632085235 L227 176.39932696108983 L228 176.57778822357753 L229 176.75443319357296 L230 176.92928463125597 L231 177.1023649763375 L232 177.27369635261832 L233 177.4433005724979 L234 177.61119914143228 L235 177.77741326234133 L236 177.94196383996467 L237 178.10487148516637 L238 178.2661565191881 L239 178.4258389778507 L240 178.58393861570428 L241 178.74047491012658 L242 178.89546706536973 L243 179.04893401655582 L244 179.20089443362068 L245 179.35136672520676 L246 179.50036904250499 L247 179.6479192830456 L248 179.79403509443858 L249 179.93873387806366 L250 180.08203279271046 L251 180.22394875816877 L252 180.3644984587695 L253 180.50369834687652 L254 180.64156464633004 L255 180.7781133558414 L256 180.91336025234037 L257 181.04732089427443 L258 181.18001062486155 L259 181.31144457529604 L260 181.4416376679082 L261 181.57060461927844 L262 181.69835994330592 L263 181.82491795423257 L264 181.95029276962276 L265 182.07449831329893 L266 182.19754831823417 L267 182.31945632940176 L268 182.44023570658237 L269 182.5598996271293 L270 182.67846108869261 L271 182.79593291190204 L272 182.9123277430098 L273 183.02765805649335 L274 183.14193615761894 L275 183.25517418496617 L276 183.36738411291418 L277 183.47857775409014 L278 183.58876676178022 L279 183.69796263230376 L280 183.806176707351 L281 183.91342017628514 L282 184.01970407840878 L283 184.1250393051956 L284 184.22943660248765 L285 184.3329065726587 L286 184.43545967674402 L287 184.53710623653757 L288 184.63785643665616 L289 184.73772032657214 L290 184.8367078226141 L291 184.93482870993674 L292 185.03209264446005 L293 185.12850915477821 L294 185.22408764403883 L295 185.31883739179295 L296 185.41276755581612 L297 185.505887173901 L298 185.59820516562203 L299 185.68973033407275 L300 185.7804713675755 L301 185.87043684136484 L302 185.9596352192444 L303 186.04807485521792 L304 186.13576399509472 L305 186.2227107780701 L306 186.30892323828098 L307 186.3944093063372 L308 186.47917681082885 L309 186.56323347981007 L310 186.6465869422595 L311 186.7292447295181 L312 186.81121427670416 L313 186.8925029241066 L314 186.97311791855597 L315 187.0530664147745 L316 187.13235547670473 L317 187.21099207881753 L318 187.28898310739956 L319 187.36633536182083 L320 187.4430555557822 L321 187.51915031854367 L322 187.59462619613345 L323 187.66948965253798 L324 187.7437470708737 L325 187.8174047545404 L326 187.8904689283567 L327 187.96294573967776 L328 188.03484125949572 L329 188.106161483523 L330 188.17691233325885 L331 188.24709965703917 L332 188.31672923107027 L333 188.38580676044648 L334 188.45433788015205 L335 188.52232815604754 L336 188.58978308584085 L337 188.65670810004366 L338 188.72310856291242 L339 188.78898977337553 L340 188.85435696594573 L341 188.91921531161879 L342 188.983569918758 L343 189.04742583396555 L344 189.11078804294004 L345 189.17366147132125 L346 189.23605098552162 L347 189.2979613935452 L348 189.3593974457941 L349 189.42036383586247 L350 189.4808652013185 L351 189.54090612447428 L352 189.60049113314426 L353 189.6596247013919 L354 189.718311250265 L355 189.77655514852006 L356 189.83436071333534 L357 189.89173221101342 L358 189.94867385767287 L359 190.00518981992968 L360 190.06128421556824 L361 190.1169611142022 L362 190.17222453792556 L363 190.22707846195365 L364 190.28152681525478 L365 190.33557348117222 L366 190.38922229803686 L367 190.44247705977074 L368 190.49534151648166 L369 190.54781937504853 L370 190.5999142996985 L371 190.65162991257503 L372 190.70296979429773 L373 190.75393748451387 L374 190.80453648244168 L375 190.85477024740538 L376 190.90464219936277 L377 190.95415571942442 L378 191.00331415036564 L379 191.0521207971307 L380 191.10057892732962 L381 191.14869177172767 L382 191.19646252472774 L383 191.24389434484544 L384 191.29099035517748 L385 191.33775364386292 L386 191.384187264538 L387 191.430294236784 L388 191.47607754656866 L389 191.52154014668142 L390 191.56668495716195 L391 191.6115148657227 L392 191.65603272816523 L393 191.70024136879053 L394 191.74414358080338 L395 191.7877421267109 L396 191.83103973871536 L397 191.87403911910124 L398 191.91674294061684 L399 191.95915384685028 L400 192.00127445260028 L401 192.0431073442414 L402 192.08465508008427 L403 192.12592019073045 L404 192.1669051794225 L405 192.2076125223888 L406 192.24804466918368 L407 192.2882040430224 L408 192.32809304111188 L409 192.36771403497616 L410 192.4070693707778 L411 192.44616136963432 L412 192.4849923279303 L413 192.52356451762537 L414 192.56188018655732 L415 192.5999415587414 L416 192.6377508346653 L417 192.6753101915799 L418 192.71262178378603 L419 192.74968774291725 L420 192.7865101782186 L421 192.82309117682158 L422 192.8594328040152 L423 192.8955371035133 L424 192.9314060977183 L425 192.96704178798095 L426 193.00244615485693 L427 193.03762115835949 L428 193.07256873820904 L429 193.10729081407882 L430 193.14178928583766 L431 193.176066033789 L432 193.210122918907 L433 193.2439617830691 L434 193.27758444928565 L435 193.31099272192625 L436 193.34418838694307 L437 193.37717321209115 L438 193.4099489471456 L439 193.44251732411607 L440 193.47488005745797 L441 193.50703884428128 L442 193.53899536455614 L443 193.57075128131592 L444 193.60230824085738 L445 193.63366787293828 L446 193.6648317909723 L447 193.69580159222127 L448 193.72657885798498 L449 193.75716515378824 L450 193.78756202956566 L451 193.81777101984386 L452 193.84779364392122 L453 193.8776314060453 L454 193.90728579558805 L455 193.93675828721825 L456 193.96605034107225 L457 193.99516340292203 L458 194.0240989043412 L459 194.05285826286882 L460 194.08144288217107 L461 194.10985415220074 L462 194.1380934493547 L463 194.16616213662917 L464 194.1940615637733 L465 194.2217930674402 L466 194.24935797133656 L467 194.27675758637002 L468 194.3039932107946 L469 194.33106613035443 L470 194.35797761842545 L471 194.3847289361554 L472 194.41132133260183 L473 194.43775604486868 L474 194.46403429824062 L475 194.490157306316 L476 194.51612627113815 L477 194.54194238332462 L478 194.56760682219513 L479 194.59312075589776 L480 194.61848534153353 L481 194.6437017252793 L482 194.66877104250926 L483 194.6936944179149 L484 194.71847296562325 L485 194.74310778931368 L486 194.7675999823335 L487 194.7919506278118 L488 194.8161607987718 L489 194.84023155824212 L490 194.86416395936644 L491 194.88795904551168 L492 194.91161785037502 L493 194.9351413980896 L494 194.95853070332868 L495 194.98178677140865 L496 195.0049105983908 L497 195.02790317118178 L498 195.0507654676326 L499 195.07349845663688 " stroke = "blue" stroke-width = "4" fill = "none" /></svg>