<svg width="500" height="500" viewbox = "0 0 500 500"  xmlns="http://www.w3.org/2000/svg">

<!--
<topfunctions>



function YofX(){
    X = currentjson.plotparams.g*(x - currentjson.plotparams.x0);

    Y = Math.exp(-X/100)*(Math.sin(X));

    y = currentjson.plotparams.y0 - currentjson.plotparams.G*(Y);
}





function plotfunction(){
    
    /*plot one function:*/
    currentStroke = "red";
    currentLineWidth = 4;
    ctx.strokeStyle = currentStroke;
    ctx.lineWidth = currentLineWidth;
    ctx.beginPath();	
    x = 0;
    intx = x;
    YofX();
    currentSVG += "	<path d = \"M";
    currentSVG += Math.round(x).toString() + " ";
    currentSVG += Math.round(y).toString() + " ";
    for(x = 1;x < currentjson.plotparams.plotwidth;x++){
        ctx.moveTo(x-1,y);
        YofX();
        ctx.lineTo(x,y);
        currentSVG += "L" + x + " " + y + " ";
    }
    ctx.stroke();
    currentSVG += "\""+ " stroke = \"" + currentStroke + "\" stroke-width = \"" + currentLineWidth.toString() + "\" fill = \"" + "none" + "\" "+"/>";
    /*finish plot one function*/
    
    

}































</topfunctions>
-->

<!--
<currentjson>
{
    "constants": {},
    "YofXstring": "Y =  (1/Math.PI)*0.5/(X*X + 0.25);",
    "style": {
        "linewidth": 4,
        "color": "blue",
        "fill": "none"
    },
    "plotparams": {
        "G": 103.42365531743322,
        "g": 0.057982573838069984,
        "duration": 450.78888054094654,
        "plotwidth": 500,
        "plotheight": 500,
        "x0": -4,
        "y0": 201
    },
    "funcparams": {},
    "image": {
        "url": "",
        "xoverw": 0.038011695906432746,
        "yoverw": -0.08771929824561403,
        "woverw": 0.8536631795472632,
        "angle": "0"
    }
}
</currentjson>
-->
	<path d = "M0 177 L1 171.5200011711572 L2 165.86325054854308 L3 160.33109525116927 L4 154.94197573543107 L5 149.71383056766112 L6 144.66403674254462 L7 139.80935195726218 L8 135.16585903301876 L9 130.74891266818267 L10 126.5730886992097 L11 122.65213603690161 L12 118.99893143636353 L13 115.62543724932374 L14 112.54266229728702 L15 109.76062599334834 L16 107.2883258294317 L17 105.13370833427801 L18 103.30364359572384 L19 101.8039034287306 L20 100.63914325828169 L21 99.8128877737052 L22 99.32752039824435 L23 99.18427660483012 L24 99.38324109605355 L25 99.92334885333278 L26 100.80239004726593 L27 102.01701878819905 L28 103.56276568316112 L29 105.43405415257094 L30 107.62422044754321 L31 110.12553729625898 L32 112.9292410957552 L33 116.02556255367652 L34 119.40376067305166 L35 123.05215996205088 L36 126.95819073998312 L37 131.10843240053975 L38 135.48865948351767 L39 140.08389039699242 L40 144.8784386231909 L41 149.855966233163 L42 154.99953952779768 L43 160.29168661579743 L44 165.71445673293698 L45 171.24948110131012 L46 176.87803512232713 L47 182.581101692985 L48 188.33943543140163 L49 194.13362759480006 L50 199.9441714710522 L51 205.75152802355655 L52 211.53619156862575 L53 217.27875526470933 L54 222.95997619366273 L55 228.56083981590024 L56 234.06262358362525 L57 239.44695949940942 L58 244.69589541118265 L59 249.79195483918198 L60 254.71819513557728 L61 259.4582637833223 L62 263.9964526472573 L63 268.31774999758255 L64 272.4078901335168 L65 276.253400443214 L66 279.8416457448165 L67 283.1608697628344 L68 286.2002336038349 L69 288.9498511056629 L70 291.40082094506386 L71 293.5452553996019 L72 295.3763056711282 L73 296.8881836897113 L74 298.076180328861 L75 298.93667997501177 L76 299.4671714065454 L77 299.666254950084 L78 299.5336458943263 L79 299.0701741542952 L80 298.2777801914725 L81 297.15950720786356 L82 295.7194896445354 L83 293.9629380275496 L84 291.8961202164314 L85 289.52633912233904 L86 286.8619069748791 L87 283.9121162280176 L88 280.6872072067188 L89 277.1983326067813 L90 273.45751897077537 L91 269.47762527300745 L92 265.27229875599136 L93 260.85592816997655 L94 256.2435945756315 L95 251.45101987798006 L96 246.49451326711915 L97 241.39091574806866 L98 236.1575429483193 L99 230.81212639720576 L100 225.37275347614582 L101 219.85780624301665 L102 214.28589933748987 L103 208.67581717699133 L104 203.04645065509396 L105 197.41673355557788 L106 191.8055788960978 L107 186.2318154153903 L108 180.71412441721841 L109 175.27097718281095 L110 169.9205731613933 L111 164.68077914555352 L112 159.56906963463865 L113 154.60246858514705 L114 149.79749274219682 L115 145.17009674060944 L116 140.73562015798802 L117 136.50873669539834 L118 132.50340565391005 L119 128.7328258673495 L120 125.2093922431753 L121 121.94465505445291 L122 118.94928211649419 L123 116.23302397188449 L124 113.80468219736773 L125 111.6720809354431 L126 109.84204174257265 L127 108.3203618346514 L128 107.1117957988864 L129 106.22004082950326 L130 105.64772553279687 L131 105.39640233499745 L132 105.46654351428182 L133 105.85754086605971 L134 106.56770899844844 L135 107.59429224265814 L136 108.93347515088277 L137 110.58039654227197 L138 112.52916704568575 L139 114.77289007624539 L140 117.30368617123179 L141 120.11272059968312 L142 123.19023414914523 L143 126.52557698246764 L144 130.10724544734603 L145 133.92292171153116 L146 137.9595160872787 L147 142.2032118997351 L148 146.63951274558127 L149 151.2532919804005 L150 156.02884426594022 L151 160.94993900170905 L152 165.9998754592264 L153 171.1615394317337 L154 176.41746120729775 L155 181.74987466901766 L156 187.14077732248583 L157 192.5719910477718 L158 198.02522337099546 L159 203.48212904905125 L160 208.92437176023233 L161 214.33368569338472 L162 219.69193682880638 L163 224.98118370537907 L164 230.18373747038743 L165 235.28222101112158 L166 240.25962697068007 L167 245.09937445436822 L168 249.78536423770595 L169 254.3020322923163 L170 258.63440145182716 L171 262.7681310463752 L172 266.6895643413215 L173 270.38577362335803 L174 273.8446027852681 L175 277.054707269179 L176 280.00559123718244 L177 282.6876418476636 L178 285.092160525546 L179 287.211391124884 L180 289.0385448927964 L181 290.56782215458213 L182 291.7944306509713 L183 292.7146004697852 L184 293.32559552579426 L185 293.6257215542064 L186 293.614330594974 L187 293.291821956921 L188 292.65963966253275 L189 291.7202663860684 L190 290.47721390942814 L191 288.93501013187165 L192 287.09918268122107 L193 284.9762391855469 L194 282.5736442754803 L195 279.89979339820206 L196 276.9639835347708 L197 273.77638092275595 L198 270.3479858960763 L199 266.6905949635044 L200 262.8167602564325 L201 258.73974648517947 L202 254.4734855513301 L203 250.03252897129744 L204 245.43199827347712 L205 240.68753353797726 L206 235.815240253955 L207 230.83163467503624 L208 225.75358785813611 L209 220.59826857520255 L210 215.3830852909711 L211 210.12562740273825 L212 204.84360594040604 L213 199.55479392663966 L214 194.27696659788478 L215 189.0278416872318 L216 183.82501996966928 L217 178.68592626915463 L218 173.62775112515243 L219 168.66739331383997 L220 163.8214034160875 L221 159.10592862057624 L222 154.53665894605575 L223 150.12877506175656 L224 145.8968978793976 L225 141.85504008408088 L226 138.01655976465085 L227 134.39411629686347 L228 130.99962862495835 L229 127.84423607900685 L230 124.93826185672725 L231 122.29117928935798 L232 119.91158100169172 L233 117.80715106651876 L234 115.98464024355552 L235 114.44984438246489 L236 113.20758605885635 L237 112.26169950121034 L238 111.61501885554974 L239 111.26936982341421 L240 111.22556469731964 L241 111.48340080644259 L242 112.04166237379904 L243 112.89812577472517 L244 114.04956817505169 L245 115.49177951603602 L246 117.21957780191127 L247 119.22682763486624 L248 121.50646193142612 L249 124.05050674359299 L250 126.85010909776157 L251 129.89556775439115 L252 133.17636678171277 L253 136.6812118274234 L254 140.3980689633866 L255 144.3142059698618 L256 148.41623591774578 L257 152.69016289974854 L258 157.12142975438516 L259 161.69496762014663 L260 166.39524715125793 L261 171.20633122103888 L262 176.11192893409233 L263 181.09545076435387 L264 186.14006463246372 L265 191.22875273298627 L266 196.3443689197003 L267 201.46969645553307 L268 206.5875059327072 L269 211.68061316832586 L270 216.73193688092812 L271 221.72455595451 L272 226.64176609811273 L273 231.46713571133583 L274 236.18456076902243 L275 240.77831854186599 L276 245.23311997382433 L277 249.53416054193642 L278 253.6671694294387 L279 257.6184568489475 L280 261.3749593588702 L281 264.92428302313186 L282 268.25474427172924 L283 271.3554083275069 L284 274.21612507288205 L285 276.8275622389991 L286 279.1812358089136 L287 281.26953753590385 L288 283.0857594878046 L289 284.62411553835375 L290 285.8797597368952 L291 286.8488014983419 L292 287.52831756605417 L293 287.9163607111875 L294 288.0119651430655 L295 287.815148616214 L296 287.326911230808 L297 286.5492309343916 L298 285.4850557438073 L299 284.13829271726473 L300 282.51379371736306 L301 280.6173380166149 L302 278.45561180756533 L303 276.03618468992977 L304 273.367483217242 L305 270.45876159528865 L306 267.32006963406985 L307 263.96221806412876 L308 260.3967413368231 L309 256.63585803642695 L310 252.692429039819 L311 248.57991356692878 L312 244.31232327203378 L313 239.9041745323984 L314 235.37043909663407 L315 230.7264932604687 L316 225.98806574237454 L317 221.17118443567216 L318 216.2921222172893 L319 211.36734199632258 L320 206.41344118789056 L321 201.44709579947468 L322 196.4850043180383 L323 191.54383158666386 L324 186.64015285925552 L325 181.7903982210542 L326 177.01079756124778 L327 172.3173262819009 L328 167.72565192473988 L329 163.25108189402698 L330 158.9085124498779 L331 154.71237914190473 L332 150.6766088480258 L333 146.81457357770543 L334 143.13904619277602 L335 139.66215819236805 L336 136.39535970137626 L337 133.34938179432606 L338 130.53420127849847 L339 127.95900805177737 L340 125.63217514188996 L341 123.56123152458451 L342 121.75283780884229 L343 120.21276486748097 L344 118.94587548152695 L345 117.95610905652825 L346 117.24646945859048 L347 116.81901600738537 L348 116.67485765273118 L349 116.81415035061795 L350 117.23609764378547 L351 117.93895444118854 L352 118.92003397994651 L353 120.17571794269895 L354 121.70146969272344 L355 123.49185057873882 L356 125.54053925106123 L357 127.84035392073235 L358 130.3832774834314 L359 133.1604854204468 L360 136.16237637976013 L361 139.37860533140093 L362 142.79811918270315 L363 146.4091947309704 L364 150.19947882333665 L365 154.15603058635392 L366 158.2653655810409 L367 162.5135017328214 L368 166.88600688000292 L369 171.36804777918118 L370 175.94444040125015 L371 180.59970134756028 L372 185.31810021219616 L373 190.0837127133673 L374 194.8804744145345 L375 199.69223485411388 L376 204.50281190143775 L377 209.296046156112 L378 214.0558552079609 L379 218.76628757544574 L380 223.41157614172522 L381 227.97619090942231 L382 232.44489089766728 L383 236.80277500806358 L384 241.0353316898894 L385 245.12848723908445 L386 249.06865257034588 L387 252.84276830697416 L388 256.4383480389477 L389 259.84351960602044 L390 263.0470642694495 L391 266.0384536432031 L392 268.8078842631763 L393 271.34630968102243 L394 273.64546997765126 L395 275.697918600234 L396 277.4970464356634 L397 279.0371030427974 L398 280.3132149754502 L399 281.32140113794935 L400 282.0585851251119 L401 282.5226045086785 L402 282.71221704254816 L403 282.6271037695385 L404 282.2678690228258 L405 281.63603732565855 L406 280.734047203355 L407 279.5652419319512 L408 278.13385725812884 L409 276.4450061351882 L410 274.50466052980113 L411 272.31963036405926 L412 269.89753966688033 L413 267.24680001812203 L414 264.376581377758 L415 261.296780401139 L416 258.01798634969816 L417 254.55144471440792 L418 250.90901867684187 L419 247.10314853981663 L420 243.14680926625962 L421 239.053466271136 L422 234.83702961697466 L423 230.51180676872343 L424 226.092454068314 L425 221.5939270934413 L426 217.0314300686183 L427 212.4203644995482 L428 207.776277204281 L429 203.11480791643234 L430 198.45163663698605 L431 193.80243091184246 L432 189.18279321231017 L433 184.60820859519595 L434 180.09399281800324 L435 175.65524108300994 L436 171.30677758168923 L437 167.06310600805057 L438 162.93836120601895 L439 158.94626211197863 L440 155.1000661490674 L441 151.41252522474292 L442 147.8958434775921 L443 144.56163691329718 L444 141.4208950631711 L445 138.48394479172555 L446 135.76041637236244 L447 133.25921194252862 L448 130.98847644155 L449 128.95557112589665 L450 127.16704974786701 L451 125.62863747463136 L452 124.34521261527513 L453 123.32079121397824 L454 122.55851455776322 L455 122.06063963740324 L456 121.82853259011259 L457 121.862665142592 L458 122.1626140629017 L459 122.72706361951595 L460 123.55381103581252 L461 124.63977491820246 L462 125.98100662613872 L463 127.57270454239861 L464 129.4092311923386 L465 131.48413315130733 L466 133.79016367011053 L467 136.31930793936615 L468 139.06281090482003 L469 142.01120753722157 L470 145.15435545222326 L471 148.4814697679993 L472 151.98116008088735 L473 155.64146943237927 L474 159.44991513425018 L475 163.39353131252187 L476 167.45891302534233 L477 171.6322618047515 L478 175.89943246768632 L479 180.24598103749372 L480 184.65721361368173 L481 189.11823602462852 L482 193.61400409554273 L483 198.1293743620892 L484 202.6491550587919 L485 207.15815721060846 L486 211.6412456559169 L487 216.08338982958276 L488 220.46971413578845 L489 224.78554774187344 L490 229.01647362657553 L491 233.1483767187699 L492 237.16749096603337 L493 241.06044517615808 L494 244.8143074790322 L495 248.41662826111872 L496 251.8554814300714 L497 255.11950387279575 L498 258.19793297649073 L499 261.0806420888704 " stroke = "red" stroke-width = "4" fill = "none" /></svg>