<svg width="400" height="400" viewbox = "0 0 400 400"  xmlns="http://www.w3.org/2000/svg">

<!--
<topfunctions>






function YofX(){
//foobar foobar
    X = plotparams.g*(x - plotparams.x0) - funcparams.X0;

    Y = Math.sin(X);

    y = plotparams.y0 - plotparams.G*(Y - funcparams.Y0);
}





function plotfunction(){
    
    /*plot one function:*/
    currentStroke = "blue";
    currentLineWidth = 4;
    ctx.strokeStyle = currentStroke;
    ctx.lineWidth = currentLineWidth;
    ctx.beginPath();	
    x = 0;
    intx = x;
    YofX();
    currentSVG += "	<path d = \"M";
    currentSVG += Math.round(x).toString() + " ";
    currentSVG += Math.round(y).toString() + " ";
    for(x = 1;x < plotparams.plotwidth;x++){
        ctx.moveTo(x-1,y);
        YofX();
        ctx.lineTo(x,y);
        currentSVG += "L" + x + " " + y + " ";
    }
    ctx.stroke();
    currentSVG += "\""+ " stroke = \"" + currentStroke + "\" stroke-width = \"" + currentLineWidth.toString() + "\" fill = \"" + "none" + "\" "+"/>";
    /*finish plot one function*/
    
    

}





























</topfunctions>
-->

<!--
<imgurl>

</imgurl>
-->

<!--
<currentjson>
{
    "constants": {},
    "imgurl": "",
    "plotparams": {
        "G": 142.04293198443185,
        "g": 0.04957011097494885,
        "duration": 450.78888054094654,
        "plotwidth": 400,
        "plotheight": 400,
        "x0": 0,
        "y0": 200.00000000000003
    },
    "funcparams": {
        "phi": 0.2688139066614501,
        "T": 1.4465183912692552,
        "X0": 0,
        "Y0": 0
    }
}
</currentjson>
-->

<!--
<equation>
<h2>Sine</h2>
<p style="color:blue">

</p><p class="bigeq">
$$
Y = \sin{X}
$$
</p>
<p></p>

$$
X = g(x - x_0) - X_0
$$
$$
Y = f(X)
$$
    
$$
y = y_0 - G(Y - Y_0)
$$


<p>
    X and Y, and $X_0$ and $Y_0$ in physical units of the System. x and y and x0 and y0 in pixels.  G is in pixels per Y unit and g is in X units per pixel. 
</p>






</equation>
-->
	<path d = "M0 200 L1 192.9617992978241 L2 185.94088929258396 L3 178.95451820328495 L4 172.01984939742647 L5 165.15391922588088 L6 158.3735951698131 L7 151.6955344024611 L8 145.13614286757866 L9 138.7115349750714 L10 132.4374940128422 L11 126.32943337210159 L12 120.40235868140061 L13 114.67083094241138 L14 109.14893075801916 L15 103.85022374060676 L16 98.78772718551235 L17 93.97387809153393 L18 89.4205026070439 L19 85.13878697677566 L20 81.13925006065676 L21 77.43171749220163 L22 74.02529753994835 L23 70.92835873124125 L24 68.14850929332982 L25 65.69257846229192 L26 63.566599705698536 L27 61.77579590023757 L28 60.32456650071032 L29 59.216476731922626 L30 58.454248830022664 L31 58.039755354803106 L32 57.974014589397 L33 58.257188038668914 L34 58.88858003244698 L35 59.86663943457103 L36 61.18896345355739 L37 62.852303545519504 L38 64.85257339484235 L39 67.18485895300441 L40 69.84343051088536 L41 72.82175677490112 L42 76.11252091238575 L43 79.70763852680155 L44 83.59827751861769 L45 87.77487978306551 L46 92.22718469146562 L47 96.94425429844047 L48 101.91450021308574 L49 107.12571206808701 L50 112.56508751684088 L51 118.21926368488774 L52 124.07434999838922 L53 130.11596230900062 L54 136.32925823130452 L55 142.6989736059922 L56 149.20945999921358 L57 155.8447231459721 L58 162.58846224312003 L59 169.42410999542432 L60 176.33487331632102 L61 183.3037745833705 L62 190.3136933470597 L63 197.34740839048723 L64 204.38764003660276 L65 211.41709259906514 L66 218.41849687243035 L67 225.374652557284 L68 232.26847051609298 L69 239.08301475596633 L70 245.8015440351873 L71 252.4075529913007 L72 258.8848126897181 L73 265.2174104932245 L74 271.3897891544396 L75 277.38678503519486 L76 283.1936653589347 L77 288.79616440462195 L78 294.18051855323216 L79 299.3335001007373 L80 304.2424497545107 L81 308.8953077333202 L82 313.2806433945056 L83 317.3876833155562 L84 321.2063377611003 L85 324.7272254702853 L86 327.94169670365346 L87 330.84185449289475 L88 333.42057404127166 L89 335.6715202270565 L90 337.58916316697866 L91 339.1687918014495 L92 340.4065254681882 L93 341.29932343581686 L94 341.8449923740035 L95 342.0421917418005 L96 341.8904370809425 L97 341.390101206011 L98 340.5424132885437 L99 339.3494558373376 L100 337.81415958236437 L101 335.940296274868 L102 333.7324694213295 L103 331.1961029740668 L104 328.33742800624935 L105 325.16346740406624 L106 321.6820186136519 L107 317.9016344851565 L108 313.83160226102063 L109 309.48192076007376 L110 304.8632758135082 L111 299.98701401307426 L112 294.8651148359904 L113 289.5101612150481 L114 283.9353086262107 L115 278.15425276965175 L116 272.1811959236256 L117 266.03081205383415 L118 259.718210764 L119 253.25890017621285 L120 246.66874883223676 L121 239.9639467093786 L122 233.16096544668767 L123 226.27651787919788 L124 219.32751697962757 L125 212.33103430840018 L126 205.30425807406584 L127 198.26445090715228 L128 191.22890745118593 L129 184.21491187506487 L130 177.2396954111661 L131 170.32039402350148 L132 163.47400630991757 L133 156.71735174176393 L134 150.06702934361797 L135 143.53937691458196 L136 137.15043089132874 L137 130.91588695150423 L138 124.85106145426865 L139 118.97085381270749 L140 113.28970989055122 L141 107.82158651312527 L142 102.57991717971855 L143 97.57757906160192 L144 92.82686136677496 L145 88.3394351491567 L146 84.12632463639207 L147 80.19788014671089 L148 76.56375266137587 L149 73.23287011518669 L150 70.2134154632864 L151 67.51280657815516 L152 65.13767802617579 L153 63.09386476854286 L154 61.38638782655508 L155 60.01944194650895 L156 58.99638529449541 L157 58.31973120641754 L158 57.99114201349647 L159 58.01142495843405 L160 58.380530212265654 L161 59.09755099677457 L162 60.160725812167584 L163 61.56744276453878 L164 63.314245982490405 L165 65.39684410714733 L166 67.81012083470756 L167 70.54814748562859 L168 73.60419756957188 L169 76.97076331032348 L170 80.63957409009318 L171 84.60161676788199 L172 88.84715782200043 L173 93.36576726234175 L174 98.14634425366243 L175 103.17714438692471 L176 108.44580853170203 L177 113.93939319876466 L178 119.64440233825712 L179 125.54682049534621 L180 131.63214724188862 L181 137.88543279952717 L182 144.29131476670412 L183 150.83405585936217 L184 157.49758257261755 L185 164.26552466842224 L186 171.12125539221051 L187 178.04793231972775 L188 185.02853873369125 L189 192.04592542863796 L190 199.0828528412533 L191 206.1220334026833 L192 213.14617400877867 L193 220.13801850394006 L194 227.0803900741918 L195 233.9562334453355 L196 240.7486567825203 L197 247.4409731882912 L198 254.01674169717083 L199 260.4598076660593 L200 266.7543424612305 L201 272.88488234442207 L202 278.83636646249045 L203 284.59417384729903 L204 290.1441593349459 L205 295.47268831608665 L206 300.5666702319794 L207 305.4135907339673 L208 310.00154242738813 L209 314.3192541243855 L210 318.356118533754 L211 322.1022183197955 L212 325.5483504661667 L213 328.6860488848621 L214 331.5076052147921 L215 334.00608775885775 L216 336.1753585130016 L217 338.0100882453971 L218 339.5057695887351 L219 340.6587281134398 L220 341.4661313546136 L221 341.9259957705335 L222 342.0371916156035 L223 341.79944571579244 L224 341.2133421397388 L225 340.2803207638734 L226 339.0026737350855 L227 337.38353983962173 L228 335.4268967920528 L229 333.13755146325093 L230 330.5211280713843 L231 327.58405436494144 L232 324.3335458317274 L233 320.7775879726272 L234 316.9249166836827 L235 312.78499679468075 L236 308.3679988169734 L237 303.68477395765626 L238 298.7468274614855 L239 293.56629034602736 L240 288.15588959947377 L241 282.52891691434195 L242 276.69919603386995 L243 270.6810487913262 L244 264.4892599256645 L245 258.1390407599623 L246 251.64599183187363 L247 245.0260645679005 L248 238.29552209563738 L249 231.47089929026444 L250 224.56896215343778 L251 217.60666662437467 L252 210.60111692431872 L253 203.56952353672443 L254 196.52916092638552 L255 189.49732510138224 L256 182.49129112210207 L257 175.52827066172475 L258 168.62536972242822 L259 161.79954661119552 L260 155.06757027846584 L261 148.4459791219737 L262 141.95104035698708 L263 135.5987100527559 L264 129.4045939333532 L265 123.38390903920413 L266 117.5514463434931 L267 111.92153441528562 L268 106.50800421863724 L269 101.32415513416315 L270 96.38272228654522 L271 91.69584525824402 L272 87.27503826627337 L273 83.13116187530677 L274 79.27439631660583 L275 75.71421647832032 L276 72.45936862859838 L277 69.51784892869227 L278 66.89688378884725 L279 64.60291211523128 L280 62.64156949152073 L281 61.01767433400238 L282 59.73521605420521 L283 58.79734525814166 L284 58.20636600623652 L285 57.963730152958306 L286 58.07003378005899 L287 58.52501573218399 L288 59.32755825845098 L289 60.47568975842012 L290 61.96658962571084 L291 63.79659517736502 L292 65.96121065193421 L293 68.45511825418384 L294 71.27219121928269 L295 74.40550886438221 L296 77.84737359060759 L297 81.58932979369384 L298 85.62218463680757 L299 89.93603063452359 L300 94.52026999247205 L301 99.36364064286411 L302 104.4542439119323 L303 109.77957375131736 L304 115.32654746158612 L305 121.0815378324052 L306 127.03040662041127 L307 133.15853928253028 L308 139.4508808794209 L309 145.89197306083514 L310 152.46599204203682 L311 159.15678747797807 L312 165.94792213973648 L313 172.82271229573738 L314 179.76426869855567 L315 186.75553807660924 L316 193.77934502880765 L317 200.81843421923747 L318 207.8555127682199 L319 214.87329273560482 L320 221.8545335919281 L321 228.78208457309717 L322 235.63892681454809 L323 242.40821516136825 L324 249.07331955166683 L325 255.6178658715284 L326 262.0257761811806 L327 268.28130821355103 L328 274.3690940481846 L329 280.2741778654995 L330 285.9820526886441 L331 291.47869602268156 L332 296.75060430355035 L333 301.78482607217563 L334 306.5689937922239 L335 311.09135423333953 L336 315.3407973452229 L337 319.30688355161004 L338 322.9798693971035 L339 326.3507314838508 L340 329.41118863925965 L341 332.1537222602948 L342 334.5715947843772 L343 336.65886624150403 L344 338.410408846931 L345 339.821919598564 L346 340.8899308481132 L347 341.61181882003973 L348 341.98581005736617 L349 342.0109857785153 L350 341.68728413447457 L351 341.01550036073957 L352 339.9972848236654 L353 338.63513896602274 L354 336.9324091617225 L355 334.89327849480185 L356 332.5227564828728 L357 329.82666677027623 L358 326.8116328211765 L359 323.4850616477445 L360 319.85512561340556 L361 315.93074235585163 L362 311.72155287914546 L363 307.23789786873647 L364 302.4907922875712 L365 297.491898315716 L366 292.2534966999607 L367 286.78845658379737 L368 281.1102038918899 L369 275.23268834669904 L370 269.17034919830076 L371 262.93807975158643 L372 256.5511907779849 L373 250.02537290160254 L374 243.37665805218097 L375 236.62138007956844 L376 229.7761346264697 L377 222.857738358052 L378 215.8831876485612 L379 208.86961682645588 L380 201.83425608062254 L381 194.79438913109618 L382 187.76731076827147 L383 180.77028436491287 L384 173.8204994653525 L385 166.9350295560622 L386 160.13079012133926 L387 153.42449708715952 L388 146.83262575528417 L389 140.37137032850103 L390 134.0566041264472 L391 127.90384058973596 L392 121.92819516820022 L393 116.14434818687728 L394 110.56650878095752 L395 105.20837998830568 L396 100.08312508530773 L397 95.20333524874214 L398 90.58099862312802 L399 86.22747086953783 " stroke = "blue" stroke-width = "4" fill = "none" /></svg>