<svg width="400" height="400" viewbox = "0 0 400 400"  xmlns="http://www.w3.org/2000/svg">

<!--
<topfunctions>



function YofX(){
    
    X = currentjson.plotparams.g*(x - currentjson.plotparams.x0) - currentjson.funcparams.X0;
    Y = Math.sin(X);
    y = currentjson.plotparams.y0 - currentjson.plotparams.G*(Y - currentjson.funcparams.Y0);

}



function plotfunction(){
    /*plot one function:*/
    currentStroke = currentjson.style.color;
    currentLineWidth = currentjson.style.linewidth;
    ctx.strokeStyle = currentStroke;
    ctx.lineWidth = currentLineWidth;
    ctx.beginPath();	
    x = 0;
    YofX();
    currentSVG += "	<path d = \"M";
    currentSVG += Math.round(x).toString() + " ";
    currentSVG += Math.round(y).toString() + " ";
    for(x = 1;x < currentjson.plotparams.plotwidth;x++){
        ctx.moveTo(x-1,y);
        YofX();
        ctx.lineTo(x,y);
        currentSVG += "L" + x + " " + y + " ";
    }
    ctx.stroke();
    currentSVG += "\""+ " stroke = \"" + currentStroke + "\" stroke-width = \"" + currentLineWidth.toString() + "\" fill = \"" + "none" + "\" "+"/>";
    /*finish plot one function*/

}





























</topfunctions>
-->

<!--
<currentjson>
{
    "constants": {},
    "imgurl": "",
    "style": {
        "linewidth": 4,
        "color": "blue",
        "fill": "none"
    },
    "plotparams": {
        "G": 111.09311247907148,
        "g": 0.06526689956048586,
        "duration": 450.78888054094654,
        "plotwidth": 400,
        "plotheight": 400,
        "x0": 28,
        "y0": 186
    },
    "funcparams": {
        "phi": 0.2688139066614501,
        "T": 1.4465183912692552,
        "X0": 0,
        "Y0": 0
    }
}
</currentjson>
-->
	<path d = "M0 293 L1 295.0642162282637 L2 296.21042305818514 L3 296.8873256644748 L4 297.09204162237376 L5 296.8236991988733 L6 296.0834410647774 L7 294.8744194289178 L8 293.20178261524086 L9 291.0726531399249 L10 288.49609738188144 L11 285.4830869757899 L12 282.046452092066 L13 278.2008268027082 L14 273.96258676566896 L15 269.349779493107 L16 264.3820475004553 L17 259.0805446635574 L18 253.46784614004275 L19 247.56785223852066 L20 241.40568664494165 L21 235.00758943950447 L22 228.40080535967041 L23 221.61346778508957 L24 214.67447893846077 L25 207.61338681246104 L26 200.4602593468209 L27 193.24555639133177 L28 186 L29 178.75444360866823 L30 171.5397406531791 L31 164.38661318753896 L32 157.32552106153923 L33 150.38653221491043 L34 143.59919464032959 L35 136.99241056049553 L36 130.59431335505835 L37 124.43214776147934 L38 118.53215385995725 L39 112.91945533644258 L40 107.61795249954467 L41 102.650220506893 L42 98.03741323433103 L43 93.79917319729182 L44 89.95354790793402 L45 86.51691302421014 L46 83.50390261811859 L47 80.92734686007508 L48 78.79821738475917 L49 77.12558057108221 L50 75.9165589352226 L51 75.1763008011267 L52 74.90795837762623 L53 75.1126743355252 L54 75.78957694181489 L55 76.93578377173631 L56 78.54641398288355 L57 80.61460909908145 L58 83.13156221553466 L59 86.08655550088514 L60 89.46700583648465 L61 93.25851839853834 L62 97.44494795495339 L63 102.00846761587451 L64 106.92964474514923 L65 112.18752370947249 L66 117.75971511284314 L67 123.62249113634965 L68 129.7508865773035 L69 136.11880515746964 L70 142.69913064770665 L71 149.4638423358193 L72 156.38413434593127 L73 163.43053830128662 L74 170.57304880814945 L75 177.78125122645946 L76 185.0244511831634 L77 192.27180527672115 L78 199.49245241621335 L79 206.6556452357749 L80 213.73088102475805 L81 220.68803161609088 L82 227.49747167973334 L83 234.13020487492417 L84 240.55798732403056 L85 246.75344788221653 L86 252.69020469079197 L87 258.3429775179274 L88 263.6876954083593 L89 268.70159918368597 L90 273.3633383567816 L91 277.65306204764136 L92 281.5525035135157 L93 285.0450579333816 L94 288.115853115526 L95 290.7518128271489 L96 292.9417124763138 L97 294.67622690913623 L98 295.9479701186788 L99 296.75152669646167 L100 297.08347489265907 L101 296.9424011867875 L102 296.32890630683767 L103 295.2456026712211 L104 293.69710326442294 L105 291.690001993732 L106 289.23284561069363 L107 286.3360973168517 L108 283.01209220875484 L109 279.27498475195466 L110 275.1406885076642 L111 270.626808368736 L112 265.7525655935176 L113 260.538715956807 L114 255.00746136644563 L115 249.18235532190485 L116 243.08820261744953 L117 236.75095371696773 L118 230.1975942502454 L119 223.45603010123952 L120 216.55496857767307 L121 209.52379616796233 L122 202.3924534060187 L123 195.1913073767827 L124 187.9510224053948 L125 180.7024294806405 L126 173.4763949686999 L127 166.3036891762506 L128 159.21485532261664 L129 152.2400794789138 L130 145.40906202802333 L131 138.75089119275074 L132 132.29391917071902 L133 126.0656414034456 L134 120.09257949370657 L135 114.40016826975562 L136 109.01264747730758 L137 103.95295856048948 L138 99.24264697129232 L139 94.90177042351577 L140 90.94881348188252 L141 87.40060885002501 L142 84.27226569251982 L143 81.57710529619305 L144 79.32660434466743 L145 77.5303460477023 L146 76.1959793334309 L147 75.32918627726404 L148 74.93365790615717 L149 75.01107848127158 L150 75.56111832595879 L151 76.5814352296083 L152 78.0676844213805 L153 80.01353707135428 L154 82.41070724030665 L155 85.24898716336536 L156 88.5162907172874 L157 92.1987048862691 L158 96.28054900713256 L159 100.74444154160793 L160 105.57137409137732 L161 110.74079234070607 L162 116.23068358198621 L163 122.01767045148644 L164 128.07711047615751 L165 134.38320100759728 L166 140.90908909633976 L167 147.62698583859512 L168 154.50828470852332 L169 161.52368337215137 L170 168.64330846422123 L171 175.83684279663325 L172 183.07365445680267 L173 190.3229272461931 L174 197.5537919035866 L175 204.73545755430854 L176 211.8373428256623 L177 218.82920607025093 L178 225.68127414266138 L179 232.3643691811474 L180 238.85003285444168 L181 245.11064754462328 L182 251.11955395001172 L183 256.85116460730546 L184 262.2810728495574 L185 267.38615673601714 L186 272.14467751128 L187 276.5363721744782 L188 280.54253976433097 L189 284.1461209926302 L190 287.331770887061 L191 290.0859241340261 L192 292.3968528432274 L193 294.2547164880284 L194 295.6516038089378 L195 296.58156650178046 L196 297.0406445471002 L197 297.02688307293795 L198 296.5403406791771 L199 295.58308918801043 L200 294.15920482159027 L201 292.27475084442983 L202 289.9377517444695 L203 287.1581590627504 L204 283.94780901720287 L205 280.3203721009972 L206 276.2912948700806 L207 271.8777341677836 L208 267.0984840665848 L209 261.97389583813384 L210 256.52579129232174 L211 250.77736985442243 L212 244.75310977599463 L213 238.47866390021426 L214 231.9807504254944 L215 225.28703913254958 L216 218.42603355937902 L217 211.4269496258976 L218 204.319591225062 L219 197.13422331025703 L220 189.90144301936868 L221 182.65204938432953 L222 175.41691218094945 L223 168.22684047749874 L224 161.1124514418007 L225 154.104039965485 L226 147.23144966057595 L227 140.52394577774487 L228 134.01009058737313 L229 127.71762175408574 L230 121.67333422266735 L231 115.90296611832085 L232 110.43108914713478 L233 105.28100396346211 L234 100.47464094976299 L235 96.0324668314164 L236 91.97339752415884 L237 88.31471758526763 L238 85.07200661148681 L239 82.25907289711186 L240 79.88789463473398 L241 77.96856890902667 L242 76.50926870077163 L243 75.51620808421228 L244 74.99361576593314 L245 74.94371707794372 L246 75.36672450164434 L247 76.26083676302608 L248 77.62224650295695 L249 79.44515648989288 L250 81.72180430597508 L251 84.44249540139452 L252 87.5956443762694 L253 91.1678243142465 L254 95.14382395775196 L255 99.50671248142393 L256 104.23791158790557 L257 109.31727461899614 L258 114.72317234528427 L259 120.43258506894948 L260 126.4212006475344 L261 132.66351802127767 L262 139.13295580316105 L263 145.80196546926726 L264 152.64214866745405 L265 159.62437814481518 L266 166.71892177898718 L267 173.8955691851456 L268 181.12376035956515 L269 188.37271581194673 L270 195.6115676323748 L271 202.80949093478768 L272 209.93583511724154 L273 216.96025438002857 L274 223.85283694586735 L275 230.5842324319166 L276 237.1257768312254 L277 243.4496145714223 L278 249.52881713087783 L279 255.33749770725308 L280 260.85092145013516 L281 266.04561078837116 L282 270.89944540358005 L283 275.3917564241392 L284 279.5034144385341 L285 283.21691095329635 L286 286.51643294865494 L287 289.38793021442586 L288 291.819175179409 L289 293.79981497951843 L290 295.3214155429316 L291 296.3774975045278 L292 296.96356379668566 L293 297.07711879894924 L294 296.7176789650196 L295 295.88677488181884 L296 294.58794475185846 L297 292.8267193266671 L298 290.61059835543216 L299 287.9490186491472 L300 284.853313896251 L301 281.33666640087944 L302 277.4140509492347 L303 273.10217104311016 L304 268.41938777209725 L305 263.3856416273629 L306 258.0223675899261 L307 252.35240385501817 L308 246.39989458119265 L309 240.19018707831336 L310 233.74972387221155 L311 227.10593010563554 L312 220.28709675496629 L313 213.32226015998754 L314 206.24107837971323 L315 199.07370490076914 L316 191.8506602361227 L317 184.60270196091477 L318 177.3606937388258 L319 170.15547389668373 L320 163.01772410696898 L321 155.97783873738746 L322 149.0657954238672 L323 142.3110274180995 L324 135.7422982532138 L325 129.3875792612797 L326 123.27393046421011 L327 117.42738534525077 L328 111.87283999174002 L329 106.63394708118655 L330 101.73301516210977 L331 97.19091365852124 L332 93.02698400257144 L333 89.25895727377323 L334 85.90287869552346 L335 82.9730393104283 L336 80.48191512538321 L337 78.44011398553727 L338 76.8563304033707 L339 75.73730853523308 L340 75.08781346299656 L341 74.91061090311678 L342 75.2064554295032 L343 75.97408726035 L344 77.21023762261014 L345 78.90964267126812 L346 81.06506590414163 L347 83.66732897676145 L348 86.70535078611513 L349 90.16619465682219 L350 94.03512342881426 L351 98.29566221193764 L352 102.92966854025919 L353 107.91740962733341 L354 113.2376463934659 L355 118.86772390715518 L356 124.78366785559889 L357 130.96028663345876 L358 137.3712786151743 L359 143.98934415402175 L360 150.78630183100836 L361 157.7332084585732 L362 164.80048232809938 L363 171.95802917640881 L364 179.17537033484535 L365 186.42177251525922 L366 193.6663786802203 L367 200.87833944019422 L368 208.026944418145 L369 215.08175302219348 L370 222.01272406945512 L371 228.7903437090979 L372 235.3857510998795 L373 241.77086130700798 L374 247.91848489498807 L375 253.80244370720808 L376 259.39768233923627 L377 264.680374831156 L378 269.62802612460644 L379 274.2195678525078 L380 278.435448053565 L381 282.25771442953135 L382 285.67009079069317 L383 288.65804636405784 L384 291.20885766910754 L385 293.31166269764105 L386 294.9575071669871 L387 296.1393826496353 L388 296.85225641691596 L389 297.0930928696488 L390 296.8608664645019 L391 296.1565660810182 L392 294.9831908107127 L393 293.34573718617276 L394 291.2511779045413 L395 288.7084321359863 L396 285.72832754358774 L397 282.3235541763746 L398 278.50861043184295 L399 274.29974131806534 " stroke = "blue" stroke-width = "4" fill = "none" /></svg>