<svg width="400" height="400" viewbox = "0 0 400 400"  xmlns="http://www.w3.org/2000/svg">

<!--
<topfunctions>


function YofX(){
    
    X = currentjson.plotparams.g*(x - currentjson.plotparams.x0) - currentjson.funcparams.X0;
    eval(currentjson.YofXstring);
    y = currentjson.plotparams.y0 - currentjson.plotparams.G*(Y - currentjson.funcparams.Y0);

}




function plotfunction(){
    /*plot one function:*/
    currentStroke = currentjson.style.color;
    currentLineWidth = currentjson.style.linewidth;
    ctx.strokeStyle = currentStroke;
    ctx.lineWidth = currentLineWidth;
    ctx.beginPath();	
    x = 0;
    YofX();
    currentSVG += "	<path d = \"M";
    currentSVG += Math.round(x).toString() + " ";
    currentSVG += Math.round(y).toString() + " ";
    for(x = 1;x < currentjson.plotparams.plotwidth;x++){
        ctx.moveTo(x-1,y);
        YofX();
        ctx.lineTo(x,y);
        currentSVG += "L" + x + " " + y + " ";
    }
    ctx.stroke();
    currentSVG += "\""+ " stroke = \"" + currentStroke + "\" stroke-width = \"" + currentLineWidth.toString() + "\" fill = \"" + "none" + "\" "+"/>";
    /*finish plot one function*/

}





























</topfunctions>
-->

<!--
<currentjson>
{
    "constants": {},
    "YofXstring": "Y = X/Math.tanh(X)",
    "style": {
        "linewidth": 4,
        "color": "blue",
        "fill": "none"
    },
    "plotparams": {
        "G": "100",
        "g": 0.013946256617087848,
        "duration": 450.78888054094654,
        "plotwidth": 400,
        "plotheight": 400,
        "x0": 208,
        "y0": 353
    },
    "funcparams": {
        "X0": 0,
        "Y0": 0
    },
    "image": {
        "url": "https://i.imgur.com/5226cet.png",
        "xoverw": -0.16666666666666666,
        "yoverw": -0.3333333333333333,
        "woverw": 1.3861584140507315,
        "angle": 88.42105263157895
    }
}
</currentjson>
-->
	<path d = "M0 61 L1 62.51236557612816 L2 63.8648542574403 L3 65.21639631362007 L4 66.56697174991581 L5 67.916560190177 L6 69.26514087090925 L7 70.61269263528084 L8 71.9591939270818 L9 73.30462278463813 L10 74.64895683468109 L11 75.99217328617448 L12 77.3342489241 L13 78.67516010320395 L14 80.01488274170589 L15 81.35339231497107 L16 82.69066384915016 L17 84.0266719147856 L18 85.36139062038967 L19 86.69479360599422 L20 88.02685403667556 L21 89.35754459605687 L22 90.68683747979009 L23 92.01470438902084 L24 93.34111652383842 L25 94.66604457671394 L26 95.9894587259297 L27 97.31132862900299 L28 98.63162341610752 L29 99.9503116834955 L30 101.26736148692436 L31 102.58274033509116 L32 103.89641518307917 L33 105.20835242581944 L34 106.51851789157266 L35 107.82687683543372 L36 109.13339393286552 L37 110.4380332732635 L38 111.7407583535585 L39 113.04153207186013 L40 114.3403167211469 L41 115.63707398300718 L42 116.93176492143701 L43 118.22434997669876 L44 119.51478895924745 L45 120.80304104372857 L46 122.08906476305452 L47 123.37281800256477 L48 124.65425799427555 L49 125.93334131122538 L50 127.21002386192293 L51 128.48426088490282 L52 129.75600694339659 L53 131.02521592012505 L54 132.29184101221915 L55 133.55583472627558 L56 134.81714887355557 L57 136.07573456533186 L58 137.3315422083938 L59 138.58452150071582 L60 139.8346214272981 L61 141.08179025618688 L62 142.32597553468185 L63 143.56712408573927 L64 144.80518200457843 L65 146.04009465549962 L66 147.2718066689221 L67 148.50026193865057 L68 149.72540361937817 L69 150.9471741244355 L70 152.16551512379286 L71 153.3803675423263 L72 154.591671558355 L73 155.7993666024593 L74 157.0033913565886 L75 158.2036837534676 L76 159.40018097631093 L77 160.59281945885414 L78 161.78153488571098 L79 162.96626219306614 L80 164.14693556971244 L81 165.3234884584413 L82 166.4958535577968 L83 167.6639628242015 L84 168.8277474744635 L85 169.98713798867405 L86 171.1420641135048 L87 172.2924548659133 L88 173.43823853726644 L89 174.57934269788976 L90 175.71569420205248 L91 176.847219193396 L92 177.9738431108152 L93 179.09549069480013 L94 180.2120859942471 L95 181.32355237374708 L96 182.4298125213588 L97 183.53078845687529 L98 184.62640154059028 L99 185.7165724825727 L100 186.80122135245568 L101 187.88026758974715 L102 188.95363001466853 L103 190.02122683952763 L104 191.08297568063196 L105 192.13879357074768 L106 193.18859697210962 L107 194.23230178998762 L108 195.26982338681296 L109 196.30107659686973 L110 197.32597574155452 L111 198.34443464520797 L112 199.35636665152052 L113 200.3616846405156 L114 201.36030104611152 L115 202.35212787426343 L116 203.33707672168717 L117 204.3150587951642 L118 205.28598493142837 L119 206.24976561763353 L120 207.2063110124006 L121 208.1555309674423 L122 209.09733504976347 L123 210.0316325644332 L124 210.95833257792566 L125 211.87734394202496 L126 212.7885753182895 L127 213.69193520306928 L128 214.58733195307082 L129 215.47467381146222 L130 216.35386893451036 L131 217.2248254187425 L132 218.08745132862245 L133 218.94165472473213 L134 219.78734369244742 L135 220.6244263710973 L136 221.45281098359396 L137 222.27240586652195 L138 223.0831195006713 L139 223.88486054200237 L140 224.6775378530257 L141 225.46106053458234 L142 226.23533795800745 L143 227.0002797976608 L144 227.75579606380563 L145 228.5017971358174 L146 229.23819379570386 L147 229.9648972619152 L148 230.68181922342498 L149 231.38887187405945 L150 232.0859679470539 L151 232.77302074981327 L152 233.44994419885367 L153 234.11665285490133 L154 234.77306195812372 L155 235.41908746346934 L156 236.0546460760889 L157 236.67965528681322 L158 237.29403340766078 L159 237.89769960734807 L160 238.49057394677493 L161 239.07257741445767 L162 239.64363196188145 L163 240.20366053874346 L164 240.75258712805777 L165 241.2903367810933 L166 241.81683565211512 L167 242.33201103289946 L168 242.83579138699295 L169 243.32810638368656 L170 243.80888693167302 L171 244.27806521235942 L172 244.73557471280384 L173 245.1813502582461 L174 245.6153280442038 L175 246.03744566810184 L176 246.44764216040832 L177 246.84585801524543 L178 247.2320352204468 L179 247.60611728703304 L180 247.9680492780759 L181 248.31777783692354 L182 248.65525121475895 L183 248.98041929746455 L184 249.2932336317657 L185 249.59364745062692 L186 249.881615697876 L187 250.1570950520297 L188 250.4200439492979 L189 250.67042260574192 L190 250.90819303856387 L191 251.13331908650616 L192 251.34576642933843 L193 251.54550260641216 L194 251.73249703426413 L195 251.90672102324868 L196 252.06814779318245 L197 252.21675248798425 L198 252.35251218929486 L199 252.47540592906165 L200 252.5854147010753 L201 252.6825214714454 L202 252.76671118800442 L203 252.83797078862898 L204 252.89628920847048 L205 252.9416573860862 L206 252.9740682684653 L207 252.993516814943 L208 NaN L209 252.993516814943 L210 252.9740682684653 L211 252.9416573860862 L212 252.89628920847048 L213 252.83797078862898 L214 252.76671118800442 L215 252.6825214714454 L216 252.5854147010753 L217 252.47540592906165 L218 252.35251218929486 L219 252.21675248798425 L220 252.06814779318245 L221 251.90672102324868 L222 251.73249703426413 L223 251.54550260641216 L224 251.34576642933843 L225 251.13331908650616 L226 250.90819303856387 L227 250.67042260574192 L228 250.4200439492979 L229 250.1570950520297 L230 249.881615697876 L231 249.59364745062692 L232 249.2932336317657 L233 248.98041929746455 L234 248.65525121475895 L235 248.31777783692354 L236 247.9680492780759 L237 247.60611728703304 L238 247.2320352204468 L239 246.84585801524543 L240 246.44764216040832 L241 246.03744566810184 L242 245.6153280442038 L243 245.1813502582461 L244 244.73557471280384 L245 244.27806521235942 L246 243.80888693167302 L247 243.32810638368656 L248 242.83579138699295 L249 242.33201103289946 L250 241.81683565211512 L251 241.2903367810933 L252 240.75258712805777 L253 240.20366053874346 L254 239.64363196188145 L255 239.07257741445767 L256 238.49057394677493 L257 237.89769960734807 L258 237.29403340766078 L259 236.67965528681322 L260 236.0546460760889 L261 235.41908746346934 L262 234.77306195812372 L263 234.11665285490133 L264 233.44994419885367 L265 232.77302074981327 L266 232.0859679470539 L267 231.38887187405945 L268 230.68181922342498 L269 229.9648972619152 L270 229.23819379570386 L271 228.5017971358174 L272 227.75579606380563 L273 227.0002797976608 L274 226.23533795800745 L275 225.46106053458234 L276 224.6775378530257 L277 223.88486054200237 L278 223.0831195006713 L279 222.27240586652195 L280 221.45281098359396 L281 220.6244263710973 L282 219.78734369244742 L283 218.94165472473213 L284 218.08745132862245 L285 217.2248254187425 L286 216.35386893451036 L287 215.47467381146222 L288 214.58733195307082 L289 213.69193520306928 L290 212.7885753182895 L291 211.87734394202496 L292 210.95833257792566 L293 210.0316325644332 L294 209.09733504976347 L295 208.1555309674423 L296 207.2063110124006 L297 206.24976561763353 L298 205.28598493142837 L299 204.3150587951642 L300 203.33707672168717 L301 202.35212787426343 L302 201.36030104611152 L303 200.3616846405156 L304 199.35636665152052 L305 198.34443464520797 L306 197.32597574155452 L307 196.30107659686973 L308 195.26982338681296 L309 194.23230178998762 L310 193.18859697210962 L311 192.13879357074768 L312 191.08297568063196 L313 190.02122683952763 L314 188.95363001466853 L315 187.88026758974715 L316 186.80122135245568 L317 185.7165724825727 L318 184.62640154059028 L319 183.53078845687529 L320 182.4298125213588 L321 181.32355237374708 L322 180.2120859942471 L323 179.09549069480013 L324 177.9738431108152 L325 176.847219193396 L326 175.71569420205248 L327 174.57934269788976 L328 173.43823853726644 L329 172.2924548659133 L330 171.1420641135048 L331 169.98713798867405 L332 168.8277474744635 L333 167.6639628242015 L334 166.4958535577968 L335 165.3234884584413 L336 164.14693556971244 L337 162.96626219306614 L338 161.78153488571098 L339 160.59281945885414 L340 159.40018097631093 L341 158.2036837534676 L342 157.0033913565886 L343 155.7993666024593 L344 154.591671558355 L345 153.3803675423263 L346 152.16551512379286 L347 150.9471741244355 L348 149.72540361937817 L349 148.50026193865057 L350 147.2718066689221 L351 146.04009465549962 L352 144.80518200457843 L353 143.56712408573927 L354 142.32597553468185 L355 141.08179025618688 L356 139.8346214272981 L357 138.58452150071582 L358 137.3315422083938 L359 136.07573456533186 L360 134.81714887355557 L361 133.55583472627558 L362 132.29184101221915 L363 131.02521592012505 L364 129.75600694339659 L365 128.48426088490282 L366 127.21002386192293 L367 125.93334131122538 L368 124.65425799427555 L369 123.37281800256477 L370 122.08906476305452 L371 120.80304104372857 L372 119.51478895924745 L373 118.22434997669876 L374 116.93176492143701 L375 115.63707398300718 L376 114.3403167211469 L377 113.04153207186013 L378 111.7407583535585 L379 110.4380332732635 L380 109.13339393286552 L381 107.82687683543372 L382 106.51851789157266 L383 105.20835242581944 L384 103.89641518307917 L385 102.58274033509116 L386 101.26736148692436 L387 99.9503116834955 L388 98.63162341610752 L389 97.31132862900299 L390 95.9894587259297 L391 94.66604457671394 L392 93.34111652383842 L393 92.01470438902084 L394 90.68683747979009 L395 89.35754459605687 L396 88.02685403667556 L397 86.69479360599422 L398 85.36139062038967 L399 84.0266719147856 " stroke = "blue" stroke-width = "4" fill = "none" /></svg>