<svg width="500" height="500" viewbox = "0 0 500 500"  xmlns="http://www.w3.org/2000/svg">

<!--
<topfunctions>


//put helper functions here, along with contsants and variables


function YofX(){
    
    X = currentjson.plotparams.g*(x - currentjson.plotparams.x0);
    eval(currentjson.YofXstring);
    y = currentjson.plotparams.y0 - currentjson.plotparams.G*(Y);

}




function plotfunction(){
    /*plot one function:*/
    currentStroke = currentjson.style.color;
    currentLineWidth = currentjson.style.linewidth;
    ctx.strokeStyle = currentStroke;
    ctx.lineWidth = currentLineWidth;
    ctx.beginPath();	
    x = 0;
    YofX();
    currentSVG += "	<path d = \"M";
    currentSVG += Math.round(x).toString() + " ";
    currentSVG += Math.round(y).toString() + " ";
    for(x = 1;x < currentjson.plotparams.plotwidth;x++){
        ctx.moveTo(x-1,y);
        YofX();
        ctx.lineTo(x,y);
        currentSVG += "L" + x + " " + y + " ";
    }
    ctx.stroke();
    currentSVG += "\""+ " stroke = \"" + currentStroke + "\" stroke-width = \"" + currentLineWidth.toString() + "\" fill = \"" + "none" + "\" "+"/>";
    /*finish plot one function*/

}





























</topfunctions>
-->

<!--
<currentjson>
{
    "constants": {},
    "YofXstring": "Y = Math.log(X)",
    "style": {
        "linewidth": 4,
        "color": "blue",
        "fill": "none"
    },
    "plotparams": {
        "G": 69.75370036682376,
        "g": 0.0014982289736751597,
        "duration": 450.78888054094654,
        "plotwidth": 500,
        "plotheight": 500,
        "x0": -20,
        "y0": 115
    },
    "funcparams": {},
    "image": {
        "url": "",
        "xoverw": 0.038011695906432746,
        "yoverw": -0.08771929824561403,
        "woverw": 0.8536631795472632,
        "angle": "0"
    }
}
</currentjson>
-->
	<path d = "M0 360 L1 356.2745001464875 L2 353.0295569148313 L3 349.9288819876881 L4 346.96019139579187 L5 344.1127062216499 L6 341.37691634818276 L7 338.74438881832157 L8 336.20761106377915 L9 333.75986165618735 L10 331.3951029786315 L11 329.1078915023554 L12 326.8933023130835 L13 324.74686525465256 L14 322.66451060804786 L15 320.6425226466188 L16 318.6774997356132 L17 316.76631989973714 L18 314.9061109834596 L19 313.09422468800403 L20 311.3282138959231 L21 309.6058127960203 L22 307.9249194036005 L23 306.28358013776744 L24 304.6799761719442 L25 303.1124113184528 L26 301.579301244801 L27 300.0791638497905 L28 298.6106106529047 L29 297.17233907158766 L30 295.7631254787628 L31 294.3818189478692 L32 293.02733560529566 L33 291.69865352078097 L34 290.3948080754345 L35 289.1148877547838 L36 287.858030320892 L37 286.6234193232809 L38 285.4102809133003 L39 284.21788093081506 L40 283.04552223574444 L41 281.8925422601669 L42 280.75831075946826 L43 279.6422277434217 L44 278.54372157019634 L45 277.4622471881353 L46 276.3972845117654 L47 275.3483369199262 L48 274.31492986516076 L49 273.29660958462233 L50 272.2929419037317 L51 271.30351112469 L52 270.32791899272604 L53 269.36578373364404 L54 268.41673915685 L55 267.48043381858406 L56 266.5565302405725 L57 265.6447041797527 L58 264.74464394511693 L59 263.85604975807286 L60 262.978633153036 L61 262.11211641525574 L62 261.2562320531332 L63 260.4107223025218 L64 259.5753386607133 L65 258.74984144800044 L66 257.9339993948803 L67 257.1275892531216 L68 256.33039542905703 L69 255.54220963759582 L70 254.76283057556572 L71 253.9920636131042 L72 253.2297205019139 L73 252.4756190992896 L74 251.7295831069034 L75 250.99144182341215 L76 250.26102991001767 L77 249.53818716817494 L78 248.82275832870056 L79 248.11459285158676 L80 247.41354473587566 L81 246.719472338993 L82 246.03223820498204 L83 245.35170890111678 L84 244.67775486240853 L85 244.01025024355295 L86 243.34907277789387 L87 242.69410364300893 L88 242.04522733254737 L89 241.40233153397415 L90 240.7653070118967 L91 240.13404749667131 L92 239.5084495780049 L93 238.88841260328587 L94 238.2738385803938 L95 237.66463208475355 L96 237.06070017041316 L97 236.46195228493823 L98 235.8683001879279 L99 235.2796578729693 L100 234.6959414928573 L101 234.1170692879177 L102 233.54296151727982 L103 232.97354039295448 L104 232.40873001658116 L105 231.8484563187153 L106 231.2926470005346 L107 230.74123147784945 L108 230.19414082730924 L109 229.65130773470162 L110 229.11266644524818 L111 228.57815271580466 L112 228.04770376887834 L113 227.52125824838103 L114 226.99875617703913 L115 226.48013891538702 L116 225.96534912227366 L117 225.45433071681583 L118 224.9470288417352 L119 224.4433898280184 L120 223.94336116084457 L121 223.4468914467247 L122 222.95393038180288 L123 222.4644287212692 L124 221.97833824983894 L125 221.49561175325283 L126 221.01620299075694 L127 220.54006666852183 L128 220.0671584139629 L129 219.59743475092483 L130 219.13085307569696 L131 218.6673716338244 L132 218.2069494976854 L133 217.74954654480337 L134 217.2951234368656 L135 216.8436415994208 L136 216.39506320222984 L137 215.94935114024366 L138 215.50646901518576 L139 215.06638111771517 L140 214.62905241014892 L141 214.19444850972243 L142 213.76253567236864 L143 213.33328077699576 L144 212.90665131024605 L145 212.48261535171798 L146 212.06114155963462 L147 211.6421991569427 L148 211.2257579178262 L149 210.8117881546207 L150 210.40026070511328 L151 209.9911469202151 L152 209.5844186519932 L153 209.1800482420495 L154 208.77800851023449 L155 208.3782727436842 L156 207.98081468616994 L157 207.58560852774923 L158 207.1926288947087 L159 206.8018508397884 L160 206.41324983267862 L161 206.02680175077978 L162 205.64248287021707 L163 205.2602698571011 L164 204.88013975902678 L165 204.50206999680253 L166 204.12603835640246 L167 203.7520229811343 L168 203.38000236401626 L169 203.0099553403559 L170 202.64186108052502 L171 202.27569908292412 L172 201.91144916713054 L173 201.5490914672245 L174 201.18860642528782 L175 200.8299747850695 L176 200.47317758581343 L177 200.11819615624336 L178 199.76501210869964 L179 199.41360733342424 L180 199.06396399298853 L181 198.71606451686043 L182 198.3698915961059 L183 198.02542817822172 L184 197.68265746209494 L185 197.34156289308572 L186 197.00212815822965 L187 196.6643371815565 L188 196.3281741195214 L189 195.99362335654604 L190 195.66066950066585 L191 195.3292973792808 L192 194.99949203500677 L193 194.67123872162415 L194 194.34452290012183 L195 194.01933023483284 L196 193.69564658966027 L197 193.3734580243897 L198 193.05275079108702 L199 192.7335113305782 L200 192.41572626900955 L201 192.0993824144858 L202 191.7844667537842 L203 191.47096644914225 L204 191.1588688351178 L205 190.84816141551823 L206 190.53883186039877 L207 190.23086800312595 L208 189.92425783750667 L209 189.61898951497932 L210 189.31505134186645 L211 189.01243177668687 L212 188.71111942752606 L213 188.41110304946278 L214 188.1123715420511 L215 187.81491394685594 L216 187.5187194450408 L217 187.22377735500703 L218 186.93007713008217 L219 186.63760835625706 L220 186.3463607499702 L221 186.0563241559381 L222 185.7674885450306 L223 185.47984401218997 L224 185.19338077439272 L225 184.90808916865308 L226 184.62395965006735 L227 184.34098278989757 L228 184.05914927369406 L229 183.77844989945595 L230 183.4988755758282 L231 183.2204173203349 L232 182.9430662576475 L233 182.66681361788747 L234 182.39165073496235 L235 182.1175690449346 L236 181.84456008442214 L237 181.57261548903037 L238 181.3017269918145 L239 181.0318864217714 L240 180.76308570236108 L241 180.49531685005576 L242 180.22857197291754 L243 179.96284326920238 L244 179.6981230259912 L245 179.43440361784639 L246 179.1716775054939 L247 178.90993723453 L248 178.64917543415203 L249 178.38938481591316 L250 178.1305581724999 L251 177.87268837653235 L252 177.61576837938654 L253 177.35979121003837 L254 177.10474997392873 L255 176.85063785184923 L256 176.59744809884808 L257 176.34517404315602 L258 176.0938090851313 L259 175.84334669622376 L260 175.59378041795742 L261 175.34510386093126 L262 175.09731070383756 L263 174.85039469249787 L264 174.60434963891572 L265 174.35916942034632 L266 174.1148479783821 L267 173.8713793180546 L268 173.62875750695184 L269 173.38697667435093 L270 173.1460310103657 L271 172.90591476510912 L272 172.6666222478698 L273 172.42814782630296 L274 172.19048592563473 L275 171.95363102788045 L276 171.71757767107576 L277 171.4823204485209 L278 171.24785400803773 L279 171.01417305123897 L280 170.78127233280983 L281 170.54914665980172 L282 170.31779089093726 L283 170.0871999359272 L284 169.85736875479827 L285 169.62829235723234 L286 169.39996580191624 L287 169.17238419590214 L288 168.94554269397847 L289 168.71943649805095 L290 168.4940608565337 L291 168.26941106374994 L292 168.0454824593427 L293 167.8222704276945 L294 167.59977039735654 L295 167.37797784048712 L296 167.15688827229863 L297 166.93649725051336 L298 166.71680037482804 L299 166.49779328638672 L300 166.2794716672618 L301 166.0618312399431 L302 165.84486776683534 L303 165.62857704976267 L304 165.41295492948154 L305 165.1979972852007 L306 164.98370003410867 L307 164.77005913090832 L308 164.55707056735895 L309 164.3447303718248 L310 164.13303460883088 L311 163.9219793786251 L312 163.71156081674752 L313 163.5017750936055 L314 163.29261841405557 L315 163.08408701699167 L316 162.87617717493907 L317 162.66888519365477 L318 162.46220741173357 L319 162.25614020022005 L320 162.05067996222618 L321 161.8458231325547 L322 161.64156617732797 L323 161.43790559362196 L324 161.2348379091061 L325 161.03235968168772 L326 160.83046749916238 L327 160.62915797886848 L328 160.42842776734736 L329 160.22827354000808 L330 160.0286920007971 L331 159.82967988187244 L332 159.6312339432828 L333 159.43335097265106 L334 159.2360277848621 L335 159.0392612217554 L336 158.84304815182156 L337 158.64738546990347 L338 158.4522700969013 L339 158.25769897948175 L340 158.0636690897915 L341 157.8701774251744 L342 157.67722100789265 L343 157.4847968848519 L344 157.29290212732997 L345 157.10153383070946 L346 156.910689114214 L347 156.72036512064793 L348 156.53055901613965 L349 156.34126798988865 L350 156.1524892539154 L351 155.9642200428153 L352 155.77645761351533 L353 155.58919924503454 L354 155.4024422382472 L355 155.2161839156495 L356 155.03042162112916 L357 154.84515271973822 L358 154.6603745974688 L359 154.47608466103162 L360 154.29228033763792 L361 154.10895907478366 L362 153.92611834003702 L363 153.74375562082844 L364 153.5618684242434 L365 153.3804542768181 L366 153.1995107243374 L367 153.0190353316358 L368 152.8390256824007 L369 152.6594793789784 L370 152.48039404218235 L371 152.30176731110407 L372 152.1235968429263 L373 151.94588031273884 L374 151.76861541335623 L375 151.59179985513828 L376 151.4154313658125 L377 151.23950769029895 L378 151.0640265905371 L379 150.8889858453152 L380 150.71438325010143 L381 150.54021661687733 L382 150.36648377397333 L383 150.19318256590623 L384 150.02031085321877 L385 149.8478665123212 L386 149.67584743533462 L387 149.50425152993643 L388 149.33307671920784 L389 149.16232094148265 L390 148.9919821501986 L391 148.82205831375003 L392 148.65254741534255 L393 148.48344745284936 L394 148.31475643866938 L395 148.14647239958717 L396 147.9785933766343 L397 147.8111174249526 L398 147.64404261365894 L399 147.4773670257117 L400 147.31108875777875 L401 147.145205920107 L402 146.97971663639368 L403 146.81461904365887 L404 146.64991129211964 L405 146.48559154506583 L406 146.32165797873702 L407 146.15810878220123 L408 145.9949421572347 L409 145.8321563182034 L410 145.6697494919457 L411 145.50771991765666 L412 145.34606584677314 L413 145.1847855428609 L414 145.0238772815026 L415 144.863339350187 L416 144.70317004819992 L417 144.5433676865158 L418 144.3839305876911 L419 144.2248570857585 L420 144.06614552612245 L421 143.907794265456 L422 143.7498016715987 L423 143.59216612345548 L424 143.43488601089706 L425 143.2779597346612 L426 143.12138570625515 L427 142.96516234785904 L428 142.80928809223067 L429 142.65376138261104 L430 142.49858067263114 L431 142.34374442621962 L432 142.18925111751165 L433 142.03509923075856 L434 141.88128726023882 L435 141.7278137101696 L436 141.57467709461957 L437 141.42187593742256 L438 141.26940877209222 L439 141.11727414173754 L440 140.96547059897932 L441 140.81399670586757 L442 140.66285103379977 L443 140.51203216343995 L444 140.36153868463893 L445 140.21136919635498 L446 140.06152230657568 L447 139.91199663224046 L448 139.762790799164 L449 139.61390344196056 L450 139.4653332039688 L451 139.31707873717784 L452 139.16913870215367 L453 139.02151176796676 L454 138.87419661211993 L455 138.72719192047757 L456 138.58049638719507 L457 138.43410871464934 L458 138.28802761336993 L459 138.14225180197084 L460 137.99678000708306 L461 137.85161096328792 L462 137.706743413051 L463 137.56217610665664 L464 137.41790780214347 L465 137.27393726524036 L466 137.13026326930284 L467 136.98688459525067 L468 136.84380003150557 L469 136.70100837392994 L470 136.55850842576598 L471 136.41629899757544 L472 136.27437890718025 L473 136.13274697960335 L474 135.99140204701044 L475 135.85034294865216 L476 135.70956853080693 L477 135.56907764672428 L478 135.42886915656882 L479 135.2889419273648 L480 135.14929483294108 L481 135.00992675387687 L482 134.8708365774478 L483 134.73202319757257 L484 134.59348551476037 L485 134.45522243605842 L486 134.31723287500034 L487 134.17951575155487 L488 134.04206999207526 L489 133.90489452924882 L490 133.76798830204748 L491 133.63135025567834 L492 133.49497934153501 L493 133.35887451714927 L494 133.22303474614327 L495 133.08745899818217 L496 132.95214624892736 L497 132.81709547998983 L498 132.6823056788843 L499 132.54777583898368 " stroke = "blue" stroke-width = "4" fill = "none" /></svg>