<svg width="500" height="500" viewbox = "0 0 500 500"  xmlns="http://www.w3.org/2000/svg">

<!--
<topfunctions>



function YofX(){
    X = currentjson.plotparams.g*(x - currentjson.plotparams.x0);

    Y = currentjson.funcparams.G*(currentjson.funcparams.Tn +  (X - currentjson.funcparams.f)/Math.tanh( (X - currentjson.funcparams.f)/currentjson.funcparams.T) +  (X + currentjson.funcparams.f)/Math.tanh( (X + currentjson.funcparams.f)/currentjson.funcparams.T));

    y = currentjson.plotparams.y0 - currentjson.plotparams.G*(Y);
}





function plotfunction(){
    
    /*plot one function:*/
    currentStroke = "red";
    currentLineWidth = 4;
    ctx.strokeStyle = currentStroke;
    ctx.lineWidth = currentLineWidth;
    ctx.beginPath();	
    x = 0;
    intx = x;
    YofX();
    currentSVG += "	<path d = \"M";
    currentSVG += Math.round(x).toString() + " ";
    currentSVG += Math.round(y).toString() + " ";
    for(x = 1;x < currentjson.plotparams.plotwidth;x++){
        ctx.moveTo(x-1,y);
        YofX();
        ctx.lineTo(x,y);
        currentSVG += "L" + x + " " + y + " ";
    }
    ctx.stroke();
    currentSVG += "\""+ " stroke = \"" + currentStroke + "\" stroke-width = \"" + currentLineWidth.toString() + "\" fill = \"" + "none" + "\" "+"/>";
    /*finish plot one function*/
    
    

}































</topfunctions>
-->

<!--
<currentjson>
{
    "constants": {},
    "YofXstring": "Y =  (1/Math.PI)*0.5/(X*X + 0.25);",
    "style": {
        "linewidth": 4,
        "color": "blue",
        "fill": "none"
    },
    "plotparams": {
        "G": 10,
        "g": 0.056045146882445586,
        "duration": 450.78888054094654,
        "plotwidth": 500,
        "plotheight": 500,
        "x0": 247,
        "y0": 485
    },
    "funcparams": {
        "f": 5.360676760535051,
        "T": 1.7186016995268678,
        "Tn": 11,
        "G": 1,
        "X0": 0,
        "Y0": 0
    },
    "image": {
        "url": "",
        "xoverw": 0.038011695906432746,
        "yoverw": -0.08771929824561403,
        "woverw": 0.8536631795472632,
        "angle": "0"
    },
    "A": 13.676183278839833,
    "B": 1
}
</currentjson>
-->

<!--
<equation>
# Equations

$x$, $x_0$, $y$ and $y_0$ are all in pixels. x varies from 0 to the width in pixels of the plot.  Y and X are in the units of the system being studied.   

$$X = g(x - x_0)$$
$$Y = \sin{(X)}$$
$$y = y_0 - GY$$ 
</equation>
-->
	<path d = "M0 98 L1 99.2485888232232 L2 100.3689316601907 L3 101.48924118842888 L4 102.60951546201483 L5 103.72975242399139 L6 104.84994990023432 L7 105.9701055929981 L8 107.09021707412194 L9 108.21028177788065 L10 109.3302969934656 L11 110.45025985707292 L12 111.5701673435857 L13 112.69001625782784 L14 113.80980322537033 L15 114.92952468286938 L16 116.0491768679151 L17 117.16875580836751 L18 118.28825731115728 L19 119.40767695052813 L20 120.52701005569372 L21 121.64625169788599 L22 122.76539667676684 L23 123.88443950617614 L24 125.00337439918809 L25 126.1221952524474 L26 127.2408956297536 L27 128.35946874486518 L28 129.4779074434905 L29 130.59620418443387 L30 131.71435101986253 L31 132.8323395746637 L32 133.95016102485334 L33 135.06780607500468 L34 136.1852649346598 L35 137.30252729368715 L36 138.41958229654983 L37 139.53641851544745 L38 140.65302392229262 L39 141.7693858594871 L40 142.88549100945835 L41 144.0013253629192 L42 145.11687418581454 L43 146.23212198491706 L44 147.34705247203607 L45 148.46164852680374 L46 149.57589215800476 L47 150.68976446341486 L48 151.80324558811725 L49 152.91631468126604 L50 154.02894985126784 L51 155.14112811935667 L52 156.25282537153782 L53 157.3640163088795 L54 158.47467439613746 L55 159.5847718086958 L56 160.69427937781813 L57 161.8031665342025 L58 162.91140124984167 L59 164.01894997819392 L60 165.12577759267884 L61 166.23184732351615 L62 167.33712069293415 L63 168.44155744878367 L64 169.5451154966005 L65 170.64775083016872 L66 171.74941746064906 L67 172.85006734434495 L68 173.94965030919246 L69 175.04811398007098 L70 176.14540370304684 L71 177.24146246867258 L72 178.33623083448254 L73 179.42964684683943 L74 180.52164596230233 L75 181.61216096870442 L76 182.70112190614623 L77 183.78845598812853 L78 184.87408752306806 L79 185.9579378364598 L80 187.03992519396814 L81 188.1199647257526 L82 189.1979683523531 L83 190.27384471248138 L84 191.3474990930896 L85 192.41883336210446 L86 193.48774590424273 L87 194.55413156034035 L88 195.61788157065348 L89 196.67888352260638 L90 197.73702130348443 L91 198.79217505858924 L92 199.84422115538763 L93 200.8930321542079 L94 201.93847678604772 L95 202.98041993807198 L96 204.01872264739018 L97 205.05324210371123 L98 206.08383166147593 L99 207.11034086207417 L100 208.1326154667476 L101 209.1504975007765 L102 210.16382530953848 L103 211.17243362701328 L104 212.17615365728898 L105 213.17481316960203 L106 214.16823660741278 L107 215.15624521198583 L108 216.1386571609027 L109 217.11528772188876 L110 218.0859494222837 L111 219.05045223442812 L112 220.00860377717117 L113 220.9602095336379 L114 221.90507308531517 L115 222.84299636243423 L116 223.77377991054055 L117 224.69722317304735 L118 225.61312478947366 L119 226.52128290896343 L120 227.4214955185787 L121 228.31356078574902 L122 229.19727741415215 L123 230.07244501218327 L124 230.93886447306346 L125 231.7963383655213 L126 232.6446713338728 L127 233.48367050621653 L128 234.3131459093579 L129 235.13291088897347 L130 235.9427825334389 L131 236.74258209965288 L132 237.53213543911568 L133 238.31127342245225 L134 239.0798323605124 L135 239.83765442013708 L136 240.5845880326456 L137 241.32048829308076 L138 242.0452173482446 L139 242.75864477156608 L140 243.46064792286896 L141 244.151112291148 L142 244.82993181851782 L143 245.4970092035717 L144 246.15225618247274 L145 246.79559378620323 L146 247.42695257251253 L147 248.0462728312338 L148 248.65350476177963 L149 249.24860862178042 L150 249.83155484599047 L151 250.4023241347562 L152 250.96090751152025 L153 251.5073063490134 L154 252.04153236397588 L155 252.56360758043215 L156 253.0735642617333 L157 253.5714448117633 L158 254.0573016458866 L159 254.53119703239065 L160 254.99320290534243 L161 255.44340064994 L162 255.88188086158698 L163 256.3087430800556 L164 256.72409550023065 L165 257.12805466103623 L166 257.52074511424473 L167 257.90229907495154 L168 258.2728560555639 L169 258.63256248520423 L170 258.98157131646656 L171 259.3200416214813 L172 259.64813817925324 L173 259.9660310562246 L174 260.2738951819957 L175 260.5719099220954 L176 260.86025864964756 L177 261.13912831771825 L178 261.408709034057 L179 261.6691936398663 L180 261.9207772941451 L181 262.1636570650559 L182 262.3980315296641 L183 262.624100383295 L184 262.84206405963903 L185 263.05212336263037 L186 263.25447911100787 L187 263.44933179635376 L188 263.6368812552954 L189 263.8173263564438 L190 263.99086470253326 L191 264.1576923481224 L192 264.3180035331175 L193 264.47199043227766 L194 264.61984292077375 L195 264.76174835578524 L196 264.8978913740359 L197 265.0284537050967 L198 265.15361400021493 L199 265.2735476763621 L200 265.3884267751403 L201 265.49841983613396 L202 265.6036917842465 L203 265.70440383052664 L204 265.8007133859526 L205 265.8927739876141 L206 265.98073523671053 L207 266.0647427477655 L208 266.14493810844345 L209 266.2214588493464 L210 266.29443842316283 L211 266.36400619254005 L212 266.4302874260539 L213 266.4934033016534 L214 266.55347091696876 L215 266.6106033058767 L216 266.664909460737 L217 266.71649435972154 L218 266.76545899867637 L219 266.81190042697745 L220 266.8559117868539 L221 266.8975823556765 L222 266.9369975907285 L223 266.9742391759946 L224 267.0093850705286 L225 267.04250955797795 L226 267.0736832968681 L227 267.1029733712685 L228 267.13044334148344 L229 267.15615329443466 L230 267.180159893418 L231 267.20251642694177 L232 267.2232728563709 L233 267.2424758621204 L234 267.260168888162 L235 267.2763921846236 L236 267.29118284827996 L237 267.30457486074977 L238 267.3165991242304 L239 267.32728349461706 L240 267.33665281186916 L241 267.34472892750057 L242 267.3515307290853 L243 267.35707416168367 L244 267.36137224610826 L245 267.3644350939596 L246 267.366269919379 L247 267.36688104747265 L248 267.366269919379 L249 267.3644350939596 L250 267.36137224610826 L251 267.35707416168367 L252 267.3515307290853 L253 267.34472892750057 L254 267.33665281186916 L255 267.32728349461706 L256 267.3165991242304 L257 267.30457486074977 L258 267.29118284827996 L259 267.2763921846236 L260 267.26016888816196 L261 267.2424758621204 L262 267.2232728563709 L263 267.2025164269418 L264 267.180159893418 L265 267.1561532944347 L266 267.13044334148344 L267 267.1029733712685 L268 267.07368329686807 L269 267.04250955797795 L270 267.0093850705286 L271 266.9742391759946 L272 266.9369975907285 L273 266.8975823556765 L274 266.8559117868539 L275 266.81190042697745 L276 266.76545899867637 L277 266.71649435972154 L278 266.6649094607371 L279 266.6106033058767 L280 266.55347091696876 L281 266.4934033016535 L282 266.4302874260539 L283 266.36400619254005 L284 266.29443842316283 L285 266.2214588493464 L286 266.14493810844345 L287 266.0647427477655 L288 265.98073523671053 L289 265.8927739876141 L290 265.80071338595263 L291 265.70440383052664 L292 265.6036917842465 L293 265.498419836134 L294 265.3884267751404 L295 265.27354767636206 L296 265.153614000215 L297 265.0284537050967 L298 264.8978913740359 L299 264.76174835578524 L300 264.61984292077375 L301 264.4719904322776 L302 264.3180035331175 L303 264.1576923481224 L304 263.99086470253326 L305 263.8173263564438 L306 263.6368812552954 L307 263.44933179635376 L308 263.25447911100787 L309 263.05212336263037 L310 262.84206405963903 L311 262.624100383295 L312 262.3980315296641 L313 262.1636570650559 L314 261.9207772941452 L315 261.66919363986636 L316 261.408709034057 L317 261.13912831771825 L318 260.86025864964756 L319 260.5719099220954 L320 260.2738951819957 L321 259.9660310562246 L322 259.64813817925324 L323 259.3200416214813 L324 258.98157131646656 L325 258.6325624852043 L326 258.2728560555639 L327 257.90229907495154 L328 257.52074511424473 L329 257.12805466103623 L330 256.72409550023065 L331 256.3087430800556 L332 255.88188086158695 L333 255.44340064994003 L334 254.99320290534243 L335 254.53119703239065 L336 254.0573016458866 L337 253.57144481176329 L338 253.07356426173328 L339 252.56360758043215 L340 252.04153236397588 L341 251.5073063490134 L342 250.96090751152022 L343 250.4023241347562 L344 249.83155484599047 L345 249.24860862178042 L346 248.65350476177966 L347 248.0462728312338 L348 247.42695257251253 L349 246.7955937862032 L350 246.15225618247274 L351 245.49700920357168 L352 244.82993181851782 L353 244.151112291148 L354 243.46064792286896 L355 242.75864477156608 L356 242.0452173482446 L357 241.32048829308076 L358 240.5845880326456 L359 239.83765442013708 L360 239.0798323605124 L361 238.31127342245225 L362 237.5321354391157 L363 236.74258209965288 L364 235.94278253343887 L365 235.13291088897344 L366 234.3131459093579 L367 233.48367050621653 L368 232.6446713338728 L369 231.7963383655213 L370 230.93886447306346 L371 230.07244501218324 L372 229.19727741415215 L373 228.31356078574908 L374 227.42149551857864 L375 226.52128290896343 L376 225.61312478947366 L377 224.69722317304735 L378 223.77377991054055 L379 222.8429963624343 L380 221.90507308531517 L381 220.9602095336379 L382 220.00860377717117 L383 219.05045223442812 L384 218.08594942228376 L385 217.1152877218887 L386 216.1386571609027 L387 215.15624521198583 L388 214.16823660741278 L389 213.17481316960203 L390 212.17615365728903 L391 211.17243362701322 L392 210.16382530953848 L393 209.1504975007765 L394 208.1326154667476 L395 207.11034086207417 L396 206.08383166147593 L397 205.05324210371123 L398 204.01872264739018 L399 202.98041993807198 L400 201.93847678604777 L401 200.8930321542079 L402 199.84422115538763 L403 198.79217505858924 L404 197.73702130348448 L405 196.67888352260638 L406 195.61788157065348 L407 194.55413156034035 L408 193.48774590424273 L409 192.41883336210446 L410 191.3474990930896 L411 190.27384471248138 L412 189.19796835235303 L413 188.1199647257526 L414 187.03992519396814 L415 185.9579378364598 L416 184.8740875230681 L417 183.78845598812853 L418 182.70112190614623 L419 181.61216096870442 L420 180.52164596230233 L421 179.42964684683943 L422 178.33623083448254 L423 177.24146246867258 L424 176.14540370304684 L425 175.04811398007098 L426 173.94965030919246 L427 172.85006734434495 L428 171.7494174606491 L429 170.64775083016877 L430 169.5451154966005 L431 168.44155744878367 L432 167.33712069293415 L433 166.23184732351615 L434 165.12577759267884 L435 164.01894997819397 L436 162.91140124984167 L437 161.8031665342025 L438 160.69427937781813 L439 159.5847718086958 L440 158.47467439613746 L441 157.3640163088795 L442 156.25282537153782 L443 155.14112811935667 L444 154.02894985126784 L445 152.91631468126604 L446 151.8032455881173 L447 150.6897644634148 L448 149.57589215800476 L449 148.46164852680374 L450 147.34705247203607 L451 146.23212198491706 L452 145.11687418581454 L453 144.0013253629192 L454 142.88549100945835 L455 141.76938585948722 L456 140.65302392229262 L457 139.53641851544745 L458 138.41958229654983 L459 137.30252729368715 L460 136.1852649346598 L461 135.06780607500474 L462 133.9501610248533 L463 132.8323395746637 L464 131.71435101986253 L465 130.59620418443387 L466 129.4779074434905 L467 128.35946874486518 L468 127.2408956297536 L469 126.1221952524474 L470 125.00337439918809 L471 123.88443950617614 L472 122.76539667676684 L473 121.64625169788599 L474 120.52701005569372 L475 119.40767695052813 L476 118.28825731115728 L477 117.16875580836745 L478 116.0491768679151 L479 114.92952468286944 L480 113.80980322537033 L481 112.69001625782784 L482 111.5701673435857 L483 110.45025985707292 L484 109.3302969934656 L485 108.21028177788065 L486 107.09021707412194 L487 105.9701055929981 L488 104.84994990023432 L489 103.72975242399139 L490 102.60951546201483 L491 101.48924118842888 L492 100.3689316601907 L493 99.24858882322326 L494 98.12821451823942 L495 97.0078104862738 L496 95.88737837393381 L497 94.76691973838615 L498 93.64643605208869 L499 92.52592870728137 " stroke = "red" stroke-width = "4" fill = "none" /></svg>