<svg width="500" height="500" viewbox = "0 0 500 500"  xmlns="http://www.w3.org/2000/svg">

<!--
<topfunctions>


//put helper functions here, along with contsants and variables


function YofX(){
    
    X = currentjson.plotparams.g*(x - currentjson.plotparams.x0);
    eval(currentjson.YofXstring);
    y = currentjson.plotparams.y0 - currentjson.plotparams.G*(Y);

}




function plotfunction(){
    /*plot one function:*/
    currentStroke = currentjson.style.color;
    currentLineWidth = currentjson.style.linewidth;
    ctx.strokeStyle = currentStroke;
    ctx.lineWidth = currentLineWidth;
    ctx.beginPath();	
    x = 0;
    YofX();
    currentSVG += "	<path d = \"M";
    currentSVG += Math.round(x).toString() + " ";
    currentSVG += Math.round(y).toString() + " ";
    for(x = 1;x < currentjson.plotparams.plotwidth;x++){
        ctx.moveTo(x-1,y);
        YofX();
        ctx.lineTo(x,y);
        currentSVG += "L" + x + " " + y + " ";
    }
    ctx.stroke();
    currentSVG += "\""+ " stroke = \"" + currentStroke + "\" stroke-width = \"" + currentLineWidth.toString() + "\" fill = \"" + "none" + "\" "+"/>";
    /*finish plot one function*/

}





























</topfunctions>
-->

<!--
<currentjson>
{
    "constants": {},
    "YofXstring": "Y = Math.exp(-X)",
    "style": {
        "linewidth": 4,
        "color": "blue",
        "fill": "none"
    },
    "plotparams": {
        "G": 225.08117895663068,
        "g": "0.005",
        "duration": 450.78888054094654,
        "plotwidth": 500,
        "plotheight": 500,
        "x0": 17,
        "y0": 339
    },
    "funcparams": {},
    "image": {
        "url": "",
        "xoverw": 0.038011695906432746,
        "yoverw": -0.08771929824561403,
        "woverw": 0.8536631795472632,
        "angle": "0"
    }
}
</currentjson>
-->
	<path d = "M0 94 L1 95.17246965924895 L2 96.38856454022036 L3 97.5985941226692 L4 98.80258865739813 L5 100.00057824433321 L6 101.19259283327648 L7 102.37866222465479 L8 103.55881607026467 L9 104.73308387401374 L10 105.90149499265823 L11 107.06407863653698 L12 108.22086387030168 L13 109.37187961364336 L14 110.51715464201556 L15 111.65671758735368 L16 112.79059693879066 L17 113.91882104336932 L18 115.04141810675111 L19 116.15841619392103 L20 117.26984322988949 L21 118.37572700039024 L22 119.47609515257514 L23 120.5709751957053 L24 121.66039450183882 L25 122.74438030651513 L26 123.82295970943574 L27 124.89615967514197 L28 125.96400703368883 L29 127.02652848131589 L30 128.08375058111469 L31 129.13569976369277 L32 130.18240232783455 L33 131.22388444115856 L34 132.2601721407719 L35 133.2912913339211 L36 134.31726779863962 L37 135.33812718439256 L38 136.35389501271766 L39 137.36459667786363 L40 138.37025744742468 L41 139.37090246297245 L42 140.3665567406844 L43 141.3572451719694 L44 142.3429925240898 L45 143.32382344078073 L46 144.2997624428662 L47 145.2708339288721 L48 146.23706217563617 L49 147.19847133891486 L50 148.15508545398737 L51 149.10692843625637 L52 150.054024081846 L53 150.99639606819676 L54 151.93406795465734 L55 152.86706318307375 L56 153.7954050783753 L57 154.71911684915776 L58 155.63822158826346 L59 156.55274227335877 L60 157.46270176750846 L61 158.36812281974724 L62 159.2690280656486 L63 160.1654400278906 L64 161.05738111681902 L65 161.94487363100748 L66 162.8279397578151 L67 163.70660157394101 L68 164.5808810459764 L69 165.45080003095362 L70 166.31638027689257 L71 167.1776434233445 L72 168.03461100193294 L73 168.88730443689195 L74 169.73574504560187 L75 170.57995403912207 L76 171.41995252272133 L77 172.25576149640554 L78 173.08740185544258 L79 173.91489439088468 L80 174.73825979008836 L81 175.5575186372315 L82 176.37269141382797 L83 177.18379849923957 L84 177.99086017118574 L85 178.79389660625026 L86 179.59292788038587 L87 180.38797396941604 L88 181.17905474953437 L89 181.96618999780165 L90 182.74939939263996 L91 183.52870251432506 L92 184.30411884547556 L93 185.07566777154008 L94 185.843368581282 L95 186.60724046726156 L96 187.36730252631565 L97 188.12357376003536 L98 188.87607307524092 L99 189.62481928445442 L100 190.36983110637001 L101 191.11112716632215 L102 191.84872599675086 L103 192.58264603766537 L104 193.3129056371049 L105 194.0395230515975 L106 194.76251644661636 L107 195.48190389703402 L108 196.19770338757417 L109 196.9099328132614 L110 197.61860997986844 L111 198.32375260436132 L112 199.02537831534246 L113 199.7235046534911 L114 200.41814907200208 L115 201.10932893702207 L116 201.79706152808367 L117 202.4813640385375 L118 203.1622535759819 L119 203.83974716269086 L120 204.51386173603925 L121 205.18461414892656 L122 205.85202117019801 L123 206.51609948506396 L124 207.17686569551682 L125 207.83433632074625 L126 208.48852779755217 L127 209.13945648075554 L128 209.78713864360736 L129 210.43159047819543 L130 211.07282809584916 L131 211.7108675275424 L132 212.3457247242942 L133 212.97741555756755 L134 213.60595581966612 L135 214.23136122412924 L136 214.8536474061246 L137 215.47282992283914 L138 216.08892425386807 L139 216.7019458016017 L140 217.3119098916107 L141 217.918831773029 L142 218.52272661893537 L143 219.12360952673234 L144 219.7214955185239 L145 220.316399541491 L146 220.9083364682652 L147 221.49732109730047 L148 222.08336815324327 L149 222.66649228730046 L150 223.24670807760583 L151 223.82403002958426 L152 224.3984725763147 L153 224.97005007889072 L154 225.53877682677967 L155 226.10466703817983 L156 226.66773486037596 L157 227.22799437009297 L158 227.78545957384773 L159 228.34014440829944 L160 228.89206274059782 L161 229.44122836872992 L162 229.98765502186504 L163 230.531356360698 L164 231.07234597779052 L165 231.6106373979113 L166 232.1462440783738 L167 232.67917940937295 L168 233.2094567143198 L169 233.73708925017456 L170 234.26209020777813 L171 234.7844727121818 L172 235.3042498229754 L173 235.82143453461373 L174 236.33603977674153 L175 236.84807841451664 L176 237.35756324893174 L177 237.86450701713417 L178 238.36892239274454 L179 238.87082198617352 L180 239.3702183449371 L181 239.86712395397024 L182 240.36155123593906 L183 240.85351255155138 L184 241.34302019986563 L185 241.83008641859863 L186 242.31472338443112 L187 242.79694321331252 L188 243.2767579607637 L189 243.7541796221783 L190 244.22922013312274 L191 244.7018913696345 L192 245.17220514851914 L193 245.64017322764565 L194 246.10580730624034 L195 246.56911902517945 L196 247.0301199672801 L197 247.48882165758977 L198 247.94523556367471 L199 248.3993730959063 L200 248.85124560774648 L201 249.3008643960316 L202 249.74824070125482 L203 250.19338570784703 L204 250.63631054445656 L205 251.07702628422746 L206 251.5155439450761 L207 251.9518744899669 L208 252.3860288271862 L209 252.818017810615 L210 253.24785224000044 L211 253.67554286122564 L212 254.10110036657835 L213 254.52453539501843 L214 254.9458585324436 L215 255.36508031195427 L216 255.78221121411673 L217 256.1972616672253 L218 256.6102420475629 L219 257.02116267966056 L220 257.4300338365555 L221 257.8368657400478 L222 258.24166856095644 L223 258.64445241937295 L224 259.0452273849147 L225 259.44400347697683 L226 259.84079066498225 L227 260.23559886863154 L228 260.62843795815013 L229 261.01931775453585 L230 261.40824802980393 L231 261.7952385072315 L232 262.1802988616007 L233 262.5634387194404 L234 262.944667659267 L235 263.32399521182384 L236 263.70143086031953 L237 264.07698404066497 L238 264.4506641417091 L239 264.8224805054741 L240 265.19244242738824 L241 265.56055915651893 L242 265.9268398958036 L243 266.2912938022797 L244 266.653929987314 L245 267.01475751682995 L246 267.3737854115345 L247 267.73102264714396 L248 268.08647815460756 L249 268.4401608203316 L250 268.79207948640124 L251 269.1422429508013 L252 269.4906599676367 L253 269.83733924735105 L254 270.1822894569443 L255 270.5255192201898 L256 270.86703711784935 L257 271.2068516878883 L258 271.5449714256885 L259 271.8814047842611 L260 272.21616017445757 L261 272.54924596518003 L262 272.8806704835906 L263 273.2104420153196 L264 273.5385688046724 L265 273.8650590548359 L266 274.1899209280833 L267 274.51316254597845 L268 274.8347919895785 L269 275.1548172996363 L270 275.47324647680136 L271 275.7900874818197 L272 276.10534823573283 L273 276.4190366200761 L274 276.7311604770755 L275 277.0417276098436 L276 277.35074578257496 L277 277.65822272073996 L278 277.96416611127813 L279 278.2685836027901 L280 278.5714828057291 L281 278.87287129259084 L282 279.1727565981033 L283 279.4711462194148 L284 279.7680476162812 L285 280.06346821125305 L286 280.35741538986053 L287 280.6498965007985 L288 280.94091885610993 L289 281.23048973136883 L290 281.51861636586216 L291 281.80530596277083 L292 282.0905656893497 L293 282.37440267710673 L294 282.65682402198144 L295 282.9378367845222 L296 283.2174479900626 L297 283.4956646288975 L298 283.7724936564572 L299 284.04794199348186 L300 284.3220165261943 L301 284.5947241064721 L302 284.8660715520189 L303 285.1360656465351 L304 285.40471313988695 L305 285.67202074827594 L306 285.9379951544061 L307 286.20264300765155 L308 286.46597092422223 L309 286.7279854873299 L310 286.9886932473523 L311 287.2481007219969 L312 287.50621439646415 L313 287.7630407236093 L314 288.018586124104 L315 288.2728569865965 L316 288.52585966787166 L317 288.77760049300963 L318 289.02808575554417 L319 289.2773217176199 L320 289.5253146101488 L321 289.7720706329662 L322 290.01759595498544 L323 290.26189671435236 L324 290.50497901859876 L325 290.7468489447948 L326 290.98751253970124 L327 291.2269758199206 L328 291.4652447720472 L329 291.7023253528174 L330 291.93822348925795 L331 292.17294507883463 L332 292.4064959895993 L333 292.63888206033704 L334 292.8701091007116 L335 293.1001828914111 L336 293.3291091842923 L337 293.55689370252435 L338 293.78354214073215 L339 294.00906016513846 L340 294.2334534137056 L341 294.4567274962765 L342 294.67888799471484 L343 294.8999404630447 L344 295.1198904275892 L345 295.338743387109 L346 295.5565048129394 L347 295.7731801491275 L348 295.9887748125679 L349 296.20329419313845 L350 296.41674365383477 L351 296.6291285309046 L352 296.8404541339809 L353 297.05072574621477 L354 297.2599486244074 L355 297.46812799914164 L356 297.6752690749128 L357 297.8813770302585 L358 298.08645701788834 L359 298.2905141648127 L360 298.4935535724709 L361 298.6955803168587 L362 298.89659944865525 L363 299.09661599334925 L364 299.29563495136483 L365 299.4936612981862 L366 299.6906999844825 L367 299.88675593623094 L368 300.08183405484067 L369 300.2759392172748 L370 300.4690762761725 L371 300.66125005997026 L372 300.8524653730227 L373 301.0427269957226 L374 301.2320396846205 L375 301.4204081725434 L376 301.60783716871333 L377 301.794331358865 L378 301.9798954053628 L379 302.16453394731764 L380 302.34825160070267 L381 302.5310529584687 L382 302.71294259065934 L383 302.89392504452474 L384 303.07400484463574 L385 303.25318649299675 L386 303.4314744691582 L387 303.60887323032887 L388 303.78538721148703 L389 303.9610208254914 L390 304.1357784631914 L391 304.3096644935372 L392 304.4826832636885 L393 304.6548390991236 L394 304.82613630374743 L395 304.99657915999893 L396 305.1661719289584 L397 305.33491885045396 L398 305.50282414316735 L399 305.66989200473967 L400 305.8361266118762 L401 306.0015321204507 L402 306.16611266560955 L403 306.32987236187495 L404 306.4928153032478 L405 306.6549455633102 L406 306.816267195327 L407 306.9767842323474 L408 307.13650068730584 L409 307.29542055312186 L410 307.4535478028004 L411 307.610886389531 L412 307.76744024678646 L413 307.92321328842144 L414 308.07820940877 L415 308.23243248274326 L416 308.3858863659261 L417 308.5385748946737 L418 308.690501886207 L419 308.84167113870893 L420 308.99208643141856 L421 309.14175152472603 L422 309.29067016026653 L423 309.4388460610137 L424 309.5862829313727 L425 309.732984457273 L426 309.8789543062605 L427 310.0241961275888 L428 310.16871355231126 L429 310.3125101933708 L430 310.45558964569113 L431 310.59795548626585 L432 310.73961127424843 L433 310.880560551041 L434 311.0208068403828 L435 311.1603536484384 L436 311.29920446388513 L437 311.43736275800075 L438 311.5748319847498 L439 311.71161558087005 L440 311.8477169659585 L441 311.983139542557 L442 312.1178866962369 L443 312.25196179568405 L444 312.38536819278306 L445 312.5181092227006 L446 312.65018820396955 L447 312.78160843857114 L448 312.91237321201817 L449 313.04248579343675 L450 313.17194943564823 L451 313.3007673752504 L452 313.42894283269845 L453 313.55647901238547 L454 313.6833791027226 L455 313.80964627621876 L456 313.9352836895598 L457 314.06029448368764 L458 314.1846817838786 L459 314.3084486998217 L460 314.4315983256963 L461 314.5541337402495 L462 314.6760580068729 L463 314.7973741736796 L464 314.91808527358006 L465 315.03819432435813 L466 315.1577043287463 L467 315.2766182745009 L468 315.3949391344768 L469 315.5126698667016 L470 315.62981341444976 L471 315.7463727063161 L472 315.8623506562889 L473 315.9777501638231 L474 316.0925741139123 L475 316.20682537716124 L476 316.3205068098575 L477 316.43362125404275 L478 316.54617153758403 L479 316.65816047424426 L480 316.76959086375274 L481 316.88046549187493 L482 316.9907871304824 L483 317.1005585376218 L484 317.209782457584 L485 317.3184616209728 L486 317.4265987447729 L487 317.5341965324179 L488 317.64125767385826 L489 317.7477848456281 L490 317.8537807109121 L491 317.9592479196125 L492 318.06418910841506 L493 318.1686069008549 L494 318.2725039073823 L495 318.37588272542786 L496 318.47874593946733 L497 318.5810961210865 L498 318.68293582904516 L499 318.78426760934144 " stroke = "blue" stroke-width = "4" fill = "none" /></svg>