<svg width="500" height="500" viewbox = "0 0 500 500"  xmlns="http://www.w3.org/2000/svg">

<!--
<topfunctions>



function YofX(){
    X = currentjson.plotparams.g*(x - currentjson.plotparams.x0);

    Y = Math.exp(-X/100)*(Math.sin(X));

    y = currentjson.plotparams.y0 - currentjson.plotparams.G*(Y);
}


function XYofT(){
    T = currentjson.plotparams.g*t;
    X = A*Math.cos(2*Math.PI*T);
    Y = B*Math.sin(2*Math.PI*T);
    y = currentjson.plotparams.y0 - currentjson.plotparams.G*(Y);
    x = currentjson.plotparams.x0 - currentjson.plotparams.G*(X);    
}




function plotfunction(){
    
    /*plot one function:*/
    currentStroke = "red";
    currentLineWidth = 4;
    ctx.strokeStyle = currentStroke;
    ctx.lineWidth = currentLineWidth;
    ctx.beginPath();	
    x = 0;
    y = 0;
    t = 0;
    intx = x;
    XYofT();
    currentSVG += "	<path d = \"M";
    currentSVG += Math.round(x).toString() + " ";
    currentSVG += Math.round(y).toString() + " ";
    for(t = 1;t < currentjson.plotparams.duration;t++){
        ctx.moveTo(x,y);
        XYofT();
        ctx.lineTo(x,y);
        currentSVG += "L" + x + " " + y + " ";
    }
    ctx.stroke();
    currentSVG += "\""+ " stroke = \"" + currentStroke + "\" stroke-width = \"" + currentLineWidth.toString() + "\" fill = \"" + "none" + "\" "+"/>";
    /*finish plot one function*/
    
    

}































</topfunctions>
-->

<!--
<currentjson>
{
    "constants": {},
    "YofXstring": "Y =  (1/Math.PI)*0.5/(X*X + 0.25);",
    "style": {
        "linewidth": 4,
        "color": "blue",
        "fill": "none"
    },
    "plotparams": {
        "G": 76.73245728652331,
        "g": 10.05798257383807,
        "duration": 450.78888054094654,
        "plotwidth": 500,
        "plotheight": 500,
        "x0": 250,
        "y0": 250
    },
    "funcparams": {},
    "image": {
        "url": "",
        "xoverw": 0.038011695906432746,
        "yoverw": -0.08771929824561403,
        "woverw": 0.8536631795472632,
        "angle": "0"
    }
}
</currentjson>
-->
	<path d = "M72 250 L83.66098683286026 213.23271424000507 L117.17933829330758 181.29165234323057 L168.13227144254182 158.36952834761422 L229.83149649297167 147.47519372360495 L294.1781215594497 150.03868326026696 L352.7257462348166 165.72350286729272 L397.78917055114323 192.47079916148581 L423.45318566725825 226.76961295771576 L426.3490283029924 264.11774208897435 L406.0965783449447 299.6127188224856 L365.3542549626383 328.5953277662448 L309.4700616675417 347.2611934812693 L245.77958556328383 353.1601583157491 L182.64309826857544 345.5179000899543 L128.348152571743 325.33757278318467 L90.02172445587058 295.2681284516484 L72.69469716790482 259.25660497936553 L78.64148696803329 222.0300217897066 L107.08149397649177 188.4748919995232 L154.2815668970676 162.99579878045625 L214.04603167966857 148.93723181038558 L278.5299609617113 148.14457591963475 L339.26893122474155 160.72187835280604 L388.290097542926 185.01819110319587 L419.1587417204719 217.84428108053373 L427.8229196425443 254.8912618520077 L413.14533598317337 291.2961956465268 L377.0526302276487 322.2804223975529 L324.2824781168744 343.7768261502973 L261.7617050098789 352.96370128735236 L197.6970425398181 348.635141114812 L140.49787955377832 331.359330092493 L97.67241143931867 303.403961624709 L74.84208378032946 268.4385713765097 L75.00369848580723 231.0528590582525 L98.13604135045773 196.15422572509667 L141.2026667178248 168.32360830248663 L198.55047371948783 151.214167124598 L262.6517553482887 147.0717572114774 L325.09231597711846 156.44012818080148 L377.67595298969 178.08954945558907 L413.5003237594168 209.1782297145177 L427.8629752898356 245.62534200933567 L418.8786073712063 282.64668975163875 L387.72654477418024 315.3826998661892 L338.49593427105617 339.53631017036764 L277.6489865554135 351.9370192789052 L213.17272011391466 350.9570595450091 L153.53055260928065 336.72506447955635 L106.55135816471727 311.1091837919356 L78.40181742070178 277.47186244087266 L72.77695388718607 240.22847239748103 L90.41511008931337 204.2677329149171 L129.00102971697606 174.30999730273493 L183.46976760911195 154.28764010306327 L246.67153511033118 146.82887757163252 L310.3102104862855 152.9127772946008 L366.0323216930788 171.74074178464028 L406.5235571828789 200.84133564365254 L426.46887226502804 236.394696251632 L423.25016354619277 273.733944511125 L397.28993185847975 307.95777842871047 L351.99582307726587 334.57383800203525 L293.31332662720246 350.08839071318044 L228.94534629531935 352.46493310599874 L167.34108566830872 341.3915105346763 L116.58697121346444 318.3216656025082 L83.34519496594424 286.28364023248184 L71.97920803358704 249.48287628344636 L83.98095621081711 212.7499921022393 L117.77504108961924 180.90669586056418 L168.92551327893722 158.13286847779128 L230.7181532110677 147.41789540623506 L295.04180698300837 150.16826770613386 L353.45308949292627 166.02296029361025 L398.2846976016025 192.90082156523968 L423.65185160881737 227.27375384464207 L426.2247554340098 264.62982587040557 L405.6656792288884 300.06552729311653 L364.6732911748073 328.92942343953496 L308.6284192915506 347.43272159681027 L244.8877420095782 353.1466033936079 L181.81812055885158 345.3210414044784 L127.69833064440509 324.98325080819785 L89.63235658704716 294.8028529344915 L72.61689337188392 258.74144988186276 L78.88546008829752 221.53260847064783 L107.61521910649157 188.0605129594902 L155.03498509969063 162.71884710216472 L214.92024620909416 148.83406130053567 L279.4102188539596 148.2287291600213 L340.0396862392822 160.98230904593674 L388.85017723342656 185.4207140542689 L419.43462774280493 218.33605948555365 L427.7783980723513 255.40774287205272 L412.78625090330996 291.76958387677695 L376.4261166101088 322.6485789683888 L323.4707746937771 343.9914253290178 L260.8713592826822 352.99657391057343 L196.84492491967018 348.48197218798254 L139.7958424741406 331.0402251935535 L97.21260715013926 302.960807763968 L74.684868067687 267.9295387368923 L75.16970812528817 230.5447653397415 L98.60348523975125 195.71376538132594 L141.91018626572136 168.00859795431018 L199.40519702523423 151.06595631478706 L263.5414879450794 147.10980069540653 L325.9002679358862 156.65943221559155 L378.29606924183025 178.46132729940211 L413.85120531667405 209.6536802913649 L427.8985640082501 246.14205573776113 L418.59423173041216 283.1368406805289 L387.1595330805011 315.7819487857346 L337.720714791752 339.7922500392782 L276.7673177603641 352.01605438636966 L212.30033344468157 350.8488154204759 L152.78196109773356 336.4437496882748 L106.02482498506313 310.6917248604574 L78.16645746551265 276.97305673107854 L72.86366146387448 239.7137951808101 L90.81250360786842 203.80474282160773 L129.65694568341576 173.95946830066424 L184.29810781916183 154.0955840583146 L247.56356824990758 146.82050454389432 L311.1488446479156 153.0891863616215 L366.7074743369391 172.07877677296068 L406.9466050195221 201.29662470214942 L426.5842843102978 236.9074762817887 L423.0427903444039 274.23690591532227 L396.7869940619049 308.3849004416983 L351.26333835188564 334.8690548468251 L292.44744390513597 350.2129510228132 L228.0597248737534 352.40248658628946 L166.551975826317 341.15025417042233 L115.9979547270012 317.9332676879188 L83.03358854098974 285.7990834616851 L71.98591440018961 248.96576555416488 L84.30509506394841 212.26820547753917 L118.37406464160216 180.52347461749505 L169.7207912555632 157.8985157994672 L231.60529418219897 147.36317338087622 L295.90436120677595 150.30035936996035 L354.17783458464487 166.32452675615764 L398.77650056516393 193.33227798294573 L423.8461563814858 227.77846548843237 L426.09605677909406 265.14154223208067 L405.2308706566655 300.5170783960349 L363.9894474316874 329.26153684456744 L307.78530449553534 347.60180274422015 L243.99602684752682 353.1304580023715 L180.9948551989794 345.12178878455006 L127.05158025483212 324.62704567087764 L89.24701626174826 294.33645221892544 L72.54354445310025 258.2260752477018 L79.13373065429059 221.03591009411736 L108.15252015024228 187.6476894950692 L155.79078829544042 162.44408744106812 L215.79534174690275 148.73343151649647 L280.2897381250949 148.31543832880425 L340.80817995759827 161.24497536845365 L389.4067697795947 185.82485887789161 L419.70625850947044 218.82863311265982 L427.7294116973908 255.92408807966825 L412.4230775380638 292.2419230873314 L375.7964278713801 323.0149110110058 L322.6572260934503 344.203663965783 L259.9807405275151 353.0268598325977 L195.99414225949982 348.3263299416661 L139.09657310995686 330.71908501473365 L96.75664003056397 302.51632382216025 L74.53205529629162 267.42005580705717 L75.34010852947296 230.0371602286305 L99.07473136752225 195.27466840597288 L142.6204204290583 167.69564677404375 L200.26119099116116 150.9202301779873 L264.43088045475236 147.1504282089783 L326.70631370235606 156.8810804464958 L378.91296340997326 178.83490179675874 L414.19797184283146 210.13014414344804 L427.929684903997 246.65886635629315 L418.3056219401161 283.6261593961156 L386.5890767020693 316.1795456285274 L336.94329225560887 340.04593482627797 L275.88497671914064 352.09252741783996 L211.42889358143162 350.73803853450056 L152.03581116244123 336.160263910596 L105.50190766123453 310.27274169038367 L77.93541301331504 276.47357360795553 L72.95481772036518 239.19937629640458 L91.21389503104945 203.34291289635973 L130.3158839983541 173.61084901380775 L185.12809809531234 153.9059365992056 L248.4556625789391 146.81472281132113 L311.9859430907571 153.26802928941072 L367.37969593790945 172.41876870904213 L407.3657112300833 201.7531369184793 L426.6952615403477 237.42058512356894 L422.83107127009475 274.73925862294624 L396.28036979220315 308.81055615073205 L350.5283104542186 335.1621402530309 L291.58049513924226 350.3349945403929 L227.1746544697321 352.3374682855469 L165.7649617346538 340.906708618653 L115.41230362654315 317.5431636672673 L82.72617538382244 285.3136276169837 L71.99709149071973 248.44868079910145 L84.63339525181351 211.7873664655237 L118.97639390513424 180.14199823839763 L170.5180853994953 157.66647619826728 L232.4928971262122 147.31102902184972 L296.76576256794306 150.43495493429924 L354.8999633084719 166.62819468128941 L399.2645670902597 193.76515757863217 L424.03609510546727 228.2837352136914 L425.96293557049194 265.65287832232127 L404.7921635481812 300.96736079085986 L363.30274090739795 329.5916596406134 L306.94073845415716 347.7684326770594 L243.10446247140865 353.1117225475091 L180.1733228644705 344.9201472342058 L126.4079176462209 324.26896631735184 L88.86571315727588 293.8689380179719 L72.47465225367804 257.71049402027415 L79.3862924308145 220.53993913446143 L108.69338361419389 187.23643197373457 L156.54895750229602 162.1715266977617 L216.67129631552098 148.6353449855333 L281.16849668676286 148.40470124836062 L341.5743930791233 161.5098707235428 L389.9598612029207 186.2306154241935 L419.9736271986267 219.32198959116408 L427.67596174794846 256.4402845069466 L412.0558250083139 292.7132014156772 L375.1635798260275 323.3794093250137 L321.84185274793333 344.4135367302825 L259.08987111164697 353.05455829281595 L195.14471592569691 348.1682182846298 L138.4000890232707 330.3959176214199 L96.30452153228023 302.07052096257405 L74.3836493038419 266.9101353820122 L75.5148954188808 229.53005647304502 L99.54976789885953 194.8369458265524 L143.33335137005918 167.3847626215654 L201.118434119227 150.77699237406821 L265.31991054111717 147.19363873187353 L327.5104330321906 157.10506730668072 L379.5266200016705 179.2102635658507 L414.54061462901007 210.60760930460154 L427.95633719549255 247.1757608855229 L418.0127852483537 284.11463360983305 L386.0151899655767 316.575480409146 L336.16368618758037 340.2973581600771 L275.00198559092286 352.16643645276514 L210.55842241020406 350.6247316692241 L151.29212154294777 335.87461426626 L104.98261932595878 309.8522448042041 L77.70868986684766 275.9734256161502 L73.05042036731987 238.6852286636063 L91.61927427835556 202.88225473752152 L130.9778281126263 173.26414819770187 L185.95971759259618 153.7187024886758 L249.34779569362456 146.81153251911508 L312.82148479094525 153.4493015862975 L368.0489696136442 172.76070905423904 L407.78086528913593 202.21086082780084 L426.8018011678799 237.9340098897401 L422.6150116402802 275.2409900181464 L395.77007177286384 309.2347348657834 L349.79075784494654 335.4530868596321 L290.7125021022167 350.4545182008967 L226.29015731146308 352.2698798366804 L164.98006315902126 340.66087999596783 L114.83003262102514 317.1513633382232 L82.42296321484199 284.8272848901523 L72.01273902447102 247.93163500454978 L84.96584852885613 211.30748714289209 L119.5820137530539 179.76227630383733 L171.3173756874287 157.43675550165295 L233.3809397506514 147.26146363877712 L297.6259894341469 150.57205101905657 L355.6194575285496 166.93395644255594 L399.7488849192871 194.19944948069096 L424.22166301058814 228.78955033094545 L425.8253951513942 266.1638212994865 L404.3495689213187 301.4163631690016 L362.61318884831206 329.91978353676325 L306.09474237806575 347.9326072105416 L242.21307127349556 353.0903974995757 L179.35354418750103 344.7161218175215 L125.76735898274809 323.9090217399963 L88.48845685046317 293.40032207375225 L72.4102185038063 257.1947191481134 L79.64313907501594 220.04470804753302 L109.23779591417576 186.82675072451036 L157.30947368022674 161.90117171711 L217.54808791584114 148.53980417103435 L282.04647246816 148.4965156767698 L342.3383063616774 161.77698845879553 L390.50943761302256 186.63797350297457 L420.23672709545895 219.81611653069518 L427.6180495663509 256.9563191902788 L411.6845025374017 293.1834070259235 L374.5275883677921 323.7420647561771 L321.02467513398176 344.62103835190663 L258.1987734084401 353.0796685956054 L194.29666725189867 348.0076411879021 L137.70640770601358 330.0707311298404 L95.8562630094172 301.6234103807315 L74.23965381765842 266.3997902687708 L75.69406440383699 229.02346680861143 L100.02858290340183 194.40060863630143 L144.04896118412051 167.07595330444224 L201.97690488009482 150.63624650039094 L266.2085558768428 147.23943117889414 L328.3126057318421 157.33138717124967 L380.1370236042811 179.58740317906324 L414.87912506992853 211.08606378355566 L427.9785202133866 247.69272634412178 L417.7157290099273 284.602251053305 L385.43788728365695 316.96974318405324 L335.3819161668948 340.5465137263659 L274.11836655282036 352.23777963485674 L209.6889417914468 350.50889767016 L150.55091091619664 335.58680792904124 L104.46697302087134 309.43024476246205 L77.48629371992823 275.47262531614535 L73.15046700373173 238.17136519494463 L92.02863116832145 202.42277991493194 L131.6427614019965 172.91937455947965 L186.79294542656515 153.53388642873568 L250.23994518773165 146.81093374740215 L313.65544876507744 153.63299869989356 L368.7152785557103 173.1045892209114 L408.1920567702421 202.66978493455198 L426.90390051747966 238.4477376872318 L422.3946168812528 275.7420875000377 L395.25611282048044 309.6574259332276 L349.0506990464877 335.7418873599859 L289.8434865938478 350.5715190024681 L225.40625561259645 352.1997229371359 L164.19729981056952 340.4127744758555 L114.25115633322105 316.75787654020604 L82.12395964948766 284.34006749612286 L72.03285660846444 247.414641155825 L85.30244654654564 210.82857956032566 L120.1909089755583 179.38431835031753 L172.11864204447346 157.20935947926176 L234.26939975379088 147.21447847640982 L298.48502019971045 150.71164418089364 L356.3362991751841 167.241804360922 L400.22944188957456 194.63514278275665 L424.40285543627976 229.2958981365644 L425.68343897625596 266.67435833078866 L403.9030978915936 301.8640742540173 L361.9208085716394 330.2459002926056 L305.2473375139781 348.0943222215155 L241.32187563960687 353.06648339411606 L178.5355397569478 344.5097176586293 L125.1299203533111 323.5472209795327 L88.11525681493438 292.930616154102 L72.35024482170246 256.6787635846161 L79.9042641359579 219.55022927150128 L109.7857433781692 186.41865603586444 L158.07231772846853 161.63302928922235 L218.4256945277339 148.44681147245365 L282.9236434216472 148.59087930839866 L343.0999006191739 162.04632186541016 L391.0554852068027 187.04692288307194 L420.4955515923609 220.31100152153218 L427.5556766070018 257.4721791699301 L411.3091194508827 293.6525281091201 L373.88846946878107 324.1028681968715 L320.20571377544195 344.8261636191414 L257.30746979860754 353.1021901103014 L193.45001753606329 347.84460268422976 L137.01554657859853 329.7435337063973 L95.41187572022659 301.1750033060503 L74.10007245394786 265.8890332838088 L75.87761098461297 228.51740395804507 L100.51116435597885 193.9656677935838 L144.7672318991032 166.76922657824707 L202.83658171437605 150.4979960916069 L267.09679414345493 147.28780439995523 L329.11281165315603 157.56003435573 L380.7441588894101 179.96631116570558 L415.21349466432815 211.56549556454286 L427.99623340053773 248.20974974804162 L417.41446068491666 285.08899948082416 L384.85718315536207 317.36232405127436 L334.5980018272679 340.7933952677419 L273.23414179418444 352.3065551725507 L208.82047356262535 350.39053944653915 L149.81219789835058 335.2968521274547 L103.9549816961399 309.00675216345195 L77.26823015783773 274.97118528507673 L73.25495511698554 237.65779879581248 L92.44195542091916 201.96449996720895 L132.310667167038 172.5765367579377 L187.62776066905164 153.35149306140517 L251.13208865574987 146.81292651121856 L314.48781406891624 153.81911601681955 L369.37860603013235 173.45040057270165 L408.5992753465584 203.12989771311118 L427.0015570247519 238.96175561294 L422.16989252810316 276.24253848383785 L394.7385058415359 310.0786187384887 L348.308152645271 336.0285345009237 L288.97347043928966 350.6859940066592 L224.52297157118667 352.12699934881084 L163.41669134938297 340.16239828979593 L113.67568930149616 316.3627131555582 L81.82917219630889 283.8519876698485 L72.0574437374581 246.8977122369377 L85.64318085043419 210.3506557467104 L120.80306428103091 179.00813386976785 L172.9218643493113 156.98429384144072 L235.15825482213364 147.17007471477228 L299.3428332911826 150.85373091410509 L357.0504702452993 167.5517307049598 L400.70622593098443 195.07222654152855 L424.57966783219103 229.80276591445872 L425.5370706099716 267.1844765953033 L403.4527616722039 302.31048280157046 L361.22561746712745 330.5700017174274 L304.39854514399207 348.2535736485992 L240.4308979519447 353.03998083172684 L177.71933011623554 344.3009399411802 L124.49561776543202 323.18357312159833 L87.74612242448273 292.4598320567857 L72.29473271353322 256.1626402873422 L80.16966105629672 219.05651522366747 L110.33721224458392 186.01215815701505 L158.83747048889643 161.36710614824688 L219.30409411060137 148.3563692252506 L283.799987515021 148.68778977308335 L343.8591567254282 162.3178641795236 L391.59799027196766 187.45745329499118 L420.75009418910054 220.80663213491601 L427.4888444364536 257.98785148961747 L410.92968517629276 294.12055288355407 L373.2462391803374 324.46181058558886 L319.38498923977284 345.0289073804564 L256.4159826651221 353.12212227133097 L192.6047880419367 347.6791068683544 L136.3275229928708 329.41433356906293 L94.97137082508246 300.7253109998606 L73.96490871827089 265.3778772546867 L76.06553055153924 228.0118806308306 L100.99750013682802 193.53213422169483 " stroke = "red" stroke-width = "4" fill = "none" /></svg>