<svg width="500" height="500" viewbox = "0 0 500 500"  xmlns="http://www.w3.org/2000/svg">

<!--
<topfunctions>



function YofX(){
    X = currentjson.plotparams.g*(x - currentjson.plotparams.x0);

    Y = Math.exp(-X/100)*(Math.sin(X));

    y = currentjson.plotparams.y0 - currentjson.plotparams.G*(Y);
}


function XYofT(){
    T = currentjson.plotparams.g*t;
    X = A*Math.cos(2*Math.PI*T);
    Y = B*Math.sin(2*Math.PI*T);
    y = currentjson.plotparams.y0 - currentjson.plotparams.G*(Y);
    x = currentjson.plotparams.x0 - currentjson.plotparams.G*(X);    
}




function plotfunction(){
    
    /*plot one function:*/
    currentStroke = "red";
    currentLineWidth = 4;
    ctx.strokeStyle = currentStroke;
    ctx.lineWidth = currentLineWidth;
    ctx.beginPath();	
    x = 0;
    y = 0;
    t = 0;
    intx = x;
    XYofT();
    currentSVG += "	<path d = \"M";
    currentSVG += Math.round(x).toString() + " ";
    currentSVG += Math.round(y).toString() + " ";
    for(t = 1;t < currentjson.plotparams.duration;t++){
        ctx.moveTo(x,y);
        XYofT();
        ctx.lineTo(x,y);
        currentSVG += "L" + x + " " + y + " ";
    }
    ctx.stroke();
    currentSVG += "\""+ " stroke = \"" + currentStroke + "\" stroke-width = \"" + currentLineWidth.toString() + "\" fill = \"" + "none" + "\" "+"/>";
    /*finish plot one function*/
    
    

}































</topfunctions>
-->

<!--
<currentjson>
{
    "constants": {},
    "YofXstring": "Y =  (1/Math.PI)*0.5/(X*X + 0.25);",
    "style": {
        "linewidth": 4,
        "color": "blue",
        "fill": "none"
    },
    "plotparams": {
        "G": 76.73245728652331,
        "g": 10.05798257383807,
        "duration": 450.78888054094654,
        "plotwidth": 500,
        "plotheight": 500,
        "x0": 250,
        "y0": 250
    },
    "funcparams": {},
    "image": {
        "url": "",
        "xoverw": 0.038011695906432746,
        "yoverw": -0.08771929824561403,
        "woverw": 0.8536631795472632,
        "angle": "0"
    },
    "A": 1.820681243330227,
    "B": 0.7093771464644173
}
</currentjson>
-->
	<path d = "M110 250 L119.46380095866408 230.60526755757115 L145.76766145699457 213.75636678586824 L185.75348376450765 201.66495310879787 L234.1725657857911 195.91819479353362 L284.669221365177 197.2704347714061 L330.6150535695664 205.54417250858268 L365.9790250999822 219.65336344996794 L386.11911684160407 237.74597765632754 L388.3916582225653 257.44710480654504 L372.49834619394335 276.1706946110915 L340.525401704395 291.4590123187686 L296.6697238310196 301.30525100259075 L246.68798769177172 304.4169532206674 L197.140999794281 300.3856642505549 L154.53249981900052 289.7405475217781 L124.45545322711108 273.8789244661758 L110.85789580632814 254.88285640860084 L115.52469839356331 235.2458447068876 L137.84327745031652 217.54552359534983 L174.88400527605444 204.1053094037115 L221.78476488691933 196.68941945501257 L272.3891713184409 196.2712937053888 L320.0546838212348 202.90581704581666 L358.5245328476873 215.72211488752734 L382.749009137248 233.03786771185688 L389.54830914649335 252.58013919071414 L378.0299290291343 271.7837310777518 L349.7058183305248 288.1279015910277 L308.2939153246314 299.4672482586169 L259.23011527483516 304.3133221958737 L208.95473265425392 302.03000797585264 L164.06711920520092 292.9170227342713 L130.4594061174101 278.1705740760427 L112.54307886062759 259.726340986996 L112.6699076121067 240.00538871667223 L130.82324431272963 221.5963698807091 L164.62020795916214 206.9157273621792 L209.62447128150853 197.89050216468368 L259.928591152017 195.7053821518473 L308.92944365982606 200.64719508733344 L350.19497708278374 212.06725845287 L378.3085092258943 228.4665281608938 L389.57974321507413 247.69236919445424 L382.5291709136239 267.2211192579505 L358.0822791935949 284.4893549811098 L319.4480667547789 297.2303773243456 L271.69781786947425 303.7717477378822 L221.09942492847068 303.25481926599736 L174.29463932583724 295.747446047908 L137.42724808638616 282.2350765067724 L115.33661532670527 264.49139937100455 L110.92244758691248 244.84552205888232 L124.76416652514835 225.87624254097238 L155.0448516681368 210.07354580202835 L197.78973680145089 199.51175825836103 L247.38795399186762 195.5772632131458 L297.3290389931078 198.7865185305977 L341.05752133167175 208.71826427064323 L372.8334220941413 224.06881898647245 L388.4857069666592 242.82320626765767 L385.95979320789604 262.5196487606265 L365.5872425583293 280.57271110301747 L330.0422390940881 294.6126747126797 L283.99056491978655 302.7965967122747 L233.47715058295452 304.05022212666285 L185.13259283977794 298.20899497177646 L145.3027954849797 286.03965854405027 L119.21598014254582 269.1396095686784 L110.29640857449411 249.72721739136085 L119.71490011822289 230.3506317716413 L146.23514516576643 213.55330235429642 L186.37598820451885 201.54011509695667 L234.86837848559605 195.88796994794552 L285.34700711256187 197.33879052855102 L331.18584344323585 205.70213621303557 L366.36789489340896 219.88020014168075 L386.2750219200119 238.0119118261504 L388.29413384958707 257.717228850887 L372.16019381640257 276.40955094639133 L339.9910085824462 291.6352476883288 L296.0092365849903 301.39573203317286 L245.98810457100757 304.40980300321803 L196.49359031125746 300.28182135176996 L154.0225455825691 289.5536427840121 L124.14989290991738 273.6334917674943 L110.79683850166953 254.61111224593296 L115.7161587321884 234.98345932713946 L138.262123567511 217.32693877340645 L175.47525772240715 203.95921747473395 L222.47081345511216 196.63499704136066 L273.07996247586334 196.31568451498282 L320.659541503594 203.04319415997293 L358.964060968999 215.93444562602565 L382.9655134439545 233.29728067610412 L389.5133704003887 252.8525827771337 L377.7481334325071 272.03344323020787 L349.21415552259936 288.3221040740419 L307.6569229703874 299.58044926237926 L258.53140758835775 304.33066249497045 L208.28602485593066 301.9492114119251 L163.51618860739882 292.7486949937794 L130.09857011706623 277.936810544625 L112.41970226263552 259.45782641906493 L112.80018533186379 239.7373694293491 L131.1900755654326 221.3640271787023 L165.17544097859252 206.74955949601252 L210.2952239175848 197.8123210060275 L260.62681767829514 195.72545007844923 L309.563492015034 200.76287790129103 L350.6816194944277 212.26337115631634 L378.5838670263644 228.7173282005743 L389.6076718166819 247.96493553447615 L382.30600429418564 267.4796737290171 L357.63731111367434 284.6999586689386 L318.8397055391843 297.36538553004436 L271.0059194920115 303.81343873386265 L220.41481079178834 303.19772052208975 L173.7071746734302 295.59905257810937 L137.0140459239317 282.014867042996 L115.15191425524915 264.22827950555234 L110.99049222222374 244.57402997821296 L125.07602505098745 225.63201540269935 L155.55958826251305 209.8886418563618 L198.43978504013052 199.4104487511495 L248.0879858920341 195.57284644347249 L297.9871655129244 198.87957426165218 L341.5873541004503 208.89657762772512 L373.1654131018827 224.30898383114317 L388.5762777198833 243.09369758299783 L385.7970550202085 262.78496075365615 L365.19255710800064 280.7980178394528 L329.46741440271575 294.7684015116219 L283.3110548204898 302.86230223903135 L232.78215034242382 304.01728160585236 L184.5133310235725 298.08173231047255 L144.84055892452628 285.8347787581496 L118.97144389373722 268.88400601436337 L110.30167146255033 249.45444163350396 L119.96927131499595 230.09648946857885 L146.70523487066032 213.35115326110258 L187.000090525877 201.41649412795363 L235.56457120779862 195.85910409563672 L286.02390513963223 197.40846884243345 L331.7545943799253 205.86121243348046 L366.75384217251224 220.10779327533226 L386.4275045276503 238.27814707005143 L388.19313629697115 257.9871590814155 L371.8189734541563 276.6477440205919 L339.4543553868704 291.81043741196504 L295.34759384266647 301.48492228878433 L245.2883222068742 304.4012863140816 L195.8475246118528 300.17671565326424 L153.51500176602303 289.3657446786681 L123.84749324766061 273.38746552698234 L110.73927720633955 254.33925227774236 L115.91099153419626 234.72145107936504 L138.68377591867463 217.10917451714158 L176.0683818158953 203.8142818341831 L223.15755340341752 196.58191485982786 L273.770173993003 196.36142357605547 L321.262624611195 203.18175056797395 L359.40085251902775 216.1476319018177 L383.1786783963494 233.55711311976836 L389.4749278542271 253.1249547225366 L377.46312951316406 272.2826020250825 L348.720001006664 288.51534411895636 L307.01848259491544 299.6924050809534 L257.8324856404584 304.34663830994543 L207.61836468075984 301.8671101726943 L162.9674300018943 292.5792936437482 L129.74074537382705 277.7023453958351 L112.29978091668596 259.1890743231762 L112.93390874799977 239.46960788228603 L131.5598906626904 221.13240365313547 L165.7328043195554 206.58447784031375 L210.96697371690664 197.73545051165516 L261.32477731781694 195.7468810799289 L310.1960444668308 200.8797972780105 L351.1657333435296 212.46043159397937 L378.8559955151505 228.96866274264417 L389.63209424990555 248.23755298400084 L382.0795148837098 267.7377892078106 L357.18963978304936 284.90969088676553 L318.22961545277 297.49920418069735 L270.3134935626611 303.85377823550846 L219.73093967054123 303.1392857472652 L173.1216260723324 295.44951391362366 L136.60368134038768 281.79385354380804 L114.97059981779267 263.96480230476806 L111.0620280033647 244.30267416773773 L125.39102097234233 225.38840025273802 L156.0766966750075 209.70474528491 L199.0911281846344 199.31040977215562 L248.78806581123558 195.56979658123782 L298.64408686210993 198.9739138535474 L342.1148867040974 209.07592327417638 L373.49431087925683 224.5497938912116 L388.66336820764695 243.3643623463729 L385.6309063657308 263.0499516594221 L364.79497866113013 281.0225511009829 L328.89059393153514 294.92300397733686 L282.63070813267086 302.9266801587191 L232.0875825184051 303.98298447130196 L183.89571386833273 297.9532621034264 L144.38096338429452 285.6289990018021 L118.73019835363294 268.6279281988277 L110.31044279578333 249.18167957703946 L120.22690816069132 229.84284703092933 L147.1779187656516 213.1499245831415 L187.62577505463054 201.29409330645439 L236.2611264678263 195.83159796156139 L286.6998984462824 197.47946796310094 L332.3212920958258 206.02139717482154 L367.1368572442759 220.33613713495052 L386.5765608350506 238.54467670176334 L388.08866810125534 258.2568887188739 L371.47469367670925 276.8852678516458 L338.9154555952289 291.9845770899454 L294.6848122210747 301.5728195294296 L244.58865817350528 304.39140336714297 L195.2028189213808 300.07034979466556 L153.00988111637295 289.176857924826 L123.54826183469996 273.14085192325535 L110.68521336596353 254.0672833316643 L116.1091919064531 234.45982654377838 L139.10822391460948 216.89223629539504 L176.66336266018868 203.6705061221209 L223.8449674847156 196.53017424354593 L274.4597885358036 196.40850973991118 L321.8639179977258 203.3214827900023 L359.8348965279987 216.36166836084976 L383.3884986409246 233.81735851731523 L389.4329824734874 253.39724818635528 L377.174924428806 272.53120120490354 L348.2233671933561 288.707616872568 L306.37861023246217 299.8031129026019 L257.13336698407466 304.36124923957743 L206.95176889622894 301.783706320034 L162.42085717067624 292.40882293866673 L129.38594087451855 277.4671845183044 L112.18331783445115 258.9200914486928 L113.07107450214929 239.2021108001154 L131.93268031693853 220.90150512101954 L166.29228398367792 206.42048654116627 L211.63970380867158 197.65989261214673 L262.02245254203416 195.76967461806822 L310.8270851282708 200.99795028098885 L351.6473064722359 212.65843481695802 L379.1248878578732 229.22052547495468 L389.6530099013894 248.51021469639392 L381.8497083701645 267.995459212116 L356.7392764447344 285.11854636728367 L317.61781181793816 297.6318299154511 L269.6205574710603 303.8927652297296 L219.04782874001685 303.0795164091021 L172.538008228588 295.2988338101116 L136.19616464179285 281.5720415598187 L114.79267656809293 263.70097438594905 L111.13705313375439 244.03146144240566 L125.70914637843937 225.1454032092138 L156.5961639184981 209.52186070621582 L199.74374987666658 199.21164383382865 L249.48817616786573 195.56811370303586 L299.29978654197697 199.06953493692822 L342.640105894024 209.25629670586386 L373.8201071663302 224.79124311897735 L388.74697624259034 243.63519375977143 L385.46135141704343 263.31461482306696 L364.39451720260297 281.24630524862107 L328.31179216775007 295.0764782268884 L281.9495419426694 302.9897288545391 L231.39346455470596 303.9473315843709 L183.27975688539038 297.8235875771426 L143.9240204072677 285.4223244432755 L118.49224958089366 268.3713825532288 L110.32272235390607 248.9089380722335 L120.48780418452657 229.589710829148 L147.65318497954928 212.9496213741586 L188.25302607729137 201.17291570644318 L236.95802677145204 195.80545223654445 L287.3749700563001 197.55178610755496 L332.885922358642 206.18268641410887 L367.5169304894241 220.56522598576552 L386.7221870987714 238.81149402759252 L387.9807318860421 258.52641098930053 L371.12736313045485 277.1221164742751 L338.3743227417849 292.1576623488175 L294.02090836548376 301.6594215476349 L243.88913004345943 304.38015441061975 L194.55948943114748 299.96272644727253 L152.50719631861767 288.9869872659614 L123.25220618655071 272.8936571502791 L110.63464833832452 253.79521223804633 L116.31075487134152 234.1985922908382 L139.53545689500226 216.67612955672385 L177.2601853134334 203.5278939492114 L224.53303843498728 196.47977649195136 L275.1487887839822 196.4569418239376 L322.4634065626941 203.46238731691443 L360.266182095296 216.57654962779432 L383.5949689081622 234.07801033282752 L389.3875353115739 253.66945633028988 L376.8835254175421 272.77923452624213 L347.7242665554475 288.89891750602027 L305.7373219523657 299.91256994708004 L256.4340691769258 304.37449491692576 L206.2862542441224 301.69900194866034 L161.87648384071213 292.237287159843 L129.03416552940678 277.2313338176674 L112.07031594098305 258.65088455131047 L113.2116791494714 238.93488490087648 L132.30843516570698 220.67133738128373 L166.8538659201439 206.2575897170594 L212.3133972975178 197.58564920510912 L262.7198258293512 195.79383012042558 L311.45659815226605 201.11733394309474 L352.12632678532304 212.85737585218823 L379.390537301452 229.4729100721145 L389.6704182458542 248.7829138240084 L381.6165905253043 268.25267727036845 L356.28623240918716 285.3265198652799 L317.00430999968336 297.76325940350887 L268.92712862091696 303.9303987373345 L218.36549515541975 303.0184140086081 L171.95633579911464 295.14701605173724 L135.7915060627006 281.34943666171154 L114.61814897443017 263.4368023747464 L111.21556572917873 243.76039861357225 L126.03039327927219 224.90303037521326 L157.11797694694997 209.33999271328938 L200.39763372694807 199.11415341647773 L250.18829937841025 195.56779785113315 L299.95424808559113 199.16643511041121 L343.16299847964467 209.4376933928101 L374.1427937808519 225.03332545053482 L388.8270997251552 243.90618502210253 L385.2883944324834 263.5789435976275 L363.9911827903687 281.4692746625832 L327.73102364701316 295.2288204060246 L281.26757335808685 303.0514467430131 L230.69981388370977 303.9103238404613 L182.66547554326723 297.6927119881345 L143.4697414688134 285.2147602728609 L118.2576035518112 268.11437552093975 L110.33850982852428 248.63622396883594 L120.75195283490896 229.33708721996572 L148.13102157630897 212.7502486646566 L188.88182783988947 201.05296437140206 L237.65525461717425 195.78066757719193 L288.04910301441475 197.62542145943533 L333.4484709880016 206.34507610065367 L367.8940523631791 220.79505407467266 L386.8643796613851 239.07859234637775 L387.86933036224934 258.79571912340356 L370.776990538405 277.3582839401596 L337.8309704163913 292.32968884176677 L293.3558989494666 301.7447261684393 L243.1897553842316 304.3675397270117 L193.9175522984792 299.8538483140633 L152.0069599986798 288.79613747105225 L122.95933373773397 272.6458874155832 L110.58758339333485 253.5230458298014 L116.51567536642435 233.93775488167512 L139.96546413059988 216.46085972829187 L177.85883478611441 203.38644889723525 L225.22174897371647 196.43072287075546 L275.837157435434 196.50671861191384 L323.0610752496269 203.60446060981934 L360.6946983888015 216.792270305716 L383.79808401267724 234.33906202018107 L389.3385875098444 253.9415723180841 L376.58893979769505 273.02669575988045 L347.2227116272086 289.08924121504396 L305.094633860919 300.02077346531553 L255.73460978249943 304.3863750093149 L205.62183743822536 301.6129991858461 L161.3343236828449 292.06469061505163 L128.68542817351698 276.99479921743875 L111.9607780741359 258.3814603917165 L113.35571915875926 238.66793689579782 L132.68714577212347 220.44190621446174 L167.41753602513802 206.09579145905553 L212.98803726450018 197.51272215506998 L263.41687966512274 195.8193469803315 L312.08456772735144 201.23794526577046 L352.60278225368023 213.0572497038834 L379.65293717443944 229.72581019580983 L389.68431884607776 249.05564351776266 L381.3801672035011 268.509436922961 L355.8305190546835 285.53360615746567 L316.3891254057596 297.893489344093 L268.2332244255458 303.96667781327346 L217.68395605391865 302.95598008040156 L171.37662339313152 294.99406445154 L135.38971576588412 281.1260444400837 L114.44702141990928 263.1722929055954 L111.2975638178379 243.4894924888284 L126.35475360748629 224.66128783735402 L157.6421226553215 209.15914587364338 L201.05276331189071 199.017940968767 L250.8884178599215 195.56884903346116 L300.6074550567532 199.2646119404401 L343.68355132880544 209.62010877933895 L374.46236261872843 225.276034806122 L388.9037366429068 244.17732932698266 L385.11203975576854 263.8429313446348 L363.5849855529185 281.69145374368367 L327.14830295520983 295.38002668870115 L280.5848195064305 303.11183227411067 L230.0066479255611 303.87196216897365 L182.05288527041034 297.56063862350595 L143.01813797805872 285.00631170349084 L118.02626615879467 267.8569135558948 L110.35780482314439 248.36354411590858 L121.01934747712625 229.08498254861632 L148.61141655568218 212.55181146162562 L189.5121645520196 200.93424231353742 L238.35279249425366 195.75724460596643 L288.72228039064555 197.70037216948347 L334.00892385581113 206.50856215613 L368.26821339337994 221.02561562908406 L387.0031349519582 239.34596495038554 L387.75446632746366 259.0648063581491 L370.4235847002286 277.59376431791503 L337.2854122658259 292.50065224819446 L292.68980067436183 301.82873124946497 L242.490551760478 304.35355963313333 L193.27702364503324 299.7437181294123 L151.50918471862195 288.6043133327697 L122.66965184442746 272.39754894248506 L110.54401971297384 253.25079094203855 L116.72394824576077 233.67732086641192 L140.39823482185724 216.24643221655867 L178.45929604370215 203.24617451845364 L225.91108180432428 196.3830146119124 L276.5248772001676 196.55783885357926 L323.6569090490602 203.7476991007813 L361.1204346476559 217.00882497745948 L383.99783885334773 234.60050702320916 L389.2861402976664 254.21358931530247 L376.2911749676175 273.27357869096835 L346.71871500509064 289.2785832196962 L304.4505620986406 300.1277207398776 L255.0350063660567 304.39688921840536 L204.95853516547442 301.5257001915664 L160.7943903141081 291.89103763927073 L128.339737565064 276.75758665796667 L111.85470698493347 258.11182573644516 L113.50319091252877 238.40127348912887 L133.06880262508355 220.21321738258865 " stroke = "red" stroke-width = "4" fill = "none" /></svg>