<svg width="500" height="500" viewbox = "0 0 500 500"  xmlns="http://www.w3.org/2000/svg">

<!--
<topfunctions>



function YofX(){
    X = currentjson.plotparams.g*(x - currentjson.plotparams.x0);

    Y = Math.exp(-X/100)*(Math.sin(X));

    y = currentjson.plotparams.y0 - currentjson.plotparams.G*(Y);
}


function XYofT(){
    T = currentjson.plotparams.g*t;
    X = A*Math.cos(2*Math.PI*T);
    Y = B*Math.sin(2*Math.PI*T);
    y = currentjson.plotparams.y0 - currentjson.plotparams.G*(Y);
    x = currentjson.plotparams.x0 - currentjson.plotparams.G*(X);    
}




function plotfunction(){
    
    /*plot one function:*/
    currentStroke = "red";
    currentLineWidth = 4;
    ctx.strokeStyle = currentStroke;
    ctx.lineWidth = currentLineWidth;
    ctx.beginPath();	
    x = 0;
    y = 0;
    t = 0;
    intx = x;
    XYofT();
    currentSVG += "	<path d = \"M";
    currentSVG += Math.round(x).toString() + " ";
    currentSVG += Math.round(y).toString() + " ";
    for(t = 1;t < currentjson.plotparams.duration;t++){
        ctx.moveTo(x,y);
        XYofT();
        ctx.lineTo(x,y);
        currentSVG += "L" + x + " " + y + " ";
    }
    ctx.stroke();
    currentSVG += "\""+ " stroke = \"" + currentStroke + "\" stroke-width = \"" + currentLineWidth.toString() + "\" fill = \"" + "none" + "\" "+"/>";
    /*finish plot one function*/
    
    

}































</topfunctions>
-->

<!--
<currentjson>
{
    "constants": {},
    "YofXstring": "Y =  (1/Math.PI)*0.5/(X*X + 0.25);",
    "style": {
        "linewidth": 4,
        "color": "blue",
        "fill": "none"
    },
    "plotparams": {
        "G": 76.73245728652331,
        "g": 10.05798257383807,
        "duration": 450.78888054094654,
        "plotwidth": 500,
        "plotheight": 500,
        "x0": 250,
        "y0": 250
    },
    "funcparams": {},
    "image": {
        "url": "",
        "xoverw": 0.038011695906432746,
        "yoverw": -0.08771929824561403,
        "woverw": 0.8536631795472632,
        "angle": "0"
    },
    "A": 1.820681243330227,
    "B": 0.879922543569107
}
</currentjson>
-->

<!--
<equation>
# Equations
$$X = g(x - x_0)$$
$$Y = \sin{(X)}$$
$$y = y_0 - GY$$ 
</equation>
-->
	<path d = "M110 250 L119.46380095866408 225.9424695486151 L145.76766145699457 205.04282864916865 L185.75348376450765 190.0444493933637 L234.1725657857911 182.9160802046364 L284.669221365177 184.5934198916784 L330.6150535695664 194.85629400709837 L365.9790250999822 212.35755584323599 L386.11911684160407 234.7999184025901 L388.3916582225653 259.2375056572668 L372.49834619394335 282.46254024947933 L340.525401704395 301.4264094286321 L296.6697238310196 313.6398383929551 L246.68798769177172 317.4996426511078 L197.140999794281 312.4991685561599 L154.53249981900052 299.29479872938936 L124.45545322711108 279.61979260072764 L110.85789580632814 256.0567717079032 L115.52469839356331 231.69871426160995 L137.84327745031652 209.74295821268637 L174.88400527605444 193.07150563409215 L221.78476488691933 183.87271937630135 L272.3891713184409 183.35406963550497 L320.0546838212348 191.58363649168885 L358.5245328476873 207.48117343973456 L382.749009137248 228.9599049508043 L389.54830914649335 253.20044513806366 L378.0299290291343 277.02088184528543 L349.7058183305248 297.29444741227303 L308.2939153246314 311.3599509485608 L259.23011527483516 317.3710971018417 L208.95473265425392 314.53883831501423 L164.06711920520092 303.23494842619294 L130.4594061174101 284.94322211864045 L112.54307886062759 262.0647059798215 L112.6699076121067 237.60252733508182 L130.82324431272963 214.76769150834744 L164.62020795916214 196.5575921690652 L209.62447128150853 185.36256121600277 L259.928591152017 182.65210406456816 L308.92944365982606 188.78200637352816 L350.19497708278374 202.94763216850484 L378.3085092258943 223.28954364123922 L389.57974321507413 247.13757853892733 L382.5291709136239 271.3613465504034 L358.0822791935949 292.7811371035735 L319.4480667547789 308.58530114213585 L271.69781786947425 316.69931964610737 L221.09942492847068 316.05811345826885 L174.29463932583724 306.74584991762896 L137.42724808638616 289.98489471130245 L115.33661532670527 267.9753591696088 L110.92244758691248 243.60630468105077 L124.76416652514835 220.07651271317553 L155.0448516681368 200.47459971233098 L197.78973680145089 187.37359271431882 L247.38795399186762 182.49318332264198 L297.3290389931078 186.473993976001 L341.05752133167175 198.7934872345858 L372.8334220941413 217.8345561752339 L388.4857069666592 241.09779244072354 L385.95979320789604 265.52956877304035 L365.5872425583293 287.9228705797051 L330.0422390940881 305.3382617473023 L283.99056491978655 315.48972701249465 L233.47715058295452 317.0447436475937 L185.13259283977794 309.7991938278542 L145.3027954849797 294.7041579694216 L119.21598014254582 273.7410720355591 L110.29640857449411 249.66163617191296 L119.71490011822289 225.626615324165 L146.23514516576643 204.79094434188917 L186.37598820451885 189.88959836459725 L234.86837848559605 182.87858883189986 L285.34700711256187 184.67820944543598 L331.18584344323585 195.05223466476764 L366.36789489340896 212.63892763501352 L386.2750219200119 235.1297873197081 L388.29413384958707 259.57257176048313 L372.16019381640257 282.7588213957668 L339.9910085824462 301.6450145464077 L296.0092365849903 313.75207248305986 L245.98810457100757 317.490773409187 L196.49359031125746 312.3703601950703 L154.0225455825691 299.06295915987414 L124.14989290991738 279.31535403010935 L110.79683850166953 255.7196959844935 L115.7161587321884 231.373247319386 L138.262123567511 209.4718221696539 L175.47525772240715 192.89029091300685 L222.47081345511216 183.80521296044566 L273.07996247586334 183.4091326922777 L320.659541503594 191.75404121972252 L358.964060968999 207.74455181952666 L382.9655134439545 229.28168486219965 L389.5133704003887 253.53838843766982 L377.7481334325071 277.3306287175161 L349.21415552259936 297.53533921950554 L307.6569229703874 311.5003672499057 L258.53140758835775 317.3926062809342 L208.28602485593066 314.4386169893102 L163.51618860739882 303.02615205559505 L130.09857011706623 284.65325816620134 L112.41970226263552 261.73163629640015 L112.80018533186379 237.27007200549815 L131.1900755654326 214.4794899750044 L165.17544097859252 196.35147494047166 L210.2952239175848 185.26558408003666 L260.62681767829514 182.67699663561834 L309.563492015034 188.92550115118223 L350.6816194944277 203.1908934431354 L378.5838670263644 223.6006399458535 L389.6076718166819 247.475674104028 L382.30600429418564 271.6820615733867 L357.63731111367434 293.04237322261537 L318.8397055391843 308.7527674389474 L271.0059194920115 316.75103381171004 L220.41481079178834 315.9872872803687 L173.7071746734302 306.56178032919485 L137.0140459239317 289.7117434370475 L115.15191425524915 267.64898115979247 L110.99049222222374 243.26954164410756 L125.07602505098745 219.77356953860487 L155.55958826251305 200.24524195673118 L198.43978504013052 187.24792681188933 L248.0879858920341 182.48770469223408 L297.9871655129244 186.58942176497226 L341.5873541004503 199.01466992068987 L373.1654131018827 218.1324604170773 L388.5762777198833 241.43331411264904 L385.7970550202085 265.8586659323012 L365.19255710800064 288.2023445909494 L329.46741440271575 305.531427712276 L283.3110548204898 315.5712291788929 L232.78215034242382 317.0038837086987 L184.5133310235725 309.64133522584814 L144.84055892452628 294.4500218681472 L118.97144389373722 273.4240173760185 L110.30167146255033 249.32328084164368 L119.96927131499595 225.3113732236071 L146.70523487066032 204.54019543469667 L187.000090525877 189.73625697486432 L235.56457120779862 182.84278317575146 L286.02390513963223 184.7646395193235 L331.7545943799253 195.24955530473022 L366.75384217251224 212.92123772924143 L386.4275045276503 235.4600296938369 L388.19313629697115 259.907397454004 L371.8189734541563 283.05427982257936 L339.4543553868704 301.8623226285718 L295.34759384266647 313.8627054756371 L245.2883222068742 317.4802091743437 L195.8475246118528 312.2399854373921 L153.51500176602303 298.82988740162796 L123.84749324766061 279.01017922089113 L110.73927720633955 255.3824766140963 L115.91099153419626 231.04824817757995 L138.68377591867463 209.2017039691649 L176.0683818158953 192.7105104702298 L223.15755340341752 183.7393689895406 L273.770173993003 183.46586814134042 L321.262624611195 191.92590876234593 L359.40085251902775 208.00899142120247 L383.1786783963494 229.6039851024461 L389.4749278542271 253.87624287263475 L377.46312951316406 277.63968919631975 L348.720001006664 297.7750372034173 L307.01848259491544 311.6392390040045 L257.8324856404584 317.4124229325115 L207.61836468075984 314.336777323888 L162.9674300018943 302.8160239628782 L129.74074537382705 284.3624239165645 L112.29978091668596 261.39827197957294 L112.93390874799977 236.93793638097736 L131.5598906626904 214.19218051940243 L165.7328043195554 196.14670506438665 L210.96697371690664 185.17023271261434 L261.32477731781694 182.70357998613534 L310.1960444668308 189.0705297806895 L351.1657333435296 203.43533030215957 L378.8559955151505 223.91239925561862 L389.63209424990555 247.8138330661579 L382.0795148837098 272.0022320634659 L357.18963978304936 293.3025283565924 L318.22961545277 308.91875819301447 L270.3134935626611 316.80107156253337 L219.73093967054123 315.91480386875503 L173.1216260723324 306.3762902233012 L136.60368134038768 289.4375948246516 L114.97059981779267 267.32215990562304 L111.0620280033647 242.93294763885143 L125.39102097234233 219.471385483939 L156.0766966750075 200.01713376391444 L199.0911281846344 187.12383689259735 L248.78806581123558 182.48392159526168 L298.64408686210993 186.7064420750759 L342.1148867040974 199.2371330747257 L373.49431087925683 218.4311649942244 L388.66336820764695 241.76905093223866 L385.6309063657308 266.18736480988196 L364.79497866113013 288.4808591717844 L328.89059393153514 305.72319903667227 L282.63070813267086 315.65108456065093 L232.0875825184051 316.9613410048336 L183.89571386833273 309.4819787651554 L144.38096338429452 294.1947694294088 L118.73019835363294 273.10637443541793 L110.31044279578333 248.98494250679656 L120.22690816069132 224.99675116395093 L147.1779187656516 204.29058822500141 L187.62577505463054 189.58442907524088 L236.2611264678263 182.80866413543566 L286.6998984462824 184.8527079426725 L332.3212920958258 195.4482509714067 L367.1368572442759 213.20447903573842 L386.5765608350506 235.7906372312257 L388.08866810125534 260.24197432873325 L371.47469367670925 283.3489081096913 L338.9154555952289 302.0783282176276 L294.6848122210747 313.97173459216094 L244.58865817350528 317.4679502118841 L195.2028189213808 312.108047557361 L153.00988111637295 298.59558930827154 L123.54826183469996 278.70427583712456 L110.68521336596353 255.04512206581748 L116.1091919064531 230.72372499839256 L139.10822391460948 208.93261039485395 L176.66336266018868 192.53216882095086 L223.8449674847156 183.67518911722362 L274.4597885358036 183.52427455783317 L321.8639179977258 192.09923480313898 L359.8348965279987 208.27448560350973 L383.3884986409246 229.92679757716834 L389.4329824734874 254.2139999578112 L377.174924428806 277.94805551982995 L348.2233671933561 298.0135353440188 L306.37861023246217 311.776562723134 L257.13336698407466 317.43054655889244 L206.95176889622894 314.233321876328 L162.42085717067624 302.6045694253774 L129.38594087451855 284.07072667408056 L112.18331783445115 261.0646214013557 L113.07107450214929 236.606128802859 L131.93268031693853 213.90577035705303 L166.29228398367792 195.94328768367703 L211.63970380867158 185.0765095084576 L262.02245254203416 182.73185344850506 L310.8270851282708 189.21708861956554 L351.6473064722359 203.68093660688282 L379.1248878578732 224.22481374084626 L389.6530099013894 248.1520469326443 L381.8497083701645 272.32184998 L356.7392764447344 293.5615959718543 L317.61781181793816 309.0832692354815 L269.6205574710603 316.84943164192435 L219.04782874001685 315.84066504383514 L172.538008228588 306.1893842585286 L136.19616464179285 289.1624557591788 L114.79267656809293 266.99490361530025 L111.13705313375439 242.59653111865208 L125.70914637843937 219.1699681381966 L156.5961639184981 199.79028086279376 L199.74374987666658 187.00132607292431 L249.48817616786573 182.48183412673336 L299.29978654197697 186.82505196732666 L342.640105894024 199.46087110969597 L373.8201071663302 218.73066240501262 L388.74697624259034 242.10499446713231 L385.46135141704343 266.5156571509929 L364.39451720260297 288.7584073275224 L328.31179216775007 305.9135709040363 L281.9495419426694 315.7292911522661 L231.39346455470596 316.91711660444184 L183.27975688539038 309.32112844798286 L143.9240204072677 293.93840706400675 L118.49224958089366 272.78815119106616 L110.32272235390607 248.64662966454912 L120.48780418452657 224.68275704720924 L147.65318497954928 204.04212898154856 L188.25302607729137 189.4341184787452 L236.95802677145204 182.77623256786256 L287.3749700563001 184.94241250382356 L332.885922358642 195.6483166746668 L367.5169304894241 213.4886444410058 L386.7221870987714 236.12160162891183 L387.9807318860421 260.5762939821423 L371.12736313045485 283.64269885767857 L338.3743227417849 302.2930258886763 L294.02090836548376 314.0791570944466 L243.88913004345943 317.4539968297013 L194.55948943114748 311.9745498684976 L152.50719631861767 298.36007076368634 L123.25220618655071 278.39765156190174 L110.63464833832452 254.70764081212735 L116.31075487134152 230.39968593192395 L139.53545689500226 208.66454820519687 L177.2601853134334 192.35527044389448 L224.53303843498728 183.61267495533627 L275.1487887839822 183.58435047482496 L322.4634065626941 192.27401498930493 L360.266182095296 208.54102769880782 L383.5949689081622 230.2501141791122 L389.3875353115739 254.55165121086458 L376.8835254175421 278.25571994359933 L347.7242665554475 298.25082765152075 L305.7373219523657 311.9123349586349 L256.4340691769258 317.4469767049181 L206.2862542441224 314.128253244949 L161.87648384071213 302.3917937536942 L129.03416552940678 283.7781737641914 L112.07031594098305 260.73069294161934 L113.2116791494714 236.2746576043043 L132.30843516570698 213.62026668103906 L166.8538659201439 195.74122790698158 L212.3133972975178 184.9844168213879 L262.7198258293512 182.7618163126619 L311.45659815226605 189.36517398733412 L352.12632678532304 203.92770618863847 L379.390537301452 224.53787555542178 L389.6704182458542 248.49030720955844 L381.6165905253043 272.6409072955584 L356.28623240918716 293.81956956215663 L317.00430999968336 309.24629643477635 L268.92712862091696 316.8961128352785 L218.36549515541975 315.76487266748245 L171.95633579911464 306.0010671288134 L135.7915060627006 288.88633315059224 L114.61814897443017 266.66722050738537 L111.21556572917873 242.26030053242172 L126.03039327927219 218.8693250717421 L157.11797694694997 199.56468895061104 L200.39763372694807 186.88039742948467 L250.18829937841025 182.48144233907703 L299.95424808559113 186.9452484630108 L343.16299847964467 199.68587840654538 L374.1427937808519 219.03094512767836 L388.8270997251552 242.44113628115022 L385.2883944324834 266.8435347106367 L363.9911827903687 289.03498208729513 L327.73102364701316 306.1025385334933 L281.26757335808685 315.80584698956704 L230.69981388370977 316.8712116181945 L182.66547554326723 309.15878831376074 L143.4697414688134 293.68094121005964 L118.2576035518112 272.46935563542405 L110.33850982852428 248.3083508114387 L120.75195283490896 224.36939875837066 L148.13102157630897 203.7948239442526 L188.88182783988947 189.2853289605602 L237.65525461717425 182.74548928749664 L288.04910301441475 185.033750949735 L333.4484709880016 195.84974738997255 L367.8940523631791 213.77372680880228 L386.8643796613851 236.45291457466982 L387.86933036224934 260.9103480174955 L370.776990538405 283.9356446881512 L337.8309704163913 302.5064102498608 L293.3558989494666 314.18497028463815 L243.1897553842316 317.43834937821225 L193.9175522984792 311.8394957236185 L152.0069599986798 298.1233376833876 L122.95933373773397 278.09031409514 L110.58758339333485 254.3700413286783 L116.51567536642435 230.0761391167035 L139.96546413059988 208.3975241321327 L177.85883478611441 192.17981978195752 L225.22174897371647 183.5518280738867 L275.837157435434 183.64609438369635 L323.0610752496269 192.45024493114786 L360.6946983888015 208.80861101265342 L383.79808401267724 230.57392678836246 L389.3385875098444 254.8891881519954 L376.58893979769505 278.56267474080846 L347.2227116272086 298.48690816663225 L305.094633860919 312.0465523005149 L255.73460978249943 317.46171295793243 L205.62183743822536 314.0215740684536 L161.3343236828449 302.17770229125983 L128.68542817351698 283.4847725345174 L111.9607780741359 260.39649498642655 L113.35571915875926 235.94353111002656 L132.68714577212347 213.33567666162523 L167.41753602513802 195.54053080891833 L212.98803726450018 184.8939569641945 L263.41687966512274 182.79346782608349 L312.08456772735144 189.51478216453722 L352.60278225368023 204.17563285057443 L379.65293717443944 224.8515768372012 L389.68431884607776 248.828605401192 L381.3801672035011 272.95939599754325 L355.8305190546835 294.0764426484501 L316.3891254057596 309.4078356965622 L268.2332244255458 316.94111397034135 L217.68395605391865 315.68742864326157 L171.37662339313152 305.81134356390965 L135.38971576588412 288.6092339335566 L114.44702141990928 266.3391188113363 L111.2975638178379 241.924264324403 L126.35475360748629 218.56946383451148 L157.6421226553215 199.34036369298065 L201.05276331189071 186.76105399963978 L250.8884178599215 182.4827462421312 L300.6074550567532 187.06702854350698 L343.68355132880544 199.91214931434195 L374.46236261872843 219.3320056207894 L388.9037366429068 242.7774679315474 L385.11203975576854 267.1709892543522 L363.5849855529185 289.31057650578487 L327.14830295520983 306.29009717915807 L280.5848195064305 315.88075014987174 L230.0066479255611 316.8236271989343 L182.05288527041034 308.99496243986437 L143.01813797805872 293.42237833377084 L118.02626615879467 272.149995774053 L110.35780482314439 247.97011444314893 L121.01934747712625 224.05668416816283 L148.61141655568218 203.54867932386267 L189.5121645520196 189.13806425707395 L238.35279249425366 182.71643506645017 L288.72228039064555 185.12672098655756 L334.00892385581113 196.05253805850455 L368.26821339337994 214.05971897871933 L387.0031349519582 236.78456774812182 L387.75446632746366 261.24412804581954 L370.4235847002286 284.2277382437273 L337.2854122658259 302.7184759418426 L292.68980067436183 314.2891715052966 L242.490551760478 317.42100825039876 L193.27702364503324 311.7028885144846 L151.50918471862195 297.8853960122796 L122.66965184442746 277.78227115633985 L110.54401971297384 254.03233209384686 L116.72394824576077 229.75309267760622 L140.39823482185724 208.13154488191884 L178.45929604370215 192.00582124142056 L225.91108180432428 183.49265000101013 L276.5248772001676 183.70950473360443 L323.6569090490602 192.62792020294427 L361.1204346476559 209.07722882552207 L383.99783885334773 230.89822727254708 L389.2861402976664 255.22660230366264 L376.2911749676175 278.8689122024597 L346.71871500509064 298.7217709602371 L304.4505620986406 312.1792113780303 L255.0350063660567 317.47475494787045 L204.95853516547442 313.9132870261088 L160.7943903141081 301.9623004152493 L128.339737565064 283.1905303535598 L111.85470698493347 260.06203592909264 L113.50319091252877 235.61275763608197 L133.06880262508355 213.0520074461303 " stroke = "red" stroke-width = "4" fill = "none" /></svg>