<svg width="1500" height="20" viewbox="0 0 1500 20" xmlns="http://www.w3.org/2000/svg">

<!--
<json>
{
    "svgwidth": 1500,
    "svgheight": 20,
    "unit": 100,
    "x0": 679,
    "y0": 423,
    "x0rel": -5,
    "y0rel": 24,
    "glyph": "0332,0332,0332,0332,0332,0332,0332,0332,0332,0336,0336,0336,0330,0337,0337,0310,0312,0337,0313,0226,0226,0226,0226,0226,0226,0226,0226,0226,0226,0226,0226,0226,0226,0226,0226,0226,0226,0226,0226,0226,0226,0226,0226,0226,0226,0226,0226,0226,0226,0226,0226,0226,0226,0226,",
    "table": [
        "0220:0321,0332,0362,0203,0336,0333,0350,0334,0345,0335,0330,0335,0335,0203,0203,0334,0334,0331,0335,0345,0335,0330,0335,0335,0203,0203,0335,0333,0334,0334,0345,0335,0330,0335,0335,0203,0203,0335,0333,0334,0334,0345,0333,0364,0335,0337,0331,0304,0335,",
        "0221:0321,0336,0333,0337,0200,0336,0330,0332,0200,0336,0200,0331,0331,0337,0337,",
        "0222:0220,0336,0333,0336,0333,0337,0337,0200,0336,0330,0332,0332,0336,0332,0337,0336,0336,0333,0337,0337,0200,0335,0336,0332,0330,0224,0334,0331,0331,0331,0333,0336,0332,0337,0337,0337,",
        "0223:0336,0336,0336,0336,0330,0332,0332,0350,0335,0335,0330,0331,0334,0343,0334,0330,0334,0334,0201,0201,0335,0335,0331,0334,0343,0334,0330,0334,0334,0201,0201,0335,0335,0331,0334,0343,0334,0330,0334,0334,0201,0201,0335,0335,0331,0334,0343,0334,0330,0335,0335,0335,0335,0335,0335,0330,0304,0333,0337,0337,0337,0337,",
        "0224:0334,0336,0336,0362,0203,0335,0203,0203,0334,0203,0335,0350,0335,0310,0337,0203,0203,0335,0335,0203,0203,0335,0335,0335,0336,0203,0334,0334,0203,0203,0335,0335,0203,0363,0304,0335,0313,0337,0337,",
        "0225:0334,0336,0350,0310,0362,0203,0335,0335,0335,0337,0203,0335,0335,0203,0335,0335,0335,0336,0203,0363,0313,0304,0335,0337,",
        "0226:0320,0336,0350,0310,0362,0203,0335,0335,0203,0335,0335,0335,0337,0203,0363,0324,0334,0334,0334,0336,0362,0203,0334,0337,0203,0334,0334,0334,0336,0203,0334,0337,0203,0363,0335,0336,0331,0320,0335,0335,0335,0337,0362,0203,0335,0335,0335,0336,0203,0335,0335,0203,0363,0331,0335,0335,0313,0337,0304,",
        "0227:0220,0336,0332,0336,0336,0332,0332,0331,0337,0337,0226,0226,0226,0330,0330,0332,0332,0332,0226,0226,0226,0331,0332,0332,0332,0335,0336,0332,0336,0333,0337,0337,0225,0336,0336,0330,0337,0337,0330,0225,0330,0336,0336,0330,0337,0337,0225,0334,0331,0332,0337,",
        "0230:0321,0223,0335,0335,0223,0335,0336,0336,0331,0336,0330,0337,0342,0335,0336,0332,0337,0337,0336,0331,0337,0220,0335,0335,0336,0225,0331,0331,0336,0331,0337,0225,0333,0333,0333,",
        "0231:0220,0336,0336,0336,0330,0332,0332,0330,0337,0337,0333,0337,0200,0336,0330,0335,0224,0335,0333,0330,0224,0335,0335,0336,0333,0331,0337,0337,",
        "0232:0321,0336,0336,0330,0331,0337,0362,0203,0336,0203,0364,0331,0331,0331,0330,0330,0366,0331,0331,0335,0335,0331,0331,0331,0333,0367,0335,0335,0333,0331,0366,0330,0335,0335,0332,0367,0335,0335,0331,0331,0332,0366,0330,0330,0333,0336,0333,0335,0335,0337,0367,0335,0335,0331,0331,0332,0332,0336,0333,0337,0366,0330,0330,0332,0336,0332,0335,0335,0337,0367,0335,0335,0333,0331,0331,0336,0333,0337,0331,0366,0335,0335,0331,0331,0332,0336,0332,0337,0367,0335,0335,0331,0331,0332,0332,0336,0333,0337,0366,0330,0330,0332,0332,0336,0333,0335,0335,0337,0367,0335,0335,0333,0333,0336,0332,0337,0331,0336,0337,0331,0337,0320,0337,",
        "0233:0321,0304,0313,0332,0362,0203,0335,0203,0203,0335,0203,0335,0203,0203,0354,0335,0333,0336,0330,0210,0341,0336,0341,0337,0211,0332,0336,0330,0332,0336,0341,0337,0333,0333,0333,0330,0332,0332,0350,0335,0310,0337,0362,0203,0335,0336,0203,0203,0335,0337,0203,0364,0334,0334,0334,0336,0313,0304,0337,0332,0331,0331,0337,0320,",
        "0234:0320,0336,0331,0336,0330,0330,0304,0350,0334,0304,0313,0337,0350,0334,0310,0336,0362,0203,0335,0335,0335,0336,0203,0335,0335,0203,0363,0334,0334,0334,0337,0362,0203,0335,0335,0335,0336,0203,0335,0335,0203,0363,0334,0334,0334,0337,0362,0203,0335,0335,0335,0336,0203,0335,0335,0203,0363,0334,0334,0362,0203,0334,0334,0203,0334,0334,0334,0337,0203,0363,0330,0335,0335,0336,0333,0335,0335,0335,0335,0337,0313,0304,0305,0311,0335,0337,0362,0203,0334,0334,0350,0350,0334,0203,0363,0331,0335,0342,0334,0334,0330,0335,0335,0335,0335,0335,0335,0336,0313,0304,0334,0305,0311,0334,0337,0201,0335,0335,0362,0203,0335,0350,0335,0336,0304,0313,0350,0334,0310,0336,0203,0363,0334,0334,0362,0203,0334,0334,0334,0310,0337,0311,0305,0335,0337,0203,0363,0334,0334,0342,0350,0334,0330,0335,0335,0335,0336,0310,0304,0350,0336,0334,0330,0334,0334,0362,0203,0334,0334,0334,0337,0311,0305,0335,0337,0203,0363,0334,0334,0342,0350,0330,0334,0334,0334,0336,0310,0304,0350,0336,0333,0337,0337,0304,0313,0337,",
        "0235:0210,0334,0321,0223,0335,0335,0223,0335,0336,0336,0331,0336,0330,0337,0342,0335,0336,0332,0337,0337,0336,0331,0337,0335,0336,0335,0336,0332,0224,0334,0333,0331,0333,0333,0333,0337,0200,0337,0332,0336,0331,0337,0211,0336,0336,0336,0333,0337,0337,0337,0220,",
        "0236:0335,0331,0337,0321,0305,0362,0203,0335,0335,0203,0335,0335,0203,0335,0335,0203,0335,0335,0203,0354,0335,0350,0335,0311,0336,0362,0203,0335,0335,0203,0335,0335,0203,0335,0335,0203,0335,0335,0203,0354,0335,0335,0335,0337,0313,0336,0330,0304,0334,0320,",
        "0237:0321,0200,0336,0330,0336,0330,0334,0362,0203,0203,0203,0334,0203,0203,0203,0364,0335,0335,0330,0335,0362,0203,0203,0334,0203,0203,0364,0331,0332,0200,0333,0333,0331,0331,0337,0337,",
        "0240:0331,0321,0334,0336,0362,0203,0335,0337,0203,0203,0334,0336,0203,0335,0350,0310,0335,0337,0203,0203,0335,0335,0203,0203,0335,0335,0335,0336,0203,0313,0304,0334,0203,0203,0203,0203,0335,0203,0354,0335,0337,0330,0320,",
        "0241:0220,0336,0330,0337,0235,",
        "0242:0220,0336,0333,0336,0333,0331,0332,0337,0337,0211,0211,0211,0236,0210,0210,0210,0336,0332,0336,0330,0337,0337,",
        "0243:0220,0330,0336,0333,0331,0336,0331,0333,0337,0336,0330,0332,0337,0234,0336,0336,0332,0337,0337,0336,0333,0331,0337,0336,0332,0330,0337,0332,0332,0332,0333,0336,0331,0333,0337,0237,0335,0336,0332,0336,0330,0337,0224,0334,0331,0331,0333,0336,0337,0337,0337,0320,",
        "0244:0243,0243,0243,0243,",
        "0245:0330,0322,0335,0336,0362,0203,0335,0337,0350,0350,0350,0350,0335,0203,0335,0335,0335,0335,0335,0335,0335,0335,0335,0335,0335,0335,0335,0335,0335,0336,0203,0364,0331,0335,0335,0335,0335,0335,0335,0335,0335,0335,0335,0335,0335,0335,0335,0335,0335,0335,0337,0330,0334,0304,0335,0336,0331,0335,0335,0362,0203,0334,0337,0350,0350,0350,0350,0334,0203,0334,0334,0334,0334,0334,0334,0334,0334,0334,0334,0334,0334,0334,0334,0334,0336,0203,0364,0331,0334,0334,0334,0334,0334,0334,0334,0334,0334,0334,0334,0334,0334,0337,0334,0334,0334,0334,0330,0335,0304,0336,0333,0336,0332,0336,0333,0337,0362,0203,0335,0203,0335,0203,0364,0335,0335,0331,0337,0331,0332,0336,0336,0333,0337,0337,0350,0350,0350,0350,0334,0342,0335,0304,0333,0350,0350,0350,0350,0335,0342,0334,0304,0336,0332,0337,0342,0330,0331,0337,0332,0336,0337,041,0365,0333,0333,0336,0332,0337,041,0336,0336,0336,0333,0337,0337,0337,0365,0332,0336,0333,0336,0332,0336,0333,0337,0337,0337,0337,0210,0210,0210,0210,0210,0220,0211,0211,0211,0211,0336,",
        "0246:0211,0211,0211,0336,0336,0224,0321,0334,0330,0336,0333,0331,0336,0330,0337,0337,0362,0203,0335,0203,0203,0203,0335,0203,0336,0203,0337,0203,0203,0335,0203,0203,0203,0335,0203,0364,0333,0335,0331,0331,0336,0332,0330,0336,0332,0337,0330,0337,0337,0337,0210,0210,0210,0220,",
        "0247:0211,0321,0334,0336,0362,0203,0336,0334,0203,0203,0203,0203,0334,0203,0203,0203,0334,0203,0203,0203,0350,0334,0310,0337,0203,0354,0335,0336,0331,0320,0362,0203,0335,0335,0335,0337,0203,0335,0335,0335,0336,0203,0363,0335,0335,0330,0313,0304,0336,0332,0336,0330,0337,0337,0337,0337,0331,0210,0220,",
        "0250:0341,",
        "01220:0333,0200,0336,0332,0336,0336,0330,0330,0330,0337,0337,0210,0210,0210,0220,0211,0211,0211,0333,0336,0331,0336,0331,0337,0337,0337,0320,",
        "01221:0333,0200,0336,0330,0332,0336,0331,0337,0221,0333,0336,0331,0337,0337,0320,",
        "01222:0333,0200,0336,0332,0330,0222,0333,0331,0337,0320,",
        "01223:0333,0200,0336,0332,0336,0330,0337,0337,0210,0210,0223,0211,0211,0336,0336,0331,0337,0333,0337,",
        "01224:0333,0200,0336,0332,0330,0336,0331,0337,0224,0333,0336,0331,0337,0337,",
        "01225:0333,0200,0336,0332,0330,0225,0333,0331,0337,",
        "01226:0333,0200,0336,0330,0332,0332,0226,0226,0331,0337,",
        "01227:0333,0200,0336,0336,0330,0337,0332,0210,0227,0211,0331,0333,0337,0336,0336,0330,0337,0337,",
        "01230:0333,0200,0336,0330,0332,0336,0331,0337,0210,0210,0230,0211,0211,0331,0304,0333,0337,0336,0336,0330,0337,0337,",
        "01231:0333,0200,0332,0336,0330,0336,0331,0337,0333,0210,0210,0231,0211,0211,0333,0331,0336,0330,0337,0337,0320,",
        "01232:0333,0200,0336,0332,0330,0332,0333,0336,0331,0337,0210,0232,0211,0333,0336,0331,0337,0337,",
        "01233:0333,0200,0336,0332,0337,0336,0332,0336,0336,0333,0330,0337,0337,0210,0210,0233,0211,0211,0313,0336,0336,0332,0332,0333,0331,0337,0337,0337,0333,",
        "01234:0333,0200,0336,0234,0337,",
        "01235:0333,0200,0336,0332,0336,0330,0332,0235,0333,0333,0333,0336,0336,0331,0331,0331,0331,0337,0337,0337,0337,",
        "01236:0333,0200,0336,0330,0330,0332,0336,0331,0337,0236,0333,0331,0331,0336,0330,0337,0337,",
        "01237:0333,0200,0336,0330,0332,0237,0333,0331,0337,",
        "01240:0333,0200,0336,0336,0332,0332,0240,0333,0333,0337,0337,",
        "01241:0333,0200,0336,0332,0241,0333,0337,",
        "01242:0333,0200,0336,0332,0332,0336,0330,0330,0242,0336,0331,0331,0331,0331,0332,0337,0337,0337,",
        "01243:0333,0200,0336,0332,0332,0243,0337,",
        "01244:0333,0200,0332,0336,0330,0336,0336,0243,0243,0243,0243,0331,0331,0331,0331,0337,0337,0337,",
        "01245:0333,0200,0336,0332,0336,0331,0337,0245,0333,0336,0330,0337,0337,",
        "01246:0333,0200,0330,0332,0336,0331,0336,0332,0337,0246,0333,0333,0336,0333,0331,0331,0337,0337,",
        "01247:0333,0200,0336,0330,0332,0337,0247,0336,0333,0331,0337,"
    ]
}
</json>
-->
	<path d="M-155 21 L-155 -22 L-112 -22 L-155 21 Z" stroke="black" stroke-width="1" fill="black"/>	<path d="M-155 21 L-112 21 L-68 -22 L-112 -22 L-155 21 Z" stroke="yellow" stroke-width="1" fill="yellow"/>	<path d="M-112 21 L-68 -22 L-68 21 L-112 21 Z" stroke="black" stroke-width="1" fill="black"/>	<path d="M-68 21 L-68 -22 L-25 -22 L-68 21 Z" stroke="black" stroke-width="1" fill="black"/>	<path d="M-68 21 L-25 21 L18 -22 L-25 -22 L-68 21 Z" stroke="yellow" stroke-width="1" fill="yellow"/>	<path d="M-25 21 L18 -22 L18 21 L-25 21 Z" stroke="black" stroke-width="1" fill="black"/>	<path d="M18 21 L18 -22 L62 -22 L18 21 Z" stroke="black" stroke-width="1" fill="black"/>	<path d="M18 21 L62 21 L105 -22 L62 -22 L18 21 Z" stroke="yellow" stroke-width="1" fill="yellow"/>	<path d="M62 21 L105 -22 L105 22 L62 21 Z" stroke="black" stroke-width="1" fill="black"/>	<path d="M105 22 L105 -22 L148 -22 L105 21 Z" stroke="black" stroke-width="1" fill="black"/>	<path d="M105 21 L148 22 L191 -22 L148 -22 L105 22 Z" stroke="yellow" stroke-width="1" fill="yellow"/>	<path d="M148 22 L191 -22 L191 22 L148 22 Z" stroke="black" stroke-width="1" fill="black"/>	<path d="M191 22 L191 -22 L235 -22 L191 22 Z" stroke="black" stroke-width="1" fill="black"/>	<path d="M191 22 L235 22 L278 -22 L235 -22 L191 22 Z" stroke="yellow" stroke-width="1" fill="yellow"/>	<path d="M235 22 L278 -22 L278 22 L235 22 Z" stroke="black" stroke-width="1" fill="black"/>	<path d="M278 22 L278 -22 L321 -22 L278 22 Z" stroke="black" stroke-width="1" fill="black"/>	<path d="M278 22 L321 22 L365 -22 L321 -22 L278 22 Z" stroke="yellow" stroke-width="1" fill="yellow"/>	<path d="M321 22 L365 -22 L365 22 L321 22 Z" stroke="black" stroke-width="1" fill="black"/>	<path d="M365 22 L365 -22 L408 -22 L365 22 Z" stroke="black" stroke-width="1" fill="black"/>	<path d="M365 22 L408 22 L451 -22 L408 -22 L365 22 Z" stroke="yellow" stroke-width="1" fill="yellow"/>	<path d="M408 22 L451 -22 L451 22 L408 22 Z" stroke="black" stroke-width="1" fill="black"/>	<path d="M451 22 L451 -22 L495 -22 L451 22 Z" stroke="black" stroke-width="1" fill="black"/>	<path d="M451 22 L495 22 L538 -22 L495 -22 L451 22 Z" stroke="yellow" stroke-width="1" fill="yellow"/>	<path d="M495 22 L538 -22 L538 22 L495 22 Z" stroke="black" stroke-width="1" fill="black"/>	<path d="M538 22 L538 -22 L581 -22 L538 22 Z" stroke="black" stroke-width="1" fill="black"/>	<path d="M538 22 L581 22 L624 -22 L581 -22 L538 22 Z" stroke="yellow" stroke-width="1" fill="yellow"/>	<path d="M581 22 L624 -22 L624 22 L581 22 Z" stroke="black" stroke-width="1" fill="black"/>	<path d="M624 22 L624 -22 L668 -22 L624 22 Z" stroke="black" stroke-width="1" fill="black"/>	<path d="M624 22 L668 21 L711 -22 L668 -22 L624 22 Z" stroke="yellow" stroke-width="1" fill="yellow"/>	<path d="M668 21 L711 -22 L711 21 L668 21 Z" stroke="black" stroke-width="1" fill="black"/>	<path d="M711 21 L711 -22 L754 -22 L711 21 Z" stroke="black" stroke-width="1" fill="black"/>	<path d="M711 21 L754 21 L798 -22 L754 -22 L711 21 Z" stroke="yellow" stroke-width="1" fill="yellow"/>	<path d="M754 21 L798 -22 L798 21 L754 21 Z" stroke="black" stroke-width="1" fill="black"/>	<path d="M798 21 L798 -22 L841 -22 L798 21 Z" stroke="black" stroke-width="1" fill="black"/>	<path d="M798 21 L841 21 L884 -22 L841 -22 L798 21 Z" stroke="yellow" stroke-width="1" fill="yellow"/>	<path d="M841 21 L884 -22 L884 21 L841 21 Z" stroke="black" stroke-width="1" fill="black"/>	<path d="M884 21 L884 -22 L928 -22 L884 21 Z" stroke="black" stroke-width="1" fill="black"/>	<path d="M884 21 L928 21 L971 -22 L928 -22 L884 21 Z" stroke="yellow" stroke-width="1" fill="yellow"/>	<path d="M928 21 L971 -22 L971 21 L928 21 Z" stroke="black" stroke-width="1" fill="black"/>	<path d="M971 21 L971 -22 L1014 -22 L971 21 Z" stroke="black" stroke-width="1" fill="black"/>	<path d="M971 21 L1014 21 L1057 -22 L1014 -22 L971 21 Z" stroke="yellow" stroke-width="1" fill="yellow"/>	<path d="M1014 21 L1057 -22 L1057 21 L1014 21 Z" stroke="black" stroke-width="1" fill="black"/>	<path d="M1057 21 L1057 -22 L1101 -22 L1057 21 Z" stroke="black" stroke-width="1" fill="black"/>	<path d="M1057 21 L1101 21 L1144 -22 L1101 -22 L1057 21 Z" stroke="yellow" stroke-width="1" fill="yellow"/>	<path d="M1101 21 L1144 -22 L1144 21 L1101 21 Z" stroke="black" stroke-width="1" fill="black"/>	<path d="M1144 21 L1144 -22 L1187 -22 L1144 21 Z" stroke="black" stroke-width="1" fill="black"/>	<path d="M1144 21 L1187 21 L1231 -22 L1187 -22 L1144 21 Z" stroke="yellow" stroke-width="1" fill="yellow"/>	<path d="M1187 21 L1231 -22 L1231 21 L1187 21 Z" stroke="black" stroke-width="1" fill="black"/>	<path d="M1231 21 L1231 -22 L1274 -22 L1231 21 Z" stroke="black" stroke-width="1" fill="black"/>	<path d="M1231 21 L1274 21 L1317 -22 L1274 -22 L1231 21 Z" stroke="yellow" stroke-width="1" fill="yellow"/>	<path d="M1274 21 L1317 -22 L1317 21 L1274 21 Z" stroke="black" stroke-width="1" fill="black"/>	<path d="M1317 21 L1317 -22 L1361 -22 L1317 21 Z" stroke="black" stroke-width="1" fill="black"/>	<path d="M1317 21 L1361 21 L1404 -22 L1361 -22 L1317 21 Z" stroke="yellow" stroke-width="1" fill="yellow"/>	<path d="M1361 21 L1404 -22 L1404 21 L1361 21 Z" stroke="black" stroke-width="1" fill="black"/>	<path d="M1404 21 L1404 -22 L1447 -22 L1404 21 Z" stroke="black" stroke-width="1" fill="black"/>	<path d="M1404 21 L1447 21 L1490 -22 L1447 -22 L1404 21 Z" stroke="yellow" stroke-width="1" fill="yellow"/>	<path d="M1447 21 L1490 -22 L1490 21 L1447 21 Z" stroke="black" stroke-width="1" fill="black"/>	<path d="M1490 21 L1490 -22 L1534 -22 L1490 21 Z" stroke="black" stroke-width="1" fill="black"/>	<path d="M1490 21 L1534 21 L1577 -22 L1534 -22 L1490 21 Z" stroke="yellow" stroke-width="1" fill="yellow"/>	<path d="M1534 21 L1577 -22 L1577 21 L1534 21 Z" stroke="black" stroke-width="1" fill="black"/>	<path d="M1577 21 L1577 -22 L1620 -22 L1577 21 Z" stroke="black" stroke-width="1" fill="black"/>	<path d="M1577 21 L1620 21 L1664 -22 L1620 -22 L1577 21 Z" stroke="yellow" stroke-width="1" fill="yellow"/>	<path d="M1620 21 L1664 -22 L1664 21 L1620 21 Z" stroke="black" stroke-width="1" fill="black"/>	<path d="M1664 21 L1664 -22 L1707 -22 L1664 21 Z" stroke="black" stroke-width="1" fill="black"/>	<path d="M1664 21 L1707 21 L1750 -22 L1707 -22 L1664 21 Z" stroke="yellow" stroke-width="1" fill="yellow"/>	<path d="M1707 21 L1750 -22 L1750 21 L1707 21 Z" stroke="black" stroke-width="1" fill="black"/>	<path d="M1750 21 L1750 -22 L1794 -22 L1750 21 Z" stroke="black" stroke-width="1" fill="black"/>	<path d="M1750 21 L1794 21 L1837 -22 L1794 -22 L1750 21 Z" stroke="yellow" stroke-width="1" fill="yellow"/>	<path d="M1794 21 L1837 -22 L1837 21 L1794 21 Z" stroke="black" stroke-width="1" fill="black"/>	<path d="M1837 21 L1837 -22 L1880 -22 L1837 21 Z" stroke="black" stroke-width="1" fill="black"/>	<path d="M1837 21 L1880 21 L1923 -22 L1880 -22 L1837 21 Z" stroke="yellow" stroke-width="1" fill="yellow"/>	<path d="M1880 21 L1923 -22 L1923 21 L1880 21 Z" stroke="black" stroke-width="1" fill="black"/>	<path d="M1923 21 L1923 -22 L1967 -22 L1923 21 Z" stroke="black" stroke-width="1" fill="black"/>	<path d="M1923 21 L1967 21 L2010 -22 L1967 -22 L1923 21 Z" stroke="yellow" stroke-width="1" fill="yellow"/>	<path d="M1967 21 L2010 -22 L2010 21 L1967 21 Z" stroke="black" stroke-width="1" fill="black"/>	<path d="M2010 21 L2010 -22 L2053 -22 L2010 21 Z" stroke="black" stroke-width="1" fill="black"/>	<path d="M2010 21 L2053 21 L2097 -22 L2053 -22 L2010 21 Z" stroke="yellow" stroke-width="1" fill="yellow"/>	<path d="M2053 21 L2097 -22 L2097 21 L2053 21 Z" stroke="black" stroke-width="1" fill="black"/>	<path d="M2097 21 L2097 -22 L2140 -22 L2097 21 Z" stroke="black" stroke-width="1" fill="black"/>	<path d="M2097 21 L2140 21 L2183 -22 L2140 -22 L2097 21 Z" stroke="yellow" stroke-width="1" fill="yellow"/>	<path d="M2140 21 L2183 -22 L2183 21 L2140 21 Z" stroke="black" stroke-width="1" fill="black"/>	<path d="M2183 21 L2183 -22 L2227 -22 L2183 21 Z" stroke="black" stroke-width="1" fill="black"/>	<path d="M2183 21 L2227 21 L2270 -22 L2227 -22 L2183 21 Z" stroke="yellow" stroke-width="1" fill="yellow"/>	<path d="M2227 21 L2270 -22 L2270 21 L2227 21 Z" stroke="black" stroke-width="1" fill="black"/>	<path d="M2270 21 L2270 -22 L2313 -22 L2270 21 Z" stroke="black" stroke-width="1" fill="black"/>	<path d="M2270 21 L2313 21 L2356 -22 L2313 -22 L2270 21 Z" stroke="yellow" stroke-width="1" fill="yellow"/>	<path d="M2313 21 L2356 -22 L2356 21 L2313 21 Z" stroke="black" stroke-width="1" fill="black"/>	<path d="M2356 21 L2356 -22 L2400 -22 L2356 21 Z" stroke="black" stroke-width="1" fill="black"/>	<path d="M2356 21 L2400 21 L2443 -22 L2400 -22 L2356 21 Z" stroke="yellow" stroke-width="1" fill="yellow"/>	<path d="M2400 21 L2443 -22 L2443 21 L2400 21 Z" stroke="black" stroke-width="1" fill="black"/>	<path d="M2443 21 L2443 -22 L2486 -22 L2443 21 Z" stroke="black" stroke-width="1" fill="black"/>	<path d="M2443 21 L2486 21 L2530 -22 L2486 -22 L2443 21 Z" stroke="yellow" stroke-width="1" fill="yellow"/>	<path d="M2486 21 L2530 -22 L2530 21 L2486 21 Z" stroke="black" stroke-width="1" fill="black"/>	<path d="M2530 21 L2530 -22 L2573 -22 L2530 21 Z" stroke="black" stroke-width="1" fill="black"/>	<path d="M2530 21 L2573 21 L2616 -22 L2573 -22 L2530 21 Z" stroke="yellow" stroke-width="1" fill="yellow"/>	<path d="M2573 21 L2616 -22 L2616 21 L2573 21 Z" stroke="black" stroke-width="1" fill="black"/>	<path d="M2616 21 L2616 -22 L2660 -22 L2616 21 Z" stroke="black" stroke-width="1" fill="black"/>	<path d="M2616 21 L2660 21 L2703 -22 L2660 -22 L2616 21 Z" stroke="yellow" stroke-width="1" fill="yellow"/>	<path d="M2660 21 L2703 -22 L2703 21 L2660 21 Z" stroke="black" stroke-width="1" fill="black"/>	<path d="M2703 21 L2703 -22 L2746 -22 L2703 21 Z" stroke="black" stroke-width="1" fill="black"/>	<path d="M2703 21 L2746 21 L2789 -22 L2746 -22 L2703 21 Z" stroke="yellow" stroke-width="1" fill="yellow"/>	<path d="M2746 21 L2789 -22 L2789 21 L2746 21 Z" stroke="black" stroke-width="1" fill="black"/>	<path d="M2789 21 L2789 -22 L2833 -22 L2789 21 Z" stroke="black" stroke-width="1" fill="black"/>	<path d="M2789 21 L2833 21 L2876 -22 L2833 -22 L2789 21 Z" stroke="yellow" stroke-width="1" fill="yellow"/>	<path d="M2833 21 L2876 -22 L2876 21 L2833 21 Z" stroke="black" stroke-width="1" fill="black"/></svg>