<svg width="250" height="250" viewbox="0 0 250 250" xmlns="http://www.w3.org/2000/svg">

<!--
<json>
{
    "svgwidth": 250,
    "svgheight": 250,
    "unit": 100,
    "x0": 684,
    "y0": 399,
    "x0rel": 0,
    "y0rel": 0,
    "glyph": "0336,0331,0337,0220,0211,0320,0330,0332,0336,0333,0331,0336,0336,0336,0331,0333,0337,0337,0330,0337,0234,0333,0333,0336,0330,0234,0331,0331,0234,0331,0331,0234,0330,0330,0330,0330,0332,0332,0332,0335,0330,0336,0331,0337,0224,",
    "table": [
        "0220:0321,0332,0362,0203,0336,0333,0350,0334,0345,0335,0330,0335,0335,0203,0203,0334,0334,0331,0335,0345,0335,0330,0335,0335,0203,0203,0335,0333,0334,0334,0345,0335,0330,0335,0335,0203,0203,0335,0333,0334,0334,0345,0333,0364,0335,0337,0331,0304,0335,",
        "0221:0321,0336,0333,0337,0200,0336,0330,0332,0200,0336,0200,0331,0331,0337,0337,",
        "0222:0220,0336,0333,0336,0333,0337,0337,0200,0336,0330,0332,0332,0336,0332,0337,0336,0336,0333,0337,0337,0200,0335,0336,0332,0330,0224,0334,0331,0331,0331,0333,0336,0332,0337,0337,0337,",
        "0223:0336,0336,0336,0336,0330,0332,0332,0350,0335,0335,0330,0331,0334,0343,0334,0330,0334,0334,0201,0201,0335,0335,0331,0334,0343,0334,0330,0334,0334,0201,0201,0335,0335,0331,0334,0343,0334,0330,0334,0334,0201,0201,0335,0335,0331,0334,0343,0334,0330,0335,0335,0335,0335,0335,0335,0330,0304,0333,0337,0337,0337,0337,",
        "0224:0334,0336,0336,0362,0203,0335,0203,0203,0334,0203,0335,0350,0335,0310,0337,0203,0203,0335,0335,0203,0203,0335,0335,0335,0336,0203,0334,0334,0203,0203,0335,0335,0203,0363,0304,0335,0313,0337,0337,",
        "0225:0334,0336,0350,0310,0362,0203,0335,0335,0335,0337,0203,0335,0335,0203,0335,0335,0335,0336,0203,0363,0313,0304,0335,0337,",
        "0226:0320,0336,0350,0310,0362,0203,0335,0335,0203,0335,0335,0335,0337,0203,0363,0324,0334,0334,0334,0336,0362,0203,0334,0337,0203,0334,0334,0334,0336,0203,0334,0337,0203,0363,0335,0336,0331,0320,0335,0335,0335,0337,0362,0203,0335,0335,0335,0336,0203,0335,0335,0203,0363,0331,0335,0335,0313,0337,0304,",
        "0227:0220,0336,0332,0336,0336,0332,0332,0331,0337,0337,0226,0226,0226,0330,0330,0332,0332,0332,0226,0226,0226,0331,0332,0332,0332,0335,0336,0332,0336,0333,0337,0337,0225,0336,0336,0330,0337,0337,0330,0225,0330,0336,0336,0330,0337,0337,0225,0334,0331,0332,0337,",
        "0230:0321,0223,0335,0335,0223,0335,0336,0336,0331,0336,0330,0337,0342,0335,0336,0332,0337,0337,0336,0331,0337,0220,0335,0335,0336,0225,0331,0331,0336,0331,0337,0225,0333,0333,0333,",
        "0231:0220,0336,0336,0336,0330,0332,0332,0330,0337,0337,0333,0337,0200,0336,0330,0335,0224,0335,0333,0330,0224,0335,0335,0336,0333,0331,0337,0337,",
        "0232:0321,0336,0336,0330,0331,0337,0362,0203,0336,0203,0364,0331,0331,0331,0330,0330,0366,0331,0331,0335,0335,0331,0331,0331,0333,0367,0335,0335,0333,0331,0366,0330,0335,0335,0332,0367,0335,0335,0331,0331,0332,0366,0330,0330,0333,0336,0333,0335,0335,0337,0367,0335,0335,0331,0331,0332,0332,0336,0333,0337,0366,0330,0330,0332,0336,0332,0335,0335,0337,0367,0335,0335,0333,0331,0331,0336,0333,0337,0331,0366,0335,0335,0331,0331,0332,0336,0332,0337,0367,0335,0335,0331,0331,0332,0332,0336,0333,0337,0366,0330,0330,0332,0332,0336,0333,0335,0335,0337,0367,0335,0335,0333,0333,0336,0332,0337,0331,0336,0337,0331,0337,0320,0337,",
        "0233:0321,0304,0313,0332,0362,0203,0335,0203,0203,0335,0203,0335,0203,0203,0354,0335,0333,0336,0330,0210,0341,0336,0341,0337,0211,0332,0336,0330,0332,0336,0341,0337,0333,0333,0333,0330,0332,0332,0350,0335,0310,0337,0362,0203,0335,0336,0203,0203,0335,0337,0203,0364,0334,0334,0334,0336,0313,0304,0337,0332,0331,0331,0337,0320,",
        "0234:0320,0336,0331,0336,0330,0330,0304,0350,0334,0304,0313,0337,0350,0334,0310,0336,0362,0203,0335,0335,0335,0336,0203,0335,0335,0203,0363,0334,0334,0334,0337,0362,0203,0335,0335,0335,0336,0203,0335,0335,0203,0363,0334,0334,0334,0337,0362,0203,0335,0335,0335,0336,0203,0335,0335,0203,0363,0334,0334,0362,0203,0334,0334,0203,0334,0334,0334,0337,0203,0363,0330,0335,0335,0336,0333,0335,0335,0335,0335,0337,0313,0304,0305,0311,0335,0337,0362,0203,0334,0334,0350,0350,0334,0203,0363,0331,0335,0342,0334,0334,0330,0335,0335,0335,0335,0335,0335,0336,0313,0304,0334,0305,0311,0334,0337,0201,0335,0335,0362,0203,0335,0350,0335,0336,0304,0313,0350,0334,0310,0336,0203,0363,0334,0334,0362,0203,0334,0334,0334,0310,0337,0311,0305,0335,0337,0203,0363,0334,0334,0342,0350,0334,0330,0335,0335,0335,0336,0310,0304,0350,0336,0334,0330,0334,0334,0362,0203,0334,0334,0334,0337,0311,0305,0335,0337,0203,0363,0334,0334,0342,0350,0330,0334,0334,0334,0336,0310,0304,0350,0336,0333,0337,0337,0304,0313,0337,",
        "0235:0210,0334,0321,0223,0335,0335,0223,0335,0336,0336,0331,0336,0330,0337,0342,0335,0336,0332,0337,0337,0336,0331,0337,0335,0336,0335,0336,0332,0224,0334,0333,0331,0333,0333,0333,0337,0200,0337,0332,0336,0331,0337,0211,0336,0336,0336,0333,0337,0337,0337,0220,",
        "0236:0335,0331,0337,0321,0305,0362,0203,0335,0335,0203,0335,0335,0203,0335,0335,0203,0335,0335,0203,0354,0335,0350,0335,0311,0336,0362,0203,0335,0335,0203,0335,0335,0203,0335,0335,0203,0335,0335,0203,0354,0335,0335,0335,0337,0313,0336,0330,0304,0334,0320,",
        "0237:0321,0200,0336,0330,0336,0330,0334,0362,0203,0203,0203,0334,0203,0203,0203,0364,0335,0335,0330,0335,0362,0203,0203,0334,0203,0203,0364,0331,0332,0200,0333,0333,0331,0331,0337,0337,",
        "0240:0331,0321,0334,0336,0362,0203,0335,0337,0203,0203,0334,0336,0203,0335,0350,0310,0335,0337,0203,0203,0335,0335,0203,0203,0335,0335,0335,0336,0203,0313,0304,0334,0203,0203,0203,0203,0335,0203,0354,0335,0337,0330,0320,",
        "0241:0220,0336,0330,0337,0235,",
        "0242:0220,0336,0333,0336,0333,0331,0332,0337,0337,0211,0211,0211,0236,0210,0210,0210,0336,0332,0336,0330,0337,0337,",
        "0243:0220,0330,0336,0333,0331,0336,0331,0333,0337,0336,0330,0332,0337,0234,0336,0336,0332,0337,0337,0336,0333,0331,0337,0336,0332,0330,0337,0332,0332,0332,0333,0336,0331,0333,0337,0237,0335,0336,0332,0336,0330,0337,0224,0334,0331,0331,0333,0336,0337,0337,0337,0320,",
        "0244:0243,0243,0243,0243,",
        "0245:0330,0322,0335,0336,0362,0203,0335,0337,0350,0350,0350,0350,0335,0203,0335,0335,0335,0335,0335,0335,0335,0335,0335,0335,0335,0335,0335,0335,0335,0336,0203,0364,0331,0335,0335,0335,0335,0335,0335,0335,0335,0335,0335,0335,0335,0335,0335,0335,0335,0335,0337,0330,0334,0304,0335,0336,0331,0335,0335,0362,0203,0334,0337,0350,0350,0350,0350,0334,0203,0334,0334,0334,0334,0334,0334,0334,0334,0334,0334,0334,0334,0334,0334,0334,0336,0203,0364,0331,0334,0334,0334,0334,0334,0334,0334,0334,0334,0334,0334,0334,0334,0337,0334,0334,0334,0334,0330,0335,0304,0336,0333,0336,0332,0336,0333,0337,0362,0203,0335,0203,0335,0203,0364,0335,0335,0331,0337,0331,0332,0336,0336,0333,0337,0337,0350,0350,0350,0350,0334,0342,0335,0304,0333,0350,0350,0350,0350,0335,0342,0334,0304,0336,0332,0337,0342,0330,0331,0337,0332,0336,0337,041,0365,0333,0333,0336,0332,0337,041,0336,0336,0336,0333,0337,0337,0337,0365,0332,0336,0333,0336,0332,0336,0333,0337,0337,0337,0337,0210,0210,0210,0210,0210,0220,0211,0211,0211,0211,0336,",
        "0246:0211,0211,0211,0336,0336,0224,0321,0334,0330,0336,0333,0331,0336,0330,0337,0337,0362,0203,0335,0203,0203,0203,0335,0203,0336,0203,0337,0203,0203,0335,0203,0203,0203,0335,0203,0364,0333,0335,0331,0331,0336,0332,0330,0336,0332,0337,0330,0337,0337,0337,0210,0210,0210,0220,",
        "0247:0211,0321,0334,0336,0362,0203,0336,0334,0203,0203,0203,0203,0334,0203,0203,0203,0334,0203,0203,0203,0350,0334,0310,0337,0203,0354,0335,0336,0331,0320,0362,0203,0335,0335,0335,0337,0203,0335,0335,0335,0336,0203,0363,0335,0335,0330,0313,0304,0336,0332,0336,0330,0337,0337,0337,0337,0331,0210,0220,",
        "0250:0341,",
        "01220:0333,0200,0336,0332,0336,0336,0330,0330,0330,0337,0337,0210,0210,0210,0220,0211,0211,0211,0333,0336,0331,0336,0331,0337,0337,0337,0320,",
        "01221:0333,0200,0336,0330,0332,0336,0331,0337,0221,0333,0336,0331,0337,0337,0320,",
        "01222:0333,0200,0336,0332,0330,0222,0333,0331,0337,0320,",
        "01223:0333,0200,0336,0332,0336,0330,0337,0337,0210,0210,0223,0211,0211,0336,0336,0331,0337,0333,0337,",
        "01224:0333,0200,0336,0332,0330,0336,0331,0337,0224,0333,0336,0331,0337,0337,",
        "01225:0333,0200,0336,0332,0330,0225,0333,0331,0337,",
        "01226:0333,0200,0336,0330,0332,0332,0226,0226,0331,0337,",
        "01227:0333,0200,0336,0336,0330,0337,0332,0210,0227,0211,0331,0333,0337,0336,0336,0330,0337,0337,",
        "01230:0333,0200,0336,0330,0332,0336,0331,0337,0210,0210,0230,0211,0211,0331,0304,0333,0337,0336,0336,0330,0337,0337,",
        "01231:0333,0200,0332,0336,0330,0336,0331,0337,0333,0210,0210,0231,0211,0211,0333,0331,0336,0330,0337,0337,0320,",
        "01232:0333,0200,0336,0332,0330,0332,0333,0336,0331,0337,0210,0232,0211,0333,0336,0331,0337,0337,",
        "01233:0333,0200,0336,0332,0337,0336,0332,0336,0336,0333,0330,0337,0337,0210,0210,0233,0211,0211,0313,0336,0336,0332,0332,0333,0331,0337,0337,0337,0333,",
        "01234:0333,0200,0336,0234,0337,",
        "01235:0333,0200,0336,0332,0336,0330,0332,0235,0333,0333,0333,0336,0336,0331,0331,0331,0331,0337,0337,0337,0337,",
        "01236:0333,0200,0336,0330,0330,0332,0336,0331,0337,0236,0333,0331,0331,0336,0330,0337,0337,",
        "01237:0333,0200,0336,0330,0332,0237,0333,0331,0337,",
        "01240:0333,0200,0336,0336,0332,0332,0240,0333,0333,0337,0337,",
        "01241:0333,0200,0336,0332,0241,0333,0337,",
        "01242:0333,0200,0336,0332,0332,0336,0330,0330,0242,0336,0331,0331,0331,0331,0332,0337,0337,0337,",
        "01243:0333,0200,0336,0332,0332,0243,0337,",
        "01244:0333,0200,0332,0336,0330,0336,0336,0243,0243,0243,0243,0331,0331,0331,0331,0337,0337,0337,",
        "01245:0333,0200,0336,0332,0336,0331,0337,0245,0333,0336,0330,0337,0337,",
        "01246:0333,0200,0330,0332,0336,0331,0336,0332,0337,0246,0333,0333,0336,0333,0331,0331,0337,0337,",
        "01247:0333,0200,0336,0330,0332,0337,0247,0336,0333,0331,0337,"
    ]
}
</json>
-->
	<path d="M25 175 L25 75 M25 75           A50 50 0 0 1 75 25L125 25 L175 25 M175 25           A50 50 0 0 1 225 75L225 125 L225 175 M225 175           A50 50 0 0 1 175 225L125 225 L75 225 M74.99999999999999 225           A50 50 0 0 1 24.999999999999986 175" stroke="black" stroke-width="8" fill="none"/>	<path d="M75 96 L55 96 L65 86 L75 96 Z" stroke="black" stroke-width="3" fill="black"/>	<path d="M75 96 L75 76 L85 86 L75 96 Z" stroke="black" stroke-width="3" fill="black"/>	<path d="M75 96 L95 96 L85 106 L75 96 Z" stroke="black" stroke-width="3" fill="black"/>	<path d="M75 96 L65 106 L75 117 L75 96 Z" stroke="black" stroke-width="3" fill="black"/>	<path d="M85 86 L75 55 L75 88 Z" stroke="black" stroke-width="3" fill="black"/>    <line x1="75" y1="55" x2="65" y2="86" style="stroke:black;stroke-width:3"/>
    <line x1="85" y1="86" x2="116" y2="96" style="stroke:black;stroke-width:3"/>
	<path d="M116 96 L85 106 L75 96 Z" stroke="black" stroke-width="3" fill="black"/>	<path d="M75 96 L65 106 L75 138 Z" stroke="black" stroke-width="3" fill="black"/>    <line x1="75" y1="138" x2="85" y2="106" style="stroke:black;stroke-width:3"/>
	<path d="M75 96 L65 86 L34 96 Z" stroke="black" stroke-width="3" fill="black"/>    <line x1="34" y1="96" x2="65" y2="106" style="stroke:black;stroke-width:3"/>
	<path d="M189 68 L179 68 L184 63 L189 68 Z" stroke="black" stroke-width="3" fill="black"/>	<path d="M189 68 L189 58 L194 63 L189 68 Z" stroke="black" stroke-width="3" fill="black"/>	<path d="M189 68 L199 68 L194 73 L189 68 Z" stroke="black" stroke-width="3" fill="black"/>	<path d="M189 68 L184 73 L189 78 L189 68 Z" stroke="black" stroke-width="3" fill="black"/>	<path d="M194 63 L189 47 L189 63 Z" stroke="black" stroke-width="3" fill="black"/>    <line x1="189" y1="47" x2="184" y2="63" style="stroke:black;stroke-width:3"/>
    <line x1="194" y1="63" x2="210" y2="68" style="stroke:black;stroke-width:3"/>
	<path d="M210 68 L194 73 L189 68 Z" stroke="black" stroke-width="3" fill="black"/>	<path d="M189 68 L184 73 L189 88 Z" stroke="black" stroke-width="3" fill="black"/>    <line x1="189" y1="88" x2="194" y2="73" style="stroke:black;stroke-width:3"/>
	<path d="M189 68 L184 63 L169 68 Z" stroke="black" stroke-width="3" fill="black"/>    <line x1="169" y1="68" x2="184" y2="73" style="stroke:black;stroke-width:3"/>
	<path d="M189 125 L179 125 L184 120 L189 125 Z" stroke="black" stroke-width="3" fill="black"/>	<path d="M189 125 L189 115 L194 120 L189 125 Z" stroke="black" stroke-width="3" fill="black"/>	<path d="M189 125 L199 125 L194 130 L189 125 Z" stroke="black" stroke-width="3" fill="black"/>	<path d="M189 125 L184 130 L189 135 L189 125 Z" stroke="black" stroke-width="3" fill="black"/>	<path d="M194 120 L189 104 L189 121 Z" stroke="black" stroke-width="3" fill="black"/>    <line x1="189" y1="104" x2="184" y2="120" style="stroke:black;stroke-width:3"/>
    <line x1="194" y1="120" x2="210" y2="125" style="stroke:black;stroke-width:3"/>
	<path d="M210 125 L194 130 L189 125 Z" stroke="black" stroke-width="3" fill="black"/>	<path d="M189 125 L184 130 L189 146 Z" stroke="black" stroke-width="3" fill="black"/>    <line x1="189" y1="146" x2="194" y2="130" style="stroke:black;stroke-width:3"/>
	<path d="M189 125 L184 120 L169 125 Z" stroke="black" stroke-width="3" fill="black"/>    <line x1="169" y1="125" x2="184" y2="130" style="stroke:black;stroke-width:3"/>
	<path d="M189 182 L179 182 L184 177 L189 182 Z" stroke="black" stroke-width="3" fill="black"/>	<path d="M189 182 L189 172 L194 177 L189 182 Z" stroke="black" stroke-width="3" fill="black"/>	<path d="M189 182 L199 182 L194 187 L189 182 Z" stroke="black" stroke-width="3" fill="black"/>	<path d="M189 182 L184 187 L189 192 L189 182 Z" stroke="black" stroke-width="3" fill="black"/>	<path d="M194 177 L189 162 L189 178 Z" stroke="black" stroke-width="3" fill="black"/>    <line x1="189" y1="162" x2="184" y2="177" style="stroke:black;stroke-width:3"/>
    <line x1="194" y1="177" x2="210" y2="182" style="stroke:black;stroke-width:3"/>
	<path d="M210 182 L194 187 L189 182 Z" stroke="black" stroke-width="3" fill="black"/>	<path d="M189 182 L184 187 L189 203 Z" stroke="black" stroke-width="3" fill="black"/>    <line x1="189" y1="203" x2="194" y2="187" style="stroke:black;stroke-width:3"/>
	<path d="M189 182 L184 177 L169 182 Z" stroke="black" stroke-width="3" fill="black"/>    <line x1="169" y1="182" x2="184" y2="187" style="stroke:black;stroke-width:3"/>
	<path d="M118 68 L118 61 L125 61 L132 61 L132 53 L139 61 L146 68 L139 75 L132 82 L132 75 L125 75 L118 75 L118 68 Z" stroke="black" stroke-width="3" fill="black"/></svg>