<svg width="50" height="790" viewbox="0 0 50 790" xmlns="http://www.w3.org/2000/svg">

<!--
<json>
{
    "svgwidth": 50,
    "svgheight": 790,
    "unit": 100,
    "x0": 709,
    "y0": 395,
    "x0rel": 25,
    "y0rel": -4,
    "glyph": "0331,0331,0331,0331,0331,0331,0331,0331,0331,0334,0226,0226,0226,0226,0226,0226,0226,0226,0226,0226,0226,0226,0226,0226,",
    "table": [
        "0220:0321,0332,0362,0203,0336,0333,0350,0334,0345,0335,0330,0335,0335,0203,0203,0334,0334,0331,0335,0345,0335,0330,0335,0335,0203,0203,0335,0333,0334,0334,0345,0335,0330,0335,0335,0203,0203,0335,0333,0334,0334,0345,0333,0364,0335,0337,0331,0304,0335,",
        "0221:0321,0336,0333,0337,0200,0336,0330,0332,0200,0336,0200,0331,0331,0337,0337,",
        "0222:0336,0336,0336,0347,0321,0337,0330,0306,0350,0334,0366,0335,0337,0330,0336,0330,0334,0334,0334,0334,0334,0334,0334,0367,0335,0330,0330,0330,0330,0334,0334,0334,0334,0330,0334,0366,0335,0330,0330,0330,0335,0335,0335,0335,0335,0367,0335,0330,0330,0330,0330,0334,0334,0334,0334,0330,0334,0366,0335,0330,0330,0330,0335,0335,0335,0335,0335,0367,0335,0330,0330,0330,0330,0334,0334,0334,0334,0330,0334,0366,0335,0330,0330,0330,0334,0334,0334,0334,0334,0334,0334,0367,0335,0330,0330,0330,0330,0334,0334,0334,0334,0330,0334,0366,0335,0330,0330,0330,0334,0334,0334,0334,0334,0334,0334,0367,0335,0330,0330,0330,0330,0334,0334,0334,0334,0330,0334,0366,0335,0330,0330,0330,0334,0335,0335,0335,0335,0335,0335,0367,0335,0330,0330,0330,0330,0334,0334,0334,0334,0304,0337,0337,",
        "0223:0336,0333,0334,0337,0321,0306,0362,0203,0335,0335,0203,0335,0335,0203,0354,0335,0335,0320,0336,0330,0335,0335,0362,0203,0334,0334,0203,0334,0334,0203,0354,0335,0335,0304,0335,0337,",
        "0224:0334,0336,0336,0362,0203,0335,0203,0203,0334,0203,0335,0350,0335,0310,0337,0203,0203,0335,0335,0203,0203,0335,0335,0335,0336,0203,0334,0334,0203,0203,0335,0335,0203,0363,0304,0335,0313,0337,0337,",
        "0225:0334,0336,0350,0310,0362,0203,0335,0335,0335,0337,0203,0335,0335,0203,0335,0335,0335,0336,0203,0363,0313,0304,0335,0337,",
        "0226:0320,0336,0350,0310,0362,0203,0335,0335,0203,0335,0335,0335,0337,0203,0363,0324,0334,0334,0334,0336,0362,0203,0334,0337,0203,0334,0334,0334,0336,0203,0334,0337,0203,0363,0335,0336,0331,0320,0335,0335,0335,0337,0362,0203,0335,0335,0335,0336,0203,0335,0335,0203,0363,0331,0335,0335,0313,0337,0304,",
        "0227:0220,0336,0332,0336,0336,0332,0332,0331,0337,0337,0226,0226,0226,0330,0330,0332,0332,0332,0226,0226,0226,0331,0332,0332,0332,0335,0336,0332,0336,0333,0337,0337,0225,0336,0336,0330,0337,0337,0330,0225,0330,0336,0336,0330,0337,0337,0225,0334,0331,0332,0337,",
        "0230:0220,0211,0211,0211,0223,0210,0210,0210,",
        "0231:0220,0336,0336,0336,0330,0332,0332,0330,0337,0337,0333,0337,0200,0336,0330,0335,0224,0335,0333,0330,0224,0335,0335,0336,0333,0331,0337,0337,",
        "0232:0321,0336,0336,0330,0331,0337,0362,0203,0336,0203,0364,0331,0331,0331,0330,0330,0366,0331,0331,0335,0335,0331,0331,0331,0333,0367,0335,0335,0333,0331,0366,0330,0335,0335,0332,0367,0335,0335,0331,0331,0332,0366,0330,0330,0333,0336,0333,0335,0335,0337,0367,0335,0335,0331,0331,0332,0332,0336,0333,0337,0366,0330,0330,0332,0336,0332,0335,0335,0337,0367,0335,0335,0333,0331,0331,0336,0333,0337,0331,0366,0335,0335,0331,0331,0332,0336,0332,0337,0367,0335,0335,0331,0331,0332,0332,0336,0333,0337,0366,0330,0330,0332,0332,0336,0333,0335,0335,0337,0367,0335,0335,0333,0333,0336,0332,0337,0331,0336,0337,0331,0337,0320,0337,",
        "0233:0321,0304,0313,0332,0362,0203,0335,0203,0203,0335,0203,0335,0203,0203,0354,0335,0333,0336,0330,0210,0341,0336,0341,0337,0211,0332,0336,0330,0332,0336,0341,0337,0333,0333,0333,0330,0332,0332,0350,0335,0310,0337,0362,0203,0335,0336,0203,0203,0335,0337,0203,0364,0334,0334,0334,0336,0313,0304,0337,0332,0331,0331,0337,0320,",
        "0234:0320,0336,0331,0336,0330,0330,0304,0350,0334,0304,0313,0337,0350,0334,0310,0336,0362,0203,0335,0335,0335,0336,0203,0335,0335,0203,0363,0334,0334,0334,0337,0362,0203,0335,0335,0335,0336,0203,0335,0335,0203,0363,0334,0334,0334,0337,0362,0203,0335,0335,0335,0336,0203,0335,0335,0203,0363,0334,0334,0362,0203,0334,0334,0203,0334,0334,0334,0337,0203,0363,0330,0335,0335,0336,0333,0335,0335,0335,0335,0337,0313,0304,0305,0311,0335,0337,0362,0203,0334,0334,0350,0350,0334,0203,0363,0331,0335,0342,0334,0334,0330,0335,0335,0335,0335,0335,0335,0336,0313,0304,0334,0305,0311,0334,0337,0201,0335,0335,0362,0203,0335,0350,0335,0336,0304,0313,0350,0334,0310,0336,0203,0363,0334,0334,0362,0203,0334,0334,0334,0310,0337,0311,0305,0335,0337,0203,0363,0334,0334,0342,0350,0334,0330,0335,0335,0335,0336,0310,0304,0350,0336,0334,0330,0334,0334,0362,0203,0334,0334,0334,0337,0311,0305,0335,0337,0203,0363,0334,0334,0342,0350,0330,0334,0334,0334,0336,0310,0304,0350,0336,0333,0337,0337,0304,0313,0337,",
        "0235:0336,0336,0331,0333,0337,0321,0200,0336,0336,0331,0337,0362,0203,0203,0203,0364,0335,0335,0332,0362,0203,0203,0203,0364,0335,0335,0332,0332,0332,0362,0203,0203,0203,0364,0335,0335,0333,0362,0203,0203,0203,0364,0334,0336,0331,0337,0337,0342,0332,0336,0332,0337,0342,0330,0330,0336,0331,0337,0342,0333,0333,0336,0332,0337,0342,0334,0330,0336,0333,0330,0342,0335,0335,0330,0330,0330,0342,0333,0333,0333,0342,0331,0331,0331,0335,0335,0342,0333,0331,0331,0336,0330,0333,0337,0337,0337,0320,",
        "0236:0321,0336,0336,0362,0203,0203,0203,0334,0203,0203,0334,0203,0203,0203,0334,0203,0203,0354,0334,0330,0330,0330,0332,0336,0333,0337,0336,0362,0203,0334,0203,0203,0203,0203,0334,0203,0203,0203,0203,0203,0203,0334,0203,0364,0335,0335,0330,0333,0362,0203,0335,0203,0203,0203,0203,0203,0203,0335,0203,0203,0203,0203,0335,0203,0364,0335,0335,0333,0333,0331,0337,0337,0331,0336,0331,0337,0337,0320,",
        "0237:0321,0200,0336,0330,0336,0330,0334,0362,0203,0203,0203,0334,0203,0203,0203,0364,0335,0335,0330,0335,0362,0203,0203,0334,0203,0203,0364,0331,0332,0200,0333,0333,0331,0331,0337,0337,",
        "0240:0331,0321,0334,0336,0362,0203,0335,0337,0203,0203,0334,0336,0203,0335,0350,0310,0335,0337,0203,0203,0335,0335,0203,0203,0335,0335,0335,0336,0203,0313,0304,0334,0203,0203,0203,0203,0335,0203,0354,0335,0337,0330,0320,",
        "0241:0220,0336,0330,0337,0235,",
        "0242:0220,0336,0333,0336,0333,0331,0332,0337,0337,0211,0211,0211,0236,0210,0210,0210,0336,0332,0336,0330,0337,0337,",
        "0243:0220,0330,0336,0333,0331,0336,0331,0333,0337,0336,0330,0332,0337,0234,0336,0336,0332,0337,0337,0336,0333,0331,0337,0336,0332,0330,0337,0332,0332,0332,0333,0336,0331,0333,0337,0237,0335,0336,0332,0336,0330,0337,0224,0334,0331,0331,0333,0336,0337,0337,0337,0320,",
        "0244:0341,",
        "0245:0341,",
        "0246:0341,",
        "0247:0341,",
        "0250:0341,",
        "01220:0333,0200,0336,0332,0336,0336,0330,0330,0330,0337,0337,0210,0210,0210,0220,0211,0211,0211,0333,0336,0331,0336,0331,0337,0337,0337,0320,",
        "01221:0333,0200,0336,0330,0332,0336,0331,0337,0221,0333,0336,0331,0337,0337,0320,",
        "01222:0333,0200,0336,0332,0330,0222,0333,0331,0337,0320,",
        "01223:0333,0200,0336,0332,0336,0330,0337,0337,0210,0210,0223,0211,0211,0336,0336,0331,0337,0333,0337,",
        "01224:0333,0200,0336,0332,0330,0336,0331,0337,0224,0333,0336,0331,0337,0337,",
        "01225:0333,0200,0336,0332,0330,0225,0333,0331,0337,",
        "01226:0333,0200,0336,0330,0332,0332,0226,0226,0331,0337,",
        "01227:0333,0200,0336,0336,0330,0337,0332,0210,0227,0211,0331,0333,0337,0336,0336,0330,0337,0337,",
        "01230:0333,0200,0336,0330,0332,0336,0331,0337,0210,0210,0230,0211,0211,0331,0304,0333,0337,0336,0336,0330,0337,0337,",
        "01231:0333,0200,0332,0336,0330,0336,0331,0337,0333,0210,0210,0231,0211,0211,0333,0331,0336,0330,0337,0337,0320,",
        "01232:0333,0200,0336,0332,0330,0332,0333,0336,0331,0337,0210,0232,0211,0333,0336,0331,0337,0337,",
        "01233:0333,0200,0336,0332,0337,0336,0332,0336,0336,0333,0330,0337,0337,0210,0210,0233,0211,0211,0313,0336,0336,0332,0332,0333,0331,0337,0337,0337,0333,",
        "01234:0333,0200,0336,0234,0337,",
        "01235:0333,0200,0336,0332,0336,0330,0332,0235,0333,0333,0333,0336,0336,0331,0331,0331,0331,0337,0337,0337,0337,",
        "01236:0333,0200,0336,0330,0330,0332,0336,0331,0337,0236,0333,0331,0331,0336,0330,0337,0337,",
        "01237:0333,0200,0336,0330,0332,0237,0333,0331,0337,",
        "01240:0333,0200,0336,0336,0332,0332,0240,0333,0333,0337,0337,",
        "01241:0333,0200,0336,0332,0241,0333,0337,",
        "01242:0333,0200,0336,0332,0332,0336,0330,0330,0242,0336,0331,0331,0331,0331,0332,0337,0337,0337,",
        "01243:0333,0200,0336,0332,0332,0243,0337,",
        "01244:0333,0200,0332,0336,0330,0336,0336,0243,0243,0243,0243,0331,0331,0331,0331,0337,0337,0337,",
        "01245:0333,0200,0336,0332,0336,0331,0337,0245,0333,0336,0330,0337,0337,",
        "01246:0333,0200,0330,0332,0336,0331,0336,0332,0337,0246,0333,0333,0336,0333,0331,0331,0337,0337,",
        "01247:0333,0200,0336,0330,0332,0337,0247,0336,0333,0331,0337,"
    ]
}
</json>
-->
	<path d="M50 1291 L0 1291 L0 1241 L50 1291 Z" stroke="black" stroke-width="1" fill="black"/>	<path d="M50 1291 L50 1241 L0 1191 L0 1241 L50 1291 Z" stroke="yellow" stroke-width="1" fill="yellow"/>	<path d="M50 1241 L0 1191 L50 1191 L50 1241 Z" stroke="black" stroke-width="1" fill="black"/>	<path d="M50 1191 L0 1191 L0 1141 L50 1191 Z" stroke="black" stroke-width="1" fill="black"/>	<path d="M50 1191 L50 1141 L0 1091 L0 1141 L50 1191 Z" stroke="yellow" stroke-width="1" fill="yellow"/>	<path d="M50 1141 L0 1091 L50 1091 L50 1141 Z" stroke="black" stroke-width="1" fill="black"/>	<path d="M50 1091 L0 1091 L0 1041 L50 1091 Z" stroke="black" stroke-width="1" fill="black"/>	<path d="M50 1091 L50 1041 L0 991 L0 1041 L50 1091 Z" stroke="yellow" stroke-width="1" fill="yellow"/>	<path d="M50 1041 L0 991 L50 991 L50 1041 Z" stroke="black" stroke-width="1" fill="black"/>	<path d="M50 991 L0 991 L0 941 L50 991 Z" stroke="black" stroke-width="1" fill="black"/>	<path d="M50 991 L50 941 L0 891 L0 941 L50 991 Z" stroke="yellow" stroke-width="1" fill="yellow"/>	<path d="M50 941 L0 891 L50 891 L50 941 Z" stroke="black" stroke-width="1" fill="black"/>	<path d="M50 891 L0 891 L0 841 L50 891 Z" stroke="black" stroke-width="1" fill="black"/>	<path d="M50 891 L50 841 L0 791 L0 841 L50 891 Z" stroke="yellow" stroke-width="1" fill="yellow"/>	<path d="M50 841 L0 791 L50 791 L50 841 Z" stroke="black" stroke-width="1" fill="black"/>	<path d="M50 791 L0 791 L0 741 L50 791 Z" stroke="black" stroke-width="1" fill="black"/>	<path d="M50 791 L50 741 L0 691 L0 741 L50 791 Z" stroke="yellow" stroke-width="1" fill="yellow"/>	<path d="M50 741 L0 691 L50 691 L50 741 Z" stroke="black" stroke-width="1" fill="black"/>	<path d="M50 691 L0 691 L0 641 L50 691 Z" stroke="black" stroke-width="1" fill="black"/>	<path d="M50 691 L50 641 L0 591 L0 641 L50 691 Z" stroke="yellow" stroke-width="1" fill="yellow"/>	<path d="M50 641 L0 591 L50 591 L50 641 Z" stroke="black" stroke-width="1" fill="black"/>	<path d="M50 591 L0 591 L0 541 L50 591 Z" stroke="black" stroke-width="1" fill="black"/>	<path d="M50 591 L50 541 L0 491 L0 541 L50 591 Z" stroke="yellow" stroke-width="1" fill="yellow"/>	<path d="M50 541 L0 491 L50 491 L50 541 Z" stroke="black" stroke-width="1" fill="black"/>	<path d="M50 491 L0 491 L0 441 L50 491 Z" stroke="black" stroke-width="1" fill="black"/>	<path d="M50 491 L50 441 L0 391 L0 441 L50 491 Z" stroke="yellow" stroke-width="1" fill="yellow"/>	<path d="M50 441 L0 391 L50 391 L50 441 Z" stroke="black" stroke-width="1" fill="black"/>	<path d="M50 391 L0 391 L0 341 L50 391 Z" stroke="black" stroke-width="1" fill="black"/>	<path d="M50 391 L50 341 L0 291 L0 341 L50 391 Z" stroke="yellow" stroke-width="1" fill="yellow"/>	<path d="M50 341 L0 291 L50 291 L50 341 Z" stroke="black" stroke-width="1" fill="black"/>	<path d="M50 291 L0 291 L0 241 L50 291 Z" stroke="black" stroke-width="1" fill="black"/>	<path d="M50 291 L50 241 L0 191 L0 241 L50 291 Z" stroke="yellow" stroke-width="1" fill="yellow"/>	<path d="M50 241 L0 191 L50 191 L50 241 Z" stroke="black" stroke-width="1" fill="black"/>	<path d="M50 191 L0 191 L0 141 L50 191 Z" stroke="black" stroke-width="1" fill="black"/>	<path d="M50 191 L50 141 L0 91 L0 141 L50 191 Z" stroke="yellow" stroke-width="1" fill="yellow"/>	<path d="M50 141 L0 91 L50 91 L50 141 Z" stroke="black" stroke-width="1" fill="black"/>	<path d="M50 91 L0 91 L0 41 L50 91 Z" stroke="black" stroke-width="1" fill="black"/>	<path d="M50 91 L50 41 L0 -9 L0 41 L50 91 Z" stroke="yellow" stroke-width="1" fill="yellow"/>	<path d="M50 41 L0 -9 L50 -9 L50 41 Z" stroke="black" stroke-width="1" fill="black"/>	<path d="M50 -9 L0 -9 L0 -59 L50 -9 Z" stroke="black" stroke-width="1" fill="black"/>	<path d="M50 -9 L50 -59 L0 -109 L0 -59 L50 -9 Z" stroke="yellow" stroke-width="1" fill="yellow"/>	<path d="M50 -59 L0 -109 L50 -109 L50 -59 Z" stroke="black" stroke-width="1" fill="black"/></svg>