<svg width="500" height="500" viewbox = "0 0 500 500"  xmlns="http://www.w3.org/2000/svg">

<!--
<topfunctions>



function YofX(){
    X = currentjson.plotparams.g*(x - currentjson.plotparams.x0);

    Y = Math.exp(-X/100)*(Math.sin(X));

    y = currentjson.plotparams.y0 - currentjson.plotparams.G*(Y);
}


function XYofT(){
    T = currentjson.plotparams.g*t;
    X = Math.exp(-T/A)*Math.cos(2*Math.PI*T);
    Y = Math.exp(-T/A)*Math.sin(2*Math.PI*T);
    y = currentjson.plotparams.y0 - currentjson.plotparams.G*(Y);
    x = currentjson.plotparams.x0 - currentjson.plotparams.G*(X);    
}




function plotfunction(){
    
    /*plot one function:*/
    currentStroke = "red";
    currentLineWidth = 4;
    ctx.strokeStyle = currentStroke;
    ctx.lineWidth = currentLineWidth;
    ctx.beginPath();	
    x = 0;
    y = 0;
    t = 0;
    intx = x;
    XYofT();
    currentSVG += "	<path d = \"M";
    currentSVG += Math.round(x).toString() + " ";
    currentSVG += Math.round(y).toString() + " ";
    for(t = 1;t < currentjson.plotparams.duration;t++){
        ctx.moveTo(x,y);
        XYofT();
        ctx.lineTo(x,y);
        currentSVG += "L" + x + " " + y + " ";
    }
    ctx.stroke();
    currentSVG += "\""+ " stroke = \"" + currentStroke + "\" stroke-width = \"" + currentLineWidth.toString() + "\" fill = \"" + "none" + "\" "+"/>";
    /*finish plot one function*/
    
    

}


</topfunctions>
-->

<!--
<currentjson>
{
    "constants": {},
    "YofXstring": "Y =  (1/Math.PI)*0.5/(X*X + 0.25);",
    "style": {
        "linewidth": 4,
        "color": "blue",
        "fill": "none"
    },
    "plotparams": {
        "G": 309.90463391994285,
        "g": 0.011600242826572944,
        "duration": 450.78888054094654,
        "plotwidth": 500,
        "plotheight": 500,
        "x0": 245,
        "y0": 253
    },
    "funcparams": {},
    "image": {
        "url": "",
        "xoverw": 0.038011695906432746,
        "yoverw": -0.08771929824561403,
        "woverw": 0.8536631795472632,
        "angle": "0"
    }
}
</currentjson>
-->
	<path d = "M-65 253 L-60.5171151654759 230.69241778690784 L-54.585967013403206 209.01648108416992 L-47.17851077744575 188.07436094605634 L-38.36846914597089 167.96193599702536 L-28.235422611396302 148.76842073338534 L-16.864246839649127 130.57603821467427 L-4.3445344447895025 113.45973788827789 L9.229995361630728 97.48695903085473 L23.76209579121698 82.717440033544 L39.15159674670949 69.20307350600095 L55.296010964865104 56.98780692828777 L72.09113872906988 46.107588340728626 L89.43166793000489 36.59035633114402 L107.2117663516072 28.45607335746115 L125.32566317302853 21.716801232533783 L143.66821680434134 16.37681739800007 L162.135466313397 12.432770425975178 L180.625163852443 9.873873012062603 L199.03728565479483 8.682130561219196 L217.27451934291366 8.832603319989175 L235.2427254685248 10.293699875016642 L252.8513713917817 13.027499718932205 L270.01393579875815 16.990102480994892 L286.6482823535769 22.132001331464863 L302.6770011820793 28.398477995710635 L318.0277170869518 35.73001675655547 L332.6333635984998 44.06273478129478 L346.4324221696736 53.32882608304419 L359.3691260273911 63.45701641439945 L371.3936283936128 74.3730263945177 L382.4621349879483 86.0000401883162 L392.5370009178333 98.25917708809308 L401.5867922515396 111.06996339302086 L409.5863127525861 124.35080204009353 L416.51659643063937 138.01943751060577 L422.3648667329355 151.99341361845038 L427.1244633609 166.19052187972736 L430.7947378482904 180.52923826660356 L433.3809191792529 194.92914626126506 L434.8939508566034 209.31134424733023 L435.35030095195407 223.59883540539613 L434.7717467795868 237.71689841559558 L433.18513593489297 251.5934374122556 L430.6221255254795 265.1593097830723 L427.1189014984781 278.34863055673276 L422.7158800310624 291.0990522777206 L417.457393002598 303.35201942422015 L411.3913596062339 315.0529965836926 L404.5689461851449 326.15166975994134 L397.044216394189 336.60212034444567 L388.87377379162893 346.36297144257895 L380.11639895804797 355.39750640119723 L370.8326832209415 363.6737595372193 L361.0846610340719 371.1645792164369 L350.9354430209216 377.8476635771751 L340.44885164192056 383.7055693338934 L329.6890613860655 388.7256942307142 L318.72024531960955 392.90023384361064 L307.60622974825594 396.22611355201025 L296.4101586653485 398.704896615385 L285.19416956752156 400.34266939753974 L274.01908212183196 401.1499048803888 L262.9441010651929 401.14130569966585 L252.026534608669 400.33562801695916 L241.3215295065597 398.75548761545724 L230.88182383391324 396.42714967064114 L220.7575183968728 393.3803037017374 L210.99586757877535 389.64782525496764 L201.64109030191514 385.2655259054668 L192.73420166102593 380.2718931912186 L184.31286566053308 374.7078221095387 L176.41126936414395 368.61633981465565 L169.06001864302422 362.0423251539491 L162.28605558830216 355.03222467062983 L156.11259753553634 347.6337666823322 L150.5590975336725 339.8956750185324 L145.6412259794447 331.86738396524396 L141.37087303066622 323.59875592342905 L137.75617130888975 315.13980323841486 L134.8015383039513 306.5404156017343 L132.50773780034984 297.85009436468187 L130.8719595586387 289.1176950349605 L129.88791640434528 280.39117915460287 L129.5459578026855 271.7173766793789 L129.83319892975456 263.1417598976945 L130.73366419016267 254.70822984108065 L132.22844407741917 246.45891604930347 L134.29586422686796 238.43399046146763 L136.91166547173924 230.6714961107641 L140.0491936809415 223.20719120530808 L143.67959813258472 216.07440908134419 L147.77203715986295 209.303934418524 L152.2938897957586 202.9238960105037 L157.21097213995313 196.95967628828421 L162.48775717519146 191.43383769902889 L168.087596770971 186.36606595002473 L173.9729446296004 181.77313003646373 L180.10557895315168 177.6688588832591 L186.4468236393435 174.0641343455903 L192.95776684964918 170.9669002306846 L199.5994758335878 168.38218692486046 L206.33320693890445 166.31215113541086 L213.1206097877983 164.7561301868057 L219.9239246541416 163.71071024521976 L226.70617213536093 163.16980778478543 L233.43133427489917 163.12476355345402 L240.06452635655262 163.56444824609434 L246.572158660035 164.47537904762453 L252.92208753744703 165.8418461696708 L259.0837552424856 167.64604847056518 L265.02831801779195 169.86823722048229 L270.72876202036923 172.48686705119502 L276.1600067400927 175.47875311329167 L281.29899564155136 178.81923345269718 L286.1247738344159 182.48233561291488 L290.61855265179935 186.44094646944853 L294.7637610893048 190.66698430825505 L298.5460841292508 195.1315721706611 L301.95348804458814 199.80521150278315 L304.976232844925 204.65795516791013 L307.6068720925525 209.65957890532798 L309.8402403791127 214.77975034845147 L311.6734288132878 219.98819474859957 L313.10574892638414 225.2548565880677 L314.1386854556807 230.5500563069872 L314.7758385147285 235.84464141255052 L315.0228557052244 241.11013128618146 L314.8873547664986 246.31885505385128 L314.37883739590967 251.444081936622 L313.50859490643563 256.4601435523482 L312.2896064163995 261.3425476949095 L310.73643029052124 266.06808317408314 L308.8650895713161 270.6149153568307 L306.69295215525244 274.96267210905864 L304.2386064790658 279.09251989547664 L301.5217334882348 282.9872298537016 L298.5629756619293 286.6312337169333 L295.3838038668264 290.0106695170381 L292.00638280615783 293.1134170564458 L288.4534358203415 295.9291231925888 L284.74810978168966 298.44921703244097 L280.9138408081558 300.6669151867768 L276.9742215000442 302.57721728383814 L272.95287037927204 304.17689198993753 L268.87330418332766 305.46445382994347 L264.7588136357573 306.4401311433847 L260.6323432820331 307.10582555192116 L256.51637594427973 307.46506335099525 L252.43282231077856 307.52293927247246 L248.40291613670726 307.2860530958927 L244.44711549144404 306.76243961348746 L240.58501044524093 305.96149247830147 L236.83523754440827 304.8938824855406 L233.21540137960636 303.5714708546071 L229.74200350668735 302.0072180931802 L226.43037893400128 300.2150890351384 L223.29464034446337 298.20995465114675 L220.34763017518193 296.00749123436077 L217.60088063235062 293.62407756401586 L215.06458167461406 291.07669064672587 L212.74755695447274 288.3828006292147 L210.65724766470143 285.56026546704805 L208.7997041954294 282.6272259218394 L207.1795854676559 279.6020014445061 L205.800165770743 276.50298748459954 L204.66334889499365 273.3485547456688 L203.76968931595502 270.15695088422353 L203.11842015471626 266.94620512529855 L202.7074876083244 263.7340362410769 L202.53359151663818 260.53776431069247 L202.59223170656387 257.37422664939197 L202.87775973176076 254.2596982638971 L203.38343560562322 251.209817158262 L204.10148910769777 248.23951478098374 L205.02318522870814 245.36295186978003 L206.1388933070599 242.59345991552365 L207.43815940008295 239.94348843149967 L208.90978142633753 237.42455817863788 L210.54188661102702 235.04722046186643 L212.32201076490014 232.82102257741528 L214.23717892792618 230.75447945596449 L216.27398691243081 228.85505151215986 L218.4186832862122 227.1291286773711 L220.6572513443241 225.58202055982522 L222.97549062862663 224.21795264454852 L225.35909756674855 223.04006841505606 L227.7937448166673 222.050437249564 L230.26515891957322 221.25006791679814 L232.7591958818931 220.63892747034942 L235.2619143271983 220.21596531608105 L237.7596458800294 219.9791422044256 L240.23906246632814 219.92546387859335 L242.68724023898446 220.0510190908276 L245.0917198618593 220.35102168193305 L247.440562911356 220.81985640442784 L249.72240418103192 221.45112815684976 L251.92649970171192 222.23771428601646 L254.04277031692533 223.17181960539693 L256.06184068107916 224.2450337712031 L257.97507357545913 225.44839065334173 L259.7745994647517 226.77242933595042 L261.4533412441696 228.2072563818504 L263.0050341542917 229.7426089968314 L264.4242408672576 231.36791873319007 L265.70636177386507 233.0723753773137 L266.8476405262634 234.84499067325166 L267.8451649152208 236.67466154308704 L268.696863184237 238.55023247540433 L269.4014959049872 240.46055676516482 L269.9586435596167 242.39455630174865 L270.36868999517276 244.3412796166855 L270.63280193388624 246.2899579185829 L270.7529047400278 248.23005885983858 L270.7316546596085 250.15133779779103 L270.57240776321606 252.0438863318893 L270.2791858347404 253.89817791813041 L269.8566394596124 255.7051103823043 L269.3100085754334 257.45604517436493 L268.6450807555041 259.1428432274047 L267.86814750175574 260.7578973061118 L266.985958827961 262.29416075112283 L266.0056764168614 263.74517254722906 L264.93482563601714 265.1050786648274 L263.78124669679744 266.36864964522783 L262.55304523901685 267.53129442131706 L261.25854262033715 268.5890703855317 L259.906226184739 269.5386897370224 L258.50469977819444 270.37752215917544 L257.0626347721856 271.1035938972437 L255.58872184700994 271.7155833236058 L254.09162377694128 272.21281309507293 L252.57992944837557 272.59523902260696 L251.06210933015237 272.863435788747 L249.5464726024003 273.0185796619046 L248.04112613659854 273.062428369429 L246.55393550516254 272.9972983029207 L245.09248818385123 272.82603923965286 L243.66405909474602 272.5520067731112 L242.27557862156726 272.17903265356273 L240.93360321276637 271.7113932462089 L239.64428867125676 271.15377631984546 L238.41336621292007 270.51124638305635 L237.24612135924178 269.78920878780576 L236.14737571267443 268.9933728218875 L235.12147164670256 268.1297140120503 L234.17225992615843 267.2044358587807 L233.30309025721616 266.2239312217163 L232.51680475073388 265.194743571519 L231.8157342673105 264.1235283198077 L231.20169759763982 263.01701443347844 L230.6760034175506 261.8819665334741 L230.23945494357733 260.7251476708758 L229.89235720207367 259.5532829651128 L229.63452681280992 258.37302428021684 L229.4653041767348 257.1909161054207 L229.38356794717308 256.0133627961079 L229.3877516542096 254.84659732021976 L229.47586234341063 253.6966516437979 L229.64550108237472 252.56932887745137 L229.89388518191504 251.47017729326902 L230.21787197295887 250.40446630911714 L230.61398397552256 249.37716452445483 L231.07843529238113 248.39291987882496 L231.6071590572989 247.45604199112577 L232.19583576591407 246.57048672469776 L232.839922316562 245.7398430102484 L233.53468158846212 244.96732194575276 L234.2752123857598 244.2557481797728 L235.05647957787735 243.60755357220367 L235.87334426946185 243.02477311433407 L236.72059383687997 242.50904307836456 L237.5929716726685 242.0616013552143 L238.48520648455778 241.6832899286123 L239.39204100159924 241.37455942316691 L240.3082599465029 241.1354756543717 L241.22871714046929 240.96572809938627 L242.14836161453633 240.864640198953 L243.06226260969748 240.83118139301232 L243.96563335672894 240.86398078548262 L244.8538535357307 240.9613423273007 L245.72249032478703 241.12126140119085 L246.5673179568207 241.34144268675905 L247.384335713602 241.61931918040307 L248.1697842959121 241.95207224119147 L248.92016051899907 242.336652531299 L249.63223029264498 242.7698017177842 L250.30303985532632 243.24807480145344 L250.92992524204746 243.7678629382594 L251.5105199753993 244.32541661911625 L252.04276097919984 244.91686907516234 L252.5248927236517 245.5382597773354 L252.95546962026538 246.18555790162637 L253.33335669379838 246.85468563451224 L253.65772856710726 247.54154119680624 L253.92806680306725 248.2420214684725 L254.1441556555427 248.95204410179227 L254.3060762887616 249.66756901560575 L254.41419953132998 250.38461916914514 L254.46917723748857 251.0993005201773 L254.4719323340448 251.80782107875237 L254.42364763668826 252.50650897475245 L254.32575352410083 253.19182946462266 L254.17991456239247 253.86040081008292 L253.98801517592057 254.50900896923378 L253.75214446348022 255.1346210482267 L253.47458026118224 255.7343974695279 L253.15777255506612 256.30570282072114 L252.8043263476318 256.8461153557222 L252.41698408302395 257.3534351281756 L251.99860773557478 257.82569074463026 L251.55216066582386 258.26114473280154 L251.0806893469946 258.65829752778984 L250.58730506324483 259.01589008649756 L250.07516567883542 259.33290514763416 L249.54745757470707 259.60856716158855 L249.00737784584027 259.8423409210523 L248.45811684922924 260.0339289295581 L247.90284118835368 260.18326755104056 L247.34467721571266 260.29052198909716 L246.78669513032725 260.3560801498083 L246.2318937421519 260.3805454467513 L245.6831859700958 260.3647286111881 L245.1433851348782 260.30963857431954 L244.61519210225873 260.2164724919555 L244.10118332633394 260.0866049849564 L243.60379983660883 259.9215766713349 L243.12533720646803 259.72308206798334 L242.66793653452908 259.4929569415935 L242.23357646418538 259.23316518947615 L241.82406626047987 258.9457853316682 L241.4410399573199 258.63299669593766 L241.08595158198608 258.29706537708114 L240.76007145792988 257.94033005125505 L240.46448358102862 257.5651877250095 L240.20008405880145 257.17407949721996 L239.9675805966075 256.7694764102481 L239.76749300958156 256.35386546443146 L239.60015473402834 255.92973586742633 L239.46571530721954 255.49956558701984 L239.3641437800398 255.0658082728241 L239.29523302272125 254.63088060877732 L239.25860488001237 254.19715015463956 L239.2537161285564 253.76692373070426 L239.27986518601995 253.34243639577886 L239.33619951862414 252.92584106414895 L239.42172369119515 252.51919880275076 L239.53530800167488 252.12446984517246 L239.67569764021812 251.74350535440604 L239.84152231155286 251.37803996151032 L240.0313062581934 251.029685102546 L240.24347862136952 250.6999231713364 L240.4763840761658 250.39010250081216 L240.72829367734613 250.10143318094785 L240.9974158526599 249.83498371661216 L241.2819074810846 249.59167852405562 L241.5798849944338 249.3722962602777 L241.88943544204903 249.17746897516258 L242.2086274598722 249.0076820720787 L242.535522087058 248.8632750586125 L242.86818337540964 248.74444306527607 L243.20468873928962 248.6512391064029 L243.54313899625666 248.58357705404245 L243.8816680514834 248.54123529249784 L244.21845218200477 248.52386101822825 L244.55171888000694 248.53097514717444 L244.87975521767675 248.5619777891666 L245.2009156995654 248.61615424694665 L245.5136295719591 248.6926814954882 L245.81640756237078 248.79063509572833 L246.10784802595248 248.90899649553992 L246.38664247934923 249.04666066977094 L246.65158050626064 249.20244405045725 L246.90155402271836 249.37509269787478 L247.13556089380768 249.56329066293253 L247.3527078972424 249.76566849151294 L247.5522130328223 249.98081182173496 L247.73340718034524 250.2072700257402 L247.89573511199342 250.4435648484712 L248.03875586854906 250.68819899701907 L248.16214251200492 250.93966463544666 L248.265681270202 251.1964517415378 L248.34927009204097 251.45705628366363 L248.41291663456036 251.71998817788506 L248.4567357057444 251.98377898750704 L248.48094618930432 252.24698932955343 L248.48586747986448 252.50821595502254 L248.47191545896573 252.7660984723009 L248.43959804407413 253.01932568573307 L248.38951034434155 253.26664152406087 L248.3223294582079 253.50685053623144 L248.23880894905724 253.7388229349181 L248.1397730360426 253.96149917098316 L248.0261105378754 254.17389402502036 L247.89876860783892 254.37510020503228 L247.7587462985308 254.56429144220618 L247.60708799487338 254.74072507963783 L247.4448767537551 254.9037441516991 L247.2732275882898 255.0527789545408 L247.09328073410717 255.18734811094714 L246.9061949343258 255.3070591354084 L246.7131407789205 255.41160850783163 L246.5152941330822 255.5007812667616 L246.31382968789805 255.5744501353204 L246.10991466525493 255.63257419528617 L245.9047027073095 255.67519712680954 L245.69932797917775 255.70244503320296 L245.49489951169292 255.71452387202504 L245.2924958091722 255.71171651531455 L245.09315974513552 255.69437946330055 L244.8978937668429 255.6629392372217 L244.70765542737655 255.61788847802737 L244.52335326180162 255.55978177870176 L244.34584302170927 255.4892312787502 L244.17592428018727 255.4069020500114 L244.01433741699555 255.3135073034146 L243.8617609914516 255.20980344658435 L243.7188095082743 255.09658502231264 L243.5860315793966 254.9746795578713 L243.4639084825607 254.84494235492926 L243.352853115352 254.70825124947706 L243.25320934123357 254.56550137064767 L243.16525172210999 254.41759992666604 L243.08918562999565 254.2654610453671 L243.02514772849264 254.1100006957975 L242.97320681300536 253.95213171637374 L242.93336499694357 253.79275897390968 L242.90555922959473 253.63277467656698 L242.88966312989044 253.4730538624218 L242.88548911895364 253.31445008390187 L242.89279083309694 253.1577913068265 L242.91126579785433 253.0038760411994 L242.94055834266874 252.85346971926245 L242.98026273502936 252.70730133463334 L243.02992651215914 252.56606035462664 L243.0890539877909 252.43039391611083 L243.15710991114383 252.30090431349075 L243.23352325491788 252.17814678563477 L243.31769110896056 252.06262760680173 L243.40898265622766 251.95480248487007 L243.50674320775266 251.8550752684423 L243.61029827355569 251.7637969626992 L243.71895764675904 251.68126505221974 L243.83201947862582 251.60772312737163 L243.94877432279918 251.54336080932083 L244.06850912768232 251.4883139672156 L244.19051115666264 251.44266521967566 L244.3140718167364 251.40644471136739 L244.43849037702978 251.37963115417668 L244.56307755972838 251.36215312130852 L244.68715898701592 251.35389058154746 " stroke = "red" stroke-width = "4" fill = "none" /></svg>