<svg width="465" height="462" viewbox = "0 0 465 462"  xmlns="http://www.w3.org/2000/svg">

<!--
<topfunctions>



function YofX(){
    X = currentjson.plotparams.g*(x - currentjson.plotparams.x0);

    Y = Math.exp(-X/100)*(Math.sin(X));

    y = currentjson.plotparams.y0 - currentjson.plotparams.G*(Y);
}


function XYofT(){
    T = currentjson.plotparams.g*t;
    X = Math.exp(-T/A)*Math.cos(2*Math.PI*T);
    Y = Math.exp(-T/A)*Math.sin(2*Math.PI*T);
    y = currentjson.plotparams.y0 - currentjson.plotparams.G*(Y);
    x = currentjson.plotparams.x0 - currentjson.plotparams.G*(X);    
}




function plotfunction(){
    
    /*plot one function:*/
    currentStroke = "red";
    currentLineWidth = 4;
    ctx.strokeStyle = currentStroke;
    ctx.lineWidth = currentLineWidth;
    ctx.beginPath();	
    x = 0;
    y = 0;
    t = 0;
    intx = x;
    XYofT();
    currentSVG += "	<path d = \"M";
    currentSVG += Math.round(x).toString() + " ";
    currentSVG += Math.round(y).toString() + " ";
    for(t = 1;t < currentjson.plotparams.duration;t++){
        ctx.moveTo(x,y);
        XYofT();
        ctx.lineTo(x,y);
        currentSVG += "L" + x + " " + y + " ";
    }
    ctx.stroke();
    currentSVG += "\""+ " stroke = \"" + currentStroke + "\" stroke-width = \"" + currentLineWidth.toString() + "\" fill = \"" + "none" + "\" "+"/>";
    /*finish plot one function*/
    
    

}


</topfunctions>
-->

<!--
<currentjson>
{
    "constants": {},
    "YofXstring": "Y =  (1/Math.PI)*0.5/(X*X + 0.25);",
    "style": {
        "linewidth": 4,
        "color": "blue",
        "fill": "none"
    },
    "plotparams": {
        "G": 309.90463391994285,
        "g": 0.011600242826572944,
        "duration": 450.78888054094654,
        "plotwidth": 465,
        "plotheight": 462,
        "x0": 235,
        "y0": 272
    },
    "funcparams": {},
    "image": {
        "url": "",
        "xoverw": 0.038011695906432746,
        "yoverw": -0.08771929824561403,
        "woverw": 0.8536631795472632,
        "angle": "0"
    },
    "A": 0.8034720249637357,
    "B": 1
}
</currentjson>
-->
	<path d = "M-75 272 L-69.65146930623695 249.75562362780462 L-62.89069076685524 228.2653719638094 L-54.70198338960637 207.62467562478554 L-45.17053135939835 187.92162794508047 L-34.38639808711298 169.23671463528018 L-22.443897441262266 151.6425925165957 L-9.440959755804926 135.2039171377205 L4.52150378863459 119.97721882051465 L19.340234906441594 106.0108264303573 L34.91025667781304 93.34483792745536 L51.12549348018044 82.01113652779625 L67.87937925123074 72.03345108767806 L85.06545110702805 63.4274591246523 L102.5779255031187 56.20093070096942 L120.31225430149811 50.353911223838 L138.16565829067605 45.87894106050348 L156.03763589853338 42.76130972572682 L173.8304450369307 40.9793422750144 L191.44955622184244 40.50471542913044 L208.80407532186615 41.302800864128756 L225.80713450004322 43.33303302640769 L242.37625012778298 46.549298774039556 L258.43364666409303 50.90034610372089 L273.90654570710564 56.330209196876126 L288.7274196369022 62.778647008423775 L302.83420947777824 70.1815926270744 L316.1705068133021 78.47161065630993 L328.68569978779476 87.57835989986518 L340.335083422252 97.42905868398358 L351.07993466034804 107.94895021031036 L360.8875527401788 119.06176540729373 L369.7312656590587 130.6901808336443 L377.5904036612755 142.75626928394541 L384.45024083162355 155.1819408530912 L390.30190602019627 167.88937233197493 L395.14226445586326 180.80142293087835 L398.9737715266567 193.84203445840944 L401.80430031461646 206.9366142216729 L403.64694457021426 220.0123990567085 L404.51979889711697 232.99879904615503 L404.44571799160246 245.8277196326608 L403.4520568423881 258.4338609908342 L401.5703938459462 270.75499367659614 L398.8362388296715 282.7322097297606 L395.2887280006439 294.3101485626461 L390.97030785142556 305.43719712366163 L385.9264100565713 316.0656639792868 L380.20511938465825 326.1519271098816 L373.85683663100133 335.65655536356957 L366.93393854623093 344.54440365730517 L359.4904366960348 352.7846821545063 L351.58163713809535 360.3509997836508 L343.2638027441285 367.22138259143907 L334.59381992851314 373.37826754696033 L325.6288714708993 378.80847252928635 L316.42611703900366 383.50314333962024 L307.0423829302024 387.4576786801598 L297.5338624571633 390.67163413486685 L287.9558283042937 393.1486062720909 L278.3623580789051 394.8960980652392 L268.80607417438824 395.9253668952646 L259.33789895303977 396.25125645751234 L250.00682614417636 395.89201394537884 L240.85970923947337 394.869093924256 L231.9410675527564 393.2069503414027 L223.29291049639906 390.93281814077113 L214.95458051167574 388.0764859665477 L206.96261497650215 384.6700614454083 L199.35062730156739 380.74773053544857 L192.14920731547934 376.3455124196696 L185.38584093175945 371.50101140407247 L179.08484898584794 366.25316725515324 L173.2673450291847 360.6420053792369 L167.95121177038124 354.7083882070365 L163.15109576088787 348.49376910146145 L158.87841983478245 342.0399500554575 L155.14141272968942 335.3888443899937 L151.9451552386947 328.58224560066833 L149.29164217170143 321.6616034352717 L147.17985933922046 314.66780821450885 L145.60587471227126 307.6409843344345 L144.56294285904997 300.6202938124955 L144.04162171239955 293.6437506599164 L144.0299006819693 286.7480467819922 L144.51333909130955 279.96839002518004 L145.47521389300863 273.33835490619765 L146.89667559431254 266.88974647411374 L148.7569113113876 260.6524776721512 L151.0333138624076 254.65446048204876 L153.7016558078135 248.921511050811 L156.7362673502583 243.47726891793138 L160.11021701670543 238.34313038111236 L163.79549406068614 233.538195960522 L167.76319154359055 229.07923184607182 L171.98368907980787 224.98064513943226 L176.4268342612517 221.25447263282325 L181.06212181201363 217.91038280032882 L185.85886956324927 214.9556906148433 L190.78639038159787 212.39538474500657 L195.81415923111456 210.2321666318268 L200.91197459850343 208.46650089431353 L206.0501135640247 207.0966764674913 L211.1994798554369 206.11887783476885 L216.33174427936308 205.5272656798909 L221.41947698317293 205.3140662516673 L226.436271060471 205.46966870740073 L231.3568570742312 205.98272967842556 L236.1572081331401 206.8402842834235 L240.81463521847354 208.02786280214636 L245.3078725204727 209.52961221379883 L249.617152604394 211.32842180052145 L253.7242712868417 213.4060520170592 L257.6126421623647 215.74326583267452 L261.2673407782989 218.31996176051325 L264.67513851220787 221.11530780278974 L267.8245262607338 224.10787555713912 L270.7057281009978 227.27577375008718 L273.3107051356428 230.59678048759585 L275.63314978000324 234.04847353983274 L277.66847079451423 237.60835800743925 L279.41376940718794 241.253990749393 L280.86780690963707 244.963100987823 L282.0309641455854 248.7137065425644 L282.9051933429859 252.48422518759526 L283.49396276967076 256.25358066247816 L283.80219471783494 260.00130291429934 L283.8361973445594 263.7076221890559 L283.6035909139956 267.35355663575086 L283.1132290017525 270.9209931313193 L282.37511523347916 274.39276107969744 L281.400316137644 277.75269898358084 L280.20087069714185 280.9857136324666 L278.78969718567623 284.0778317951874 L277.18049787295564 287.0162443490994 L275.3876621777125 289.7893428211577 L273.4261688395163 292.38674835809087 L271.3114876694375 294.79933318358155 L269.05948142597146 297.01923463957246 L266.68630834639436 299.0398619463983 L264.20832584507264 300.8558958522085 L261.64199586933637 302.4632813759777 L259.00379238055007 303.85921388014964 L256.3101114031426 305.04211873852614 L253.57718405778888 306.01162489229165 L250.8209929668567 306.7685326119703 L248.0571923908445 307.3147758055866 L245.30103242402788 307.6533792332796 L242.5672875461146 307.7884110060726 L239.87018979456303 307.7249307614031 L237.22336678955435 307.4689339203584 L234.63978481060926 307.0272924413498 L232.13169709069825 306.4076924922112 L229.71059746059467 305.61856946745996 L227.38717944333663 304.66904077975255 L225.17130086618042 303.56883685446246 L223.07195402549192 302.3282307538748 L221.09724140881605 300.95796685280624 L219.25435694800862 299.4691889806132 L217.5495727479781 297.873368435643 L215.98823120737515 296.1822322673195 L214.57474242062187 294.4076922083494 L213.31258672509244 292.5617746251156 L212.2043222331472 290.6565518383064 L211.2515971661685 288.7040751483573 L210.4551667868327 286.71630988148667 L209.81491470663894 284.70507275212765 L209.3298783282638 282.6819718165367 L208.99827816666286 280.65834927044926 L208.81755077903057 278.64522732097987 L208.7843850217816 276.6532573396945 L208.8947613426407 274.69267248004263 L209.1439938077287 272.7732439182793 L209.52677455719606 270.9042408527698 L210.03722037846836 269.0943943722844 L210.66892108349947 267.3518652796987 L211.4149893755413 265.6842159335411 L212.26811189178738 264.0983861461946 L213.22060111077997 262.600673154392 L214.26444781761944 261.196715655046 L215.39137382571957 259.89148187754154 L216.5928846610297 258.6892616424827 L217.86032192321977 257.59366233662604 L219.18491504820778 256.60760871443085 L220.5578322075095 255.733346418391 L221.97023009211554 254.972449093154 L223.41330234184827 254.32582895244343 L224.87832639532266 253.79375064303116 L226.35670855062918 253.37584823650542 L227.8400270425578 253.07114516738483 L229.3200729585055 252.87807692526593 L230.78888883202018 252.79451629918603 L232.23880477015697 252.8178009642433 L233.66247198832662 252.94476319375332 L235.05289364401418 253.17176147482618 L236.4034528785319 253.49471380121787 L237.70793799373945 253.9091324146221 L238.9605647083311 254.41015976420397 L240.15599545575077 254.9926054541016 L241.2893557029665 255.65098394980234 L242.3562472861341 256.379552816693 L243.35275877551723 257.1723512676409 L244.27547289783914 258.02323880113346 L245.12147105944553 258.9259337172282 L245.88833502819233 259.8740513052872 L246.57414584578 260.8611415051175 L247.17748005527807 261.8807258516498 L247.69740334077645 262.9263335225913 L248.13346168741754 263.99153631850294 L248.48567018046856 265.06998241541686 L248.75449957156044 266.15542874133473 L248.9408607487161 267.24177183966435 L249.04608725430603 268.32307709478096 L249.07191600158436 269.39360620736016 L249.02046634596852 270.447842819848 L248.89421767173187 271.4805162053314 L248.69598565827874 272.4866229460757 L248.42889739268304 273.46144654102864 L248.09636549670165 274.40057489458354 L247.70206143704775 275.2999156517782 L247.2498881873471 276.15570935780846 L246.7439524089338 276.9645404322032 L246.18853631550093 277.72334596016594 L245.58806938364458 278.42942231539257 L244.9471000675668 279.08042964006205 L244.27026767167396 279.67439421862144 L243.56227452957495 280.20970879239985 L242.82785863208738 280.68513087195134 L242.07176684036168 281.09977911329304 L241.298728813173 281.45312783285823 L240.51343176987632 281.74499974397514 L239.72049620251403 281.9755570050014 L238.9244526421733 282.1452906758608 L238.12971957596548 282.2550086856339 L237.34058260199615 282.3058224190312 L236.56117490047532 282.29913203401964 L235.7954590897335 282.23661062658243 L235.04721052641884 282.12018736155807 L234.3200020996077 281.9520296907474 L233.6171905590201 281.7345247809885 L232.94190440804246 281.47026027570826 L232.2970333828747 281.16200451356605 L231.68521952988343 280.8126863272428 L231.1088498842085 280.42537454420744 L230.57005074386936 280.00325730944866 L230.07068352510726 279.5496213477102 L229.6123421765005 279.06783127975524 L229.19635212155285 278.5613091036282 L228.8237706920032 278.0335139478291 L228.49538900706915 277.4879221987919 L228.2117352472484 276.9280081001091 L227.97307926517766 276.35722491560347 L227.77943847041303 275.7789867426632 L227.63058491986257 275.1966510562547 L227.52605354098816 274.6135020577687 L227.4651514108052 274.03273489636473 L227.44696801015715 273.4574408238075 L227.47038636972945 272.89059333697423 L227.5340950217927 272.33503535530036 L227.6366006697325 271.7934674734517 L227.7762414860204 271.26843732252075 L227.95120094840556 270.762330066063 L228.15952212374714 270.2773600503708 L228.39912230905085 269.8155636215492 L228.66780793990327 269.378793115255 L228.96328967760005 268.96871201841503 L229.2831975878165 268.58679129588353 L229.62509632565147 268.2343068688625 L229.98650024426573 267.9123382260196 L230.36488834710576 267.62176814261824 L230.75771900683492 267.3632834776518 L231.1624443775481 267.13737701396315 L231.57652443060607 266.94435030165374 L231.99744054845513 266.7843174607612 L232.42270861507 266.65720989521645 L232.84989154614283 266.5627818665028 L233.2766112068073 266.50061687222995 L233.70055966950443 266.47013477201773 L234.1195097695345 266.4705996006575 L234.53132492086877 266.5011280064921 L234.93396815988328 266.56069825131743 L235.32551038979668 266.64815970687073 L235.70413780371746 266.76224278211413 L236.0681584693017 266.90156921505513 L236.41600806306732 267.06466266274543 L236.74625474737618 267.2499595233678 L237.05760318795762 267.45581992494016 L237.3488977145827 267.6805388161206 L237.61912463208495 267.92235709588135 L237.86741369333967 268.17947272040476 L238.09303875004312 268.45005172743555 L238.29541760115254 268.7322391204716 L238.47411106264852 269.0241695575794 L238.62882128584266 269.3239777922536 L238.75938935476566 269.62980881658547 L238.86579219622448 269.9398276600413 L238.94813883889864 270.25222880035125 L239.0066660603524 270.5652451463606 L239.04173346306123 270.87715655616427 L239.05381802248903 271.1862978574172 L239.04350815189673 271.4910663403646 L239.0114973299226 271.78992869784156 L238.95857733804036 272.081427390233 L238.88563115578353 272.36418641713897 L238.79362556212297 272.6369164812377 L238.68360349160528 272.8984195335568 L238.55667619381032 273.14759269303664 L238.41401524437435 273.38343153687276 L238.25684445525883 273.60503276165156 L238.08643173113597 273.81159621871063 L237.90408091772198 274.00242633046463 L237.71112368662676 274.1769328976118 L237.50891149982337 274.33463131016725 L237.2988076951791 274.4751421781436 L237.08217973265343 274.59819040040605 L236.8603916387653 274.70360369275795 L236.63479668478527 274.79131059865443 L236.40673033182605 274.86133800809057 L236.17750347360953 274.9138082121585 L235.9483960051937 274.94893552251074 L235.72065074336402 274.96702248650206 L235.49546772174963 274.9684557301051 L235.27399888103034 274.9537014618064 L235.05734317187142 274.9233006715883 L234.8465420854763 274.8778640597906 L234.64257562389682 274.81806673112374 L234.44635871950499 274.74464268937965 L234.25873811031659 274.65837916845874 L234.08048967518963 274.56011083520787 L233.9123162303029 274.45071389925033 L233.75484578577183 274.3311001644957 L233.60863025878734 274.20221105634454 L233.47414463728487 274.0650116577692 L233.35178658586852 273.92048478645813 L233.24187648354686 273.7696251440718 L233.14465788078448 273.6134335673829 L233.0602983614487 273.452911409671 L232.98889079343826 273.2890550792266 L232.93045495012885 273.12285076020066 L232.8849394832614 272.95526933932416 L232.8522242265383 272.78726156023544 L232.8321228079854 272.6197534252931 L232.82438554808095 272.45364186284337 L232.82870261975458 272.2897906759535 L232.8447074456132 272.12902678663613 L232.87198030716405 271.97213678758465 L232.9100521403675 271.8198638114226 L232.95840849157184 271.67290472546 L233.016493607746 271.5319076579508 L233.08371463494018 271.39746985987153 L233.15944589905598 271.2701359043028 L233.24303324329887 271.1503962235982 L233.33379839710597 271.03868598268394 L233.43104335188923 270.9353842850508 L233.534054719598 270.8408137062874 L233.64210805088223 270.75524014837043 L233.75447209051768 270.6788730063744 L233.8704129487316 270.61186563780166 L233.98919816813316 270.5543161233674 L234.11010066709787 270.50626830680505 L234.2324025416728 270.4677131000944 L234.3553987093493 270.4385900394593 L234.47840037938371 270.4187890765327 L234.60073833572665 270.4081525882526 L234.72176602003702 270.4064775883318 L234.84086240370092 270.4135181225333 L234.9574346392389 270.42898782949214 L235.07092048295843 270.4525626484428 L235.1807904821846 270.4838836549401 L235.28654992187245 270.5225600055088 L235.3877405268611 270.56817197210216 L235.48394191746542 270.6202740473086 L235.57477281750772 270.67839810140174 L235.6598920152658 270.742056572586 L235.73899907914145 270.81074567213983 L235.81183483113898 270.88394858659774 L235.878181582471 270.9611386596382 L235.93786313678058 271.04178253694727 L235.99074456757634 271.1253432580044 L236.0367317775175 271.2112832794852 L236.0757708481554 271.2990674157804 L236.10784718963242 271.38816568299694 L236.13298450065722 271.4780560337162 L236.15124354981344 271.5682269707462 L236.16272078991616 271.6581800290917 L236.16754681770507 271.7474321163943 L236.16588469165472 271.83551770313954 L236.1579281210906 271.9219908549935 L236.1438995401238 272.0064271007075 L236.12404808015978 272.08842513011115 L236.09864745489585 272.16760831779266 L236.06799377180332 272.24362606914116 L236.03240328409026 272.31615498648404 L235.99221009706753 272.3848998540979 L235.94776384269176 272.4495944418893 L235.8994273358402 272.51000212853586 L235.84757422558576 272.565916345836 L235.7925866543909 272.61716084694 L235.73485293772669 272.66358980201477 L235.67476527615813 272.7050877257353 L235.61271751141604 272.7415692417822 L235.54910293740969 272.77297869026677 L235.48431217652274 272.7992895846888 L235.4187311308868 272.8205039256641 L235.3527390176419 272.83665137923134 L235.28670649648066 272.84778832806154 L235.22099389703482 272.8539968043494 L235.15594955290425 272.85538331355815 L235.09190824835488 272.8520775585228 L235.0291897829283 272.84423107368747 L234.96809765841408 272.8320157794645 L234.90891789184488 272.8156224668513 L234.85191795738336 272.79525922253396 L234.79734585918857 272.77114980473675 L234.7454293365762 272.7435319800549 L234.69637520203156 272.7126558314273 L234.65036881189394 272.6787820472745 L234.6075736688162 272.6421802016442 L234.56813115441082 272.60312703497476 L234.53216038983135 272.5619047448114 L234.49975822140664 272.51879929548926 L234.47099932784587 272.4740987554374 L234.44593644497218 272.428091670362 L234.4246007034162 272.381065480137 L234.40700207421833 272.3333049867683 L234.39312991684426 272.2850908803121 L234.3829536237179 272.236698329116 L234.3764233550187 272.1883956402197 L234.37347085717764 272.14044299520606 L234.3740103582371 272.09309126623015 L234.37793953301664 272.04658091638555 L234.3851405308484 272.00114098798775 L234.39548105851 271.9569881817762 L234.4088155108946 271.91432602945554 L234.4249861419079 271.87334416142073 L234.44382426807908 271.8342176709391 L234.46515149740708 271.7971065755035 L234.48878097604 271.7621553755203 L234.5145186454987 271.7294927099619 L234.5421645033058 271.6992311080981 L234.5715138600663 271.6714668359208 L234.6023585862628 271.64627983540305 L234.63448834227634 271.6237337542808 L234.66769178541955 271.6038760636176 L234.70175774807095 271.5867382600156 L234.7364763813243 271.57233614896336 L234.77164025891435 271.56067020546897 L234.80704543654383 271.55172600781844 L234.84249246212005 271.5454747400179 L234.87778733280248 271.5418737582314 L234.9127423951697 271.5408672163131 " stroke = "red" stroke-width = "4" fill = "none" /></svg>