<svg width="465" height="462" viewbox = "0 0 465 462"  xmlns="http://www.w3.org/2000/svg">

<!--
<topfunctions>



function YofX(){
    X = currentjson.plotparams.g*(x - currentjson.plotparams.x0);

    Y = Math.exp(-X/100)*(Math.sin(X));

    y = currentjson.plotparams.y0 - currentjson.plotparams.G*(Y);
}


function XYofT(){
    T = currentjson.plotparams.g*t;
    X = Math.exp(-T/A)*Math.cos(2*Math.PI*T);
    Y = Math.exp(-T/A)*Math.sin(2*Math.PI*T);
    y = currentjson.plotparams.y0 - currentjson.plotparams.G*(Y);
    x = currentjson.plotparams.x0 - currentjson.plotparams.G*(X);    
}




function plotfunction(){
    
    /*plot one function:*/
    currentStroke = currentjson.style.color;
    currentLineWidth = currentjson.style.linewidth;
    ctx.strokeStyle = currentStroke;
    ctx.lineWidth = currentLineWidth;
    ctx.beginPath();	
    x = 0;
    y = 0;
    t = 0;
    intx = x;
    XYofT();
    currentSVG += "	<path d = \"M";
    currentSVG += Math.round(x).toString() + " ";
    currentSVG += Math.round(y).toString() + " ";
    for(t = 1;t < currentjson.plotparams.duration;t++){
        ctx.moveTo(x,y);
        XYofT();
        ctx.lineTo(x,y);
        currentSVG += "L" + x + " " + y + " ";
    }
    ctx.stroke();
    currentSVG += "\""+ " stroke = \"" + currentStroke + "\" stroke-width = \"" + currentLineWidth.toString() + "\" fill = \"" + "none" + "\" "+"/>";
    /*finish plot one function*/
    
    

}


</topfunctions>
-->

<!--
<currentjson>
{
    "constants": {},
    "YofXstring": "Y =  (1/Math.PI)*0.5/(X*X + 0.25);",
    "style": {
        "linewidth": 3,
        "color": "blue",
        "fill": "none"
    },
    "plotparams": {
        "G": "100",
        "g": "0.00209081223856887",
        "duration": 450.78888054094654,
        "plotwidth": 465,
        "plotheight": 462,
        "x0": 235,
        "y0": 220
    },
    "funcparams": {},
    "image": {
        "url": "http://lafelabs.org/factory/symbol/svg/svg1540682994.svg",
        "xoverw": 0.2134502923976608,
        "yoverw": 0.21929824561403508,
        "woverw": 0.3844105707405496,
        "angle": 88.42105263157895
    },
    "A": "0.5",
    "B": 1
}
</currentjson>
-->

<!--
<equation>
# Equations
$$X = g(x - x_0)$$
$$Y = \sin{(X)}$$
$$y = y_0 - GY$$ 
</equation>
-->
	<path d = "M135 220 L135.42588222138684 218.69182346848982 L135.8670639444847 217.39478951952373 L136.32333424678598 216.10905084331452 L136.79448110660695 214.83475672055573 L137.28029145237173 213.5720530225631 L137.78055121168387 212.32108221205993 L138.2950453601794 211.08198334460135 L138.8235579701527 209.8548920706313 L139.36587225894863 208.63994063816702 L139.92177063711327 207.43725789610514 L140.49103475629653 206.2469692981436 L141.07344555689917 205.0691969073134 L141.66878331545809 203.90405940111464 L142.27682769176204 202.7516720772502 L142.89735777569206 201.61214685995154 L143.5301521337796 200.48559230689054 L144.1749888554759 199.37211361667045 L144.83164559912635 198.27181263689076 L145.49989963764352 197.18478787277868 L146.17952790387275 196.1111344963818 L146.87030703564437 195.05094435631463 L147.5720134205065 194.0043059880533 L148.28442324013253 192.97130462477148 L149.007312514398 191.9520222087111 L149.74045714512076 190.94653740308118 L150.48363295945936 189.95492560447832 L151.23661575296407 188.97725895582192 L151.99918133227527 188.01360635979754 L152.77110555746424 187.06403349280146 L153.55216438401118 186.12860281937998 L154.34213390441553 185.2073736071562 L155.14079038943385 184.30040194223753 L155.94791032894042 183.40774074509713 L156.76327047240625 182.52943978692235 L157.58664786899166 181.66554570642282 L158.41781990724832 180.81610202709163 L159.25656435442627 179.98114917491236 L160.10265939538223 179.1607244965048 L160.95588367108434 178.35486227770252 L161.81601631671043 177.56359376255486 L162.68283699933477 176.78694717274658 L163.5561259552012 176.02494772742767 L164.43566402657711 175.2776176634464 L165.32123269818666 174.54497625597807 L166.21261413321827 173.82703983954312 L167.10959120890433 173.12382182940593 L168.01194755166907 172.43533274334868 L168.91946757184223 171.76158022381176 L169.83193649793498 171.10256906039436 L170.74914041047572 170.45830121270737 L171.67086627540255 169.82877583357174 L172.59690197701048 169.2139892925548 L173.52703635045006 168.61393519983739 L174.46105921377546 168.02860443040439 L175.39876139953967 167.4579851485517 L176.33993478593462 166.9020628327018 L177.28437232747387 166.36082030052154 L178.23186808521615 165.83423773433356 L179.1822172565277 165.32229270681574 L180.13521620438175 164.82496020697988 L181.0906624861933 164.3422126664234 L182.04835488218777 163.87401998584616 L183.00809342330166 163.4203495618258 L183.96967941861456 162.98116631384372 L184.9329154823105 162.5564327115551 L185.8976055601678 162.14610880229517 L186.8635549555761 161.75015223881525 L187.83057035508017 161.36851830724055 L188.79845985344883 161.00115995524365 L189.76703297826867 160.6480278204253 L190.73610071406165 160.30907025889653 L191.70547552592637 159.98423337405444 L192.67497138270198 159.6734610455446 L193.6444037796545 159.37669495840316 L194.61358976068547 159.09387463237178 L195.58234794006256 158.82493745137793 L196.55049852367173 158.56981869317434 L197.51786332979134 158.32845155912983 L198.4842658093881 158.10076720416524 L199.44953106593476 157.8866947668273 L200.41348587475025 157.68616139949387 L201.3759587018621 157.49909229870315 L202.33677972239184 157.32541073560083 L203.29578083846388 157.165038086498 L204.2527956966382 157.017893863533 L205.2076597048678 156.88389574543115 L206.16021004898164 156.76295960835478 L207.11028570869345 156.65499955683794 L208.0577274731382 156.55992795479867 L209.00237795593617 156.47765545662227 L209.9440816097867 156.40809103830944 L210.88268474059197 156.35114202868266 L211.81803552111265 156.30671414064437 L212.74998400415623 156.2747115024806 L213.67838213529996 156.25503668920416 L214.6030837651494 156.2475907539301 L215.5239446611342 156.2522732592788 L216.44082251884325 156.2689823087988 L217.35357697290004 156.29761457840473 L218.26206960738065 156.3380653478231 L219.16616396577606 156.39022853204088 L220.06572556050048 156.45399671275018 L220.96062188194793 156.52926116978364 L221.850722407099 156.61591191253405 L222.73589860767996 156.71383771135328 L223.61602395787622 156.8229261289237 L224.49097394160285 156.94306355159725 L225.36062605933378 157.07413522069595 L226.22485983449278 157.21602526376864 L227.0835568194081 157.36861672579795 L227.93660060083377 157.5317916003526 L228.78387680503943 157.70543086067886 L229.62527310247225 157.88941449072652 L230.4606792119928 158.08362151610356 L231.28998690468802 158.2879300349544 L232.11309000726396 158.5022172487565 L232.92988440502134 158.72635949303037 L233.7402680444166 158.9602322679574 L234.5441409352115 159.20371026890112 L235.34140515221418 159.45666741682638 L236.13196483661525 159.71897688861185 L236.91572619692118 159.9905111472509 L237.6925975094889 160.271141971936 L238.46248911866468 160.56074048802208 L239.22531343652997 160.85917719686404 L239.98098494225857 161.1663220055239 L240.72942018108756 161.48204425634307 L241.47053776290582 161.80621275637492 L242.20425836046354 162.13869580667404 L242.93050470720635 162.4793612314369 L243.6492015947372 162.82807640699036 L244.36027586991003 163.18470829062323 L245.06365643155846 163.5491234492573 L245.7592742268636 163.9211880879534 L246.44706224736424 164.30076807824844 L247.12695552461344 164.6877289863196 L247.79889112548491 165.08193610097186 L248.46280814713367 165.4832544614448 L249.1186477116141 165.89154888503526 L249.76635296015974 166.30668399453162 L250.40586904712836 166.72852424545675 L251.03714313361655 167.15693395311547 L251.6601243807479 167.59177731944354 L252.274763942638 168.0329184596542 L252.88101495904135 168.48022142867953 L253.47883254768328 168.93355024740265 L254.0681737962818 169.39276892867827 L254.64899775426244 169.85774150313773 L255.2212654241715 170.32833204477592 L255.7849397527904 170.8044046963169 L256.3399856219568 171.28582369435526 L256.8863698390953 171.77245339427014 L257.42406112746295 172.26415829490958 L257.95303011611304 172.76080306304186 L258.4732493295821 173.26225255757177 L258.98469317730394 173.7683718535182 L259.48733794275495 174.27902626575198 L259.9811617723352 174.7940813724898 L260.46614466398967 175.31340303854324 L260.9422684555734 175.83685743831967 L261.40951681296593 176.36431107857274 L261.86787521793826 176.89563082090123 L262.31733095577715 177.43068390399247 L262.75787310267145 177.96933796560978 L263.1894925128643 178.51146106432097 L263.61218180557586 179.0569217009663 L264.02593535170087 179.60558883986397 L264.4307492602853 180.15733192975117 L264.82662136478734 180.71202092445918 L265.2135512091252 181.26952630332065 L265.59154003351864 181.8297190913073 L265.9605907601265 182.3924708788969 L266.32070797848587 182.95765384166742 L266.6718979307571 183.52514075961773 L267.01416849677827 184.09480503621245 L267.3475291789349 184.66652071715046 L267.67199108684815 185.24016250885575 L267.9875669218864 185.81560579668877 L268.29427096150465 186.3927266628778 L268.592119043416 186.9714019041693 L268.88112854959945 187.5515090491957 L269.1613183901491 188.13292637556015 L269.4327089869681 188.7155329266373 L269.6953222573125 189.29920852808908 L269.9491815971892 189.883833804095 L270.19431186461196 190.469290193296 L270.43073936272083 191.05545996445144 L270.6584918227677 191.6422262318087 L270.87759838697406 192.22947297018445 L271.0880895912641 192.81708502975775 L271.2899973478779 193.40494815057403 L271.4833549278686 193.99294897675992 L271.6681969434893 194.58097507044886 L271.844559330471 195.16891492541637 L272.0124793301992 195.75665798042604 L272.1719954717912 196.34409463228513 L272.32314755407884 196.93111624861035 L272.4659766275011 197.5176151803033 L272.60052497591073 198.10348477373623 L272.72683609829875 198.68861938264763 L272.84495469044134 199.27291437974827 L272.95492662647297 199.85626616803756 L273.05679894039 200.43857219183084 L273.15061980748874 201.01973094749744 L273.23643852574213 201.5996419939107 L273.314305497119 202.17820596260924 L273.3842722088501 202.75532456767112 L273.44639121464473 203.33090061530044 L273.5007161158615 203.90483801312774 L273.54730154263825 204.4770417792243 L273.5862031349841 205.04741805083117 L273.6174775238378 205.6158740928037 L273.64118231209653 206.1823183057724 L273.65737605561833 206.74666023402085 L273.66611824420266 207.3088105730814 L273.6674692825526 207.8686811770498 L273.6614904712225 208.4261850656198 L273.6482439875544 208.9812364308381 L273.6277928666076 209.5337506435818 L273.6002009820846 210.08364425975813 L273.5655330272572 210.6308350262287 L273.52385449589633 211.1752418864588 L273.4752316632093 211.7167849858932 L273.41973156678733 212.25538567705982 L273.35742198756856 212.7909665244021 L273.2883714308176 213.3234513088422 L273.2126491071278 213.85276503207552 L273.13032491344677 214.37883392059857 L273.0414694141313 214.90158542947165 L272.94615382203295 215.42094824581744 L272.84444997961873 215.93685229205718 L272.7364303401298 216.44922872888648 L272.62216794878145 216.95800995799155 L272.50173642400773 217.46312962450813 L272.3752099387536 217.96452261922465 L272.2426632018179 218.46212508053117 L272.1041714392509 218.95587439611592 L271.9598103758077 219.4457092044114 L271.80965621646305 219.9315693957916 L271.65378562798816 220.41339611352225 L271.492275720594 220.89113175446624 L271.32520402964377 221.36471996954566 L271.1526484974366 221.83410566396265 L270.9746874550665 222.2992349971812 L270.7913996043585 222.76005538267162 L270.6028639998852 223.21651548741966 L270.40916003106634 223.66856523120256 L270.21036740435386 224.1161557856342 L270.0065661255057 224.55923957298089 L269.79783648195007 224.99777026475059 L269.5842590252439 225.4317027800574 L269.3659145536269 225.86099328376352 L269.14288409467446 226.28559918440067 L268.9152488880514 226.70547913187391 L268.68309036836956 227.12059301494924 L268.4464901481511 227.53090195852764 L268.2055300008997 227.9363683207082 L267.9602918442829 228.33695568964185 L267.7108577234266 228.73262888017896 L267.457309794325 229.12335393031213 L267.19973030736753 229.50909809741765 L266.9382015909853 229.88982985429706 L266.6728060354184 230.2655188850219 L266.40362607660757 230.63613608058358 L266.1307441802108 231.00165353435125 L265.8542428257474 231.36204453733987 L265.5742044908718 231.71728357329087 L265.29071163577845 232.06734631356827 L265.00384668773995 232.41220961187227 L264.71369202578035 232.75185149877336 L264.42032996548494 233.0862511760689 L264.1238427439488 233.41538901096533 L263.82431250486536 233.73924653008805 L263.5218212837572 234.05780641332169 L263.2164509933498 234.37105248748378 L262.9082834090905 234.67896971983347 L262.5974001548146 234.98154421141902 L262.2838826885586 235.2787631902656 L261.96781228852393 235.570615004407 L261.6492700391907 235.8570891147628 L261.3283368175844 236.13817608786505 L261.0050932796962 236.41386758843532 L260.67961984705784 236.68415637181653 L260.351996693473 236.9490362762608 L260.0223037319057 237.20850221507706 L259.69062060152805 237.46255016864006 L259.3570266549267 237.7111771762645 L259.0216009454708 237.9543813279459 L258.6844222148415 238.19216175597185 L258.34556888072433 238.4245186264056 L258.00511902466536 238.6514531304448 L257.6631503800923 238.87296747565858 L257.31974032050124 239.08906487710487 L256.9749658478095 239.29974954833108 L256.6289035808763 239.50502669226097 L256.2816297441915 239.70490249196988 L255.93322015673266 239.89938410135136 L255.5837502209924 240.08847963567797 L255.2332949121754 240.2721981620584 L254.8819287675664 240.4505496897942 L254.52972587606982 240.62354516063837 L254.17675986792116 240.79119643895854 L253.82310390457098 240.9535163018076 L253.46883066874184 241.11051842890421 L253.11401235465857 241.26221739252574 L252.75872065845255 241.40862864731685 L252.4030267687401 241.54976852001553 L252.04700135737522 241.68565419909987 L251.6907145703775 241.81630372435788 L251.33423601903482 241.94173597638311 L250.97763477118139 242.06197066599856 L250.62097934265157 242.1770283236115 L250.26433768890882 242.28693028850194 L249.9077771968511 242.3916986980471 L249.55136467679142 242.49135647688465 L249.1951663546149 242.5859273260171 L248.8392478641114 242.67543571186013 L248.48367423948426 242.75990685523715 L248.1285099080348 242.83936672032272 L247.77381868302265 242.9138420035374 L247.41966375670185 242.98336012239665 L247.0661076935324 243.0479492043157 L246.71321242356697 243.10763807537379 L246.36103923601337 243.1624562490394 L246.00964877297116 243.21243391485942 L245.65910102334345 243.25760192711456 L245.30945531692277 243.2979917934434 L244.96077031865119 243.3336356634375 L244.6131040230537 243.36456631720995 L244.26651374884523 243.39081715394005 L243.9210561337102 243.41242218039588 L243.57678712925477 243.4294159994376 L243.23376199613054 243.44183379850372 L242.89203529933005 243.44971133808264 L242.55166090365296 243.45308494017155 L242.2126919693424 243.45199147672542 L241.87518094789127 243.44646835809795 L241.53917957801744 243.43655352147687 L241.20473888180732 243.42228541931604 L240.8719091610274 243.40370300776598 L240.54073999360264 243.38084573510588 L240.21128023026137 243.3537535301785 L239.8835779913455 243.32246679083048 L239.5576806637859 243.28702637236023 L239.23363489824143 243.2474735759755 L238.91148660640147 243.20385013726246 L238.59128095845043 243.15619821466873 L238.27306238069403 243.1045603780024 L237.95687455334613 243.0489795969488 L237.64276040847486 242.98949922960742 L237.33076212810786 242.92616301105033 L237.0209211424951 242.85901504190537 L236.7132781285284 242.78809977696417 L236.40787300831673 242.7134620138191 L236.10474494791632 242.63514688152907 L235.80393235621443 242.55319982931752 L235.5054728839656 242.4676666153038 L235.2094034229795 242.37859329526995 L234.91576010545924 242.28602621146453 L234.62457830348882 242.19001198144574 L234.33589262866892 242.0905974869652 L234.04973693189947 241.9878298628943 L233.76614430330815 241.88175648619494 L233.4851470723233 241.77242496493625 L233.20677680789046 241.65988312735902 L232.9310643188308 241.54417901098967 L232.6580396543405 241.425360851805 L232.38773210462992 241.30347707345 L232.1201702017008 241.17857627650955 L231.85538172026065 241.05070722783626 L231.59339367877308 240.91991884993558 L231.334232340642 240.78626021040992 L231.0779232155293 240.64978051146315 L230.82449106080418 240.51052907946718 L230.57395988312246 240.36855535459168 L230.32635294013528 240.22390888049893 L230.08169274232492 240.07663929410464 L229.8400010549671 239.9267963154066 L229.60129890021776 239.77442973738223 L229.36560655932314 239.61958941595634 L229.13294357495175 239.4623252600408 L228.90332875364675 239.30268722164686 L228.67678016839696 239.14072528607184 L228.45331516132575 238.97648946216114 L228.2329503464954 238.81002977264697 L228.01570161282623 238.6413962445649 L227.8015841271286 238.4706388997494 L227.59061233724614 238.2978077454094 L227.38279997530913 238.12295276478537 L227.17816006109615 237.94612390788862 L226.97670490550254 237.76737108232385 L226.77844611411413 237.5867441441964 L226.58339459088472 237.40429288910482 L226.39156054191588 237.22006704322018 L226.20295347933697 237.03411625445227 L226.0175822252847 236.84649008370485 L225.83545491597968 236.65723799621964 L225.65657900589915 236.46640935301082 L225.48096127204386 236.27405340239054 L225.30860781829767 236.08021927158626 L225.13952407987813 235.88495595845092 L224.97371482787688 235.6883123232665 L224.8111841738875 235.49033708064206 L224.65193557471997 235.29107879150672 L224.49597183719968 235.09058585519836 L224.34329512304942 234.88890650164896 L224.19390695385295 234.68608878366697 L224.04780821609833 234.4821805693174 L223.9049991662994 234.27722953440053 L223.765479436194 234.07128315502962 L223.62924803801684 233.86438870030793 L223.49630336984615 233.65659322510646 L223.3666432210216 233.44794356294182 L223.24026477763263 233.23848631895564 L223.11716462807507 233.02826786299573 L222.9973387686748 232.81733432279907 L222.88078260937624 232.6057315772777 L222.76749097949502 232.3935052499075 L222.65745813353212 232.18070070222035 L222.55067775704867 231.96736302740032 L222.4471429725995 231.7535370439834 L222.34684634572355 231.5392672896625 L222.24977989099028 231.32459801519636 L222.15593507809956 231.10957317842414 L222.06530283803423 230.89423643838504 L221.9778735692631 230.67863114954335 L221.89363714399326 230.4628003561195 L221.8125829144699 230.2467867865267 L221.7346997193221 230.03063284791423 L221.6599758899527 229.81438062081617 L221.5883992569715 229.59807185390744 L221.51995715666916 229.3817479588656 L221.45463643753092 229.16545000533947 L221.39242346678853 228.9492187160247 L221.33330413700853 228.73309446184533 L221.27726387271554 228.5171172572429 L221.22428763704903 228.3013267555714 L221.17435993845186 228.08576224459975 L221.12746483738937 227.87046264212015 L221.08358595309707 227.65546649166367 L221.04270647035582 227.4408119583221 L221.00480914629279 227.22653682467597 L220.96987631720654 227.01267848682943 L220.93788990541518 226.79927395055086 L220.90883142612566 226.58635982751957 L220.882681994323 226.37397233167866 L220.85942233167788 226.16214727569297 L220.83903277347093 225.95092006751318 L220.82149327553302 225.74032570704438 L220.80678342119884 225.53039878292032 " stroke = "blue" stroke-width = "3" fill = "none" /></svg>