<svg width="309" height="364" viewbox = "0 0 309 364"  xmlns="http://www.w3.org/2000/svg">

<!--
<topfunctions>



function YofX(){
    X = currentjson.plotparams.g*(x - currentjson.plotparams.x0);

    Y = Math.exp(-X/100)*(Math.sin(X));

    y = currentjson.plotparams.y0 - currentjson.plotparams.G*(Y);
}


function XYofT(){
    T = currentjson.plotparams.g*t;
    X = Math.exp(-T/A)*Math.cos(2*Math.PI*T);
    Y = Math.exp(-T/A)*Math.sin(2*Math.PI*T);
    y = currentjson.plotparams.y0 - currentjson.plotparams.G*(Y);
    x = currentjson.plotparams.x0 - currentjson.plotparams.G*(X);    
}




function plotfunction(){
    
    /*plot one function:*/
    currentStroke = "red";
    currentLineWidth = 4;
    ctx.strokeStyle = currentStroke;
    ctx.lineWidth = currentLineWidth;
    ctx.beginPath();	
    x = 0;
    y = 0;
    t = 0;
    intx = x;
    XYofT();
    currentSVG += "	<path d = \"M";
    currentSVG += Math.round(x).toString() + " ";
    currentSVG += Math.round(y).toString() + " ";
    for(t = 1;t < currentjson.plotparams.duration;t++){
        ctx.moveTo(x,y);
        XYofT();
        ctx.lineTo(x,y);
        currentSVG += "L" + x + " " + y + " ";
    }
    ctx.stroke();
    currentSVG += "\""+ " stroke = \"" + currentStroke + "\" stroke-width = \"" + currentLineWidth.toString() + "\" fill = \"" + "none" + "\" "+"/>";
    /*finish plot one function*/
    
    

}


</topfunctions>
-->

<!--
<currentjson>
{
    "constants": {},
    "YofXstring": "Y =  (1/Math.PI)*0.5/(X*X + 0.25);",
    "style": {
        "linewidth": 4,
        "color": "blue",
        "fill": "none"
    },
    "plotparams": {
        "G": 309.90463391994285,
        "g": 0.011600242826572944,
        "duration": 450.78888054094654,
        "plotwidth": 309,
        "plotheight": 364,
        "x0": 158,
        "y0": 207
    },
    "funcparams": {},
    "image": {
        "url": "",
        "xoverw": 0.038011695906432746,
        "yoverw": -0.08771929824561403,
        "woverw": 0.8536631795472632,
        "angle": "0"
    }
}
</currentjson>
-->
	<path d = "M-152 207 L-143.50354564976328 184.98547184998782 L-133.76636517500157 164.16451084271404 L-122.81409890184204 144.59967227553267 L-110.7689166261556 126.34321979100777 L-97.75338891288155 109.43732172643092 L-83.88975909697942 93.91429631444245 L-69.29925243761821 79.79690195107655 L-54.10142461985882 67.09866867027978 L-38.413551464336706 55.82426691274571 L-22.35006137710738 45.96990965079755 L-6.022011750524257 37.523783928972136 L10.463389786716192 30.46650790076086 L27.003218675004632 24.77160948441488 L43.49922098092068 20.406022823534528 L59.85815518139253 17.330598819978974 L75.99208841610671 15.500626106068523 L91.81864770090284 14.866358938669322 L107.26122683139064 15.373548628106136 L122.24914992686618 16.963975258468963 L136.71779276924948 19.57597661129438 L150.60866327982419 23.144971370342375 L163.86944264774849 27.603973859793996 L176.45398877844906 32.884097750228506 L188.3223038670445 38.915046354786284 L199.44046802190476 45.6255873306078 L209.7805409664747 52.944009796622794 L219.32043393379627 60.79856207674976 L228.04375393806723 69.11786847632084 L235.93962266146102 77.83132369787336 L243.00247223277466 86.86946369923281 L249.23182019779074 96.16431199098152 L254.63202599013795 105.64970056097089 L259.21203120654883 115.26156479956279 L262.9850859724539 124.93821197992786 L265.9684636535378 134.62056302219258 L268.1831661270033 144.2523674378114 L269.65362177363886 153.780391510607 L270.4073782891905 163.1545799229069 L270.4747923418462 172.3281911786251 L269.8887180227029 181.25790730957652 L268.6841959487644 189.90391847642832 L266.8981447841767 198.22998319121348 L264.5690568459046 206.20346499405503 L261.73669935573514 213.79534651253996 L258.4418227921992 220.9802219179625 L254.72587768455392 227.73626886842138 L250.63074107715343 234.04520109454788 L246.1984537771358 239.892202839567 L241.47096938211024 245.26584641160426 L236.48991596815057 250.15799414285084 L231.29637120257266 254.5636860776402 L225.93065153133733 258.48101472995404 L220.4321159780757 261.91098826069873 L214.8389849812549 264.8573834266359 L209.18817458840658 267.32658964649784 L203.51514622211315 269.32744551600143 L197.85377213202548 270.8710690826225 L192.23621655097128 271.970683163575 L186.6928324815497 272.64143695693036 L181.2520739528142 272.90022515669887 L175.94042350498046 272.7655057384777 L170.7823345837861 272.25711753344973 L165.8001884553581 271.3960986555994 L161.01426518734627 270.20450679050197 L156.4427281827665 268.70524229443845 L152.1016216995232 266.9218749903894 L148.0048807409734 264.8784754831469 L144.16435266114829 262.5994517498317 L140.5898297923185 260.109391694976 L137.28909237240072 257.43291229146763 L134.2679610251538 254.5945158604863 L131.53035802707467 251.6184539755014 L129.07837658121028 248.52859940782753 L126.91235730958667 245.34832646452685 L125.03097117240537 242.1004000039377 L123.4313080233583 238.80687335012522 L122.10897001612588 235.4889952653873 L121.05816908709761 232.16712607987486 L120.27182775332484 228.86066301964985 L119.74168248241031 225.5879747193269 L119.45838891217221 222.366344853018 L119.41162822220612 219.21192476779734 L119.59021398661113 216.13969495746673 L119.98219886685303 213.16343517115405 L120.57498053570994 210.29570291130918 L121.35540625719196 207.5478200390526 L122.30987558295155 204.92986717162097 L123.42444066272108 202.45068552688048 L124.68490370444495 200.11788584353593 L126.07691115874138 197.93786398274798 L127.5860442418693 195.9158227973432 L129.19790545123104 194.05579983861043 L130.89820076736592 192.36070045775963 L132.67281727615043 190.83233584938404 L134.5078959842946 189.47146557762267 L136.38989964000223 188.27784412205241 L138.3056754086509 187.25027097952457 L140.24251229036378 186.38664386006775 L142.1881932022207 185.6840145194645 L144.13104168244448 185.138646778019 L146.0599632070523 184.74607628421617 L147.9644811410712 184.5011715932589 L149.83476737636235 184.39819614369705 L151.66166773629573 184.4308707303579 L153.43672225388326 184.59243608837977 L155.15218045445138 184.8757152211651 L156.8010117964643 185.27317512433572 L158.37691144465953 185.77698757811547 L159.87430156820602 186.3790887018182 L161.28832837313107 187.07123698611224 L162.6148550927875 187.84506954130367 L163.85045117266029 188.69215632287427 L164.99237789636857 189.60405211876605 L166.0385707083337 190.5723461062846 L166.98761849530885 191.5887088098475 L167.83874009384547 192.64493631400612 L168.59175829387365 193.73299160908704 L169.24707160996115 194.8450429693158 L169.80562409156937 195.97349928529349 L170.2688734418172 197.11104229408517 L170.6387577109901 198.25065567086517 L170.91766082637486 199.38565096595295 L171.10837721405784 200.5096903900924 L171.21407576119205 201.61680646891205 L171.23826335901424 202.70141860458637 L171.1847482576789 203.75834659875872 L171.05760345387185 204.78282120573303 L170.86113032127358 205.7704917987692 L170.5998226823644 206.7174312449922 L170.2783315078973 207.6201380959377 L169.90143041771074 208.47553621109012 L169.47398214350966 209.28097194092618 L169.0009061009008 210.03420900395705 L168.4871472044224 210.73342119907858 L167.93764604564436 211.3771831002104 L167.35731054071914 211.9644588847477 L166.75098914011542 212.49458945080136 L166.1234456797451 212.9672779805856 L165.47933593936716 213.38257410867607 L164.823185961092 213.7408568542362 L164.15937216807558 214.04281647575098 L163.4921033111436 214.28943540535624 L162.82540425917605 214.48196841756408 L162.16310163765533 214.62192218411334 L161.50881130888465 214.7110343628731 L160.86592767705102 214.75125236425626 L160.2376147915718 214.74471193351607 L159.6267992130552 214.6937156816603 L159.03616459774278 214.600711691586 L158.4681479485045 214.46827231947017 L157.92493747333845 214.2990733045099 L157.4084719858936 214.09587329284383 L156.92044177679225 213.86149387396745 L156.46229087947358 213.59880022022907 L156.03522064991606 213.31068241212023 L155.64019457590274 213.00003752410237 L155.2779442284743 212.6697525376954 L154.94897626583938 212.32268814053896 L154.65358039827652 211.9616634621721 L154.39183822143417 211.58944178940317 L154.16363282490207 211.2087172964027 L153.96865908295442 210.8221028170844 L153.80643453493218 210.43211867997775 L153.67631076380408 210.04118261867583 L153.5774851829966 209.6516007640897 L153.50901314357785 209.26555971818502 L153.46982027628553 208.8851197026403 L153.45871498567504 208.5122087699696 L153.47440101678956 208.14861805911355 L153.5154900181909 207.79599807233683 L153.58051402890018 207.45585594548703 L153.6679378207456 207.1295536792808 L153.77617103176956 206.81830729529457 L153.90358003067095 206.52318687674898 L154.04849945672174 206.2451174509962 L154.20924338416367 205.9848806678385 L154.38411606473124 205.7431172254297 L154.5714222066328 205.52032999352417 L154.76947675301756 205.31688778224142 L154.9766141276424 205.1330297032923 L155.19119692009517 204.96887006975786 L155.41162398751078 204.8244037800095 L155.636337954206 204.69951213119552 L155.86383209504015 204.59396900787974 L156.09265659255846 204.50744739188406 L156.32142416207643 204.4395261401436 L156.54881504280127 204.38969697840946 L156.77358135684304 204.35737165991353 L156.99455084153263 204.3418892396204 L157.21062996382477 204.34252341641502 L157.42080642871073 204.35848989748982 L157.62415109649152 204.3889537412823 L157.81981932646002 204.43303663755194 L158.007051767007 204.4898240855546 L158.1851746143963 204.5583724337529 L158.3535993644487 204.63771574707232 L158.5118220831321 204.72687247035552 L158.65942222357634 204.82485185936545 L158.79606101832184 204.93066015341736 L158.9214794766699 205.04330646647034 L159.0354960178401 205.1618083762584 L159.13800377125722 205.28519719377573 L159.22896757569808 205.41252289813548 L159.3084207092328 205.54285872448116 L159.37646138190343 205.67530539523284 L159.43324902290883 205.80899498748238 L159.47900039371257 205.94309443180347 L159.5139855579762 206.07680864010288 L159.53852373855062 206.20938326239832 L159.55297909094662 206.34010707455894 L159.55775642176485 206.46831400108005 L159.55329687950174 206.5933847788754 L159.54007364398254 206.7147482698566 L159.51858763940632 206.83188243172293 L159.48936329464337 206.944314957904 L159.45294437300564 207.05162359898125 L159.40988989223362 207.15343617915784 L159.36077015391723 207.24943032245207 L159.3061629000033 207.33933290425767 L159.24664961245455 207.42291924474353 L159.18281197051752 207.5000120612598 L159.11522847844654 207.57048019747998 L159.04447127492256 207.63423714743945 L158.9711031338116 207.69123939293783 L158.89567466433326 207.74148457295664 L158.8187217171671 207.78500950381104 L158.74076300151737 207.8218880687121 L158.66229791669343 207.85222899526426 L158.5838046003525 207.87617353917526 L158.50573819419216 207.8938930921116 L158.4285293265875 207.90558673120245 L158.35258281043622 207.91147872718534 L158.27827655331606 207.9118160276018 L158.20596067597106 207.90686573080185 L158.1359568341323 207.89691256580494 L158.0685577377448 207.88225639230308 L158.0040268608188 207.86320973428275 L157.94259833434884 207.84009535989625 L157.88447701405326 207.8132439193323 L157.82983871407492 207.782991651533 L157.77883059725292 207.74967816967958 L157.731571712126 207.71364433443435 L157.6881536664561 207.67523022298278 L157.64864142676518 207.6347732009768 L157.61307423316075 207.59260610354144 L157.58146661857572 207.54905553057765 L157.55380952147442 207.50444026068055 L157.53007148106408 207.4590697870967 L157.510199904106 207.41324297827316 L157.49412239253536 207.36724686470706 L157.48174812126885 207.3213555529914 L157.4729692558041 207.2758292671742 L157.4676623994886 207.23091351680617 L157.46569006065397 207.18683839035043 L157.4669021301718 207.14381797196714 L157.47113736038477 207.1020498790682 L157.4782248367964 207.06171491746665 L157.48798543436203 207.02297685041776 L157.50023325070865 206.9859822773713 L157.51477700911488 206.95086061782112 L157.5314214246054 206.9177241952554 L157.54996852704886 206.88666841587377 L157.57021893569322 206.85777203644776 L157.59197308012196 206.83109751545828 L157.6150323631687 206.80669144144687 L157.6392002618779 206.7845850323641 L157.6642833631483 206.7647946995898 L157.69009233123535 206.74732267023177 L157.71644280482025 206.73215766128297 L157.7431562218708 206.7192755992277 L157.77006057102312 206.70864037873548 L157.7969910686997 206.7002046541633 L157.82379076164588 206.69391065770128 L157.8503110550146 206.68969103814192 L157.87641216655206 206.68746971442428 L157.90196350783825 206.6871627383039 L157.92684399391166 206.68867916071855 L157.950942282957 206.69192189666305 L157.9741569480574 206.6967885836446 L157.99639658330946 206.70317242906773 L158.01757984686589 206.71096304218543 L158.03763544371284 206.72004724655514 L158.05650205120017 206.7303098692465 L158.07412819052755 206.74163450336488 L158.0904720475479 206.7539042407747 L158.10550124637825 206.76700237223002 L158.11919257941295 206.780813052444 L158.13153169741167 206.79522192794988 L158.14251276338774 206.8101167259269 L158.15213807405098 206.82538780247708 L158.16041765256483 206.8409286491479 L158.16736881636206 206.8566363567944 L158.17301572372506 206.87241203616617 L158.17738890278062 206.8881611948831 L158.18052476648424 206.90379407073365 L158.1824651170761 206.9192259214838 L158.1832566433834 206.93437727162797 L158.1829504142221 206.94917411674132 L158.18160137101512 206.963548086305 L158.1792678225987 206.9774365660751 L158.17601094503095 206.99078278124705 L158.17189428905235 207.00353584183364 L158.1669832976748 207.0156507518249 L158.16134483619737 207.0270883838307 L158.15504673676426 207.03781542102473 L158.14815735939288 207.04780426830948 L158.1407451712127 207.05703293470614 L158.13287834546477 207.06548488904363 L158.12462438162325 207.07314889107388 L158.11604974781184 207.08001880018014 L158.10721954650253 207.08609336386965 L158.09819720430156 207.09137598825205 L158.0890441864491 207.0958744927037 L158.0798197364864 207.0996008509014 L158.07058064137627 207.1025709203836 L158.0613810222016 207.10480416275746 L158.0522721504136 207.1063233566229 L158.04330228945372 207.10715430522578 L158.03451656143687 207.10732554078535 L158.02595683845146 207.1068680273671 L158.0176616579137 207.10581486408825 L158.0096661612993 207.104200990356 L158.00200205547515 207.10206289474442 L157.9946975957594 207.09943832901607 L157.98777758975586 207.09636602869298 L157.981263420934 207.0928854414748 L157.97517309086186 207.0890364646943 L157.96952127894448 207.0848591928901 L157.96431941847428 207.08039367646606 L157.959575787764 207.07567969229524 L157.95529561510446 207.07075652701647 L157.95148119627092 207.06566277366113 L157.94813202329098 207.0604361421403 L157.94524492318416 207.05511328401678 L157.94281420538775 207.0497296318826 L157.94083181659653 207.04431925356346 L157.93928750176153 207.03891472127495 L157.93816897001912 207.03354699576235 L157.93746206435245 207.0282453253682 L157.93715093382303 207.02303715988847 L157.93721820725335 207.01794807899824 L157.9376451672849 207.01300173495594 L157.9384119237884 207.00821980922484 L157.93949758565418 207.00362198258927 L157.94088043004857 206.99922591828403 L157.94253806828033 206.99504725760474 L157.94444760748257 206.9910996274197 L157.9465858073781 206.98739465896318 L157.9489292314599 206.98394201725588 L157.95145439198362 206.98074944046644 L157.95413788823313 206.97782278850622 L157.95695653758625 206.9751661001284 L157.95988749897106 206.97278165778974 L157.96290838836796 206.9706700595238 L157.96599738607526 206.96883029707078 L157.96913333551643 206.96725983950904 L157.97229583342846 206.96595472163847 L157.97546531132642 206.96490963637444 L157.97862310819664 206.96411803042423 L157.98175153442253 206.96357220253353 L157.9848339269986 206.96326340361068 L157.98785469613492 206.96318193805888 L157.9907993634002 206.96331726567223 L157.99365459159253 206.96365810347876 L157.99640820656543 206.96419252694471 L157.99904921127353 206.96490806998577 L158.00156779233274 206.96579182326488 L158.0039553194199 206.96683053029125 L158.00620433786221 206.9680106808717 L158.0083085547891 206.9693186015023 L158.01026281923833 206.97074054232567 L158.01206309662447 206.97226276031807 L158.0137064379898 206.97387159840753 L158.01519094446888 206.97555356026305 L158.01651572740346 206.97729538053184 L158.01768086454933 206.9790840903395 L158.0186873528173 206.98090707790348 L158.01953705798974 206.98275214414622 L158.0202326618495 206.98460755322904 L158.02077760715238 206.98646207796003 L158.02117604086584 206.9883050400622 L158.02143275608572 206.9901263453178 L158.02155313303112 206.9919165136341 L158.02154307950303 206.99366670410225 L158.02140897117698 206.99536873514762 L158.02115759208274 206.9970150998922 L158.0207960756065 206.99859897687256 L158.02033184633075 207.00011423627632 L158.01977256300785 207.00155544187785 L158.01912606294223 207.00291784887085 L158.01840030803402 207.00419739780855 L158.0176033327159 207.00539070487534 L158.01674319399243 207.0064950487239 L158.01582792376868 207.00750835411998 L158.01486548363323 207.00842917264416 L158.01386372223743 207.0092566607047 L158.01283033539232 207.00999055511897 L158.01177282898166 207.010631146522 L158.01069848476928 207.0111792508615 L158.00961432915844 207.01163617923666 L158.00852710494038 207.01200370633543 L158.00744324605105 207.01228403772046 L158.00636885533586 207.01247977620864 L158.00530968530552 207.0125938875825 L158.0042711218495 207.01262966586452 L158.00325817085746 207.01259069837502 L158.00227544768572 207.0124808307879 L158.00132716939166 207.01230413238454 L158.0004171496466 207.01206486169866 L157.9995487962274 207.0117674327306 L157.99872511097573 207.01141638189972 L157.99794869210638 207.0110163358894 L157.99722173873684 207.01057198052806 L157.99654605750493 207.01008803083522 L157.99592307113465 207.0095692023499 L157.99535382880674 207.00902018384465 L157.99483901818635 207.00844561151584 L157.9943789789579 207.00785004472834 L157.99397371771633 207.0072379433788 L157.99362292406258 207.00661364693073 L157.99332598775183 207.00598135516114 L157.993082016745 207.00534511064714 L157.99288985601453 207.0047087830099 L157.9927481069599 207.00407605492143 L157.9926551472907 207.00345040986988 L157.99260915123995 207.00283512166914 L157.99260810997455 207.0022332456884 L157.99264985207552 207.0016476117696 L157.99273206396603 207.0010808187918 L157.992852310172 207.0005352308335 L157.993008053306 207.00001297487896 L157.99319667367212 206.99951594000578 L157.99341548839755 206.99904577798728 L157.99366177000226 206.99860390523781 L157.9939327643274 206.99819150602403 L157.9942257077495 206.99780953686312 L157.9945378436155 206.99745873202437 L157.9948664378415 206.99713961004915 L157.99520879362555 206.99685248120227 L157.99556226523217 206.99659745576636 L157.99592427081402 206.99637445309085 L157.9962923042432 206.99618321130615 L157.99666394593189 206.9960232976151 L157.99703687262817 206.99589411907417 L157.99740886618108 206.99579493377814 L157.99777782127285 206.9957248623642 L157.99814175212487 206.99568289975355 L157.99849879818748 206.99566792705093 L157.99884722883033 206.99567872352608 L157.99918544705446 206.99571397860308 " stroke = "red" stroke-width = "4" fill = "none" /></svg>