<svg width="500" height="500" viewbox = "0 0 500 500"  xmlns="http://www.w3.org/2000/svg">

<!--
<topfunctions>



function YofX(){
    X = currentjson.plotparams.g*(x - currentjson.plotparams.x0);

    Y = Math.exp(-X/100)*(Math.sin(X));

    y = currentjson.plotparams.y0 - currentjson.plotparams.G*(Y);
}


function XYofT(){
    T = currentjson.plotparams.g*t;
    X = A*Math.cos(2*Math.PI*T);
    Y = B*Math.sin(2*Math.PI*T);
    y = currentjson.plotparams.y0 - currentjson.plotparams.G*(Y);
    x = currentjson.plotparams.x0 - currentjson.plotparams.G*(X);    
}




function plotfunction(){
    
    /*plot one function:*/
    currentStroke = "red";
    currentLineWidth = 4;
    ctx.strokeStyle = currentStroke;
    ctx.lineWidth = currentLineWidth;
    ctx.beginPath();	
    x = 0;
    y = 0;
    t = 0;
    intx = x;
    XYofT();
    currentSVG += "	<path d = \"M";
    currentSVG += Math.round(x).toString() + " ";
    currentSVG += Math.round(y).toString() + " ";
    for(t = 1;t < currentjson.plotparams.duration;t++){
        ctx.moveTo(x,y);
        XYofT();
        ctx.lineTo(x,y);
        currentSVG += "L" + x + " " + y + " ";
    }
    ctx.stroke();
    currentSVG += "\""+ " stroke = \"" + currentStroke + "\" stroke-width = \"" + currentLineWidth.toString() + "\" fill = \"" + "none" + "\" "+"/>";
    /*finish plot one function*/
    
    

}































</topfunctions>
-->

<!--
<currentjson>
{
    "constants": {},
    "YofXstring": "Y =  (1/Math.PI)*0.5/(X*X + 0.25);",
    "style": {
        "linewidth": 4,
        "color": "blue",
        "fill": "none"
    },
    "plotparams": {
        "G": 76.73245728652331,
        "g": 10.05798257383807,
        "duration": 450.78888054094654,
        "plotwidth": 500,
        "plotheight": 500,
        "x0": 250,
        "y0": 250
    },
    "funcparams": {},
    "image": {
        "url": "",
        "xoverw": 0.038011695906432746,
        "yoverw": -0.08771929824561403,
        "woverw": 0.8536631795472632,
        "angle": "0"
    }
}
</currentjson>
-->
	<path d = "M173 250 L178.30365033992948 222.6594907390329 L192.75091319535267 198.90780821630295 L214.71292464243857 181.86269513740723 L241.30686149912833 173.76156255383518 L269.04189516543994 175.66779816434521 L294.27741202085025 187.33118170921054 L313.7008952142791 207.22072990188406 L324.7627391341865 232.72565953844534 L326.01092103823277 260.4980895475163 L317.28159947969823 286.8924975121175 L299.72062080389975 308.4442458083166 L275.6331106842489 322.32436406825275 L248.18089392618214 326.71089136700425 L220.96746044956552 321.0280342433928 L197.56495650695075 306.0217476977482 L181.04529019958812 283.6618180966077 L173.57690029301034 256.8833009816249 L176.14011810191084 229.20125371017647 L188.39848520406767 204.24933469254623 L208.7429183449212 185.3028345711013 L234.5029242672529 174.8487482142737 L262.29713954623304 174.25932162827826 L288.47718214150274 183.61192535042346 L309.6065529016952 201.67889847690202 L322.9117244567398 226.08869643928688 L326.6462057307978 253.63718961567017 L320.31979348287973 280.70825045086855 L304.7629183833145 303.74842110583864 L282.01763929747824 319.73335482424966 L255.069594311826 326.5648040207877 L227.45609370332735 323.34604481575656 L202.801798167801 310.4995846682862 L184.34293107565776 289.71170232428085 L174.5024785953479 263.7110999916937 L174.57213864811314 235.9107227613103 L184.54276737135882 209.95976151634363 L203.1055793793598 189.26464525597467 L227.8239442700908 176.54189933375568 L255.45322866832885 173.4615632618549 L282.366700033685 180.4279745144819 L305.03158636352845 196.52669354208928 L320.47280225241616 219.64453683568684 L326.66347073459565 246.74696201160816 L322.79097941999635 274.27639421960754 L309.3636473103334 298.6192079248775 L288.1440007739909 316.5800661323035 L261.91741714754335 325.8013533504486 L234.12650474793327 325.0726458153084 L208.41921206608944 314.48959664956266 L188.16998317195498 295.44138004365396 L176.0368144250333 270.4283425864939 L173.61235503327353 242.7337975760737 L181.21484942318543 215.99304392696885 L197.8463631787738 193.71618200985506 L221.32377598230715 178.82736356354908 L248.56534688996155 173.28095561282072 L275.9952362152849 177.80500228312445 L300.0128848282731 191.80565875978996 L317.4656382297131 213.44514177998224 L326.0625768370929 239.88296455825798 L324.6752314310717 267.6487906651987 L313.4857106271428 293.097964538883 L293.9627965561297 312.889923836752 L268.66914653199484 324.42669527121996 L240.9249082025894 326.1939151776354 L214.37190343018398 317.9596110645138 L192.49558790229662 300.8046512686155 L178.16753600523958 276.9808657694591 L173.26850625979284 249.6154618033599 L178.44156528823723 222.30053388907092 L193.00767626713383 198.62155085294705 L215.05483206983237 181.6867125695117 L241.68903311887448 173.7189549709172 L269.41416557239216 175.7641584114798 L294.5909154832276 187.55386114741938 L313.91447998912713 207.54049871998507 L324.8483692130259 233.10054357741996 L325.9573562677187 260.8788799996591 L317.09587099000265 287.22921026990826 L299.42710807403205 308.6926825819546 L275.2703413920134 322.4519140337867 L247.79648664823162 326.70081179581285 L220.611874052773 320.88164822108786 L197.28486671182623 305.7582704505636 L180.8774627348339 283.3158347224536 L173.5433648760436 256.5002266691492 L176.2452767282912 228.8313723557293 L188.62853432371935 203.94119843099224 L209.0676607722509 185.09689062477364 L234.87973298690446 174.77202962540582 L262.676553109125 174.3218987916606 L288.80939717616354 183.80558413241403 L309.8479615079088 201.97821843604729 L323.03063835641314 226.45438761716056 L326.62701580052715 254.0212498969711 L320.16501867116597 281.0602665169353 L304.4928750631416 304.0221858922884 L281.66777445618465 319.8929328488964 L254.6858326352354 326.5892484213201 L227.08880931416095 323.2321469204969 L202.49920231263945 310.26229517942846 L184.14474372042147 289.38216882777226 L174.43471462049285 263.33257839811074 L174.64369302932863 235.53289935854215 L184.7442475887482 209.6322309451026 L203.41053831792433 189.03040051466198 L228.1923517760908 176.43168834226006 L255.83672607010413 173.48985276441633 L282.7149478983404 180.59105111560183 L305.2988722563374 196.8031511421456 L320.6240411370253 219.9980864826278 L326.6788103783197 247.13119533711125 L322.668406278621 274.64087519049207 L309.11925083426127 298.9160932825162 L287.809861441352 316.770385493974 L261.5373954496227 325.8601246206935 L233.75048388256195 324.99215443749597 L208.09655006550085 314.2804082502207 L187.94303396600904 295.1309535450362 L175.93536829209114 270.0574258368303 L173.64972820639787 242.35107862040604 L181.38613614730673 215.64876001608974 L198.1290796599052 193.4555252540121 L221.6808117023493 178.68454883133438 L248.94983588424924 173.27472934842058 L276.3567088905417 177.93618177138154 L300.3038928071379 192.0570248461808 L317.64798261808835 213.78369912689948 L326.1123223669905 240.2642727476863 L324.58584830138676 268.02279762940947 L313.2689316320416 293.4155765983612 L293.6470769904572 313.109449937527 L268.2959290334426 324.51931952206326 L240.54318282200632 326.1474793416704 L214.0317769975786 317.7802104989075 L192.24170680029334 300.5158348232002 L178.03322570259633 276.62054466863293 L173.2713968745424 249.23093326418092 L178.58127738649983 221.94227269567176 L193.26587066915562 198.33658383053685 L215.3976171255056 181.51244565152714 L242.0714134640079 173.67826314365345 L269.7859484034342 175.86238305013597 L294.90329906974114 187.77810888536487 L314.12645958770713 207.86133388472902 L324.93211951703825 233.47585203671832 L325.90188387078706 261.25939723491797 L316.90845742516467 287.5649880369082 L299.1323540101114 308.939645321746 L274.9069374492598 322.5776444101542 L247.41213471035292 326.68880592675026 L220.25702572236293 320.7334820459727 L197.00610082767963 305.49339286565623 L180.71137124387985 282.9690146398809 L173.5117496245871 256.1169891070913 L176.35228766319352 228.46202263946017 L188.8601247532403 203.63421891050697 L209.39343119234007 184.89257668363075 L235.2569214435995 174.69720034482165 L263.05564830751194 174.38637656811648 L289.14063753457896 184.00090535003656 L310.0878670661326 202.27874443530533 L323.1477181325551 226.82067012986803 L326.6059014257279 254.40520918683603 L320.0084817043646 281.4115025218115 L304.22146318489786 304.29459394191 L281.3171142965269 320.05075555171686 L254.3019532766383 326.61176932582714 L226.72210032673294 323.1164098409477 L202.1977994133045 310.02349223676885 L183.94821028297878 289.0516462701194 L174.36884842541406 262.95372196436716 L174.71713994192018 235.15543928896193 L184.94736666772624 209.3057141878019 L203.71666732485772 188.7976869905211 L228.56130696897955 176.3233249776444 L256.2200768856731 173.5200637764097 L283.0623741455839 180.75587088362255 L305.5647693489094 197.08094475115203 L320.77350633846186 220.3523896108334 L326.6922242767235 247.51550071103458 L322.5440081110089 275.00473731951604 L308.8733696113591 299.2117501399048 L287.4747725351257 316.95902795492714 L261.15708399648554 325.9169907064518 L233.37487111467502 324.90977967378126 L207.7749404464405 314.0696054843986 L187.71764328598346 294.8193936078583 L175.8357822508109 269.6860053560642 L173.68901887378024 241.96855176310922 L181.55914607010828 215.30533881740084 L198.41309885018842 193.19628858087094 L222.03855864289147 178.54352514669432 L249.33435125274997 173.27042999616503 L276.7175196319014 178.06917110204353 L300.59363743189283 192.3098461378521 L317.8286280652686 214.12316602581024 L326.1601563786181 240.6458254446178 L324.49459198999983 268.39635196096174 L313.05056367316524 293.73209830003884 L293.33026125278 313.3273910799581 L267.9222520428593 324.61007226199655 L240.16169494401387 326.09913110445797 L213.69255388672252 317.59910767132635 L191.9892762653409 300.22574970081763 L177.90072280512976 276.25955500775643 L173.27621448512917 248.84642403968172 L178.7227831259802 221.5847161562291 L193.5254899170184 198.05291430585027 L215.74127120061934 181.33989876006146 L242.45399293121525 173.63948809400256 L270.15723432134354 175.96246961342797 L295.21455493508086 188.003919291211 L314.3368286861788 208.1832273383825 L325.013987942907 233.85157549079395 L325.84450524061856 261.6396316966606 L316.7193634919414 287.8998223803004 L298.8363660146203 309.18512782544417 L274.54290798280607 322.7015520396617 L247.0278477650504 326.67487406132733 L219.90292437000718 320.5835394390974 L196.72866585574232 305.2271215954532 L180.54701989788953 282.62136655880573 L173.4820553326433 255.73359792028245 L176.46114821908867 228.0932138374137 L189.09325067656698 203.3284038404447 L209.72022142345438 184.68989787902194 L235.6344801644444 174.62426225182014 L263.4344156207508 174.45275333834428 L289.47089489771355 184.19788409783638 L310.32626355127303 202.58046892713432 L323.26296084477826 227.18753477844592 L326.5828631366845 254.78905784220342 L319.85018651380676 281.7619496444177 L303.94868956506343 304.56563841320417 L280.96566762523435 320.20681896904057 L253.91796587689726 326.6323661687122 L226.35597595050132 322.99883648370604 L201.89759703948405 309.78318183780675 L183.75333569929847 288.7201429524515 L174.3048816642572 262.57454020495464 L174.79247754132263 234.77835203219897 L185.15211950714485 208.98021944460817 L204.0239587116241 188.56651052823324 L228.93080058255381 176.216811961423 L256.603271487569 173.55219553911581 L283.40897004959055 180.92242967899284 L305.8292709636047 197.36006739270528 L320.9211941029773 220.7074373221472 L326.70371209292443 247.89986848176423 L322.4177880412481 275.36797146878297 L308.6260098167961 299.50617107178715 L287.1387424710641 317.14598877741025 L260.7764923393027 325.97195017958325 L232.99967587771258 324.8255235929913 L207.454391286129 313.85719364640374 L187.4938167924181 294.506708056745 L175.73805880232064 269.3140904725161 L173.73022604865753 241.5862266111307 L181.73387484663766 214.96278895554622 L198.69841361651203 192.93847850113312 L222.397007819222 178.4042960513968 L249.71888333885502 173.26805766402788 L277.0776593775428 178.20396693506044 L300.8821114258172 192.5641162853844 L318.0075700345271 214.46353395134767 L326.2060776705794 241.02761306598163 L324.4014647886797 268.769444278587 L312.83061223466154 294.0475216947074 L293.012357300122 313.54374179031925 L267.54812494483116 324.69895121183913 L239.78045414953544 326.04887168024504 L213.35424261713658 317.4163071301331 L191.73830263736468 299.9344031871095 L177.77003064052872 275.89790585275125 L173.2829589705616 248.46194378659584 L178.86607895263353 221.22787325109326 L193.78652749053037 197.7705494030884 L216.08578566461938 181.16907622847134 L242.83676191188044 173.60263079581182 L270.5280140020211 176.0644155878852 L295.5246752622302 188.23128669385596 L314.5455820012034 208.50617099671263 L325.093972434566 234.22770450363146 L325.7852218182136 262.0195738357187 L316.52859393932107 288.2337048909082 L298.53915152118475 309.42912392784865 L274.17826213498233 322.8236338104616 L246.64363546396342 326.6590165494533 L219.549578888699 320.43182416615775 L196.452568763186 304.95946332677204 L180.38441282472184 282.2728992107832 L173.45428274596776 255.3500627373773 L176.57185566204544 227.72495521188262 L189.32790623857588 203.02376090156764 L210.0480232588559 184.48885930085476 L236.01239966726365 174.55321717820064 L263.8128455357635 174.52102743523025 L289.8001609716979 184.3965154290181 L310.5631449762217 202.88338433400293 L323.37636359882646 227.5549723492944 L326.557901511974 255.1727862232082 L319.69013707498743 282.1115990834711 L303.6745610542453 304.835312498993 L280.6134432683098 320.36111918159133 L253.533880079501 326.6510384327038 L225.99044538080685 322.879429801667 L201.5986027306459 309.54137001784795 L183.56012486329934 288.38766719986705 L174.24281594359246 262.19504264329214 L174.86970393547438 234.40164705858825 L185.35850096471464 208.65575489019872 L204.33240476088355 188.33687693358084 L229.30082333712122 176.11215196862844 L256.9863002521436 173.5862472455709 L283.75472690642715 181.09072331898523 L306.0923704571827 197.64051205633973 L321.0671007214763 221.06322069974505 L326.71327353841554 248.2842889962587 L322.28974923944565 275.73056851540963 L308.37717766278405 299.7993486840528 L286.8017796883133 317.3312632660414 L260.39563003697293 326.0250016597337 L232.62490759408428 324.7393883110774 L207.13491063480456 313.6431780707244 L187.27156010658985 294.19290474461883 L175.64220040080085 268.9416905262825 L173.77334869613463 241.20411276635235 L181.91031808842402 214.62111903396988 L198.9850167934072 192.68210148950698 L222.75615022961202 178.26686504190232 L250.1034224849078 173.26761241159153 L277.43711908308524 178.34056588523237 L301.16930754404837 192.81982890292542 L318.18480403180354 214.80479435530066 L326.2500850897025 241.40962602436596 L324.30646903629656 269.1420652121454 L312.6090828408087 294.36183886022854 L292.693373116117 313.7584966353202 L267.17355713562193 324.7859541393814 L239.39947001321985 325.9967023312689 L213.01685168482842 317.2318134659935 L191.48879221915254 299.64180259876366 L177.64115249124148 275.53560628675876 L173.2916301614557 248.07750216092919 L179.0111612680306 220.8717529412674 L194.04897683387927 197.48949621368743 L216.43115186471704 180.99998234711506 L243.2197107933919 173.56769217469042 L270.8982781328701 176.16821841300774 L295.83365226269103 188.46020538309506 L314.75271429035973 208.83015674964057 L325.1720709831915 234.60422962868867 L325.7240350925301 262.39921410950717 L316.3361535583739 288.56662718345956 L298.2407179939629 309.67162750130973 L273.8130090636645 322.94388665653867 L246.25950745595 326.64123378936455 L219.19699815276846 320.2783400375078 L196.17781648473508 304.69042478238094 L180.22355410775 281.9236213464894 L173.42843256205327 254.9663931906469 L176.68440721154568 227.35725601200974 L189.56408554627893 202.7202977444799 L210.37682846562893 184.2894659983201 L236.39067046082081 174.4840669082203 L264.19092854945603 174.59119714428323 L290.1284274868401 184.59679435485185 L310.7985053914922 203.18748304791953 L323.4879235466532 227.92297361442488 L326.5310171784813 255.55638469286635 L319.5283374074585 282.4604420577221 L303.39908453682835 305.1036094267588 L280.2604500720537 320.5136523140368 L253.1497055311067 326.6677856488333 L225.6255177976118 322.7581927936201 L201.30082399543164 309.29806284950797 L183.36858262757448 288.0542273626696 L174.18265282209688 261.81523880983514 L174.94881718487787 234.02533382886392 L185.56650585728102 208.3323286733189 L204.64199772618653 188.1087919736829 L229.67136594003637 176.0093476276617 L257.36915355956637 173.62221804056068 L284.0996360317262 181.26074757657074 L306.35406122271485 197.92227169955825 L321.21122252969985 221.419730808586 L326.7209083730548 248.66875259945422 L322.1598949210858 276.09251935336977 L308.1268793987836 300.0912756134977 L286.46389264950443 317.5148467677558 L260.0145066536717 326.0761438146788 L232.25057567629372 324.6513759913717 L206.81650651650716 313.42756413255404 L187.05087881035067 293.8779915524739 L175.5482094536497 268.56881486984315 L173.81838573321048 240.82221982534904 L182.0884713645136 214.28033763289977 L199.27290118299578 192.4271639847574 L223.11597685348843 178.13123557006176 L250.4879590335629 173.26909425003709 L277.79588972102914 178.47896452200575 L301.45521857381686 193.0769775683963 L318.3603256059655 215.14693866710553 L326.29217753066786 241.79185472489786 L324.2096071186155 269.514205403471 L312.3859810546293 294.6750419035008 L292.3733167119891 313.97165022143474 L266.7985580224287 324.87107885956516 L239.0187521029937 325.94262436769367 L212.6803895637949 317.0456313126964 L191.2407512771101 299.34795528438525 L177.5140915936439 275.1726654078086 L173.30222784003936 247.6931088177176 L179.15802642808916 220.5163641715475 L194.3128313559891 197.20976179593796 L216.7773611281119 180.83262136226188 L243.60282995806432 173.53467310811595 L271.2680174151837 176.2738754819191 L296.14147817667936 188.69066960976375 L314.9582203511112 209.15517645962208 L325.2482816274662 234.98114141015836 L325.66094660012834 262.77854298426263 L316.1420471822737 288.8985808965572 L297.94107292837884 309.9126324551341 L273.4471579419786 323.0623075578101 L245.8754733883091 326.62152622767036 L218.84519101695463 320.1230909077608 L195.9044159200391 304.42001271844765 L180.06444778731765 281.57354173885636 L173.40450543009615 254.58259891545805 L176.79880004120733 226.9901254714204 L189.8017826680803 202.41802199059933 L210.70662878613393 184.09172297899568 L236.76928304505714 174.41681317854935 L264.56865516538784 174.66326070302654 L290.4556861992677 184.7987158456637 L311.0323388867369 203.49275743238877 L323.5976378864929 228.291529331692 L326.5022108114305 255.93984361676053 L319.3647915747278 282.80846980617497 L303.12226693135005 305.3705224582766 L279.90669690156443 320.66441453564926 L252.76545187934553 326.68260739653516 L225.26120236613204 322.63512850445477 L201.0042683129283 309.0532664437506 L183.17871380252924 287.7198318148932 L174.1243938107565 261.43513824328153 L175.02981530264822 233.6494217939217 L185.77612896091773 208.00994891663674 " stroke = "red" stroke-width = "4" fill = "none" /></svg>