<svg width="500" height="500" viewbox = "0 0 500 500"  xmlns="http://www.w3.org/2000/svg">

<!--
<topfunctions>


//put helper functions here, along with contsants and variables


function YofX(){
    
    X = currentjson.plotparams.g*(x - currentjson.plotparams.x0);
    eval(currentjson.YofXstring);
    y = currentjson.plotparams.y0 - currentjson.plotparams.G*(Y);

}




function plotfunction(){
    /*plot one function:*/
    currentStroke = currentjson.style.color;
    currentLineWidth = currentjson.style.linewidth;
    ctx.strokeStyle = currentStroke;
    ctx.lineWidth = currentLineWidth;
    ctx.beginPath();	
    x = 0;
    YofX();
    currentSVG += "	<path d = \"M";
    currentSVG += Math.round(x).toString() + " ";
    currentSVG += Math.round(y).toString() + " ";
    for(x = 1;x < currentjson.plotparams.plotwidth;x++){
        ctx.moveTo(x-1,y);
        YofX();
        ctx.lineTo(x,y);
        currentSVG += "L" + x + " " + y + " ";
    }
    ctx.stroke();
    currentSVG += "\""+ " stroke = \"" + currentStroke + "\" stroke-width = \"" + currentLineWidth.toString() + "\" fill = \"" + "none" + "\" "+"/>";
    /*finish plot one function*/

}





























</topfunctions>
-->

<!--
<currentjson>
{
    "constants": {},
    "YofXstring": "Y = Math.sin((Math.PI*2*X));     if(Y>= 0){         Y = 1;     }     else{         Y = -1     }",
    "style": {
        "linewidth": 4,
        "color": "blue",
        "fill": "none"
    },
    "plotparams": {
        "G": 18.268206260053894,
        "g": 0.026544625844180117,
        "duration": 450.78888054094654,
        "plotwidth": 500,
        "plotheight": 500,
        "x0": 11,
        "y0": 299
    },
    "funcparams": {},
    "image": {
        "url": "",
        "xoverw": 0.038011695906432746,
        "yoverw": -0.08771929824561403,
        "woverw": 0.8536631795472632,
        "angle": "0"
    }
}
</currentjson>
-->
	<path d = "M0 317 L1 317.2682062600539 L2 317.2682062600539 L3 317.2682062600539 L4 317.2682062600539 L5 317.2682062600539 L6 317.2682062600539 L7 317.2682062600539 L8 317.2682062600539 L9 317.2682062600539 L10 317.2682062600539 L11 280.7317937399461 L12 280.7317937399461 L13 280.7317937399461 L14 280.7317937399461 L15 280.7317937399461 L16 280.7317937399461 L17 280.7317937399461 L18 280.7317937399461 L19 280.7317937399461 L20 280.7317937399461 L21 280.7317937399461 L22 280.7317937399461 L23 280.7317937399461 L24 280.7317937399461 L25 280.7317937399461 L26 280.7317937399461 L27 280.7317937399461 L28 280.7317937399461 L29 280.7317937399461 L30 317.2682062600539 L31 317.2682062600539 L32 317.2682062600539 L33 317.2682062600539 L34 317.2682062600539 L35 317.2682062600539 L36 317.2682062600539 L37 317.2682062600539 L38 317.2682062600539 L39 317.2682062600539 L40 317.2682062600539 L41 317.2682062600539 L42 317.2682062600539 L43 317.2682062600539 L44 317.2682062600539 L45 317.2682062600539 L46 317.2682062600539 L47 317.2682062600539 L48 317.2682062600539 L49 280.7317937399461 L50 280.7317937399461 L51 280.7317937399461 L52 280.7317937399461 L53 280.7317937399461 L54 280.7317937399461 L55 280.7317937399461 L56 280.7317937399461 L57 280.7317937399461 L58 280.7317937399461 L59 280.7317937399461 L60 280.7317937399461 L61 280.7317937399461 L62 280.7317937399461 L63 280.7317937399461 L64 280.7317937399461 L65 280.7317937399461 L66 280.7317937399461 L67 280.7317937399461 L68 317.2682062600539 L69 317.2682062600539 L70 317.2682062600539 L71 317.2682062600539 L72 317.2682062600539 L73 317.2682062600539 L74 317.2682062600539 L75 317.2682062600539 L76 317.2682062600539 L77 317.2682062600539 L78 317.2682062600539 L79 317.2682062600539 L80 317.2682062600539 L81 317.2682062600539 L82 317.2682062600539 L83 317.2682062600539 L84 317.2682062600539 L85 317.2682062600539 L86 317.2682062600539 L87 280.7317937399461 L88 280.7317937399461 L89 280.7317937399461 L90 280.7317937399461 L91 280.7317937399461 L92 280.7317937399461 L93 280.7317937399461 L94 280.7317937399461 L95 280.7317937399461 L96 280.7317937399461 L97 280.7317937399461 L98 280.7317937399461 L99 280.7317937399461 L100 280.7317937399461 L101 280.7317937399461 L102 280.7317937399461 L103 280.7317937399461 L104 280.7317937399461 L105 280.7317937399461 L106 317.2682062600539 L107 317.2682062600539 L108 317.2682062600539 L109 317.2682062600539 L110 317.2682062600539 L111 317.2682062600539 L112 317.2682062600539 L113 317.2682062600539 L114 317.2682062600539 L115 317.2682062600539 L116 317.2682062600539 L117 317.2682062600539 L118 317.2682062600539 L119 317.2682062600539 L120 317.2682062600539 L121 317.2682062600539 L122 317.2682062600539 L123 317.2682062600539 L124 317.2682062600539 L125 280.7317937399461 L126 280.7317937399461 L127 280.7317937399461 L128 280.7317937399461 L129 280.7317937399461 L130 280.7317937399461 L131 280.7317937399461 L132 280.7317937399461 L133 280.7317937399461 L134 280.7317937399461 L135 280.7317937399461 L136 280.7317937399461 L137 280.7317937399461 L138 280.7317937399461 L139 280.7317937399461 L140 280.7317937399461 L141 280.7317937399461 L142 280.7317937399461 L143 317.2682062600539 L144 317.2682062600539 L145 317.2682062600539 L146 317.2682062600539 L147 317.2682062600539 L148 317.2682062600539 L149 317.2682062600539 L150 317.2682062600539 L151 317.2682062600539 L152 317.2682062600539 L153 317.2682062600539 L154 317.2682062600539 L155 317.2682062600539 L156 317.2682062600539 L157 317.2682062600539 L158 317.2682062600539 L159 317.2682062600539 L160 317.2682062600539 L161 317.2682062600539 L162 280.7317937399461 L163 280.7317937399461 L164 280.7317937399461 L165 280.7317937399461 L166 280.7317937399461 L167 280.7317937399461 L168 280.7317937399461 L169 280.7317937399461 L170 280.7317937399461 L171 280.7317937399461 L172 280.7317937399461 L173 280.7317937399461 L174 280.7317937399461 L175 280.7317937399461 L176 280.7317937399461 L177 280.7317937399461 L178 280.7317937399461 L179 280.7317937399461 L180 280.7317937399461 L181 317.2682062600539 L182 317.2682062600539 L183 317.2682062600539 L184 317.2682062600539 L185 317.2682062600539 L186 317.2682062600539 L187 317.2682062600539 L188 317.2682062600539 L189 317.2682062600539 L190 317.2682062600539 L191 317.2682062600539 L192 317.2682062600539 L193 317.2682062600539 L194 317.2682062600539 L195 317.2682062600539 L196 317.2682062600539 L197 317.2682062600539 L198 317.2682062600539 L199 317.2682062600539 L200 280.7317937399461 L201 280.7317937399461 L202 280.7317937399461 L203 280.7317937399461 L204 280.7317937399461 L205 280.7317937399461 L206 280.7317937399461 L207 280.7317937399461 L208 280.7317937399461 L209 280.7317937399461 L210 280.7317937399461 L211 280.7317937399461 L212 280.7317937399461 L213 280.7317937399461 L214 280.7317937399461 L215 280.7317937399461 L216 280.7317937399461 L217 280.7317937399461 L218 280.7317937399461 L219 317.2682062600539 L220 317.2682062600539 L221 317.2682062600539 L222 317.2682062600539 L223 317.2682062600539 L224 317.2682062600539 L225 317.2682062600539 L226 317.2682062600539 L227 317.2682062600539 L228 317.2682062600539 L229 317.2682062600539 L230 317.2682062600539 L231 317.2682062600539 L232 317.2682062600539 L233 317.2682062600539 L234 317.2682062600539 L235 317.2682062600539 L236 317.2682062600539 L237 317.2682062600539 L238 280.7317937399461 L239 280.7317937399461 L240 280.7317937399461 L241 280.7317937399461 L242 280.7317937399461 L243 280.7317937399461 L244 280.7317937399461 L245 280.7317937399461 L246 280.7317937399461 L247 280.7317937399461 L248 280.7317937399461 L249 280.7317937399461 L250 280.7317937399461 L251 280.7317937399461 L252 280.7317937399461 L253 280.7317937399461 L254 280.7317937399461 L255 280.7317937399461 L256 317.2682062600539 L257 317.2682062600539 L258 317.2682062600539 L259 317.2682062600539 L260 317.2682062600539 L261 317.2682062600539 L262 317.2682062600539 L263 317.2682062600539 L264 317.2682062600539 L265 317.2682062600539 L266 317.2682062600539 L267 317.2682062600539 L268 317.2682062600539 L269 317.2682062600539 L270 317.2682062600539 L271 317.2682062600539 L272 317.2682062600539 L273 317.2682062600539 L274 317.2682062600539 L275 280.7317937399461 L276 280.7317937399461 L277 280.7317937399461 L278 280.7317937399461 L279 280.7317937399461 L280 280.7317937399461 L281 280.7317937399461 L282 280.7317937399461 L283 280.7317937399461 L284 280.7317937399461 L285 280.7317937399461 L286 280.7317937399461 L287 280.7317937399461 L288 280.7317937399461 L289 280.7317937399461 L290 280.7317937399461 L291 280.7317937399461 L292 280.7317937399461 L293 280.7317937399461 L294 317.2682062600539 L295 317.2682062600539 L296 317.2682062600539 L297 317.2682062600539 L298 317.2682062600539 L299 317.2682062600539 L300 317.2682062600539 L301 317.2682062600539 L302 317.2682062600539 L303 317.2682062600539 L304 317.2682062600539 L305 317.2682062600539 L306 317.2682062600539 L307 317.2682062600539 L308 317.2682062600539 L309 317.2682062600539 L310 317.2682062600539 L311 317.2682062600539 L312 317.2682062600539 L313 280.7317937399461 L314 280.7317937399461 L315 280.7317937399461 L316 280.7317937399461 L317 280.7317937399461 L318 280.7317937399461 L319 280.7317937399461 L320 280.7317937399461 L321 280.7317937399461 L322 280.7317937399461 L323 280.7317937399461 L324 280.7317937399461 L325 280.7317937399461 L326 280.7317937399461 L327 280.7317937399461 L328 280.7317937399461 L329 280.7317937399461 L330 280.7317937399461 L331 280.7317937399461 L332 317.2682062600539 L333 317.2682062600539 L334 317.2682062600539 L335 317.2682062600539 L336 317.2682062600539 L337 317.2682062600539 L338 317.2682062600539 L339 317.2682062600539 L340 317.2682062600539 L341 317.2682062600539 L342 317.2682062600539 L343 317.2682062600539 L344 317.2682062600539 L345 317.2682062600539 L346 317.2682062600539 L347 317.2682062600539 L348 317.2682062600539 L349 317.2682062600539 L350 317.2682062600539 L351 280.7317937399461 L352 280.7317937399461 L353 280.7317937399461 L354 280.7317937399461 L355 280.7317937399461 L356 280.7317937399461 L357 280.7317937399461 L358 280.7317937399461 L359 280.7317937399461 L360 280.7317937399461 L361 280.7317937399461 L362 280.7317937399461 L363 280.7317937399461 L364 280.7317937399461 L365 280.7317937399461 L366 280.7317937399461 L367 280.7317937399461 L368 280.7317937399461 L369 317.2682062600539 L370 317.2682062600539 L371 317.2682062600539 L372 317.2682062600539 L373 317.2682062600539 L374 317.2682062600539 L375 317.2682062600539 L376 317.2682062600539 L377 317.2682062600539 L378 317.2682062600539 L379 317.2682062600539 L380 317.2682062600539 L381 317.2682062600539 L382 317.2682062600539 L383 317.2682062600539 L384 317.2682062600539 L385 317.2682062600539 L386 317.2682062600539 L387 317.2682062600539 L388 280.7317937399461 L389 280.7317937399461 L390 280.7317937399461 L391 280.7317937399461 L392 280.7317937399461 L393 280.7317937399461 L394 280.7317937399461 L395 280.7317937399461 L396 280.7317937399461 L397 280.7317937399461 L398 280.7317937399461 L399 280.7317937399461 L400 280.7317937399461 L401 280.7317937399461 L402 280.7317937399461 L403 280.7317937399461 L404 280.7317937399461 L405 280.7317937399461 L406 280.7317937399461 L407 317.2682062600539 L408 317.2682062600539 L409 317.2682062600539 L410 317.2682062600539 L411 317.2682062600539 L412 317.2682062600539 L413 317.2682062600539 L414 317.2682062600539 L415 317.2682062600539 L416 317.2682062600539 L417 317.2682062600539 L418 317.2682062600539 L419 317.2682062600539 L420 317.2682062600539 L421 317.2682062600539 L422 317.2682062600539 L423 317.2682062600539 L424 317.2682062600539 L425 317.2682062600539 L426 280.7317937399461 L427 280.7317937399461 L428 280.7317937399461 L429 280.7317937399461 L430 280.7317937399461 L431 280.7317937399461 L432 280.7317937399461 L433 280.7317937399461 L434 280.7317937399461 L435 280.7317937399461 L436 280.7317937399461 L437 280.7317937399461 L438 280.7317937399461 L439 280.7317937399461 L440 280.7317937399461 L441 280.7317937399461 L442 280.7317937399461 L443 280.7317937399461 L444 280.7317937399461 L445 317.2682062600539 L446 317.2682062600539 L447 317.2682062600539 L448 317.2682062600539 L449 317.2682062600539 L450 317.2682062600539 L451 317.2682062600539 L452 317.2682062600539 L453 317.2682062600539 L454 317.2682062600539 L455 317.2682062600539 L456 317.2682062600539 L457 317.2682062600539 L458 317.2682062600539 L459 317.2682062600539 L460 317.2682062600539 L461 317.2682062600539 L462 317.2682062600539 L463 317.2682062600539 L464 280.7317937399461 L465 280.7317937399461 L466 280.7317937399461 L467 280.7317937399461 L468 280.7317937399461 L469 280.7317937399461 L470 280.7317937399461 L471 280.7317937399461 L472 280.7317937399461 L473 280.7317937399461 L474 280.7317937399461 L475 280.7317937399461 L476 280.7317937399461 L477 280.7317937399461 L478 280.7317937399461 L479 280.7317937399461 L480 280.7317937399461 L481 280.7317937399461 L482 317.2682062600539 L483 317.2682062600539 L484 317.2682062600539 L485 317.2682062600539 L486 317.2682062600539 L487 317.2682062600539 L488 317.2682062600539 L489 317.2682062600539 L490 317.2682062600539 L491 317.2682062600539 L492 317.2682062600539 L493 317.2682062600539 L494 317.2682062600539 L495 317.2682062600539 L496 317.2682062600539 L497 317.2682062600539 L498 317.2682062600539 L499 317.2682062600539 " stroke = "blue" stroke-width = "4" fill = "none" /></svg>