<svg width="500" height="500" viewbox = "0 0 500 500"  xmlns="http://www.w3.org/2000/svg">

<!--
<topfunctions>



function YofX(){
    X = currentjson.plotparams.g*(x - currentjson.plotparams.x0);

    Y = Math.exp(-X/A)*(Math.sin(X));

    y = currentjson.plotparams.y0 - currentjson.plotparams.G*(Y);
}





function plotfunction(){
    
    /*plot one function:*/
    currentStroke = "red";
    currentLineWidth = 4;
    ctx.strokeStyle = currentStroke;
    ctx.lineWidth = currentLineWidth;
    ctx.beginPath();	
    x = 0;
    intx = x;
    YofX();
    currentSVG += "	<path d = \"M";
    currentSVG += Math.round(x).toString() + " ";
    currentSVG += Math.round(y).toString() + " ";
    for(x = 1;x < currentjson.plotparams.plotwidth;x++){
        ctx.moveTo(x-1,y);
        YofX();
        ctx.lineTo(x,y);
        currentSVG += "L" + x + " " + y + " ";
    }
    ctx.stroke();
    currentSVG += "\""+ " stroke = \"" + currentStroke + "\" stroke-width = \"" + currentLineWidth.toString() + "\" fill = \"" + "none" + "\" "+"/>";
    /*finish plot one function*/
    
    

}































</topfunctions>
-->

<!--
<currentjson>
{
    "constants": {},
    "YofXstring": "Y =  (1/Math.PI)*0.5/(X*X + 0.25);",
    "style": {
        "linewidth": 4,
        "color": "blue",
        "fill": "none"
    },
    "plotparams": {
        "G": 103.42365531743322,
        "g": 0.15083501404857097,
        "duration": 450.78888054094654,
        "plotwidth": 500,
        "plotheight": 500,
        "x0": -4,
        "y0": 201
    },
    "funcparams": {},
    "image": {
        "url": "",
        "xoverw": 0.038011695906432746,
        "yoverw": -0.08771929824561403,
        "woverw": 0.8536631795472632,
        "angle": "0"
    },
    "A": 33.03739896280545,
    "B": 1
}
</currentjson>
-->
	<path d = "M0 143 L1 131.78529915142616 L2 121.86221832884313 L3 113.8198591191286 L4 107.82308817689177 L5 103.98899131149169 L6 102.38465868165557 L7 103.02612129387853 L8 105.87845240186667 L9 110.85702092432948 L10 117.82985805063836 L11 126.62107337049123 L12 137.01523369649072 L13 148.76259675648387 L14 161.5850735708009 L15 175.18277798970865 L16 189.24100986805567 L17 203.4375099383318 L18 217.44981976803638 L19 230.96257932412922 L20 243.6745976013075 L21 255.3055384010069 L22 265.6020734907667 L23 274.34336876751 L24 281.3457853607788 L25 286.4666964474226 L26 289.60734145857975 L27 290.71466185107215 L28 289.78208616531174 L29 286.84925615803223 L30 282.0007098314173 L31 275.36356063703 L32 267.1042344878806 L33 257.42434696922265 L34 246.5558218431259 L35 234.75536818900025 L36 222.29844696677378 L37 209.47286815265142 L38 196.5721666728292 L39 183.88890901801756 L40 171.70808260944418 L41 160.3007167324616 L42 149.91787726189105 L43 140.78516765328192 L44 133.0978560156554 L45 127.0167328268738 L46 122.66478637126892 L47 120.12476368634279 L48 119.43766415419284 L49 120.60219134340036 L50 123.57516679356549 L51 128.27288763676574 L52 134.57338876009123 L53 142.3195501049812 L54 151.3229711174827 L55 161.36851771530675 L56 172.21943278177957 L57 183.62288943743107 L58 195.31585741950389 L59 207.0311469941151 L60 218.50349204138118 L61 229.47553432514664 L62 239.70357444895504 L63 248.9629615012584 L64 257.05300273110595 L65 263.8012865336226 L66 269.0673262687417 L67 272.74544864365913 L68 274.7668681747887 L69 275.1009081918847 L70 273.75534851620665 L71 270.77589988455475 L72 266.24482494808126 L73 260.27874480364414 L74 253.02568808901628 L75 244.661456292176 L76 235.38539372638846 L77 225.41566328847765 L78 214.98413938042847 L79 204.33103702389485 L80 193.69940108399865 L81 183.3295815575411 L82 173.45382005116247 L83 164.29106892192593 L84 156.0421581845834 L85 148.88541637516352 L86 142.97284032435374 L87 138.42689551174908 L88 135.33801366253243 L89 133.76283786682797 L90 133.7232481319353 L91 135.20618232089788 L92 138.16424929899526 L93 142.51711321461255 L94 148.15361058525764 L95 154.93454562787875 L96 162.69609442301578 L97 171.2537353581184 L98 180.40661213847042 L99 189.9422267189429 L100 199.64135297822241 L101 209.28305795516061 L102 218.64971606201846 L103 227.53190288981367 L104 235.73305897588227 L105 243.07382010495286 L106 249.39591919997974 L107 254.56557541493422 L108 258.4762984110744 L109 261.0510496845446 L110 262.24371788853205 L111 262.0398810057319 L112 260.45684460890396 L113 257.54296192393554 L114 253.37625760739212 L115 248.06239270511418 L116 241.7320228239086 L117 234.53761480423668 L118 226.64979883999393 L119 218.25334280276985 L120 209.5428432871611 L121 200.71823344389765 L122 191.98021090322308 L123 183.5256899599842 L124 175.54338069607513 L125 168.20959391059148 L126 161.68436472036518 L127 156.1079796394177 L128 151.5979820461177 L129 148.2467194422198 L130 146.11948307337963 L131 145.25327661865987 L132 145.6562360899448 L133 147.30770814703408 L134 150.15897907176682 L135 154.1346319936045 L136 159.13449594832952 L137 165.03613729207916 L138 171.69783217165622 L139 178.9619484251456 L140 186.65865667439118 L141 194.60988365212108 L142 202.6334161162584 L143 210.54706112989723 L144 218.17276806656392 L145 225.34061942660742 L146 231.89260136331922 L147 237.68607061143544 L148 242.59684213692708 L149 246.52183109623016 L150 249.3811933806573 L151 251.11992087295965 L152 251.70886027915702 L153 251.1451377236218 L154 249.45198490215648 L155 246.67797616602434 L156 242.8956991526241 L157 238.19989418917217 L158 232.70510939478845 L159 226.54292893737448 L160 219.85884103695832 L161 212.8088198527788 L162 205.55570119099588 L163 198.26543590821478 L164 191.10330689080047 L165 184.23019553345634 L166 177.79898173959026 L167 171.95115768127394 L168 166.81372999087307 L169 162.49647785180167 L170 159.08962579023824 L171 156.66198005237572 L172 155.25956651862475 L173 154.90479641374574 L174 155.59617389160366 L175 157.30854718513365 L176 159.9938926983535 L177 163.5826094557875 L178 167.9852899829055 L179 173.0949232201124 L180 178.78947570144217 L181 184.9347891594543 L182 191.38772612064605 L183 197.99949006685938 L184 204.61904345593553 L185 211.0965453779973 L186 217.2867308904975 L187 223.05215610331138 L188 228.26623681277195 L189 232.81601381086745 L190 236.60458478776255 L191 239.55315083538727 L192 241.6026347522363 L193 242.71483842672689 L194 242.8731173024375 L195 242.08256105470926 L196 240.36968087907226 L197 237.78161495142743 L198 234.38487441640177 L199 230.26366245282117 L200 225.51780832869363 L201 220.26036668814848 L202 214.61493943035703 L203 208.71278329555085 L204 202.68977054802633 L205 196.68327285721813 L206 190.82903957840747 L207 185.2581411141487 L208 180.09404592255532 L209 175.44989609153325 L210 171.42604131532465 L211 168.1078847193772 L212 165.56408643805725 L213 163.84516233816183 L214 162.98250600096844 L215 162.98785224362328 L216 163.85319030449963 L217 165.5511245694754 L218 168.0356706095783 L219 171.24346456251482 L220 175.0953547381949 L221 179.4983359632638 L222 184.3477797839368 L223 189.5299073786548 L224 194.92444702375602 L225 200.40741430840754 L226 205.8539510795448 L227 211.1411583507029 L228 216.15085913387432 L229 220.7722293211704 L230 224.90423829087945 L231 228.45784574774646 L232 231.35790730879143 L233 233.54474836740076 L234 234.97537364158612 L235 235.62428835137723 L236 235.4839159760086 L237 234.56460680590487 L238 232.8942408154855 L239 230.51743752941746 L240 227.49439433169198 L241 223.8993828785625 L242 219.81894074232318 L243 215.3498019709536 L244 210.596615758723 L245 205.66950676974804 L246 200.6815337525008 L247 195.74610486964383 L248 190.97440861586074 L249 186.4729183085225 L250 182.34102594437047 L251 178.66885778128372 L252 175.53531941668618 L253 173.0064125074553 L254 171.13385874712446 L255 169.95405944060866 L256 169.4874111660525 L257 169.737989770542 L258 170.69360650139478 L259 172.32623162047187 L260 174.59277257678733 L261 177.43618590814611 L262 180.78689468111708 L263 184.564476621955 L264 188.67958228334896 L265 193.03603775674773 L266 197.5330826780949 L267 202.0676916614067 L268 206.53692587848764 L269 210.84026130530611 L270 214.88184116960008 L271 218.57260232613686 L272 221.83222859547047 L273 224.59088844393406 L274 226.7907196494047 L275 228.38702966146377 L276 229.34918708154242 L277 229.66118690054293 L278 229.32187967062117 L279 228.3448624807292 L280 226.7580372767114 L281 224.60284954285063 L282 221.93322747539253 L283 218.81424837209346 L284 215.32056489077107 L285 211.53462896610105 L286 207.5447554084734 L287 203.44307045400797 L288 199.32339272636955 L289 195.27909516884463 L290 191.4009964943093 L291 187.77532959159694 L292 184.48183215439386 L293 181.59200162201822 L294 179.16755242122585 L295 177.25910857574775 L296 175.90515912439983 L297 175.13129759303573 L298 174.94976014566095 L299 175.35927014935507 L300 176.3451898846026 L301 177.87997317669385 L302 179.92390597197206 L303 182.4261154857792 L304 185.3258226485065 L305 188.55380730115806 L306 192.03405105597238 L307 195.68551903679796 L308 199.42403892425912 L309 203.16423390707936 L310 206.82146531576538 L311 210.31374089775517 L312 213.56354587083425 L313 216.49955602839603 L314 219.05819520894545 L315 221.18500330612304 L316 222.83578558957873 L317 223.97751932063383 L318 224.58899935627812 L319 224.66121050693815 L320 224.1974207069709 L321 223.21299542756404 L322 221.734940064824 L323 219.80118312930543 L324 217.45961881112714 L325 214.7669327702098 L326 211.78723968901244 L327 208.59056512469715 L328 205.25120742469858 L329 201.84601785820166 L330 198.45263861964744 L331 195.14773895308042 L332 192.00528932283328 L333 189.0949123323123 L334 186.48034700441676 L335 184.2180601394596 L336 182.35603483231307 L337 180.9327619487643 L338 179.97645553452486 L339 179.50450787312568 L340 179.52319434392305 L341 180.02763248733933 L342 181.00199389286064 L343 182.4199618176803 L344 184.24542194858319 L345 186.43336855912207 L346 188.93100360204815 L347 191.67900211587707 L348 194.6129138035152 L349 197.66466783390922 L350 200.76414588170474 L351 203.84078719399488 L352 206.82518907774852 L353 209.65066663786286 L354 212.25473684651922 L355 214.58049405396855 L356 216.57784680600116 L357 218.20458924527077 L358 219.42728435914302 L359 220.22194080046734 L360 220.5744698442638 L361 220.48091413997184 L362 219.94744515793474 L363 218.99013149037276 L364 217.6344853319726 L365 215.91479941741474 L366 213.87329132256343 L367 211.55907624084213 L368 209.0269930352446 L369 206.33631146069956 L370 203.54935088653048 L371 200.7300425754057 L372 197.94246856086028 L373 195.24941039458938 L374 192.7109405089921 L375 190.38308767860542 L376 188.3166061013839 L377 186.55587500799874 L378 185.13795250950116 L379 184.09180368846611 L380 183.43771881456797 L381 183.1869331195412 L382 183.34145490217983 L383 183.89410395893128 L384 184.82875755880107 L385 186.12079651078875 L386 187.73773941263553 L387 189.6400490202506 L388 191.78209092887036 L389 194.1132214909414 L390 196.57897918143044 L391 199.12235151513443 L392 201.68508816473337 L393 204.20903014980124 L394 206.63742487725494 L395 208.91619740851326 L396 210.99514958831097 L397 212.82906056009358 L398 214.37866466474114 L399 215.61148571179572 L400 216.50251005298517 L401 217.0346846946988 L402 217.19923076974624 L403 216.9957669542814 L404 216.4322417650578 L405 215.5246780060194 L406 214.29673685371571 L407 212.77911308369994 L408 211.0087766560209 L409 209.0280792157848 L410 206.883746952444 L411 204.6257836377407 L412 202.30630947795945 L413 199.97836263535686 L414 197.69469087415723 L415 195.50656076038473 L416 193.46261119831328 L417 191.60777683974254 L418 189.98230508928637 L419 188.62088809558404 L420 187.5519283223094 L421 186.79695310154918 L422 186.37019006132758 L423 186.27831157112183 L424 186.52035245108647 L425 187.0878012319502 L426 187.96486132328548 L427 189.12887463671223 L428 190.55089660273552 L429 192.1964081951177 L430 194.02614760759658 L431 195.997041678333 L432 198.06321508155764 L433 200.17705374617177 L434 202.2902979481171 L435 204.35514007513245 L436 206.3253021840454 L437 208.15706915410527 L438 209.81025446445213 L439 211.2490773570337 L440 212.44293234426806 L441 213.3670346295717 L442 214.00292796575178 L443 214.33884471114433 L444 214.36991128054362 L445 214.098195747813 L446 213.53259795792684 L447 212.68858606623073 L448 211.5877868617431 L449 210.2574404726467 L450 208.72973302419405 L451 207.04102345727972 L452 205.23098296326197 L453 203.34166729996008 L454 201.4165435881391 L455 199.49949402136627 L456 197.63381924055795 L457 195.86126392532657 L458 194.22108644657865 L459 192.7491932293571 L460 191.47735682312998 L461 190.43253461014137 L462 189.63630265156445 L463 189.10441643436323 L464 188.846507303667 L465 188.865920215673 L466 189.1596951974351 L467 189.71869162678053 L468 190.52785122229147 L469 191.56659253227622 L470 192.80932680198114 L471 194.22608244405555 L472 195.7832229962109 L473 197.44424147222364 L474 199.1706124393819 L475 200.92268201906205 L476 202.66057532910435 L477 204.34510067818948 L478 205.93863008397355 L479 207.40593640810414 L480 208.71496856193224 L481 209.83754780648326 L482 210.74997010983978 L483 211.43350178725274 L484 211.8747581799399 L485 212.06595786793935 L486 212.00504779669518 L487 211.69569765967833 L488 211.1471648525489 L489 210.37403423078086 L490 209.39583969682656 L491 208.23657725268995 L492 206.92412152182854 L493 205.48955981924271 L494 203.96645958614207 L495 202.39008636947096 L496 200.79659048935198 L497 199.22218108104715 L498 197.70230631383404 L499 196.27085827853648 " stroke = "red" stroke-width = "4" fill = "none" /></svg>