<svg width="500" height="500" viewbox = "0 0 500 500"  xmlns="http://www.w3.org/2000/svg">

<!--
<topfunctions>


//put helper functions here, along with contsants and variables


function YofX(){
    
    X = currentjson.plotparams.g*(x - currentjson.plotparams.x0);
    eval(currentjson.YofXstring);
    y = currentjson.plotparams.y0 - currentjson.plotparams.G*(Y);

}




function plotfunction(){
    /*plot one function:*/
    currentStroke = currentjson.style.color;
    currentLineWidth = currentjson.style.linewidth;
    ctx.strokeStyle = currentStroke;
    ctx.lineWidth = currentLineWidth;
    ctx.beginPath();	
    x = 0;
    YofX();
    currentSVG += "	<path d = \"M";
    currentSVG += Math.round(x).toString() + " ";
    currentSVG += Math.round(y).toString() + " ";
    for(x = 1;x < currentjson.plotparams.plotwidth;x++){
        ctx.moveTo(x-1,y);
        YofX();
        ctx.lineTo(x,y);
        currentSVG += "L" + x + " " + y + " ";
    }
    ctx.stroke();
    currentSVG += "\""+ " stroke = \"" + currentStroke + "\" stroke-width = \"" + currentLineWidth.toString() + "\" fill = \"" + "none" + "\" "+"/>";
    /*finish plot one function*/

}





























</topfunctions>
-->

<!--
<currentjson>
{
    "constants": {},
    "YofXstring": "Y =  (1/Math.PI)*0.5/(X*X + 0.25);",
    "style": {
        "linewidth": 4,
        "color": "blue",
        "fill": "none"
    },
    "plotparams": {
        "G": 225.08117895663068,
        "g": "0.005",
        "duration": 450.78888054094654,
        "plotwidth": 500,
        "plotheight": 500,
        "x0": 239,
        "y0": 269
    },
    "funcparams": {},
    "image": {
        "url": "",
        "xoverw": 0.038011695906432746,
        "yoverw": -0.08771929824561403,
        "woverw": 0.8536631795472632,
        "angle": "0"
    }
}
</currentjson>
-->
	<path d = "M0 248 L1 247.4990203301727 L2 247.34467365207317 L3 247.18875899421622 L4 247.0312565869533 L5 246.8721463784673 L6 246.71140803067445 L7 246.54902091507944 L8 246.3849641085846 L9 246.21921638925326 L10 246.05175623202751 L11 245.8825618044016 L12 245.71161096205088 L13 245.53888124441727 L14 245.36434987025203 L15 245.18799373311668 L16 245.0097893968429 L17 244.8297130909525 L18 244.6477407060388 L19 244.4638477891101 L20 244.27800953889735 L21 244.090200801127 L22 243.9003960637606 L23 243.70856945220328 L24 243.51469472448252 L25 243.31874526639956 L26 243.1206940866555 L27 242.92051381195452 L28 242.71817668208632 L29 242.5136545449913 L30 242.3069188518103 L31 242.09794065192304 L32 241.88669058797763 L33 241.6731388909152 L34 241.45725537499334 L35 241.2390094328121 L36 241.0183700303468 L37 240.79530570199256 L38 240.56978454562469 L39 240.34177421768058 L40 240.11124192826816 L41 239.8781544363066 L42 239.64247804470546 L43 239.40417859558883 L44 239.16322146557064 L45 238.91957156108887 L46 238.6731933138062 L47 238.42405067608462 L48 238.17210711654286 L49 237.91732561570564 L50 237.65966866175344 L51 237.39909824638386 L52 237.13557586079364 L53 236.86906249179364 L54 236.59951861806738 L55 236.32690420658585 L56 236.0511787091915 L57 235.77230105936437 L58 235.49022966918523 L59 235.2049224265101 L60 234.91633669237243 L61 234.62442929862846 L62 234.3291565458644 L63 234.03047420158214 L64 233.7283374986838 L65 233.42270113427423 L66 233.11351926880286 L67 232.80074552556664 L68 232.48433299059732 L69 232.16423421295704 L70 231.84040120546743 L71 231.51278544589863 L72 231.18133787864627 L73 230.84600891692486 L74 230.50674844550784 L75 230.16350582404675 L76 229.81622989100137 L77 229.46486896821625 L78 229.10937086617938 L79 228.74968289000083 L80 228.38575184615033 L81 228.01752404999513 L82 227.64494533418076 L83 227.26796105789927 L84 226.88651611709125 L85 226.50055495563024 L86 226.11002157753987 L87 225.7148595602957 L88 225.31501206926708 L89 224.91042187335475 L90 224.5010313618841 L91 224.08678256281436 L92 223.6676171623281 L93 223.2434765258663 L94 222.8143017206778 L95 222.3800335399541 L96 221.94061252862258 L97 221.49597901087486 L98 221.04607311950835 L99 220.59083482716315 L100 220.13020397953784 L101 219.66412033067172 L102 219.19252358038267 L103 218.7153534139539 L104 218.23254954416402 L105 217.7440517557601 L106 217.24979995247315 L107 216.74973420668135 L108 216.24379481182686 L109 215.73192233769626 L110 215.21405768867646 L111 214.69014216510118 L112 214.16011752780548 L113 213.62392606600824 L114 213.08151066864505 L115 212.53281489927608 L116 211.97778307469576 L117 211.41636034737297 L118 210.84849279185218 L119 210.27412749524711 L120 209.69321265196098 L121 209.10569766276663 L122 208.5115332383819 L123 207.9106715076752 L124 207.30306613063635 L125 206.68867241624758 L126 206.06744744538756 L127 205.43935019890125 L128 204.80434169096497 L129 204.16238510787463 L130 203.51344595238012 L131 202.85749219368674 L132 202.19449442323787 L133 201.52442601638865 L134 200.84726330007274 L135 200.1629857265579 L136 199.47157605337617 L137 198.77302052950546 L138 198.0673090878684 L139 197.35443554420146 L140 196.6343978023347 L141 195.9071980659064 L142 195.17284305652169 L143 194.4313442383446 L144 193.68271804909483 L145 192.92698613739805 L146 192.1641756064148 L147 191.39431926364978 L148 190.6174558768136 L149 189.8336304355817 L150 189.04289441906306 L151 188.2453060687573 L152 187.4409306667442 L153 186.62984081881058 L154 185.81211674217877 L155 184.9878465574595 L156 184.15712658440577 L157 183.32006164099673 L158 182.47676534533116 L159 181.6273604197579 L160 180.7719789966153 L161 179.91076292489612 L162 179.04386407709393 L163 178.17144465542782 L164 177.29367749657786 L165 176.41074637400035 L166 175.52284629682492 L167 174.63018380426956 L168 173.73297725443982 L169 172.83145710631072 L170 171.92586619362032 L171 171.0164599893346 L172 170.10350685927457 L173 169.18728830342917 L174 168.26809918341155 L175 167.34624793445158 L176 166.42205676025694 L177 165.49586180901684 L178 164.56801332876827 L179 163.63887580029626 L180 162.70882804569612 L181 161.7782633106876 L182 160.84758931874325 L183 159.9172282950692 L184 158.98761695846673 L185 158.05920647909795 L186 157.13246240018964 L187 156.20786452172774 L188 155.28590674422895 L189 154.36709687072235 L190 153.4519563651342 L191 152.54102006534697 L192 151.63483584929392 L193 150.733964252561 L194 149.83897803609392 L195 148.95046170275043 L196 148.0690109616026 L197 147.1952321390708 L198 146.32974153617235 L199 145.47316473138187 L200 144.62613582883682 L201 143.78929665187252 L202 142.96329588213823 L203 142.14878814483262 L204 141.3464330408935 L205 140.5568941272884 L206 139.78083784687792 L207 139.01893240965435 L208 138.27184662750017 L209 137.54024870495684 L210 136.82480498884138 L211 136.12617867989886 L212 135.4450285100223 L213 134.78200738891246 L214 134.13776102437922 L215 133.5129265208046 L216 132.90813096058784 L217 132.32398997367696 L218 131.76110630054873 L219 131.2200683542336 L220 130.70144878718554 L221 130.20580306896835 L222 129.7336680808659 L223 129.28556073362222 L224 128.86197661457498 L225 128.46338867046188 L226 128.0902459321496 L227 127.74297228746346 L228 127.42196530817404 L229 127.12759513703261 L230 126.8602034405346 L231 126.6201024328328 L232 126.40757397592088 L233 126.22286876086383 L234 126.06620557446675 L235 125.93777065535437 L236 125.83771714297424 L237 125.7661646225539 L238 125.72319876852606 L239 125.70887108840293 L240 125.72319876852606 L241 125.7661646225539 L242 125.83771714297424 L243 125.93777065535437 L244 126.06620557446675 L245 126.22286876086383 L246 126.40757397592088 L247 126.6201024328328 L248 126.8602034405346 L249 127.12759513703261 L250 127.42196530817404 L251 127.74297228746346 L252 128.0902459321496 L253 128.46338867046188 L254 128.86197661457498 L255 129.28556073362222 L256 129.7336680808659 L257 130.20580306896835 L258 130.70144878718554 L259 131.2200683542336 L260 131.76110630054873 L261 132.32398997367696 L262 132.90813096058784 L263 133.5129265208046 L264 134.13776102437922 L265 134.78200738891246 L266 135.4450285100223 L267 136.12617867989886 L268 136.82480498884138 L269 137.54024870495684 L270 138.27184662750017 L271 139.01893240965435 L272 139.78083784687792 L273 140.5568941272884 L274 141.3464330408935 L275 142.14878814483262 L276 142.96329588213823 L277 143.78929665187252 L278 144.62613582883682 L279 145.47316473138187 L280 146.32974153617235 L281 147.1952321390708 L282 148.0690109616026 L283 148.95046170275043 L284 149.83897803609392 L285 150.733964252561 L286 151.63483584929392 L287 152.54102006534697 L288 153.4519563651342 L289 154.36709687072235 L290 155.28590674422895 L291 156.20786452172774 L292 157.13246240018964 L293 158.05920647909795 L294 158.98761695846673 L295 159.9172282950692 L296 160.84758931874325 L297 161.7782633106876 L298 162.70882804569612 L299 163.63887580029626 L300 164.56801332876827 L301 165.49586180901684 L302 166.42205676025694 L303 167.34624793445158 L304 168.26809918341155 L305 169.18728830342917 L306 170.10350685927457 L307 171.0164599893346 L308 171.92586619362032 L309 172.83145710631072 L310 173.73297725443982 L311 174.63018380426956 L312 175.52284629682492 L313 176.41074637400035 L314 177.29367749657786 L315 178.17144465542782 L316 179.04386407709393 L317 179.91076292489612 L318 180.7719789966153 L319 181.6273604197579 L320 182.47676534533116 L321 183.32006164099673 L322 184.15712658440577 L323 184.9878465574595 L324 185.81211674217877 L325 186.62984081881058 L326 187.4409306667442 L327 188.2453060687573 L328 189.04289441906306 L329 189.8336304355817 L330 190.6174558768136 L331 191.39431926364978 L332 192.1641756064148 L333 192.92698613739805 L334 193.68271804909483 L335 194.4313442383446 L336 195.17284305652169 L337 195.9071980659064 L338 196.6343978023347 L339 197.35443554420146 L340 198.0673090878684 L341 198.77302052950546 L342 199.47157605337617 L343 200.1629857265579 L344 200.84726330007274 L345 201.52442601638865 L346 202.19449442323787 L347 202.85749219368674 L348 203.51344595238012 L349 204.16238510787463 L350 204.80434169096497 L351 205.43935019890125 L352 206.06744744538756 L353 206.68867241624758 L354 207.30306613063635 L355 207.9106715076752 L356 208.5115332383819 L357 209.10569766276663 L358 209.69321265196098 L359 210.27412749524711 L360 210.84849279185218 L361 211.41636034737297 L362 211.97778307469576 L363 212.53281489927608 L364 213.08151066864505 L365 213.62392606600824 L366 214.16011752780548 L367 214.69014216510118 L368 215.21405768867646 L369 215.73192233769626 L370 216.24379481182686 L371 216.74973420668135 L372 217.24979995247315 L373 217.7440517557601 L374 218.23254954416402 L375 218.7153534139539 L376 219.19252358038267 L377 219.66412033067172 L378 220.13020397953784 L379 220.59083482716315 L380 221.04607311950835 L381 221.49597901087486 L382 221.94061252862258 L383 222.3800335399541 L384 222.8143017206778 L385 223.2434765258663 L386 223.6676171623281 L387 224.08678256281436 L388 224.5010313618841 L389 224.91042187335475 L390 225.31501206926708 L391 225.7148595602957 L392 226.11002157753987 L393 226.50055495563024 L394 226.88651611709125 L395 227.26796105789927 L396 227.64494533418076 L397 228.01752404999513 L398 228.38575184615033 L399 228.74968289000083 L400 229.10937086617938 L401 229.46486896821625 L402 229.81622989100137 L403 230.16350582404675 L404 230.50674844550784 L405 230.84600891692486 L406 231.18133787864627 L407 231.51278544589863 L408 231.84040120546743 L409 232.16423421295704 L410 232.48433299059732 L411 232.80074552556664 L412 233.11351926880286 L413 233.42270113427423 L414 233.7283374986838 L415 234.03047420158214 L416 234.3291565458644 L417 234.62442929862846 L418 234.91633669237243 L419 235.2049224265101 L420 235.49022966918523 L421 235.77230105936437 L422 236.0511787091915 L423 236.32690420658585 L424 236.59951861806738 L425 236.86906249179364 L426 237.13557586079364 L427 237.39909824638386 L428 237.65966866175344 L429 237.91732561570564 L430 238.17210711654286 L431 238.42405067608462 L432 238.6731933138062 L433 238.91957156108887 L434 239.16322146557064 L435 239.40417859558883 L436 239.64247804470546 L437 239.8781544363066 L438 240.11124192826816 L439 240.34177421768058 L440 240.56978454562469 L441 240.79530570199256 L442 241.0183700303468 L443 241.2390094328121 L444 241.45725537499334 L445 241.6731388909152 L446 241.88669058797763 L447 242.09794065192304 L448 242.3069188518103 L449 242.5136545449913 L450 242.71817668208632 L451 242.92051381195452 L452 243.1206940866555 L453 243.31874526639956 L454 243.51469472448252 L455 243.70856945220328 L456 243.9003960637606 L457 244.090200801127 L458 244.27800953889735 L459 244.4638477891101 L460 244.6477407060388 L461 244.8297130909525 L462 245.0097893968429 L463 245.18799373311668 L464 245.36434987025203 L465 245.53888124441727 L466 245.71161096205088 L467 245.8825618044016 L468 246.05175623202751 L469 246.21921638925326 L470 246.3849641085846 L471 246.54902091507944 L472 246.71140803067445 L473 246.8721463784673 L474 247.0312565869533 L475 247.18875899421622 L476 247.34467365207317 L477 247.4990203301727 L478 247.65181852004633 L479 247.80308743911286 L480 247.95284603463566 L481 248.1011129876324 L482 248.24790671673782 L483 248.39324538201836 L484 248.53714688874015 L485 248.67962889108895 L486 248.8207087958432 L487 248.9604037659995 L488 249.09873072435147 L489 249.2357063570211 L490 249.371347116944 L491 249.50566922730775 L492 249.63868868494413 L493 249.7704212636753 L494 249.90088251761452 L495 250.03008778442106 L496 250.15805218851042 L497 250.28479064421958 L498 250.410317858928 L499 250.5346483361344 " stroke = "blue" stroke-width = "4" fill = "none" /></svg>