<svg width="500" height="500" viewbox = "0 0 500 500"  xmlns="http://www.w3.org/2000/svg">

<!--
<topfunctions>


//put helper functions here, along with contsants and variables


function YofX(){
    
    X = currentjson.plotparams.g*(x - currentjson.plotparams.x0);
    eval(currentjson.YofXstring);
    y = currentjson.plotparams.y0 - currentjson.plotparams.G*(Y);

}




function plotfunction(){
    /*plot one function:*/
    currentStroke = currentjson.style.color;
    currentLineWidth = currentjson.style.linewidth;
    ctx.strokeStyle = currentStroke;
    ctx.lineWidth = currentLineWidth;
    ctx.beginPath();	
    x = 0;
    YofX();
    currentSVG += "	<path d = \"M";
    currentSVG += Math.round(x).toString() + " ";
    currentSVG += Math.round(y).toString() + " ";
    for(x = 1;x < currentjson.plotparams.plotwidth;x++){
        ctx.moveTo(x-1,y);
        YofX();
        ctx.lineTo(x,y);
        currentSVG += "L" + x + " " + y + " ";
    }
    ctx.stroke();
    currentSVG += "\""+ " stroke = \"" + currentStroke + "\" stroke-width = \"" + currentLineWidth.toString() + "\" fill = \"" + "none" + "\" "+"/>";
    /*finish plot one function*/

}





























</topfunctions>
-->

<!--
<currentjson>
{
    "constants": {},
    "YofXstring": "Y =  (1/Math.PI)*0.5/(X*X + 0.25);",
    "style": {
        "linewidth": 4,
        "color": "blue",
        "fill": "none"
    },
    "plotparams": {
        "G": 242.38342834607772,
        "g": "0.005",
        "duration": 450.78888054094654,
        "plotwidth": 500,
        "plotheight": 500,
        "x0": -4,
        "y0": 201
    },
    "funcparams": {},
    "image": {
        "url": "",
        "xoverw": 0.038011695906432746,
        "yoverw": -0.08771929824561403,
        "woverw": 0.8536631795472632,
        "angle": "0"
    }
}
</currentjson>
-->
	<path d = "M0 47 L1 47.07872022009579 L2 47.24742628601638 L3 47.44633000362822 L4 47.67519576773253 L5 47.933753616353556 L6 48.2217000204416 L7 48.538698765582495 L8 48.884381920983856 L9 49.25835089059498 L10 49.66017754084547 L11 50.08940539916483 L12 50.545550917166565 L13 51.02810479215282 L14 51.536533340416554 L15 52.07027991568964 L16 52.628766366005806 L17 53.211394522216295 L18 53.817547711413596 L19 54.44659228858012 L20 55.0978791798847 L21 55.77074543119625 L22 56.46451575556955 L23 57.17850407367513 L24 57.91201504140025 L25 58.66434555912372 L26 59.434786257473434 L27 60.22262295469943 L28 61.027138081137565 L29 61.84761206659394 L30 62.68332468684656 L31 63.53355636583166 L32 64.3975894304586 L33 65.27470931537167 L34 66.16420571534957 L35 67.06537368340076 L36 67.97751467297073 L37 68.89993752302544 L38 69.83195938511221 L39 70.77290659181875 L40 71.72211546635893 L41 72.67893307330232 L42 73.64271791073458 L43 74.61284054439025 L44 75.58868418453027 L45 76.56964520655272 L46 77.55513361651683 L47 78.5445734629363 L48 79.53740319635234 L49 80.53307597833243 L50 81.53105994165843 L51 82.530838403567 L52 83.53191003398754 L53 84.533788980788 L54 85.53600495409012 L55 86.5381032717499 L56 87.53964486812207 L57 88.54020626823558 L58 89.5393795295045 L59 90.53677215308613 L60 91.53200696697363 L61 92.52472198287947 L62 93.5145702289259 L63 94.50121956011183 L64 95.48435244847239 L65 96.46366575479036 L66 97.43887048365507 L67 98.40969152359952 L68 99.37586737397658 L69 100.3371498601644 L70 101.29330383861853 L71 102.24410689321346 L72 103.18934902424317 L73 104.12883233137424 L74 105.06237069177197 L75 105.98978943454593 L76 106.91092501258905 L77 107.82562467281326 L78 108.73374612571516 L79 109.6351572151377 L80 110.52973558902792 L81 111.41736837192803 L82 112.29795183987468 L83 113.17139109832432 L84 114.03759976366436 L85 114.8964996488176 L86 115.7480204533956 L87 116.59209945880752 L88 117.42868122868612 L89 118.25771731494774 L90 119.07916596976324 L91 119.8929918636773 L92 120.69916581007807 L93 121.4976644961853 L94 122.28847022069272 L95 123.07157063817283 L96 123.84695851032302 L97 124.61463146410874 L98 125.37459175683496 L99 126.12684604815665 L100 126.87140517901904 L101 127.60828395750109 L102 128.33750095151913 L103 129.05907828833324 L104 129.77304146078563 L105 130.47941914018833 L106 131.17824299576745 L107 131.8695475205618 L108 132.55336986366484 L109 133.22974966869253 L110 133.89872891835364 L111 134.56035178499292 L112 135.2146644869739 L113 135.8617151507645 L114 136.50155367858468 L115 137.13423162147512 L116 137.75980205764182 L117 138.3783194759328 L118 138.98983966430077 L119 139.5944196031064 L120 140.19211736311715 L121 140.782992008057 L122 141.36710350156363 L123 141.94451261841095 L124 142.51528085985674 L125 143.07947037297626 L126 143.63714387384613 L127 144.1883645744435 L128 144.7331961131294 L129 145.2717024885861 L130 145.8039479970833 L131 146.3299971729481 L132 146.84991473211892 L133 147.36376551866454 L134 147.8716144541544 L135 148.37352648976707 L136 148.86956656102907 L137 149.35979954507746 L138 149.84429022034413 L139 150.3231032285612 L140 150.79630303899205 L141 151.26395391479323 L142 151.72611988141716 L143 152.18286469696795 L144 152.63425182442518 L145 153.08034440565388 L146 153.52120523712185 L147 153.95689674724736 L148 154.3874809753039 L149 154.81301955181118 L150 155.23357368034345 L151 155.64920412068952 L152 156.0599711733009 L153 156.46593466496753 L154 156.86715393566126 L155 157.2636878264919 L156 157.6555946687208 L157 158.04293227378025 L158 158.42575792424844 L159 158.8041283657322 L160 159.17809979961135 L161 159.54772787660067 L162 159.91306769108692 L163 160.27417377620048 L164 160.631100099583 L165 160.9839000598133 L166 161.33262648345658 L167 161.6773316227023 L168 162.01806715355852 L169 162.35488417457137 L170 162.68783320603984 L171 163.0169641896975 L172 163.34232648883398 L173 163.66396888883014 L174 163.98193959808225 L175 164.29628624929143 L176 164.60705590109575 L177 164.91429504002386 L178 165.21804958274882 L179 165.51836487862357 L180 165.81528571247856 L181 166.10885630766444 L182 166.3991203293224 L183 166.6861208878663 L184 166.9699005426619 L185 167.25050130588704 L186 167.52796464656097 L187 167.80233149472818 L188 168.0736422457848 L189 168.34193676493598 L190 168.6072543917722 L191 168.86963394495493 L192 169.12911372700057 L193 169.38573152915365 L194 169.63952463633973 L195 169.89052983219008 L196 170.1387834041292 L197 170.3843211485181 L198 170.6271783758456 L199 170.86738991596127 L200 171.10499012334276 L201 171.34001288239233 L202 171.57249161275575 L203 171.80245927465913 L204 172.02994837425766 L205 172.25499096899202 L206 172.4776186729475 L207 172.697862662212 L208 172.91575368022825 L209 173.13132204313715 L210 173.34459764510825 L211 173.55560996365426 L212 173.76438806492624 L213 173.970960608987 L214 174.17535585505982 L215 174.37760166674937 L216 174.57772551723392 L217 174.77575449442497 L218 174.97171530609373 L219 175.1656342849614 L220 175.35753739375266 L221 175.54745023020965 L222 175.73539803206597 L223 175.92140568197857 L224 176.10549771241708 L225 176.2876983105085 L226 176.46803132283722 L227 176.64652026019886 L228 176.8231883023073 L229 176.99805830245393 L230 177.17115279211902 L231 177.34249398553408 L232 177.51210378419478 L233 177.6800037813245 L234 177.84621526628743 L235 178.0107592289516 L236 178.1736563640009 L237 178.33492707519662 L238 178.49459147958783 L239 178.65266941167084 L240 178.8091804274974 L241 178.96414380873205 L242 179.11757856665807 L243 179.26950344613303 L244 179.4199369294929 L245 179.56889724040585 L246 179.7164023476753 L247 179.86246996899303 L248 180.00711757464165 L249 180.15036239114784 L250 180.29222140488565 L251 180.43271136563092 L252 180.57184879006647 L253 180.70964996523898 L254 180.84613095196778 L255 180.9813075882054 L256 181.1151954923513 L257 181.2478100665181 L258 181.37916649975153 L259 181.50927977120415 L260 181.63816465326315 L261 181.76583571463334 L262 181.89230732337487 L263 182.01759364989678 L264 182.14170866990688 L265 182.26466616731778 L266 182.3864797371105 L267 182.50716278815523 L268 182.62672854599043 L269 182.74519005556033 L270 182.86256018391157 L271 182.97885162284916 L272 183.09407689155287 L273 183.2082483391537 L274 183.32137814727167 L275 183.4334783325151 L276 183.54456074894188 L277 183.65463709048302 L278 183.76371889332984 L279 183.87181753828392 L280 183.9789442530716 L281 184.08511011462275 L282 184.19032605131443 L283 184.29460284518032 L284 184.3979511340857 L285 184.50038141386918 L286 184.60190404045122 L287 184.7025292319099 L288 184.80226707052464 L289 184.90112750478838 L290 184.99912035138806 L291 185.09625529715495 L292 185.19254190098405 L293 185.287989595724 L294 185.38260769003745 L295 185.4764053702323 L296 185.5693917020646 L297 185.6615756325132 L298 185.75296599152662 L299 185.8435714937428 L300 185.9334007401818 L301 186.02246221991226 L302 186.1107643116915 L303 186.1983152855803 L304 186.28512330453216 L305 186.37119642595786 L306 186.4565426032654 L307 186.54116968737605 L308 186.62508542821638 L309 186.70829747618723 L310 186.79081338360953 L311 186.87264060614748 L312 186.9537865042097 L313 187.03425834432804 L314 187.11406330051528 L315 187.19320845560134 L316 187.2717008025486 L317 187.34954724574678 L318 187.4267546022876 L319 187.5033296032193 L320 187.57927889478205 L321 187.65460903962344 L322 187.72932651799564 L323 187.80343772893346 L324 187.8769489914143 L325 187.94986654549996 L326 188.02219655346056 L327 188.09394510088123 L328 188.16511819775138 L329 188.2357217795371 L330 188.30576170823701 L331 188.37524377342163 L332 188.44417369325657 L333 188.51255711551005 L334 188.58039961854465 L335 188.64770671229385 L336 188.71448383922342 L337 188.78073637527783 L338 188.84646963081235 L339 188.91168885151046 L340 188.97639921928734 L341 189.0406058531793 L342 189.1043138102197 L343 189.16752808630125 L344 189.2302536170251 L345 189.29249527853705 L346 189.35425788835065 L347 189.41554620615807 L348 189.47636493462824 L349 189.536718720193 L350 189.59661215382113 L351 189.65604977178063 L352 189.7150360563894 L353 189.77357543675444 L354 189.83167228949986 L355 189.88933093948387 L356 189.94655566050474 L357 190.0033506759962 L358 190.0597201597123 L359 190.1156682364019 L360 190.1711989824729 L361 190.2263164266466 L362 190.28102455060198 L363 190.33532728961055 L364 190.38922853316137 L365 190.442732125577 L366 190.49584186661988 L367 190.54856151208986 L368 190.60089477441275 L369 190.6528453232199 L370 190.70441678591942 L371 190.75561274825867 L372 190.80643675487832 L373 190.85689230985847 L374 190.90698287725635 L375 190.95671188163615 L376 191.00608270859107 L377 191.0550987052575 L378 191.1037631808218 L379 191.1520794070194 L380 191.20005061862653 L381 191.2476800139451 L382 191.29497075527976 L383 191.34192596940872 L384 191.38854874804701 L385 191.43484214830346 L386 191.48080919313054 L387 191.5264528717681 L388 191.57177614018025 L389 191.61678192148605 L390 191.66147310638397 L391 191.70585255357 L392 191.74992309015 L393 191.79368751204566 L394 191.83714858439504 L395 191.88030904194693 L396 191.92317158944977 L397 191.96573890203487 L398 192.00801362559417 L399 192.04999837715235 L400 192.09169574523403 L401 192.13310829022532 L402 192.17423854473026 L403 192.21508901392244 L404 192.2556621758912 L405 192.29596048198317 L406 192.33598635713903 L407 192.37574220022503 L408 192.4152303843603 L409 192.4544532572394 L410 192.49341314145 L411 192.53211233478646 L412 192.57055311055885 L413 192.60873771789753 L414 192.64666838205355 L415 192.68434730469474 L416 192.72177666419776 L417 192.75895861593594 L418 192.79589529256322 L419 192.832588804294 L420 192.86904123917913 L421 192.90525466337814 L422 192.94123112142753 L423 192.97697263650548 L424 193.0124812106927 L425 193.04775882523003 L426 193.082807440772 L427 193.1176289976372 L428 193.15222541605533 L429 193.18659859641022 L430 193.22075041948042 L431 193.25468274667568 L432 193.28839742027057 L433 193.32189626363498 L434 193.35518108146124 L435 193.38825365998815 L436 193.4211157672223 L437 193.45376915315583 L438 193.48621554998178 L439 193.5184566723061 L440 193.550494217357 L441 193.5823298651915 L442 193.61396527889897 L443 193.6454021048023 L444 193.67664197265577 L445 193.70768649584105 L446 193.7385372715598 L447 193.76919588102427 L448 193.7996638896449 L449 193.8299428472158 L450 193.8600342880974 L451 193.8899397313971 L452 193.91966068114704 L453 193.94919862647973 L454 193.97855504180149 L455 194.00773138696334 L456 194.03672910742986 L457 194.06554963444557 L458 194.09419438519924 L459 194.12266476298623 L460 194.15096215736835 L461 194.1790879443318 L462 194.20704348644307 L463 194.23483013300273 L464 194.26244922019728 L465 194.28990207124886 L466 194.3171899965633 L467 194.3443142938758 L468 194.37127624839533 L469 194.39807713294653 L470 194.42471820811016 L471 194.45120072236165 L472 194.47752591220774 L473 194.50369500232165 L474 194.5297092056761 L475 194.55556972367498 L476 194.58127774628312 L477 194.6068344521545 L478 194.63224100875877 L479 194.6574985725062 L480 194.68260828887094 L481 194.70757129251282 L482 194.7323887073976 L483 194.7570616469155 L484 194.78159121399855 L485 194.80597850123618 L486 194.83022459098945 L487 194.85433055550385 L488 194.87829745702066 L489 194.90212634788702 L490 194.92581827066425 L491 194.9493742582353 L492 194.97279533391063 L493 194.9960825115325 L494 195.0192367955786 L495 195.04225918126363 L496 195.06515065464023 L497 195.08791219269835 L498 195.1105447634634 L499 195.13304932609324 " stroke = "blue" stroke-width = "4" fill = "none" /></svg>