<svg width="500" height="500" viewbox = "0 0 500 500"  xmlns="http://www.w3.org/2000/svg">

<!--
<topfunctions>


//put helper functions here, along with contsants and variables


function YofX(){
    
    X = currentjson.plotparams.g*(x - currentjson.plotparams.x0);
    eval(currentjson.YofXstring);
    y = currentjson.plotparams.y0 - currentjson.plotparams.G*(Y);

}




function plotfunction(){
    /*plot one function:*/
    currentStroke = currentjson.style.color;
    currentLineWidth = currentjson.style.linewidth;
    ctx.strokeStyle = currentStroke;
    ctx.lineWidth = currentLineWidth;
    ctx.beginPath();	
    x = 0;
    YofX();
    currentSVG += "	<path d = \"M";
    currentSVG += Math.round(x).toString() + " ";
    currentSVG += Math.round(y).toString() + " ";
    for(x = 1;x < currentjson.plotparams.plotwidth;x++){
        ctx.moveTo(x-1,y);
        YofX();
        ctx.lineTo(x,y);
        currentSVG += "L" + x + " " + y + " ";
    }
    ctx.stroke();
    currentSVG += "\""+ " stroke = \"" + currentStroke + "\" stroke-width = \"" + currentLineWidth.toString() + "\" fill = \"" + "none" + "\" "+"/>";
    /*finish plot one function*/

}





























</topfunctions>
-->

<!--
<currentjson>
{
    "constants": {},
    "YofXstring": "tau = 100;Y =  Math.exp(-X/tau)*Math.sin(X)",
    "style": {
        "linewidth": 4,
        "color": "blue",
        "fill": "none"
    },
    "plotparams": {
        "G": 78.47599703514612,
        "g": 0.26109963315882356,
        "duration": 450.78888054094654,
        "plotwidth": 500,
        "plotheight": 500,
        "x0": "240",
        "y0": 200
    },
    "funcparams": {},
    "image": {
        "url": "",
        "xoverw": 0.038011695906432746,
        "yoverw": -0.08771929824561403,
        "woverw": 0.8536631795472632,
        "angle": "0"
    }
}
</currentjson>
-->
	<path d = "M0 175 L1 139.06865459179332 L2 106.99367025097723 L3 81.37452024490347 L4 63.90986098196484 L5 55.738122349716974 L6 57.36344878393041 L7 68.624914316249 L8 88.71086778811753 L9 116.21720320066798 L10 149.24538637637806 L11 185.5334026329143 L12 222.61059976214827 L13 257.9658318964191 L14 289.2174656625811 L15 314.273743679297 L16 331.47271237926395 L17 339.6923591439099 L18 338.4236668087692 L19 327.8018389798043 L20 308.59380267206353 L21 282.1430610246621 L22 250.27584710332607 L23 215.17512591380313 L24 179.23113164551793 L25 144.87866852842592 L26 114.43224541269568 L27 89.93020299990884 L28 72.99832648158979 L29 64.74206415282302 L30 65.67449082539744 L31 75.68470073990697 L32 94.04855656965057 L33 119.48084709810183 L34 150.22511117083178 L35 184.17485814768588 L36 219.01782481049042 L37 252.393394576175 L38 282.0524663026233 L39 306.0089501372605 L40 322.6726903775967 L41 330.95492428163584 L42 330.33928910093914 L43 320.91375551731477 L44 303.3615317616261 L45 278.91176714400467 L46 249.25359763715142 L47 216.4195363902192 L48 182.64625357829033 L49 150.2222769512928 L50 121.33297918160747 L51 97.91334757654974 L52 81.51845083962763 L53 73.220269310053 L54 73.53772736205077 L55 82.40448600855315 L56 99.17647679566377 L57 122.6784605834366 L58 151.28625980812592 L59 183.03891815546748 L60 215.7730479112929 L61 247.27016531107307 L62 275.4069839205416 L63 298.29848830735096 L64 314.42415144573306 L65 322.7288492511353 L66 322.69178053003657 L67 314.35889884946613 L68 298.33685343602116 L69 275.7490492760988 L70 248.15699478341855 L71 217.45243603593477 L72 185.72772325736312 L73 155.1332883011418 L74 127.7319371613845 L75 105.35982635029107 L76 89.50348864022479 L77 81.20113968542805 L78 80.97481237397287 L79 88.79774719449894 L80 104.09905994479834 L81 125.80517701285224 L82 152.4150450162564 L83 182.10385346712346 L84 212.84810857759578 L85 242.56348993051074 L86 269.2461020322276 L87 291.10755211030227 L88 306.69475280437086 L89 314.9864286533485 L90 315.4599222700076 L91 308.1239376843974 L92 293.51518427345974 L93 272.65933622256654 L94 246.99913316737377 L95 218.29465475032967 L96 188.5026571201726 L97 159.64323928837175 L98 133.66292090650285 L99 112.30340837595571 L100 96.98489325777948 L101 88.71169826235537 L102 88.00653432539177 L103 94.87766506843418 L104 108.82102747854563 L105 128.85698334858753 L106 153.5990360989459 L107 181.34970009216545 L108 210.21689865894078 L109 238.2429134706134 L110 263.5371007626043 L111 284.40338096438967 L112 299.4539085376326 L113 307.7013080286365 L114 308.62335127843744 L115 302.19584607185 L116 288.8916779724602 L117 269.646246418594 L118 245.79180720685986 L119 218.9653228513528 L120 190.99618964877135 L121 163.7815377779212 L122 139.15760094634382 L123 118.77587360774592 L124 103.99240464764462 L125 95.77764470656079 L126 94.65283591071591 L127 100.65710687995471 L128 113.34733801311475 L129 131.8306354796753 L130 154.82704829687427 L131 180.75813025669714 L132 207.855223832901 L133 234.28004155445615 L134 258.2493274881126 L135 278.15514838865977 L136 292.6727035957722 L137 300.8484289415219 L138 302.16254001462386 L139 296.5619189455862 L140 284.46127548109547 L141 266.71266907930067 L142 244.54561762741054 L143 219.481995625016 L144 193.23160743817851 L145 167.5755972616425 L146 144.24564256691593 L147 124.8071215306385 L148 110.55413357123972 L149 102.4234096170099 L150 100.93283481911801 L151 106.1486124061852 L152 117.68313977625604 L153 134.72358047663838 L154 156.08904025441748 L155 180.3123321442636 L156 205.74067384388817 L157 230.6484099523217 L158 253.35407454186017 L159 272.33385607971854 L160 286.3238113204966 L161 294.40397540907975 L162 296.0587752428302 L163 291.2097845661378 L164 280.2187500626927 L165 263.86083867128133 L166 243.27007015097047 L167 219.86076943215335 L168 195.23047477971002 L169 171.05096337733022 L170 148.95482470590767 L171 130.4252744318934 L172 116.69664234251047 L173 108.6722074048344 L174 106.86484531557832 L175 111.36438293871296 L176 121.8337279145155 L177 137.53388527080068 L178 157.37601904259026 L179 179.9968978076663 L180 203.85250097198278 L181 227.32336187426364 L182 248.82446363310774 L183 266.912233236183 L184 280.38141440409913 L185 288.34532172654644 L186 290.2941361122964 L187 286.12741417979714 L188 276.15874771622293 L189 261.0924032010877 L190 241.97366688987717 L191 220.11638990781546 L192 197.0127512621725 L193 174.23143291094328 L194 153.3111523021203 L195 135.6567755356499 L196 122.44502218619331 L197 114.5460877527731 L198 112.46640045687646 L199 116.31627290627253 L200 125.80450624839773 L201 140.26017128347758 L202 158.6799522237042 L203 179.79771873250215 L204 202.17150624294058 L205 224.2819325693981 L206 244.63533664724042 L207 261.8646409107755 L208 274.82112919048416 L209 282.65098173188267 L210 284.8514716858805 L211 281.3031291835657 L212 272.2758233387269 L213 258.4084867789229 L214 240.66399094396962 L215 220.2623527568569 L216 198.59690186610817 L217 177.13916569687282 L218 157.33896242602717 L219 140.52648221763963 L220 127.82296730108965 L221 120.06598561884137 L222 117.75427477988961 L223 121.01578385583294 L224 129.60095310274096 L225 142.9015545626954 L226 159.99368647600198 L227 179.70188856408868 L228 200.67993291749215 L229 221.50274082757926 L230 240.76315250646624 L231 257.1669811760698 L232 269.6199332237739 L233 277.3005595404174 L234 279.714378071136 L235 276.7256060615023 L236 268.5644729883358 L237 255.80974688448586 L238 239.3477846669104 L239 220.31099761925296 L240 200 L241 179.79478981031122 L242 161.0610245043219 L243 145.05775451094036 L244 132.85284572359683 L245 125.2517697579761 L246 122.74450731684448 L247 125.47406053809131 L248 133.22859086739675 L249 145.45759101541202 L250 161.3108723273486 L251 179.6976125386415 L252 199.36136682366504 L253 218.96588699945534 L254 237.18588978518864 L255 252.7966108960653 L256 264.7560959484575 L257 272.2747017712239 L258 274.8671752910898 L259 272.3838793354645 L260 265.0191625796229 L261 253.29642673256396 L262 238.0310220379494 L263 220.2735954502989 L264 201.23782390238165 L265 182.21750042589466 L266 164.49863493781132 L267 149.27253910746234 L268 137.55576708818495 L269 130.122289744355 L270 127.45242480800071 L271 129.70188886496567 L272 136.6929589691794 L273 147.92822635160329 L274 162.62589457600328 L275 179.7741231871324 L276 198.20064312020196 L277 216.65285717035403 L278 233.88295478728764 L279 248.73225990203903 L280 260.20911246389045 L281 267.55505127842486 L282 270.29488401684034 L283 268.26734275246474 L284 261.634353318062 L285 250.868403108513 L286 236.718975547277 L287 220.16042983405495 L288 202.32494681008606 L289 184.42515269776231 L290 167.6717063989223 L291 153.19144905356467 L292 141.9516473823835 L293 134.6954214850557 L294 131.89266499671783 L295 133.70969552665832 L296 139.99958996014257 L297 150.31375038313047 L298 163.93380800372265 L299 179.9216019062934 L300 197.183759102228 L301 214.54643314205526 L302 230.83509480543552 L303 244.95395337744708 L304 255.9596402353246 L305 263.1242023931232 L306 265.9832022702625 L307 264.36574891165844 L308 258.40452415712224 L309 248.52523001807756 L310 235.41627797673664 L311 219.98087262311378 L312 203.2748212703768 L313 186.4343489979798 L314 170.5988520824077 L315 156.8338393318552 L316 146.05927079423864 L317 138.98811122278642 L318 136.07919990508455 L319 137.50754907431912 L320 143.15398844965978 L321 152.61475534514824 L322 165.230278012011 L323 180.1311060157978 L324 196.29779268223675 L325 212.63060789429034 L326 228.0243162950455 L327 241.44293826299975 L328 251.989438663479 L329 258.9656576750052 L330 261.9184821924652 L331 260.6692075162381 L332 255.32419153990716 L333 246.26617847198344 L334 234.12697943287932 L335 219.7434542738972 L336 204.099857953368 L337 188.2605208328982 L338 173.2974651705689 L339 160.21787851487204 L340 149.89634875015687 L341 143.01641803166055 L342 140.02535900036008 L343 141.10516229139068 L344 146.16161262863983 L345 154.83209793104055 L346 166.51152583635542 L347 180.3945009438313 L348 195.53082620023827 L349 210.8905062147947 L350 225.43380770752051 L351 238.1816134993847 L352 248.28131141490192 L353 255.0637861668111 L354 258.0877069621226 L355 257.1681824191237 L356 252.38792666713127 L357 244.09027270327536 L358 232.85459996607077 L359 219.45592922417788 L360 204.81149930090197 L361 189.91800574041918 L362 175.78379376245312 L363 163.36061667000322 L364 153.4795762406313 L365 146.7955548154801 L366 143.74385217347998 L367 144.5118956924614 L368 149.02785815360377 L369 156.96686475358823 L370 167.77427801583482 L371 180.70439720513022 L372 194.87187523662212 L373 209.3123102029536 L374 223.04786673911207 L375 235.1534639314404 L376 244.81905141596928 L377 251.40378313972036 L378 254.4784679372986 L379 253.85348761621006 L380 249.59037051453083 L381 241.99632309437587 L382 231.6021780875022 L383 219.12533663828884 L384 205.4202883288784 L385 191.4201194552964 L386 178.0730115050394 L387 166.2780496887014 L388 156.82468553058285 L389 150.33992782279856 L390 147.2467924608991 L391 147.73676200297905 L392 151.75804417637858 L393 159.02034096536158 L394 169.01571981667104 L395 181.05409185618407 L396 194.31082211994834 L397 207.88318936755684 L398 220.8518317629545 L399 232.3429977038532 L400 241.58738841427856 L401 247.97163131321807 L402 251.07894208482844 L403 250.71628232698882 L404 246.92624680542144 L405 239.9829560712322 L406 230.37231547545105 L407 218.75805682545982 L408 205.93593288185227 L409 192.7792236144983 L410 180.17928415338147 L411 168.98518020680305 L412 159.94649734999936 L413 153.6631746972182 L414 150.54571845015366 L415 150.7884314865728 L416 154.3574013219126 L417 160.99398179029177 L418 170.23345232815544 L419 181.43751413173186 L420 193.8383538395752 L421 206.59123505392915 L422 218.8320172226663 L423 229.73568698466391 L424 238.57193901237932 L425 244.75406352910775 L426 247.87786975263654 L427 247.74806528949492 L428 244.39037312797456 L429 238.0486412035924 L430 229.16721814287885 L431 218.3598636178581 L432 206.3673656214977 L433 194.00678926024213 L434 182.11583227604564 L435 171.49607527658932 L436 162.8589696592486 L437 156.77820108499566 L438 153.65161631779856 L439 153.67523799907508 L440 156.83106143228014 L441 162.88938673608413 L442 171.42545296803226 L443 181.84917498500087 L444 193.44590408978829 L445 205.425398949767 L446 216.9756527763545 L447 227.31791185899723 L448 235.75915908020232 L449 241.73852685598462 L450 244.8645328324935 L451 244.94066838468638 L452 241.97767037178832 L453 236.19171573334035 L454 227.9887343204066 L455 217.9359729771274 L456 206.72280001424687 L457 195.11345638459196 L458 183.894990311938 L459 173.8239209451583 L460 165.57524408191307 L461 159.6972158251346 L462 156.57494145587714 L463 156.4051856597044 L464 159.18404890938683 L465 164.70827627365924 L466 172.59003915190706 L467 182.28412027139714 L468 193.12559918794253 L469 204.37543543241304 L470 215.27082598990336 L471 225.07690724144513 L472 233.1362984541728 L473 238.91314809761735 L474 242.02873335357233 L475 242.28624969445542 L476 239.6831706444102 L477 234.4104067368546 L478 226.83838929176633 L479 217.4910880814669 L480 207.00978256796995 L481 196.1090897464323 L482 185.52826217476348 L483 175.98107388769415 L484 168.10769009628436 L485 162.43176474978154 L486 159.32563964987253 L487 158.9859560403316 L488 161.4212735022962 L489 166.4524707852466 L490 173.7258348976456 L491 182.73788733159904 L492 192.87020762415304 L493 203.4318475330539 L494 213.70642838807476 L495 223.00071266146207 L496 230.69135783279273 L497 236.26670067625855 L498 239.36077254070864 L499 239.77728608743604 " stroke = "blue" stroke-width = "4" fill = "none" /></svg>