<svg width="500" height="500" viewbox = "0 0 500 500"  xmlns="http://www.w3.org/2000/svg">

<!--
<topfunctions>





//put helper functions here, along with contsants and variables


function YofX(){
    
    X = currentjson.plotparams.g*(x - currentjson.plotparams.x0);
    Y =  Math.exp(-X/A)*Math.sin(X);
    y = currentjson.plotparams.y0 - currentjson.plotparams.G*(Y);

}




function plotfunction(){
    /*plot one function:*/
    currentStroke = currentjson.style.color;
    currentLineWidth = currentjson.style.linewidth;
    ctx.strokeStyle = currentStroke;
    ctx.lineWidth = currentLineWidth;
    ctx.beginPath();	
    x = 0;
    YofX();
    currentSVG += "	<path d = \"M";
    currentSVG += Math.round(x).toString() + " ";
    currentSVG += Math.round(y).toString() + " ";
    for(x = 1;x < currentjson.plotparams.plotwidth;x++){
        ctx.moveTo(x-1,y);
        YofX();
        ctx.lineTo(x,y);
        currentSVG += "L" + x + " " + y + " ";
    }
    ctx.stroke();
    currentSVG += "\""+ " stroke = \"" + currentStroke + "\" stroke-width = \"" + currentLineWidth.toString() + "\" fill = \"" + "none" + "\" "+"/>";
    /*finish plot one function*/

}































</topfunctions>
-->

<!--
<currentjson>
{
    "constants": {},
    "YofXstring": "tau = 100;Y =  Math.exp(-X/tau)*Math.sin(X)",
    "style": {
        "linewidth": 4,
        "color": "blue",
        "fill": "none"
    },
    "plotparams": {
        "G": 211.1355692539679,
        "g": 0.10699891185269558,
        "duration": 450.78888054094654,
        "plotwidth": 500,
        "plotheight": 500,
        "x0": "0",
        "y0": 200
    },
    "funcparams": {},
    "image": {
        "url": "",
        "xoverw": 0.038011695906432746,
        "yoverw": -0.08771929824561403,
        "woverw": 0.8536631795472632,
        "angle": "0"
    },
    "A": 6.812920690579613,
    "B": 1
}
</currentjson>
-->

<!--
<equation>

# Equations
$$X = g(x - x_0)$$
$$Y = \sin{(X)}$$
$$y = y_0 - GY$$ 
# Equations
$$X = g(x - x_0)$$
$$Y = \sin{(X)}$$
$$y = y_0 - GY$$ 
</equation>
-->
	<path d = "M0 200 L1 177.80316586285895 L2 156.54802868141692 L3 136.44995475371448 L4 117.70434169116554 L5 100.48498834997093 L6 84.94276360642976 L7 71.2045800475033 L8 59.37267495297897 L9 49.52419733749585 L10 41.71109633835033 L11 35.96030291455935 L12 32.27419369731234 L13 30.63132293160575 L14 30.98740579992625 L15 33.276534044031706 L16 37.41260271900521 L17 43.29092513972125 L18 50.79001162454716 L19 59.773486511393656 L20 70.09211712005049 L21 81.58592786115247 L22 94.08637254143865 L23 107.41853807893592 L24 121.40335330870724 L25 135.85977731510886 L26 150.60694275249617 L27 165.4662308928386 L28 180.26325664331014 L29 194.82974348526557 L30 209.0052701721339 L31 222.63887306047206 L32 235.59049010764042 L33 247.73223482265757 L34 258.94949077495437 L35 269.14181962029147 L36 278.22367796582773 L37 286.1249407397981 L38 292.79123102911643 L39 298.18405857544366 L40 302.28077125341815 L41 305.07432587220694 L42 306.57288652367356 L43 306.7992604298088 L44 305.7901828034648 L45 303.59546361710545 L46 300.27701036394484 L47 295.9077418867132 L48 290.5704091361131 L49 284.35633930107224 L50 277.36412012588056 L51 269.69824139733157 L52 261.4677105524804 L53 252.784659131152 L54 243.76295638549075 L55 234.51684577210366 L56 225.15961930287318 L57 215.8023438319512 L58 206.552652323744 L59 197.51361199588106 L60 188.78267997912022 L61 180.45075580040918 L62 172.6013385938517 L63 165.3097954952653 L64 158.64274619751188 L65 152.65756715374323 L66 147.4020174316311 L67 142.91398676042883 L68 139.2213648904416 L69 136.34203001631906 L70 134.28395271559128 L71 133.04541063489447 L72 132.61530802988733 L73 132.9735932410441 L74 134.09176627492366 L75 135.93346786621788 L76 138.4551407253495 L77 141.60675313351283 L78 145.33257463411968 L79 149.57199328736536 L80 154.26036380226526 L81 159.3298758357743 L82 164.71043184782 L83 170.3305241192883 L84 176.11810087100247 L85 182.00141185824248 L86 187.9098243490743 L87 193.77460101655552 L88 199.52963197487705 L89 205.1121139572227 L90 210.46317045765267 L91 215.52840752940278 L92 220.2584008362246 L93 224.60911048031028 L94 228.54222106859262 L95 232.02540541763847 L96 235.03251122516497 L97 237.54367094305843 L98 239.54533596288218 L99 241.03023706109622 L100 241.99727383919156 L101 242.45133662609376 L102 242.40306497982098 L103 241.86854752671775 L104 240.86896840482717 L105 239.4302060292918 L106 237.58239026927447 L107 235.35942441595864 L108 232.79847852890416 L109 229.9394608735585 L110 226.8244742071533 L111 223.49726363554598 L112 220.00266265264386 L113 216.38604379050497 L114 212.69278005640328 L115 208.96772301808534 L116 205.25470302570537 L117 201.59605663458532 L118 198.0321858234731 L119 194.60115309516962 L120 191.33831600728402 L121 188.27600411762938 L122 185.44324074861078 L123 182.86551138508204 L124 180.56457992764112 L125 178.5583534350934 L126 176.86079541247298 L127 175.48188714087536 L128 174.427636008335 L129 173.70012929253713 L130 173.2976313712521 L131 173.21472189944637 L132 173.44247209690903 L133 173.96865594018857 L134 174.7779927502932 L135 175.8524174149738 L136 177.1713742828474 L137 178.71213061687337 L138 180.45010539688192 L139 182.35920921449647 L140 184.41219100782632 L141 186.5809874361356 L142 188.83707079419364 L143 191.1517915096023 L144 193.49671145105373 L145 195.84392449781058 L146 198.16636107699253 L147 200.43807366150298 L148 202.63450053341705 L149 204.73270545099408 L150 206.71159120767788 L151 208.552085433959 L152 210.23729736324222 L153 211.75264465639276 L154 213.0859497520275 L155 214.2275055766255 L156 215.17011080609953 L157 215.90907521477564 L158 216.44219597522502 L159 216.76970607982545 L160 216.8941963393944 L161 216.82051267315825 L162 216.55563063552555 L163 216.10850932680347 L164 215.48992700573808 L165 214.71230086055832 L166 213.7894935014517 L167 212.73660881088543 L168 211.5697798290715 L169 210.3059513607021 L170 208.96265996673804 L171 207.5578139527409 L172 206.10947588452512 L173 204.63565005457914 L174 203.15407719081958 L175 201.68203854507684 L176 200.23617132472822 L177 198.83229723970646 L178 197.48526573145193 L179 196.2088132330561 L180 195.0154395837246 L181 193.9163024886415 L182 192.92113068019648 L183 192.03815620114128 L184 191.27406599728766 L185 190.63397277945208 L186 190.12140489395355 L187 189.73831473038933 L188 189.48510499676104 L189 189.3606720072221 L190 189.36246495846092 L191 189.4865600184904 L192 189.72774791760676 L193 190.07963361648942 L194 190.53474653156158 L195 191.0846597232961 L196 191.7201163993549 L197 192.43116205127563 L198 193.20728053060952 L199 194.0375323774858 L200 194.91069374083756 L201 195.8153942740721 L202 196.74025245173175 L203 197.67400683042362 L204 198.60564186961028 L205 199.52450703323868 L206 200.42042801002088 L207 201.283809016773 L208 202.10572528380777 L209 202.87800496216835 L210 203.59329983767262 L211 204.2451443845046 L212 204.82800283966196 L213 205.33730412721292 L214 205.76946460636128 L215 206.121898758179 L216 206.39301806104754 L217 206.58221843297704 L218 206.68985673878677 L219 206.7172169705118 L220 206.66646680937248 L221 206.54060536637516 L222 206.34340297543167 L223 206.07933397727905 L224 205.75350348408918 L225 205.371569153285 L226 204.93965902468227 L227 204.46428648776103 L228 203.95226344589386 L229 203.4106127321075 L230 202.84648080695476 L231 202.2670517339599 L232 201.6794633826237 L233 201.09072675397636 L234 200.50764926007378 L235 199.93676271764483 L236 199.38425673836474 L237 198.85591811505213 L238 198.3570767155879 L239 197.8925583056728 L240 197.4666446288209 L241 197.08304097835517 L242 196.74485140273495 L243 196.45456159337425 L244 196.21402941422082 L245 196.024482945728 L246 195.8865258333551 L247 195.8001496532017 L248 195.76475293555504 L249 195.77916642165428 L250 195.8416840704113 L251 195.95009928063322 L252 196.1017457508266 L253 196.2935423631914 L254 196.52204145109152 L255 196.7834797901836 L256 197.07383164245965 L257 197.388863179587 L258 197.72418761689354 L259 198.0753204018483 L260 198.43773382054997 L261 198.80691041211327 L262 199.1783946134193 L263 199.5478420949118 L264 199.91106629135518 L265 200.2640816790764 L266 200.60314340250343 L267 200.92478290708678 L268 201.22583929223146 L269 201.50348615595155 L270 201.75525376187545 L271 201.9790464182709 L272 202.1731550172455 L273 202.3362647395491 L274 202.4674579858464 L275 202.56621264835124 L276 202.63239588679045 L277 202.66625361930576 L278 202.66839598167837 L279 202.6397790467993 L280 202.58168313029904 L281 202.49568803743762 L282 202.38364563056095 L283 202.24765011551776 L284 202.09000645935188 L285 201.91319736032804 L286 201.71984919498217 L287 201.51269736552035 L288 201.29455146469877 L289 201.06826066451723 L290 200.83667971991932 L291 200.6026359595224 L292 200.36889761254292 L293 200.13814379491598 L294 199.9129364485357 L295 199.6956944959886 L296 199.4886704395543 L297 199.29392959806046 L298 199.11333213884885 L299 198.9485180250981 L300 198.80089496149503 L301 198.67162938419276 L302 198.56164050455678 L303 198.47159738077934 L304 198.4019189574171 L305 198.35277698062208 L306 198.32410166660986 L307 198.31558997302784 L308 198.32671629759406 L309 198.3567454058896 L310 198.40474737067274 L311 198.46961428867493 L312 198.55007852763117 L313 198.64473224634062 L314 198.75204792386444 L315 198.87039963051984 L316 198.99808477306425 L317 199.13334604928372 L318 199.27439335297933 L319 199.41942537892444 L320 199.5666506885612 L321 199.71430801080413 L322 199.86068556809525 L323 200.00413923555485 L324 200.1431093604374 L325 200.27613608985442 L326 200.40187307658607 L327 200.51909945548445 L328 200.62673000618892 L329 200.72382344134002 L330 200.80958878292262 L331 200.8833898125133 L332 200.9447476038038 L333 200.9933411675701 L334 201.02900626003694 L335 201.05173242513584 L336 201.06165835929096 L337 201.0590657039198 L338 201.04437138566945 L339 201.01811863740141 L340 200.98096684400025 L341 200.93368036614305 L342 200.87711650218756 L343 200.8122127532981 L344 200.7399735598365 L345 200.66145667793225 L346 200.5777593640604 L347 200.49000453247527 L348 200.39932704556276 L349 200.3068602906949 L350 200.21372318912697 L351 200.1210077730057 L352 200.02976745581668 L353 199.94100610974633 L354 199.8556680506433 L355 199.77462901771202 L356 199.69868822093397 L357 199.62856151467412 L358 199.56487574116852 L359 199.50816427278073 L360 199.45886376723374 L361 199.41731213563156 L362 199.383747709141 L363 199.35830957685343 L364 199.34103905472443 L365 199.33188223371954 L366 199.33069354448423 L367 199.33724026610287 L368 199.35120789789096 L369 199.37220630574512 L370 199.39977654840192 L371 199.43339828406178 L372 199.47249765423862 L373 199.51645553939346 L374 199.56461607989698 L375 199.61629535610345 L376 199.67079012277483 L377 199.72738649570678 L378 199.78536849211733 L379 199.844026331085 L380 199.90266440598114 L381 199.96060884733663 L382 200.01721460181602 L383 200.07187196083774 L384 200.12401248076245 L385 200.1731142453679 L386 200.21870643041703 L387 200.26037313939614 L388 200.29775648884046 L389 200.33055893096292 L390 200.35854481045413 L391 200.38154116122848 L392 200.3994377574541 L393 200.41218644133937 L394 200.41979975777193 L395 200.42234893294975 L396 200.41996124053964 L397 200.41281680459807 L398 200.40114489344526 L399 200.38521976286293 L400 200.36535611036487 L401 200.3419042048541 L402 200.31524475772514 L403 200.28578360240115 L404 200.2539462494283 L405 200.22017238360476 L406 200.18491036823295 L407 200.14861181949016 L408 200.11172631115608 L409 200.07469626657573 L410 200.03795209082242 L411 200.00190759162535 L412 199.96695573280283 L413 199.93346475876552 L414 199.9017747231924 L415 199.87219444931057 L416 199.84499894339675 L417 199.82042727723675 L418 199.7986809493985 L419 199.77992272936186 L420 199.76427598286958 L421 199.751824471379 L422 199.74261261326075 L423 199.73664618946188 L424 199.7338934717727 L425 199.73428674765148 L426 199.73772421180533 L427 199.74407219142847 L428 199.75316766918496 L429 199.76482106570802 L430 199.77881924158604 L431 199.7949286775178 L432 199.8128987905479 L433 199.8324653440301 L434 199.85335390919678 L435 199.87528333692268 L436 199.897969199434 L437 199.9211271633039 L438 199.9444762570617 L439 199.96774199908913 L440 199.99065935414535 L441 200.0129754898129 L442 200.0344523073455 L443 200.05486872478275 L444 200.07402269373128 L445 200.09173293484955 L446 200.10784038077279 L447 200.12220931892736 L448 200.13472823036972 L449 200.14531032440055 L450 200.15389377221274 L451 200.16044164619146 L452 200.16494157466718 L453 200.16740512489127 L454 200.16786692973562 L455 200.16638357608602 L456 200.16303227508448 L457 200.15790933626158 L458 200.15112846917464 L459 200.1428189374202 L460 200.13312359081996 L461 200.12219680218132 L462 200.11020233531585 L463 200.09731117096453 L464 200.08369931693812 L465 200.0695456281498 L466 200.05502966130894 L467 200.04032958788068 L468 200.02562018751533 L469 200.01107094253987 L470 199.99684425230453 L471 199.98309378421754 L472 199.9699629762084 L473 199.95758370316238 L474 199.94607511759548 L475 199.93554267251642 L476 199.92607733208203 L477 199.91775497331787 L478 199.91063597987815 L479 199.90476502657873 L480 199.90017105128302 L481 199.8968674086703 L482 199.8948521984939 L483 199.89410875915746 L484 199.8946063158202 L485 199.89630077079792 L486 199.89913562276786 L487 199.90304300022186 L488 199.9079447937472 L489 199.91375387105566 L490 199.92037535822584 L491 199.92770797037412 L492 199.93564537491974 L493 199.9440775707553 L494 199.95289226696676 L495 199.9619762452589 L496 199.971216690918 L497 199.98050247797607 L498 199.98972539521003 L499 199.99878130070323 " stroke = "blue" stroke-width = "4" fill = "none" /></svg>