<svg width="500" height="500" viewbox = "0 0 500 500"  xmlns="http://www.w3.org/2000/svg">

<!--
<topfunctions>


//put helper functions here, along with contsants and variables


function YofX(){
    
    X = currentjson.plotparams.g*(x - currentjson.plotparams.x0);
    eval(currentjson.YofXstring);
    y = currentjson.plotparams.y0 - currentjson.plotparams.G*(Y);

}




function plotfunction(){
    /*plot one function:*/
    currentStroke = currentjson.style.color;
    currentLineWidth = currentjson.style.linewidth;
    ctx.strokeStyle = currentStroke;
    ctx.lineWidth = currentLineWidth;
    ctx.beginPath();	
    x = 0;
    YofX();
    currentSVG += "	<path d = \"M";
    currentSVG += Math.round(x).toString() + " ";
    currentSVG += Math.round(y).toString() + " ";
    for(x = 1;x < currentjson.plotparams.plotwidth;x++){
        ctx.moveTo(x-1,y);
        YofX();
        ctx.lineTo(x,y);
        currentSVG += "L" + x + " " + y + " ";
    }
    ctx.stroke();
    currentSVG += "\""+ " stroke = \"" + currentStroke + "\" stroke-width = \"" + currentLineWidth.toString() + "\" fill = \"" + "none" + "\" "+"/>";
    /*finish plot one function*/

}





























</topfunctions>
-->

<!--
<currentjson>
{
    "constants": {},
    "YofXstring": "Y = Math.tanh(X)",
    "style": {
        "linewidth": 4,
        "color": "red",
        "fill": "none"
    },
    "plotparams": {
        "G": 130.4659184724974,
        "g": 0.03523085806037575,
        "duration": 450.78888054094654,
        "plotwidth": 500,
        "plotheight": 500,
        "x0": 250,
        "y0": 238
    },
    "funcparams": {},
    "image": {
        "url": "",
        "xoverw": 0.038011695906432746,
        "yoverw": -0.08771929824561403,
        "woverw": 0.8536631795472632,
        "angle": "0"
    }
}
</currentjson>
-->

<!--
<equation>
# Equations
$$X = g(x - x_0)$$
$$Y = \sin{(X)}$$
$$y = y_0 - GY$$ 
</equation>
-->
	<path d = "M0 368 L1 368.4659122086009 L2 368.46591175131465 L3 368.4659112606448 L4 368.4659107341545 L5 368.46591016922844 L6 368.46590956306085 L7 368.4659089126409 L8 368.4659082147381 L9 368.46590746588583 L10 368.46590666236483 L11 368.465905800184 L12 368.4659048750609 L13 368.46590388240065 L14 368.46590281727276 L15 368.46590167438677 L16 368.4659004480661 L17 368.4658991322199 L18 368.4658977203122 L19 368.4658962053304 L20 368.4658945797497 L21 368.4658928354959 L22 368.4658909639055 L23 368.46588895568254 L24 368.4658868008523 L25 368.46588448871194 L26 368.4658820077774 L27 368.46587934572597 L28 368.4658764893355 L29 368.4658734244187 L30 368.46587013575237 L31 368.465866607002 L32 368.4658628206406 L33 368.4658587578618 L34 368.46585439848604 L35 368.4658497208609 L36 368.46584470175287 L37 368.4658393162327 L38 368.465833537551 L39 368.46582733700563 L40 368.4658206837992 L41 368.46581354488586 L42 368.4658058848073 L43 368.46579766551685 L44 368.46578884619 L45 368.4657793830222 L46 368.46576922901096 L47 368.4657583337223 L48 368.4657466430405 L49 368.46573409889936 L50 368.4657206389935 L51 368.465706196469 L52 368.4656906995916 L53 368.4656740713902 L54 368.4656562292744 L55 368.4656370846245 L56 368.46561654235154 L57 368.4655945004246 L58 368.4655708493641 L59 368.46554547169853 L60 368.4655182413802 L61 368.46548902316 L62 368.465457671915 L63 368.465424031928 L64 368.4653879361143 L65 368.46534920519133 L66 368.4653076467886 L67 368.4652630544921 L68 368.4652152068193 L69 368.465163866119 L70 368.4651087773908 L71 368.46504966701906 L72 368.4649862414137 L73 368.46491818555205 L74 368.46484516141453 L75 368.46476680630553 L76 368.46468273105256 L77 368.4645925180729 L78 368.4644957193002 L79 368.4643918539592 L80 368.4642804061778 L81 368.4641608224253 L82 368.46403250876347 L83 368.4638948278968 L84 368.463747096008 L85 368.46358857936184 L86 368.4634184906614 L87 368.4632359851389 L88 368.4630401563603 L89 368.46283003172437 L90 368.4626045676331 L91 368.46236264430956 L92 368.46210306023806 L93 368.4618245261979 L94 368.4615256588621 L95 368.4612049739292 L96 368.4608608787537 L97 368.4604916644389 L98 368.46009549735265 L99 368.4596704100245 L100 368.45921429137826 L101 368.4587248762526 L102 368.4581997341566 L103 368.4576362572059 L104 368.4570316471779 L105 368.45638290162424 L106 368.45568679896894 L107 368.4549398825212 L108 368.4541384433221 L109 368.4532785017401 L110 368.45235578772576 L111 368.45136571962627 L112 368.4503033814568 L113 368.44916349851457 L114 368.44794041121634 L115 368.44662804702995 L116 368.4452198903608 L117 368.4437089502451 L118 368.44208772569044 L119 368.44034816849296 L120 368.43848164334725 L121 368.4364788850536 L122 368.43432995261094 L123 368.4320241799703 L124 368.4295501232068 L125 368.42689550385035 L126 368.4240471480971 L127 368.4209909216041 L128 368.41771165954714 L129 368.41419309160005 L130 368.41041776146864 L131 368.4063669405864 L132 368.40202053555174 L133 368.39735698885505 L134 368.3923531724148 L135 368.3869842734037 L136 368.38122367181404 L137 368.3750428091681 L138 368.3684110477418 L139 368.3612955196217 L140 368.3536609648719 L141 368.34546955803376 L142 368.3366807221295 L143 368.32725092928354 L144 368.31713348701294 L145 368.30627830917604 L146 368.2946316704971 L147 368.28213594351405 L148 368.2687293167167 L149 368.2543454925624 L150 368.2389133639683 L151 368.2223566677875 L152 368.204593613679 L153 368.18553648667967 L154 368.1650912216768 L155 368.1431569478685 L156 368.11962550117795 L157 368.0943809024637 L158 368.0672987992374 L159 368.0382458684651 L160 368.00707917788554 L161 367.97364550313364 L162 367.9377805978057 L163 367.8993084134487 L164 367.8580402662945 L165 367.8137739474039 L166 367.7662927727165 L167 367.7153645693442 L168 367.660740594284 L169 367.60215438156587 L170 367.5393205137033 L171 367.4719333131689 L172 367.3996654494879 L173 367.32216645742784 L174 367.2390611616711 L175 367.1499480032867 L176 367.05439726328905 L177 366.9519491785733 L178 366.842111945575 L179 366.72435960711584 L180 366.5981298180791 L181 366.46282148582816 L182 366.31779228164487 L183 366.16235601993947 L184 365.99577990260053 L185 365.8172816266122 L186 365.62602635401015 L187 365.4211235443911 L188 365.2016236515682 L189 364.9665146876035 L190 364.71471865938906 L191 364.44508788522415 L192 364.15640120148873 L193 363.8473600725896 L194 363.51658462089694 L195 363.16260959744716 L196 362.78388031881303 L197 362.3787486007776 L198 361.9454687253528 L199 361.4821934842953 L200 360.9869703496346 L201 360.4577378298767 L202 359.8923220795041 L203 359.28843383916126 L204 358.64366579449313 L205 357.9554904529449 L206 357.22125864987197 L207 356.4381988079401 L208 355.60341708686207 L209 354.71389857380495 L210 353.76650967804085 L211 352.7580019062384 L212 351.6850172067797 L213 350.5440950820898 L214 349.33168167655924 L215 348.0441410534757 L216 346.67776887661364 L217 345.2288087097993 L218 343.6934711398259 L219 342.06795591341154 L220 340.34847725629214 L221 338.53129251084147 L222 336.6127341866747 L223 334.5892454654943 L224 332.45741913615745 L225 330.21403985805784 L226 327.8561295602989 L227 325.38099568120845 L228 322.78628183855074 L229 320.0700203971668 L230 317.23068627038924 L231 314.26725115805624 L232 311.1792372918654 L233 307.96676963365337 L234 304.630625360293 L235 301.1722793771973 L236 297.5939445382192 L237 293.89860522029403 L238 290.0900429132845 L239 286.1728525449373 L240 282.1524483718939 L241 278.03505843245966 L242 273.8277067749137 L243 269.5381829431781 L244 265.17499851317785 L245 260.7473308185963 L246 256.2649543715027 L247 251.73816085668048 L248 247.17766894200713 L249 242.59452548389575 L250 238 L251 233.40547451610425 L252 228.82233105799287 L253 224.26183914331952 L254 219.7350456284973 L255 215.2526691814037 L256 210.82500148682212 L257 206.46181705682193 L258 202.17229322508635 L259 197.96494156754034 L260 193.8475516281061 L261 189.8271474550627 L262 185.90995708671548 L263 182.10139477970597 L264 178.4060554617808 L265 174.8277206228027 L266 171.36937463970702 L267 168.03323036634663 L268 164.82076270813462 L269 161.73274884194376 L270 158.7693137296108 L271 155.9299796028332 L272 153.21371816144926 L273 150.61900431879155 L274 148.14387043970112 L275 145.78596014194216 L276 143.54258086384255 L277 141.41075453450574 L278 139.3872658133253 L279 137.46870748915853 L280 135.65152274370786 L281 133.93204408658846 L282 132.30652886017415 L283 130.7711912902007 L284 129.32223112338633 L285 127.9558589465243 L286 126.66831832344076 L287 125.45590491791019 L288 124.3149827932203 L289 123.24199809376157 L290 122.23349032195912 L291 121.28610142619503 L292 120.39658291313795 L293 119.56180119205985 L294 118.778741350128 L295 118.04450954705507 L296 117.35633420550688 L297 116.71156616083877 L298 116.10767792049592 L299 115.54226217012332 L300 115.01302965036544 L301 114.51780651570468 L302 114.05453127464722 L303 113.6212513992224 L304 113.21611968118695 L305 112.83739040255286 L306 112.48341537910308 L307 112.15263992741038 L308 111.84359879851128 L309 111.55491211477586 L310 111.28528134061094 L311 111.03348531239651 L312 110.79837634843182 L313 110.57887645560893 L314 110.37397364598988 L315 110.18271837338777 L316 110.00422009739948 L317 109.83764398006053 L318 109.68220771835513 L319 109.53717851417181 L320 109.40187018192094 L321 109.27564039288413 L322 109.15788805442497 L323 109.04805082142676 L324 108.94560273671098 L325 108.85005199671332 L326 108.76093883832894 L327 108.67783354257216 L328 108.60033455051214 L329 108.5280666868311 L330 108.4606794862967 L331 108.39784561843413 L332 108.33925940571598 L333 108.28463543065578 L334 108.23370722728353 L335 108.18622605259611 L336 108.1419597337055 L337 108.1006915865513 L338 108.06221940219424 L339 108.02635449686636 L340 107.99292082211443 L341 107.96175413153489 L342 107.93270120076261 L343 107.90561909753632 L344 107.88037449882205 L345 107.85684305213152 L346 107.83490877832324 L347 107.81446351332036 L348 107.79540638632099 L349 107.7776433322125 L350 107.76108663603168 L351 107.74565450743759 L352 107.7312706832833 L353 107.71786405648592 L354 107.70536832950287 L355 107.69372169082396 L356 107.68286651298706 L357 107.67274907071649 L358 107.66331927787053 L359 107.65453044196627 L360 107.64633903512811 L361 107.6387044803783 L362 107.6315889522582 L363 107.62495719083185 L364 107.61877632818596 L365 107.6130157265963 L366 107.60764682758523 L367 107.60264301114495 L368 107.59797946444829 L369 107.59363305941358 L370 107.58958223853136 L371 107.58580690839997 L372 107.58228834045286 L373 107.57900907839593 L374 107.57595285190291 L375 107.57310449614965 L376 107.57044987679316 L377 107.56797582002969 L378 107.56567004738906 L379 107.56352111494638 L380 107.56151835665275 L381 107.55965183150707 L382 107.55791227430956 L383 107.55629104975492 L384 107.55478010963921 L385 107.55337195297005 L386 107.55205958878366 L387 107.55083650148543 L388 107.54969661854318 L389 107.54863428037373 L390 107.54764421227426 L391 107.54672149825987 L392 107.54586155667786 L393 107.54506011747876 L394 107.54431320103106 L395 107.54361709837573 L396 107.54296835282204 L397 107.5423637427941 L398 107.54180026584339 L399 107.54127512374743 L400 107.54078570862174 L401 107.54032958997553 L402 107.53990450264735 L403 107.5395083355611 L404 107.53913912124628 L405 107.53879502607077 L406 107.53847434113788 L407 107.53817547380206 L408 107.53789693976191 L409 107.53763735569044 L410 107.53739543236694 L411 107.53716996827563 L412 107.53695984363966 L413 107.53676401486106 L414 107.53658150933856 L415 107.53641142063819 L416 107.536252903992 L417 107.53610517210319 L418 107.53596749123656 L419 107.5358391775747 L420 107.5357195938222 L421 107.53560814604077 L422 107.5355042806998 L423 107.53540748192714 L424 107.53531726894747 L425 107.53523319369444 L426 107.53515483858547 L427 107.53508181444792 L428 107.5350137585863 L429 107.53495033298094 L430 107.53489122260922 L431 107.53483613388102 L432 107.53478479318068 L433 107.53473694550789 L434 107.53469235321143 L435 107.53465079480867 L436 107.5346120638857 L437 107.53457596807195 L438 107.53454232808502 L439 107.53451097684004 L440 107.53448175861979 L441 107.5344545283015 L442 107.53442915063587 L443 107.53440549957543 L444 107.53438345764846 L445 107.53436291537548 L446 107.53434377072566 L447 107.5343259286098 L448 107.53430930040835 L449 107.534293803531 L450 107.53427936100653 L451 107.53426590110064 L452 107.53425335695948 L453 107.53424166627772 L454 107.53423077098904 L455 107.53422061697776 L456 107.53421115380999 L457 107.53420233448315 L458 107.53419411519266 L459 107.53418645511414 L460 107.53417931620078 L461 107.53417266299434 L462 107.53416646244898 L463 107.53416068376731 L464 107.53415529824713 L465 107.53415027913914 L466 107.53414560151393 L467 107.53414124213822 L468 107.53413717935936 L469 107.534133392998 L470 107.53412986424763 L471 107.5341265755813 L472 107.53412351066447 L473 107.53412065427406 L474 107.53411799222263 L475 107.53411551128806 L476 107.53411319914773 L477 107.53411104431748 L478 107.53410903609449 L479 107.53410716450412 L480 107.53410542025031 L481 107.53410379466959 L482 107.53410227968774 L483 107.53410086778013 L484 107.53409955193385 L485 107.53409832561323 L486 107.53409718272727 L487 107.53409611759935 L488 107.53409512493909 L489 107.53409419981602 L490 107.53409333763517 L491 107.53409253411414 L492 107.53409178526195 L493 107.53409108735909 L494 107.53409043693915 L495 107.53408983077156 L496 107.53408926584555 L497 107.53408873935516 L498 107.53408824868535 L499 107.53408779139909 " stroke = "red" stroke-width = "4" fill = "none" /></svg>