<svg width="500" height="500" viewbox = "0 0 500 500"  xmlns="http://www.w3.org/2000/svg">

<!--
<topfunctions>


phi = (Math.sqrt(5) + 1)/2;
tau = 1/(4*Math.log(phi));


function XYofT(){
    T = currentjson.plotparams.g*t;
    X = Math.exp(-T/tau)*Math.cos(2*Math.PI*T);
    Y = Math.exp(-T/tau)*Math.sin(2*Math.PI*T);
    y = currentjson.plotparams.y0 - currentjson.plotparams.G*(Y);
    x = currentjson.plotparams.x0 - currentjson.plotparams.G*(X);    
}




function plotfunction(){
    
    /*plot one function:*/
    currentStroke = currentjson.style.color;
    currentLineWidth = currentjson.style.linewidth;
    ctx.strokeStyle = currentStroke;
    ctx.lineWidth = currentLineWidth;
    ctx.beginPath();	
    x = 0;
    y = 0;
    t = 0;
    intx = x;
    XYofT();
    currentSVG += "	<path d = \"M";
    currentSVG += Math.round(x).toString() + " ";
    currentSVG += Math.round(y).toString() + " ";
    for(t = 1;t < currentjson.plotparams.duration;t++){
        ctx.moveTo(x,y);
        XYofT();
        ctx.lineTo(x,y);
        currentSVG += "L" + x + " " + y + " ";
    }
    ctx.stroke();
    currentSVG += "\""+ " stroke = \"" + currentStroke + "\" stroke-width = \"" + currentLineWidth.toString() + "\" fill = \"" + "none" + "\" "+"/>";
    /*finish plot one function*/
    
    

}


</topfunctions>
-->

<!--
<currentjson>
{
    "constants": {},
    "YofXstring": "Y =  (1/Math.PI)*0.5/(X*X + 0.25);",
    "style": {
        "linewidth": 4,
        "color": "blue",
        "fill": "none"
    },
    "plotparams": {
        "G": 348.65641542719624,
        "g": 0.01815145840566179,
        "duration": 450.78888054094654,
        "plotwidth": 500,
        "plotheight": 500,
        "x0": 245,
        "y0": 240
    },
    "funcparams": {},
    "image": {
        "url": "",
        "xoverw": 0.038011695906432746,
        "yoverw": -0.08771929824561403,
        "woverw": 0.8536631795472632,
        "angle": "0"
    },
    "A": 15.1294995023664,
    "B": 0.8948585376606706
}
</currentjson>
-->

<!--
<equation>
# Equations

$x$, $x_0$, $y$ and $y_0$ are all in pixels. x varies from 0 to the width in pixels of the plot.  Y and X are in the units of the system being studied.   When T scales by $1/4$ it is a quarter turn, which should be a ratio of $\phi$ less where $\phi$ is the Golden Ratio $(\sqrt{5} + 1)/2$.  So 

$$
\frac{e^{-(T + 1/4)/\tau}}{e^{-T/\tau}} = \phi = e^{-1/4\tau}
$$
$$
\ln{(\phi)} = -\frac{1}{4\tau}
$$
$$
\tau = -\frac{1}{4\ln{\phi}}
$$


$$X = g(x - x_0)$$
$$(X,Y) = \left(e^{-T/A}\cos{\left(\frac{T}{2\pi}\right)},e^{-T/A}\sin{\left(\frac{T}{2\pi}\right)}\right)$$
$$y = y_0 - GY$$ 
</equation>
-->
	<path d = "M-104 240 L-89.49784464644608 201.68459386823997 L-71.70358794569051 166.48108452486986 L-50.76326690700506 134.66264282646208 L-27.17664005626159 106.43753975201648 L-1.4460590759291279 81.9506679249181 L25.930601430026115 61.28583036785588 L54.466475534952 44.46871329342878 L83.69164565375559 31.47045595932812 L113.15844869634009 22.211728291605397 L142.44611863554493 16.567226036773462 L171.16474655299646 14.370493562967425 L198.95854987255993 15.418985999290896 L225.50845253261957 19.479285077623132 L250.53398718818988 26.29238671119097 L273.7945390910403 35.57898289159127 L295.08995900597074 47.04466578904862 L314.26057933544774 60.38498787572843 L331.1866735099519 75.29031833476489 L345.7874036395006 91.45044284561817 L358.01930540904044 108.55886092971926 L367.8743622461957 126.31674228383031 L375.3777229159509 144.4365108125807 L380.5851179361198 162.64503229352255 L383.58003060275905 180.6863886728469 L384.4706780175587 198.32422881125086 L383.38685637860624 215.34369200013924 L380.47670299681806 231.55290668080798 L375.9034251025573 246.78407246578178 L369.84204258383465 260.8941387343936 L362.47618842459997 273.7650977163069 L353.99500686561964 285.3039140591386 L344.5901852679107 295.44211638135266 L334.4531513951536 304.13507923001754 L323.7724634203821 311.36102619438645 L312.73141547404816 317.1197866782021 L301.50587705209136 321.4313400211847 L290.2623801563513 324.3341813051485 L279.15646370304074 325.8835433103572 L268.3312805601863 326.1495087360379 L257.916468608309 325.21504600277865 L248.0272835005675 323.17400075475757 L238.76398736336387 320.12907362010725 L230.21148455409514 316.1898129138934 L222.43919280120923 311.4706488271144 L215.5011356088514 306.0889932842275 L209.43623972417475 300.1634271182229 L204.26881974421872 293.81199355262123 L200.00923058027436 287.15061423898226 L196.65466749504935 280.29164131968145 L194.190092771433 273.3425562095427 L192.58926774689763 266.40482305433954 L191.81586893661793 259.57290216399815 L191.8246672502214 252.9334261649819 L192.5627498580689 246.56453919764195 L193.9707650573746 240.53539722439592 L195.98417149897992 234.9058254337487 L198.53447433373873 229.7261268398686 L201.55043219414043 225.03703450036534 L204.95922041267946 220.8697983150388 L208.68753746444673 217.24639613106916 L212.66264327896073 214.17985786735008 L216.81331976777932 211.67469058118422 L221.07074563362264 209.72739183012365 L225.36927923879685 208.32703832339524 L229.64714499262774 207.4559367017075 L233.84702034833023 207.09032331974456 L237.91652206033757 207.20110011892862 L241.80859182689588 207.75459405414537 L245.48178281533325 208.71332806093005 L248.90044982682167 210.03679220202395 L252.03484699401832 211.68220439653146 L254.86113791139366 213.6052509930945 L257.361323969293 215.76079838243456 L259.5230973960063 218.10356783636837 L261.3396261065793 220.5887667924584 L262.80927791400825 223.17267085893454 L263.9352919808143 225.81315187734737 L264.72540558146886 228.47014843550224 L265.19144431484284 231.1060762566183 L265.34888385820545 233.68617688963573 L265.21639119880217 236.17880407877135 L264.8153530251109 238.5556480878027 L264.16939861763893 240.7918990875933 L263.30392415924115 242.8663514769673 L262.2456248984105 244.76145169156553 L261.0220410569981 246.4632926585743 L259.6611227875381 247.96155857441994 L258.1908188658242 249.24942411620535 L256.63869316235173 250.32341254566037 L255.03157228204117 251.18321742768018 L253.39522710508584 251.83149286624695 L251.75409031199965 252.27361726175576 L250.13101134143602 252.51743561947706 L248.54704961778236 252.57298539382498 L247.0213063037593 252.45221074266195 L245.57079428723705 252.16866989597926 L244.2103456063095 251.73724012030075 L242.95255505651397 251.17382449070098 L241.80775831223173 250.49506437325013 L240.7840425331396 249.7180611789081 L239.8872871176487 248.8601105822908 L239.1212320092719 247.93845201210993 L238.48757075875267 246.97003582103403 L237.98606539377963 245.9713101375483 L237.61468004776074 244.95802899708121 L237.3697302473984 243.94508294978564 L237.24604475311816 242.94635295303618 L237.23713688373178 241.9745879825644 L237.33538233364308 241.0413064413074 L237.5322006037045 240.156721113064 L237.81823731153398 239.32968710194902 L238.18354481956683 238.56767192086406 L238.6177588151031 237.87674664466522 L239.11026869184252 237.26159682775904 L239.6503798126212 236.72555170233207 L240.22746597410543 236.2706300226455 L240.83111064202075 235.89760080266552 L241.45123577623812 235.60605710817063 L242.07821731506536 235.39450100940107 L242.70298663401772 235.26043777495383 L243.3171175330681 235.20047739031847 L243.91289853511202 235.21044151326802 L244.48339049466398 235.28547403110446 L245.02246971749707 235.42015345916624 L245.52485697726672 235.60860551356035 L245.98613298268097 235.8446143011993 L246.40274099739702 236.1217306942843 L246.77197744377185 236.43337659172633 L247.09197143043295 236.7729439140247 L247.36165423222454 237.13388732826135 L247.58071981957895 237.5098098536458 L247.7495775831739 237.89454065310574 L247.86929842952773 238.28220447054468 L247.9415554348261 238.66728232453087 L247.9685602388351 239.04466321546363 L247.95299633945956 239.4096867430099 L247.89795041271967 239.75817666233357 L247.80684273410762 240.0864655300878 L247.68335771700202 240.3914107032526 L247.53137551366078 240.6704020548335 L247.35490554591343 240.9213618595621 L247.15802274766313 241.14273737963032 L246.94480721130006 241.33348674491447 L246.71928783669603 241.49305877406445 L246.48539048610436 241.6213674223742 L246.2468910524721 241.71876156980858 L246.00737375372725 241.78599087837424 L245.77019487277644 241.82416845276074 L245.5384520733719 241.8347310325202 L245.3149593366874 241.81939742878515 L245.1022274832676 241.78012589449597 L244.90245017073624 241.71907108524897 L244.71749518988673 241.63854122914535 L244.54890082102528 241.5409560794156 L244.3978769590526 241.42880617412663 L244.26531066998945 241.30461387394917 L244.15177580359045 241.17089659277204 L244.05754625635183 241.03013257785557 L243.98261245649314 240.88472953714776 L243.92670062718548 240.73699635222047 L243.8892943761115 240.58911805683547 L243.86965815801292 240.44313420417734 L243.8668621617697 240.30092069097432 L243.87980818426942 240.16417505467447 L243.90725606932486 240.03440521108277 L243.94785031060584 239.9129215548412 L244.00014644236774 239.8008323042149 L244.06263687006216 239.69904193511624 L244.13377582408586 239.6082525173623 L244.2120031533367 239.52896773894707 L244.2957667102932 239.46149938167193 L244.3835431154238 239.4059759938036 L244.47385672529788 239.3623534924381 L244.56529666528107 239.33042741980395 L244.65653182365088 239.30984657364846 L244.74632373891308 239.30012773187863 L244.83353734562147 239.30067119549426 L244.91714957573896 239.31077688124512 L244.99625584221283 239.32966070602376 L245.07007445870462 239.3564710184145 L245.1379490741036 239.39030484867837 L245.19934922239398 239.43022376638248 L245.25386910752684 239.4752691544953 L245.3012247590991 239.52447672968103 L245.34124970783742 239.57689016036502 L245.37388934014618 239.6315736565436 L245.39919409836133 239.68762342793073 L245.41731169794784 239.7441779295476 L245.42847853481516 239.8004268359621 L245.4330104553535 239.855618706806 L245.43129305889133 239.90906732668134 L245.42377169723935 239.96015672190407 L245.4109413290303 240.00834487452804 L245.3933363779126 240.05316617059486 L245.371520733543 240.09423263443452 L245.34607802298586 240.1312340140069 L245.31760226780173 240.16393679365848 L245.28668902903468 240.19218222023565 L245.25392712871144 240.21588343623895 L245.21989102257214 240.23502181963536 L245.1851338847709 240.2496426341126 L245.1501814514123 240.25985009601862 L245.1155266562114 240.26580196506688 L245.08162507844548 240.26770376519556 L245.04889121085512 240.2658027398672 L245.01769554338097 240.26038164270017 L244.98836244770212 240.25175245977482 L244.96116883756474 240.24025015439287 L244.93634357092986 240.2262265186329 L244.91406755207893 240.21004420888718 L244.89447448503464 240.19207103483006 L244.87765222399676 240.17267456310174 L244.86364466196332 240.15221708853653 L244.85245409529105 240.1310510171532 L244.8440439996174 240.10951469648904 L244.83834215127817 240.0879287203185 L244.83524402805867 240.0665927264595 L244.83461642374752 240.04578269834133 L244.8363012124495 240.0257487733723 L244.84011920088224 240.0067135539846 L244.84587400984174 239.9888709106117 L244.85335592959188 239.9723852598271 L244.86234569801923 239.95739129548323 L244.87261815490714 239.94399414596663 L244.8839457305324 239.93226992665154 L244.8961017318816 239.92226665329656 L244.9088633950411 239.91400547948598 L244.92201467764409 239.9074822192608 L244.93534877059105 239.9026691147916 L244.9486703135143 239.89951680829236 L244.96179730357224 239.8979564773242 L244.9745626920719 239.89790209315228 L244.98681566807295 239.89925276285365 L244.99842263248158 239.90189511737512 L245.0092678701529 239.90570570966227 L245.01925393115908 239.91055338926336 L245.02830173561864 239.91630162240213 L245.03635041930576 239.92281072935526 L245.04335693965368 239.92994001400547 L245.04929546373188 239.9375497636176 L245.0541565613128 239.94550310014816 L245.0579462272581 239.95366766769754 L245.06068475816372 239.96191714400223 L245.0624055085182 239.97013256709639 L245.06315355157952 239.978203471408 L245.0629842697817 239.98602883055688 L245.06196189877502 239.9935178069603 L245.060158048214 240.00059031099616 L245.05765022116552 240.0071773749014 L245.05452035255297 240.01322134877864 L245.05085338541252 240.0186759280259 L245.0467359019518 240.02350602319092 L245.042254824502 240.0276874846716 L245.03749619947723 240.03120669583785 L245.03254407542914 240.03406004904028 L245.0274794842466 240.03625331960203 L245.02237953252273 240.03780095327144 L245.01731660812518 240.0387252827572 L245.0123577050856 240.03905568888518 L245.00756386808854 240.03882772162933 L245.00298975611315 240.0380821957887 L244.99868332317476 240.03686427543485 L244.99468561264558 240.03522256045412 L244.9910306603117 240.03320818758152 L244.98774550015813 240.030873957287 L244.98485026586934 240.02827349675397 L244.98235838019204 240.0254604680024 L244.98027682363102 240.0224878289795 L244.97860647343535 240.01940715418456 L244.9773425034786 240.0162680201355 L244.97647483543392 240.01311745973538 L244.97598863158956 240.0099994883782 L244.97586481973002 240.00695470345693 L244.9760806407141 240.00401995781627 L244.9766102097022 240.0012281066423 L244.97742508240822 239.99860782630614 L244.9784948182644 239.9961835027924 L244.97978753297815 239.9939751865469 L244.98127043361166 239.991998609881 L244.98291033002008 239.99026526247147 L244.9846741172238 239.98878251999855 L244.98652922405526 239.9875538205702 L244.98844402419886 239.98657888328586 L244.9903882065198 239.9858539630953 L244.99233310234698 239.98537213600528 L244.99425196812223 239.9851236086707 L244.9961202225496 239.9850960464753 L244.99791563805957 239.9852749143504 L244.9996184870444 239.98564382479478 L245.00121164390913 239.98618488783163 L245.00268064452055 239.98687905796945 L245.00401370511253 239.9877064736061 L245.00520170312524 239.9886467847278 L245.00623812281003 239.9896794651946 L245.00711896872488 239.99078410636702 L245.0078426504748 239.99194068930197 L245.00840984221983 239.99312983322906 L245.00882332058225 239.99433301849714 L245.00908778463557 239.99553278265392 L245.0092096616555 239.99671288878113 L245.0091969022601 239.99785846564663 L245.0090587684671 239.99895611965223 L245.00880561805556 239.99999401894405 L245.00844868844115 240.00096195040985 L245.00799988306426 240.0018513506108 L245.0074715630535 240.00265531198235 L245.00687634666807 240.00336856588842 L245.0062269187468 240.00398744432343 L245.005535852104 240.00450982222898 L245.00481544251733 240.00493504252566 L245.00407755865518 240.00526382605517 L245.0033335079954 240.00549816868735 L245.00259391949587 240.005641227871 L245.00186864349763 240.0056972008977 L245.00116666907064 240.00567119710936 L245.00049605875984 240.0055691062117 L244.99986390045268 240.00539746476474 L244.99927627587329 240.00516332280515 L244.9987382450134 240.0048741124227 L244.9982538456384 240.00453751996295 L244.9978261068575 240.00416136336494 L244.99745707562283 240.00375347597182 L244.99714785492097 240.00332159797148 L244.9968986523437 240.00287327644313 L244.99670883767055 240.00241577480014 L244.99657700806478 240.00195599223855 L244.996501059474 240.00150039362137 L244.99647826283663 240.00105495005658 L244.99650534372378 240.00062509026307 L244.9965785640915 240.00021566266346 L244.99669380487916 239.9998309080009 L244.9968466482628 239.99947444214433 L244.99703245845754 239.99914924863185 L244.9972464600587 239.99885768039604 L244.9974838130115 239.99860147002894 L244.99773968340844 239.9983817478687 L244.99800930942396 239.99819906713194 L244.99828806180992 239.99805343527152 L244.99857149848796 239.99794435070902 L244.99885541288862 239.99787084407478 L244.99913587579508 239.99783152308555 L244.99940927055613 239.99782462019814 L244.99967232163215 239.99784804219752 L244.99992211653247 239.99789942090825 L245.000156121289 239.99797616425752 L245.00037218968976 239.99807550696477 L245.00056856656724 239.99819456018776 L245.00074388549717 239.99833035951403 L245.00089716131683 239.99847991075023 L245.0010277779151 239.99864023303022 L245.00113547178125 239.99880839883048 L245.00122031182397 239.9989815705528 L245.00128267598993 239.99915703340346 L245.00132322521856 239.999332224368 L245.00134287527038 239.9995047571468 L245.00134276695886 239.99967244298242 L245.00132423530252 239.99983330736956 L245.00128877809342 239.99998560269665 L245.00123802435263 240.0001278169199 L245.00117370311364 240.00025867841836 L245.0010976129398 240.0003771572214 L245.00101159254467 240.0004824628367 L245.00091749284445 240.0005740389373 L245.0008171507287 240.0006515551935 L245.00071236479425 240.00071489655406 L245.00060487324237 240.0007641502955 L245.00049633409648 240.00079959116894 L245.0003883078559 240.00082166497566 L245.00028224265856 240.00083097090362 L245.00017946198759 240.00082824295077 L245.00008115491858 240.00081433075158 L244.9999883688699 240.00079018011058 L244.9999020047867 240.00075681352965 L244.99982281466035 240.00071531099684 L244.99975140126 240.00066679128264 L244.99968821993028 240.0006123939665 L244.9996335822913 240.00055326239053 L244.99958766166165 240.0004905277123 L244.9995505000137 240.00042529420094 L244.9995220162623 240.00035862589496 L244.99950201568313 240.0002915347126 L244.9994902002553 240.00022497007996 L244.99948617972348 240.00015981011714 L244.99948948317973 240.00009685439784 L244.99949957097044 240.00003681827565 L244.99951584674338 239.9999803287496 L244.99953766945984 239.99992792182098 L244.9995643652095 239.9998800412782 L244.99959523867886 239.9998370388288 L244.99962958413974 239.9997991754867 L244.99966669583878 239.9997666241108 L244.99970587768638 239.99973947298196 L244.99974645215877 239.99971773029966 L244.99978776834465 239.9997013294743 L244.99982920908334 239.99969013508888 L244.99987019715803 239.99968394940302 L244.99991020052263 239.99968251927342 L244.99994873655592 239.99968554336778 L244.9999853753502 239.99969267955314 L245.00001974205432 239.99970355234575 L245.0000515183031 239.99971776031586 L245.0000804427747 239.99973488334868 L245.00010631092755 239.99975448967214 L245.0001289739757 239.9997761425699 L245.0001483371679 239.99979940670954 L245.00016435744132 239.9998238540243 L245.00017704052397 239.9998490690985 L245.00018643756314 239.99987465401543 L245.00019264135798 239.99990023263825 L245.00019578227446 239.9999254543027 L245.0001960239206 239.99994999691117 L245.0001935586572 239.99997356942566 L245.000188603017 239.99999591376633 L245.000181393101 240.0000168061294 L245.00017218001733 240.0000360577458 L245.00016122542144 240.00005351510745 L245.00014879721294 240.0000690596947 L245.00013516543706 240.0000826072414 L245.000120598433 240.0000941065799 L245.0001053592662 240.00010353810939 L245.00008970247313 240.00011091193448 L245.00007387114354 240.00011626572157 L245.0000580943561 240.00011966232168 L245.00004258497992 240.000121187208 L245.00002753784665 240.00012094577588 L245.00001312829372 240.00011906055155 L244.9999995110733 240.00011566835428 L244.99998681961756 240.00011091745358 L244.99997516564613 240.0001049647614 L244.9999646390981 240.00009797309497 L244.99995530836748 240.0000901085435 L244.9999472208186 240.00008153796767 L244.99994040355534 240.0000724266572 L244.99993486441647 240.00006293616804 L244.9999305931683 240.00005322235702 L244.99992756286503 240.00004343362718 L244.99992573134628 240.00003370939388 L244.99992504284288 240.0000241787777 L244.99992542966072 240.00001495952714 L244.9999268139148 240.0000061571698 L244.99992910928606 239.9999978643888 L244.9999322227753 239.99999016061747 L244.99993605643076 239.99998311184342 L244.99994050902666 239.99997677061012 L244.9999454776737 239.99997117620327 L244.99995085934347 239.99996635500614 L244.99995655229213 239.9999623210084 L244.9999624573701 239.99995907645058 L244.99996847920792 239.99995661258615 L244.9999745272703 239.99995491054324 " stroke = "blue" stroke-width = "4" fill = "none" /></svg>