<svg width="500" height="500" viewbox = "0 0 500 500"  xmlns="http://www.w3.org/2000/svg">

<!--
<topfunctions>


//put helper functions here, along with contsants and variables


function YofX(){
    
    X = currentjson.plotparams.g*(x - currentjson.plotparams.x0);
    eval(currentjson.YofXstring);
    y = currentjson.plotparams.y0 - currentjson.plotparams.G*(Y);

}




function plotfunction(){
    /*plot one function:*/
    currentStroke = currentjson.style.color;
    currentLineWidth = currentjson.style.linewidth;
    ctx.strokeStyle = currentStroke;
    ctx.lineWidth = currentLineWidth;
    ctx.beginPath();	
    x = 0;
    YofX();
    currentSVG += "	<path d = \"M";
    currentSVG += Math.round(x).toString() + " ";
    currentSVG += Math.round(y).toString() + " ";
    for(x = 1;x < currentjson.plotparams.plotwidth;x++){
        ctx.moveTo(x-1,y);
        YofX();
        ctx.lineTo(x,y);
        currentSVG += "L" + x + " " + y + " ";
    }
    ctx.stroke();
    currentSVG += "\""+ " stroke = \"" + currentStroke + "\" stroke-width = \"" + currentLineWidth.toString() + "\" fill = \"" + "none" + "\" "+"/>";
    /*finish plot one function*/

}





























</topfunctions>
-->

<!--
<currentjson>
{
    "constants": {},
    "YofXstring": "Y =  X/Math.tanh(X);",
    "style": {
        "linewidth": 4,
        "color": "blue",
        "fill": "none"
    },
    "plotparams": {
        "G": 47.203761585892565,
        "g": 0.01908542144006686,
        "duration": 450.78888054094654,
        "plotwidth": 500,
        "plotheight": 500,
        "x0": "250",
        "y0": "500"
    },
    "funcparams": {},
    "image": {
        "url": "",
        "xoverw": 0.038011695906432746,
        "yoverw": -0.08771929824561403,
        "woverw": 0.8536631795472632,
        "angle": "0"
    }
}
</currentjson>
-->
	<path d = "M0 275 L1 275.6415501742711 L2 276.5412924279153 L3 277.44099491217474 L4 278.3406562903366 L5 279.24027518185767 L6 280.1398501609756 L7 281.0393797552791 L8 281.9388624442349 L9 282.83829665766973 L10 283.7376807742088 L11 284.6370131196658 L12 285.53629196538657 L13 286.4355155265425 L14 287.33468196037427 L15 288.2337893643833 L16 289.13283577447055 L17 290.0318191630198 L18 290.93073743692594 L19 291.8295884355648 L20 292.728369928705 L21 293.62707961435785 L22 294.5257151165664 L23 295.42427398313004 L24 296.32275368326407 L25 297.22115160519184 L26 298.11946505366876 L27 299.0176912474352 L28 299.91582731659776 L29 300.81387029993596 L30 301.711817142134 L31 302.6096646909333 L32 303.5074096942076 L33 304.4050487969545 L34 305.3025785382048 L35 306.19999534784614 L36 307.0972955433593 L37 307.99447532646434 L38 308.8915307796767 L39 309.7884578627676 L40 310.6852524091307 L41 311.5819101220496 L42 312.4784265708653 L43 313.3747971870422 L44 314.27101726012836 L45 315.1670819336098 L46 316.0629862006555 L47 316.95872489975056 L48 317.85429271021667 L49 318.7496841476152 L50 319.64489355903277 L51 320.53991511824574 L52 321.4347428207618 L53 322.3293704787351 L54 323.22379171575426 L55 324.1179999615 L56 325.01198844626913 L57 325.90575019536374 L58 326.79927802334305 L59 327.69256452813437 L60 328.5856020850024 L61 329.47838284037266 L62 330.37089870550847 L63 331.2631413500379 L64 332.15510219532837 L65 333.0467724077074 L66 333.9381428915267 L67 334.8292042820667 L68 335.7199469382806 L69 336.61036093537535 L70 337.500436057226 L71 338.390161788624 L72 339.279527307355 L73 340.16852147610575 L74 341.0571328341971 L75 341.945349589143 L76 342.8331596080312 L77 343.7205504087274 L78 344.6075091508973 L79 345.4940226268497 L80 346.3800772521954 L81 347.26565905632344 L82 348.1507536726916 L83 349.03534632893286 L84 349.9194218367742 L85 350.8029645817697 L86 351.685958512846 L87 352.5683871316608 L88 353.4502334817738 L89 354.3314801376309 L90 355.21210919336204 L91 356.0921022513928 L92 356.9714404108719 L93 357.8501042559135 L94 358.72807384365956 L95 359.60532869215984 L96 360.48184776807443 L97 361.3576094742004 L98 362.2325916368249 L99 363.10677149290825 L100 363.9801256771002 L101 364.85263020859327 L102 365.7242604778171 L103 366.5949912329794 L104 367.46479656645624 L105 368.3336499010405 L106 369.2015239760507 L107 370.0683908333098 L108 370.93422180299916 L109 371.7989874893947 L110 372.6626577564946 L111 373.5252017135463 L112 374.3865877004813 L113 375.246783273268 L114 376.10575518919313 L115 376.9634693920815 L116 377.8198909974662 L117 378.6749842777218 L118 379.5287126471721 L119 380.381038647187 L120 381.2319239312817 L121 382.0813292502344 L122 382.929214437236 L123 383.77553839309064 L124 384.62025907148177 L125 385.4633334643232 L126 386.3047175872134 L127 387.14436646501144 L128 387.9822341175567 L129 388.8182735455513 L130 389.6524367166287 L131 390.48467455163 L132 391.31493691111234 L133 392.1431725821127 L134 392.9693292651934 L135 393.79335356179405 L136 394.61519096191796 L137 395.43478583217956 L138 396.25208140424195 L139 397.06701976367344 L140 397.879541839254 L141 398.68958739276064 L142 399.49709500926537 L143 400.3020020879768 L144 401.10424483365887 L145 401.90375824866055 L146 402.7004761255907 L147 403.4943310406735 L148 404.28525434782017 L149 405.0731761734526 L150 405.85802541211683 L151 406.63972972292254 L152 407.4182155268471 L153 408.19340800494206 L154 408.96523109748 L155 409.7336075040812 L156 410.498458684859 L157 411.25970486262156 L158 412.01726502617134 L159 412.77105693473953 L160 413.5209971235947 L161 414.26700091086553 L162 415.0089824056148 L163 415.7468545172036 L164 416.48052896598256 L165 417.20991629534905 L166 417.9349258852037 L167 418.6554659668455 L168 419.3714436393368 L169 420.08276488737465 L170 420.7893346006992 L171 421.49105659507165 L172 422.187833634851 L173 422.8795674571984 L174 423.5661587979358 L175 424.2475074190842 L176 424.92351213810343 L177 425.5940708588573 L178 426.259080604319 L179 426.91843755103764 L180 427.5720370653766 L181 428.21977374153755 L182 428.86154144137794 L183 429.4972333360283 L184 430.12674194931225 L185 430.7499592029697 L186 431.36677646367883 L187 431.9770845918717 L188 432.5807739923323 L189 433.1777346665638 L190 433.76785626690776 L191 434.35102815239384 L192 434.92713944629537 L193 435.49607909536195 L194 436.0577359306956 L195 436.611998730234 L196 437.15875628279906 L197 437.6978974536661 L198 438.22931125160346 L199 438.752886897329 L200 439.26851389332495 L201 439.7760820949494 L202 440.275481782777 L203 440.7666037360985 L204 441.24933930750393 L205 441.72358049847 L206 442.18922003586914 L207 442.6461514493118 L208 443.0942691492321 L209 443.5334685056216 L210 443.963645927312 L211 444.38469894170606 L212 444.79652627485035 L213 445.1990279317421 L214 445.59210527675833 L215 445.97566111409407 L216 446.3495997680915 L217 446.71382716334233 L218 447.06825090444266 L219 447.4127803552762 L220 447.7473267177033 L221 448.07180310952896 L222 448.3861246416249 L223 448.69020849407735 L224 448.9839739912343 L225 449.2673426755244 L226 449.54023837992145 L227 449.80258729892734 L228 450.05431805794905 L229 450.29536178094565 L230 450.5256521562235 L231 450.74512550025946 L232 450.95372081943503 L233 451.1513798695655 L234 451.33804721311446 L235 451.5136702739829 L236 451.6781993897707 L237 451.83158786140865 L238 451.9737920000646 L239 452.1047711712346 L240 452.22448783592944 L241 452.3329075888782 L242 452.42999919367105 L243 452.5157346147727 L244 452.59008904634163 L245 452.6530409377977 L246 452.70457201608644 L247 452.7446673045952 L248 452.77331513868245 L249 452.7905071777891 L250 NaN L251 452.7905071777891 L252 452.77331513868245 L253 452.7446673045952 L254 452.70457201608644 L255 452.6530409377977 L256 452.59008904634163 L257 452.5157346147727 L258 452.42999919367105 L259 452.3329075888782 L260 452.22448783592944 L261 452.1047711712346 L262 451.9737920000646 L263 451.83158786140865 L264 451.6781993897707 L265 451.5136702739829 L266 451.33804721311446 L267 451.1513798695655 L268 450.95372081943503 L269 450.74512550025946 L270 450.5256521562235 L271 450.29536178094565 L272 450.05431805794905 L273 449.80258729892734 L274 449.54023837992145 L275 449.2673426755244 L276 448.9839739912343 L277 448.69020849407735 L278 448.3861246416249 L279 448.07180310952896 L280 447.7473267177033 L281 447.4127803552762 L282 447.06825090444266 L283 446.71382716334233 L284 446.3495997680915 L285 445.97566111409407 L286 445.59210527675833 L287 445.1990279317421 L288 444.79652627485035 L289 444.38469894170606 L290 443.963645927312 L291 443.5334685056216 L292 443.0942691492321 L293 442.6461514493118 L294 442.18922003586914 L295 441.72358049847 L296 441.24933930750393 L297 440.7666037360985 L298 440.275481782777 L299 439.7760820949494 L300 439.26851389332495 L301 438.752886897329 L302 438.22931125160346 L303 437.6978974536661 L304 437.15875628279906 L305 436.611998730234 L306 436.0577359306956 L307 435.49607909536195 L308 434.92713944629537 L309 434.35102815239384 L310 433.76785626690776 L311 433.1777346665638 L312 432.5807739923323 L313 431.9770845918717 L314 431.36677646367883 L315 430.7499592029697 L316 430.12674194931225 L317 429.4972333360283 L318 428.86154144137794 L319 428.21977374153755 L320 427.5720370653766 L321 426.91843755103764 L322 426.259080604319 L323 425.5940708588573 L324 424.92351213810343 L325 424.2475074190842 L326 423.5661587979358 L327 422.8795674571984 L328 422.187833634851 L329 421.49105659507165 L330 420.7893346006992 L331 420.08276488737465 L332 419.3714436393368 L333 418.6554659668455 L334 417.9349258852037 L335 417.20991629534905 L336 416.48052896598256 L337 415.7468545172036 L338 415.0089824056148 L339 414.26700091086553 L340 413.5209971235947 L341 412.77105693473953 L342 412.01726502617134 L343 411.25970486262156 L344 410.498458684859 L345 409.7336075040812 L346 408.96523109748 L347 408.19340800494206 L348 407.4182155268471 L349 406.63972972292254 L350 405.85802541211683 L351 405.0731761734526 L352 404.28525434782017 L353 403.4943310406735 L354 402.7004761255907 L355 401.90375824866055 L356 401.10424483365887 L357 400.3020020879768 L358 399.49709500926537 L359 398.68958739276064 L360 397.879541839254 L361 397.06701976367344 L362 396.25208140424195 L363 395.43478583217956 L364 394.61519096191796 L365 393.79335356179405 L366 392.9693292651934 L367 392.1431725821127 L368 391.31493691111234 L369 390.48467455163 L370 389.6524367166287 L371 388.8182735455513 L372 387.9822341175567 L373 387.14436646501144 L374 386.3047175872134 L375 385.4633334643232 L376 384.62025907148177 L377 383.77553839309064 L378 382.929214437236 L379 382.0813292502344 L380 381.2319239312817 L381 380.381038647187 L382 379.5287126471721 L383 378.6749842777218 L384 377.8198909974662 L385 376.9634693920815 L386 376.10575518919313 L387 375.246783273268 L388 374.3865877004813 L389 373.5252017135463 L390 372.6626577564946 L391 371.7989874893947 L392 370.93422180299916 L393 370.0683908333098 L394 369.2015239760507 L395 368.3336499010405 L396 367.46479656645624 L397 366.5949912329794 L398 365.7242604778171 L399 364.85263020859327 L400 363.9801256771002 L401 363.10677149290825 L402 362.2325916368249 L403 361.3576094742004 L404 360.48184776807443 L405 359.60532869215984 L406 358.72807384365956 L407 357.8501042559135 L408 356.9714404108719 L409 356.0921022513928 L410 355.21210919336204 L411 354.3314801376309 L412 353.4502334817738 L413 352.5683871316608 L414 351.685958512846 L415 350.8029645817697 L416 349.9194218367742 L417 349.03534632893286 L418 348.1507536726916 L419 347.26565905632344 L420 346.3800772521954 L421 345.4940226268497 L422 344.6075091508973 L423 343.7205504087274 L424 342.8331596080312 L425 341.945349589143 L426 341.0571328341971 L427 340.16852147610575 L428 339.279527307355 L429 338.390161788624 L430 337.500436057226 L431 336.61036093537535 L432 335.7199469382806 L433 334.8292042820667 L434 333.9381428915267 L435 333.0467724077074 L436 332.15510219532837 L437 331.2631413500379 L438 330.37089870550847 L439 329.47838284037266 L440 328.5856020850024 L441 327.69256452813437 L442 326.79927802334305 L443 325.90575019536374 L444 325.01198844626913 L445 324.1179999615 L446 323.22379171575426 L447 322.3293704787351 L448 321.4347428207618 L449 320.53991511824574 L450 319.64489355903277 L451 318.7496841476152 L452 317.85429271021667 L453 316.95872489975056 L454 316.0629862006555 L455 315.1670819336098 L456 314.27101726012836 L457 313.3747971870422 L458 312.4784265708653 L459 311.5819101220496 L460 310.6852524091307 L461 309.7884578627676 L462 308.8915307796767 L463 307.99447532646434 L464 307.0972955433593 L465 306.19999534784614 L466 305.3025785382048 L467 304.4050487969545 L468 303.5074096942076 L469 302.6096646909333 L470 301.711817142134 L471 300.81387029993596 L472 299.91582731659776 L473 299.0176912474352 L474 298.11946505366876 L475 297.22115160519184 L476 296.32275368326407 L477 295.42427398313004 L478 294.5257151165664 L479 293.62707961435785 L480 292.728369928705 L481 291.8295884355648 L482 290.93073743692594 L483 290.0318191630198 L484 289.13283577447055 L485 288.2337893643833 L486 287.33468196037427 L487 286.4355155265425 L488 285.53629196538657 L489 284.6370131196658 L490 283.7376807742088 L491 282.83829665766973 L492 281.9388624442349 L493 281.0393797552791 L494 280.1398501609756 L495 279.24027518185767 L496 278.3406562903366 L497 277.44099491217474 L498 276.5412924279153 L499 275.6415501742711 " stroke = "blue" stroke-width = "4" fill = "none" /></svg>