<svg width="500" height="500" viewbox = "0 0 500 500"  xmlns="http://www.w3.org/2000/svg">

<!--
<topfunctions>


//put helper functions here, along with contsants and variables


function YofX(){
    
    X = currentjson.plotparams.g*(x - currentjson.plotparams.x0);
    eval(currentjson.YofXstring);
    y = currentjson.plotparams.y0 - currentjson.plotparams.G*(Y);

}




function plotfunction(){
    /*plot one function:*/
    currentStroke = currentjson.style.color;
    currentLineWidth = currentjson.style.linewidth;
    ctx.strokeStyle = currentStroke;
    ctx.lineWidth = currentLineWidth;
    ctx.beginPath();	
    x = 0;
    YofX();
    currentSVG += "	<path d = \"M";
    currentSVG += Math.round(x).toString() + " ";
    currentSVG += Math.round(y).toString() + " ";
    for(x = 1;x < currentjson.plotparams.plotwidth;x++){
        ctx.moveTo(x-1,y);
        YofX();
        ctx.lineTo(x,y);
        currentSVG += "L" + x + " " + y + " ";
    }
    ctx.stroke();
    currentSVG += "\""+ " stroke = \"" + currentStroke + "\" stroke-width = \"" + currentLineWidth.toString() + "\" fill = \"" + "none" + "\" "+"/>";
    /*finish plot one function*/

}





























</topfunctions>
-->

<!--
<currentjson>
{
    "constants": {},
    "YofXstring": "Y =  Math.exp(-X*X)",
    "style": {
        "linewidth": 4,
        "color": "blue",
        "fill": "none"
    },
    "plotparams": {
        "G": 225.08117895663068,
        "g": 0.01877290177655891,
        "duration": 450.78888054094654,
        "plotwidth": 500,
        "plotheight": 500,
        "x0": 235,
        "y0": 298
    },
    "funcparams": {},
    "image": {
        "url": "",
        "xoverw": 0.038011695906432746,
        "yoverw": -0.08771929824561403,
        "woverw": 0.8536631795472632,
        "angle": "0"
    }
}
</currentjson>
-->
	<path d = "M0 298 L1 297.9999990631561 L2 297.9999988955557 L3 297.999998698889 L4 297.99999846828223 L5 297.9999981980736 L6 297.99999788169146 L7 297.99999751151347 L8 297.9999970787061 L9 297.9999965730394 L10 297.9999959826761 L11 297.9999952939289 L12 297.99999449098436 L13 297.99999355558623 L14 297.9999924666747 L15 297.99999119997483 L16 297.99998972752724 L17 297.9999880171542 L18 297.99998603185173 L19 297.9999837290994 L20 297.9999810600758 L21 297.99997796876863 L22 297.999974390966 L23 297.9999702531137 L24 297.9999654710224 L25 297.99995994840503 L26 297.99995357522556 L27 297.9999462258345 L28 297.9999377568667 L29 297.99992800487263 L30 297.9999167836521 L31 297.9999038812553 L32 297.9998890566135 L33 297.9998720357554 L34 297.9998525075648 L35 297.9998301190248 L36 297.99980446989434 L37 297.9997751067531 L38 297.9997415163458 L39 297.99970311815173 L40 297.9996592560954 L41 297.9996091893083 L42 297.9995520818428 L43 297.9994869912304 L44 297.9994128557652 L45 297.999328480385 L46 297.9992325210103 L47 297.9991234671886 L48 297.9989996228793 L49 297.9988590852004 L50 297.9986997209446 L51 297.9985191406535 L52 297.99831467002673 L53 297.998083318421 L54 297.9978217441782 L55 297.99752621650146 L56 297.99719257357583 L57 297.9968161766126 L58 297.99639185946904 L59 297.9959138734759 L60 297.99537582707745 L61 297.99477061986533 L62 297.9940903705607 L63 297.9933263384721 L64 297.9924688379282 L65 297.99150714515656 L66 297.9904293970518 L67 297.98922248124404 L68 297.9878719168526 L69 297.9863617252776 L70 297.9846742903537 L71 297.98279020716075 L72 297.98068811875663 L73 297.97834454007193 L74 297.97573366817534 L75 297.97282717809776 L76 297.9695940033763 L77 297.9660001004585 L78 297.96200819608936 L79 297.9575775167864 L80 297.9526634994958 L81 297.9472174825143 L82 297.9411863757569 L83 297.93451230945175 L84 297.9271322603491 L85 297.9189776545443 L86 297.90997394603437 L87 297.90004017015303 L88 297.8890884710657 L89 297.87702360254764 L90 297.8637424013234 L91 297.84913323230666 L92 297.8330754051551 L93 297.81543856164006 L94 297.79608203342787 L95 297.7748541699805 L96 297.75159163640814 L97 297.7261186812421 L98 297.69824637425177 L99 297.66777181459577 L100 297.6344773097808 L101 297.59812952610235 L102 297.5584786114567 L103 297.5152572916446 L104 297.4681799415399 L105 297.41694163275633 L106 297.3612171597343 L107 297.30066004646216 L108 297.2349015363653 L109 297.16354956822295 L110 297.08618774131907 L111 297.0023742733905 L112 296.9116409553069 L113 296.8134921067983 L114 296.7074035379396 L115 296.5928215214995 L116 296.4691617816694 L117 296.3358085050987 L118 296.19211338057323 L119 296.03739467408815 L120 295.87093634647397 L121 295.6919872211351 L122 295.499760209854 L123 295.29343160499235 L124 295.0721404467828 L125 294.8349879747467 L126 294.58103717258996 L127 294.3093124162184 L128 294.01879923476787 L129 293.70844419476515 L130 293.37715491770916 L131 293.0238002414946 L132 292.64721053617853 L133 292.2461781846146 L134 291.81945823844524 L135 291.36576925984116 L136 290.8837943592115 L137 290.37218243886633 L138 289.82954965229936 L139 289.2544810883603 L140 288.645532689111 L141 288.0012334095923 L142 287.32008762707915 L143 286.6005778066568 L144 285.8411674291192 L145 285.04030418626354 L146 284.19642344763577 L147 283.3079520016728 L148 282.37331207298314 L149 281.39092561621794 L150 280.35921888560534 L151 279.2766272777609 L152 278.14160044384613 L153 276.95260766553264 L154 275.70814348754806 L155 274.4067335978357 L156 273.0469409445633 L157 271.6273720773733 L158 270.1466836983906 L159 268.6035894065979 L160 266.9968666172732 L161 265.32536363625997 L162 263.58800686693024 L163 261.7838081258106 L164 259.91187204098713 L165 257.9714035056004 L166 255.96171515700274 L167 253.88223485048843 L168 251.7325130949398 L169 249.51223041627398 L170 247.22120461324076 L171 244.8593978689246 L172 242.42692368026266 L173 239.92405356701306 L174 237.35122352091423 L175 234.70904015527563 L176 231.99828651494386 L177 229.2199275065135 L178 226.3751149088001 L179 223.46519192398125 L180 220.49169723044326 L181 217.4563684992516 L182 214.36114533730233 L183 211.20817162160716 L184 207.9997971908199 L185 204.73857886202848 L186 201.42728074300874 L187 198.0688738125607 L188 194.6665347442213 L189 191.22364395155748 L190 187.74378283638106 L191 184.23073022458402 L192 180.68845797784644 L193 177.1211257732138 L194 173.53307504644903 L195 169.92882209912307 L196 166.31305037359164 L197 162.69060190429468 L198 159.06646795818017 L199 155.44577888147614 L200 151.83379317447856 L201 148.23588582047086 L202 144.65753589930233 L203 141.10431352051086 L204 137.58186611514142 L205 134.09590412956038 L206 130.65218616856652 L207 127.25650363892487 L208 123.91466494806647 L209 120.63247931608424 L210 117.41574026228034 L211 114.27020883036056 L212 111.20159661890446 L213 108.21554868593816 L214 105.31762639828887 L215 102.51329029787658 L216 99.80788305819644 L217 97.20661260493841 L218 94.71453547498078 L219 92.33654048786127 L220 90.07733280328031 L221 87.9414184372122 L222 85.93308930780185 L223 84.05640888040423 L224 82.31519847889197 L225 80.71302432772103 L226 79.25318538621877 L227 77.93870203315899 L228 76.77230565593243 L229 75.75642919452994 L230 74.89319868615351 L231 74.18442585158243 L232 73.63160175947755 L233 73.23589159963407 L234 72.99813059082774 L235 72.91882104336932 L236 72.99813059082774 L237 73.23589159963407 L238 73.63160175947755 L239 74.18442585158243 L240 74.89319868615351 L241 75.75642919452994 L242 76.77230565593243 L243 77.93870203315899 L244 79.25318538621877 L245 80.71302432772103 L246 82.31519847889197 L247 84.05640888040423 L248 85.93308930780185 L249 87.9414184372122 L250 90.07733280328031 L251 92.33654048786127 L252 94.71453547498078 L253 97.20661260493841 L254 99.80788305819644 L255 102.51329029787658 L256 105.31762639828887 L257 108.21554868593816 L258 111.20159661890446 L259 114.27020883036056 L260 117.41574026228034 L261 120.63247931608424 L262 123.91466494806647 L263 127.25650363892487 L264 130.65218616856652 L265 134.09590412956038 L266 137.58186611514142 L267 141.10431352051086 L268 144.65753589930233 L269 148.23588582047086 L270 151.83379317447856 L271 155.44577888147614 L272 159.06646795818017 L273 162.69060190429468 L274 166.31305037359164 L275 169.92882209912307 L276 173.53307504644903 L277 177.1211257732138 L278 180.68845797784644 L279 184.23073022458402 L280 187.74378283638106 L281 191.22364395155748 L282 194.6665347442213 L283 198.0688738125607 L284 201.42728074300874 L285 204.73857886202848 L286 207.9997971908199 L287 211.20817162160716 L288 214.36114533730233 L289 217.4563684992516 L290 220.49169723044326 L291 223.46519192398125 L292 226.3751149088001 L293 229.2199275065135 L294 231.99828651494386 L295 234.70904015527563 L296 237.35122352091423 L297 239.92405356701306 L298 242.42692368026266 L299 244.8593978689246 L300 247.22120461324076 L301 249.51223041627398 L302 251.7325130949398 L303 253.88223485048843 L304 255.96171515700274 L305 257.9714035056004 L306 259.91187204098713 L307 261.7838081258106 L308 263.58800686693024 L309 265.32536363625997 L310 266.9968666172732 L311 268.6035894065979 L312 270.1466836983906 L313 271.6273720773733 L314 273.0469409445633 L315 274.4067335978357 L316 275.70814348754806 L317 276.95260766553264 L318 278.14160044384613 L319 279.2766272777609 L320 280.35921888560534 L321 281.39092561621794 L322 282.37331207298314 L323 283.3079520016728 L324 284.19642344763577 L325 285.04030418626354 L326 285.8411674291192 L327 286.6005778066568 L328 287.32008762707915 L329 288.0012334095923 L330 288.645532689111 L331 289.2544810883603 L332 289.82954965229936 L333 290.37218243886633 L334 290.8837943592115 L335 291.36576925984116 L336 291.81945823844524 L337 292.2461781846146 L338 292.64721053617853 L339 293.0238002414946 L340 293.37715491770916 L341 293.70844419476515 L342 294.01879923476787 L343 294.3093124162184 L344 294.58103717258996 L345 294.8349879747467 L346 295.0721404467828 L347 295.29343160499235 L348 295.499760209854 L349 295.6919872211351 L350 295.87093634647397 L351 296.03739467408815 L352 296.19211338057323 L353 296.3358085050987 L354 296.4691617816694 L355 296.5928215214995 L356 296.7074035379396 L357 296.8134921067983 L358 296.9116409553069 L359 297.0023742733905 L360 297.08618774131907 L361 297.16354956822295 L362 297.2349015363653 L363 297.30066004646216 L364 297.3612171597343 L365 297.41694163275633 L366 297.4681799415399 L367 297.5152572916446 L368 297.5584786114567 L369 297.59812952610235 L370 297.6344773097808 L371 297.66777181459577 L372 297.69824637425177 L373 297.7261186812421 L374 297.75159163640814 L375 297.7748541699805 L376 297.79608203342787 L377 297.81543856164006 L378 297.8330754051551 L379 297.84913323230666 L380 297.8637424013234 L381 297.87702360254764 L382 297.8890884710657 L383 297.90004017015303 L384 297.90997394603437 L385 297.9189776545443 L386 297.9271322603491 L387 297.93451230945175 L388 297.9411863757569 L389 297.9472174825143 L390 297.9526634994958 L391 297.9575775167864 L392 297.96200819608936 L393 297.9660001004585 L394 297.9695940033763 L395 297.97282717809776 L396 297.97573366817534 L397 297.97834454007193 L398 297.98068811875663 L399 297.98279020716075 L400 297.9846742903537 L401 297.9863617252776 L402 297.9878719168526 L403 297.98922248124404 L404 297.9904293970518 L405 297.99150714515656 L406 297.9924688379282 L407 297.9933263384721 L408 297.9940903705607 L409 297.99477061986533 L410 297.99537582707745 L411 297.9959138734759 L412 297.99639185946904 L413 297.9968161766126 L414 297.99719257357583 L415 297.99752621650146 L416 297.9978217441782 L417 297.998083318421 L418 297.99831467002673 L419 297.9985191406535 L420 297.9986997209446 L421 297.9988590852004 L422 297.9989996228793 L423 297.9991234671886 L424 297.9992325210103 L425 297.999328480385 L426 297.9994128557652 L427 297.9994869912304 L428 297.9995520818428 L429 297.9996091893083 L430 297.9996592560954 L431 297.99970311815173 L432 297.9997415163458 L433 297.9997751067531 L434 297.99980446989434 L435 297.9998301190248 L436 297.9998525075648 L437 297.9998720357554 L438 297.9998890566135 L439 297.9999038812553 L440 297.9999167836521 L441 297.99992800487263 L442 297.9999377568667 L443 297.9999462258345 L444 297.99995357522556 L445 297.99995994840503 L446 297.9999654710224 L447 297.9999702531137 L448 297.999974390966 L449 297.99997796876863 L450 297.9999810600758 L451 297.9999837290994 L452 297.99998603185173 L453 297.9999880171542 L454 297.99998972752724 L455 297.99999119997483 L456 297.9999924666747 L457 297.99999355558623 L458 297.99999449098436 L459 297.9999952939289 L460 297.9999959826761 L461 297.9999965730394 L462 297.9999970787061 L463 297.99999751151347 L464 297.99999788169146 L465 297.9999981980736 L466 297.99999846828223 L467 297.999998698889 L468 297.9999988955557 L469 297.9999990631561 L470 297.999999205883 L471 297.99999932733994 L472 297.999999430622 L473 297.9999995183854 L474 297.99999959290807 L475 297.99999965614194 L476 297.9999997097583 L477 297.9999997551871 L478 297.99999979365083 L479 297.9999998261939 L480 297.9999998537078 L481 297.9999998769529 L482 297.9999998965775 L483 297.99999991313337 L484 297.9999999270904 L485 297.999999938848 L486 297.99999994874577 L487 297.99999995707174 L488 297.9999999640705 L489 297.9999999699495 L490 297.9999999748842 L491 297.99999997902336 L492 297.99999998249274 L493 297.9999999853986 L494 297.9999999878307 L495 297.9999999898648 L496 297.99999999156495 L497 297.9999999929848 L498 297.99999999416974 L499 297.99999999515796 " stroke = "blue" stroke-width = "4" fill = "none" /></svg>