<svg width="500" height="500" viewbox = "0 0 500 500"  xmlns="http://www.w3.org/2000/svg">

<!--
<topfunctions>


//put helper functions here, along with contsants and variables


function YofX(){
    
    X = currentjson.plotparams.g*(x - currentjson.plotparams.x0);
    Y = Math.cosh(X);
    y = currentjson.plotparams.y0 - currentjson.plotparams.G*(Y);

}




function plotfunction(){
    /*plot one function:*/
    currentStroke = currentjson.style.color;
    currentLineWidth = currentjson.style.linewidth;
    ctx.strokeStyle = currentStroke;
    ctx.lineWidth = currentLineWidth;
    ctx.beginPath();	
    x = 0;
    YofX();
    currentSVG += "	<path d = \"M";
    currentSVG += Math.round(x).toString() + " ";
    currentSVG += Math.round(y).toString() + " ";
    for(x = 1;x < currentjson.plotparams.plotwidth;x++){
        ctx.moveTo(x-1,y);
        YofX();
        ctx.lineTo(x,y);
        currentSVG += "L" + x + " " + y + " ";
    }
    ctx.stroke();
    currentSVG += "\""+ " stroke = \"" + currentStroke + "\" stroke-width = \"" + currentLineWidth.toString() + "\" fill = \"" + "none" + "\" "+"/>";
    /*finish plot one function*/

}





























</topfunctions>
-->

<!--
<currentjson>
{
    "constants": {},
    "YofXstring": "Y =  Math.cosh(X)",
    "style": {
        "linewidth": 4,
        "color": "blue",
        "fill": "none"
    },
    "plotparams": {
        "G": 217.63026869027198,
        "g": 0.004900022503138476,
        "duration": 450.78888054094654,
        "plotwidth": 500,
        "plotheight": 500,
        "x0": "250",
        "y0": "500"
    },
    "funcparams": {},
    "image": {
        "url": "",
        "xoverw": 0.038011695906432746,
        "yoverw": -0.08771929824561403,
        "woverw": 0.8536631795472632,
        "angle": "0"
    }
}
</currentjson>
-->
	<path d = "M0 98 L1 99.261668791011 L2 100.90569311137506 L3 102.54013507024496 L4 104.16503391101128 L5 105.7804286479315 L6 107.38635806706719 L7 108.98286072721493 L8 110.56997496083244 L9 112.14773887495869 L10 113.71619035212893 L11 115.27536705128449 L12 116.82530640867662 L13 118.36604563876551 L14 119.897621735114 L15 121.42007147127532 L16 122.93343140167667 L17 124.43773786249636 L18 125.9330269725366 L19 127.41933463409032 L20 128.896696533804 L21 130.3651481435333 L22 131.82472472119593 L23 133.27546131161745 L24 134.71739274737308 L25 136.15055364962382 L26 137.57497842894782 L27 138.9907012861666 L28 140.39775621316625 L29 141.79617699371335 L30 143.18599720426653 L31 144.5672502147823 L32 145.93996918951626 L33 147.3041870878199 L34 148.65993666493114 L35 150.00725047276165 L36 151.34616086067757 L37 152.67669997627712 L38 153.99889976616168 L39 155.31279197670335 L40 156.61840815480696 L41 157.91577964866764 L42 159.20493760852338 L43 160.48591298740303 L44 161.75873654186944 L45 163.02343883275807 L46 164.2800502259105 L47 165.5286008929038 L48 166.76912081177483 L49 168.00163976774002 L50 169.22618735391052 L51 170.44279297200268 L52 171.65148583304426 L53 172.8522949580754 L54 174.04524917884572 L55 175.2303771385064 L56 176.40770729229814 L57 177.57726790823403 L58 178.7390870677786 L59 179.89319266652188 L60 181.03961241484944 L61 182.17837383860706 L62 183.30950427976256 L63 184.4330308970616 L64 185.54898066667988 L65 186.65738038287117 L66 187.75825665861038 L67 188.85163592623246 L68 189.93754443806733 L69 191.0160082670701 L70 192.08705330744675 L71 193.15070527527655 L72 194.20698970912872 L73 195.25593197067644 L74 196.29755724530486 L75 197.33189054271674 L76 198.35895669753234 L77 199.37878036988587 L78 200.39138604601754 L79 201.39679803886168 L80 202.39504048863017 L81 203.38613736339238 L82 204.37011245965044 L83 205.3469894029107 L84 206.31679164825096 L85 207.2795424808835 L86 208.2352650167145 L87 209.18398220289856 L88 210.12571681839023 L89 211.06049147449062 L90 211.98832861539012 L91 212.90925051870778 L92 213.82327929602576 L93 214.73043689342063 L94 215.63074509198975 L95 216.52422550837485 L96 217.41089959528074 L97 218.29078864199028 L98 219.16391377487594 L99 220.03029595790656 L100 220.88995599315103 L101 221.74291452127767 L102 222.58919202204987 L103 223.42880881481767 L104 224.26178505900577 L105 225.0881407545976 L106 225.90789574261515 L107 226.72106970559605 L108 227.52768216806538 L109 228.32775249700524 L110 229.12129990231875 L111 229.90834343729256 L112 230.68890199905314 L113 231.46299432902123 L114 232.23063901336167 L115 232.99185448342934 L116 233.74665901621222 L117 234.49507073476985 L118 235.2371076086685 L119 235.97278745441298 L120 236.70212793587382 L121 237.4251465647119 L122 238.14186070079876 L123 238.8522875526332 L124 239.55644417775477 L125 240.25434748315308 L126 240.9460142256741 L127 241.63146101242194 L128 242.31070430115807 L129 242.98376040069633 L130 243.65064547129435 L131 244.31137552504188 L132 244.9659664262449 L133 245.61443389180673 L134 246.2567934916054 L135 246.89306064886745 L136 247.52325064053824 L137 248.14737859764867 L138 248.76545950567856 L139 249.3775082049166 L140 249.98353939081642 L141 250.5835676143495 L142 251.17760728235473 L143 251.76567265788398 L144 252.34777786054497 L145 252.9239368668399 L146 253.49416351050118 L147 254.0584714828238 L148 254.6168743329936 L149 255.1693854684131 L150 255.716018155023 L151 256.25678551762087 L152 256.7917005401764 L153 257.3207760661429 L154 257.84402479876593 L155 258.361459301388 L156 258.8730919977504 L157 259.37893517229173 L158 259.87900097044246 L159 260.3733013989166 L160 260.8618483260003 L161 261.34465348183653 L162 261.8217284587065 L163 262.2930847113089 L164 262.75873355703357 L165 263.21868617623466 L166 263.67295361249785 L167 264.1215467729065 L168 264.5644764283028 L169 265.00175321354664 L170 265.43338762777114 L171 265.85939003463454 L172 266.27977066256904 L173 266.6945396050263 L174 267.10370682072016 L175 267.5072821338654 L176 267.90527523441347 L177 268.29769567828583 L178 268.6845528876026 L179 269.0658561509092 L180 269.4416146233996 L181 269.81183732713555 L182 270.1765331512636 L183 270.53571085222836 L184 270.88937905398296 L185 271.2375462481959 L186 271.58022079445504 L187 271.9174109204683 L188 272.24912472226106 L189 272.57537016437084 L190 272.89615508003834 L191 273.21148717139556 L192 273.5213740096507 L193 273.8258230352699 L194 274.12484155815605 L195 274.41843675782434 L196 274.7066156835742 L197 274.98938525465906 L198 275.2667522604523 L199 275.5387233606102 L200 275.8053050852319 L201 276.0665038350163 L202 276.3223258814155 L203 276.57277736678543 L204 276.81786430453366 L205 277.0575925792633 L206 277.2919679469146 L207 277.52099603490313 L208 277.7446823422548 L209 277.9630322397379 L210 278.17605096999216 L211 278.38374364765446 L212 278.58611525948174 L213 278.78317066447084 L214 278.97491459397486 L215 279.1613516518171 L216 279.34248631440136 L217 279.51832293081964 L218 279.6888657229561 L219 279.8541187855892 L220 280.0140860864893 L221 280.1687714665142 L222 280.3181786397015 L223 280.4623111933575 L224 280.6011725881435 L225 280.7347661581589 L226 280.86309511102127 L227 280.9861625279432 L228 281.1039713638063 L229 281.2165244472325 L230 281.3238244806516 L231 281.425874040366 L232 281.5226755766133 L233 281.6142314136242 L234 281.700543749679 L235 281.78161465716005 L236 281.85744608260165 L237 281.92803984673674 L238 281.9933976445404 L239 282.05352104527094 L240 282.1084114925075 L241 282.1580703041844 L242 282.20249867262294 L243 282.2416976645603 L244 282.2756682211748 L245 282.3044111581085 L246 282.32792716548715 L247 282.3462168079364 L248 282.35928052459553 L249 282.36711862912773 L250 282.369731309728 L251 282.36711862912773 L252 282.35928052459553 L253 282.3462168079364 L254 282.32792716548715 L255 282.3044111581085 L256 282.2756682211748 L257 282.2416976645603 L258 282.20249867262294 L259 282.1580703041844 L260 282.1084114925075 L261 282.05352104527094 L262 281.9933976445404 L263 281.92803984673674 L264 281.85744608260165 L265 281.78161465716005 L266 281.700543749679 L267 281.6142314136242 L268 281.5226755766133 L269 281.425874040366 L270 281.3238244806516 L271 281.2165244472325 L272 281.1039713638063 L273 280.9861625279432 L274 280.86309511102127 L275 280.7347661581589 L276 280.6011725881435 L277 280.4623111933575 L278 280.3181786397015 L279 280.1687714665142 L280 280.0140860864893 L281 279.8541187855892 L282 279.6888657229561 L283 279.51832293081964 L284 279.34248631440136 L285 279.1613516518171 L286 278.97491459397486 L287 278.78317066447084 L288 278.58611525948174 L289 278.38374364765446 L290 278.17605096999216 L291 277.9630322397379 L292 277.7446823422548 L293 277.52099603490313 L294 277.2919679469146 L295 277.0575925792633 L296 276.81786430453366 L297 276.57277736678543 L298 276.3223258814155 L299 276.0665038350163 L300 275.8053050852319 L301 275.5387233606102 L302 275.2667522604523 L303 274.98938525465906 L304 274.7066156835742 L305 274.41843675782434 L306 274.12484155815605 L307 273.8258230352699 L308 273.5213740096507 L309 273.21148717139556 L310 272.89615508003834 L311 272.57537016437084 L312 272.24912472226106 L313 271.9174109204683 L314 271.58022079445504 L315 271.2375462481959 L316 270.88937905398296 L317 270.53571085222836 L318 270.1765331512636 L319 269.81183732713555 L320 269.4416146233996 L321 269.0658561509092 L322 268.6845528876026 L323 268.29769567828583 L324 267.90527523441347 L325 267.5072821338654 L326 267.10370682072016 L327 266.6945396050263 L328 266.27977066256904 L329 265.85939003463454 L330 265.43338762777114 L331 265.00175321354664 L332 264.5644764283028 L333 264.1215467729065 L334 263.67295361249785 L335 263.21868617623466 L336 262.75873355703357 L337 262.2930847113089 L338 261.8217284587065 L339 261.34465348183653 L340 260.8618483260003 L341 260.3733013989166 L342 259.87900097044246 L343 259.37893517229173 L344 258.8730919977504 L345 258.361459301388 L346 257.84402479876593 L347 257.3207760661429 L348 256.7917005401764 L349 256.25678551762087 L350 255.716018155023 L351 255.1693854684131 L352 254.6168743329936 L353 254.0584714828238 L354 253.49416351050118 L355 252.9239368668399 L356 252.34777786054497 L357 251.76567265788398 L358 251.17760728235473 L359 250.5835676143495 L360 249.98353939081642 L361 249.3775082049166 L362 248.76545950567856 L363 248.14737859764867 L364 247.52325064053824 L365 246.89306064886745 L366 246.2567934916054 L367 245.61443389180673 L368 244.9659664262449 L369 244.31137552504188 L370 243.65064547129435 L371 242.98376040069633 L372 242.31070430115807 L373 241.63146101242194 L374 240.9460142256741 L375 240.25434748315308 L376 239.55644417775477 L377 238.8522875526332 L378 238.14186070079876 L379 237.4251465647119 L380 236.70212793587382 L381 235.97278745441298 L382 235.2371076086685 L383 234.49507073476985 L384 233.74665901621222 L385 232.99185448342934 L386 232.23063901336167 L387 231.46299432902123 L388 230.68890199905314 L389 229.90834343729256 L390 229.12129990231875 L391 228.32775249700524 L392 227.52768216806538 L393 226.72106970559605 L394 225.90789574261515 L395 225.0881407545976 L396 224.26178505900577 L397 223.42880881481767 L398 222.58919202204987 L399 221.74291452127767 L400 220.88995599315103 L401 220.03029595790656 L402 219.16391377487594 L403 218.29078864199028 L404 217.41089959528074 L405 216.52422550837485 L406 215.63074509198975 L407 214.73043689342063 L408 213.82327929602576 L409 212.90925051870778 L410 211.98832861539012 L411 211.06049147449062 L412 210.12571681839023 L413 209.18398220289856 L414 208.2352650167145 L415 207.2795424808835 L416 206.31679164825096 L417 205.3469894029107 L418 204.37011245965044 L419 203.38613736339238 L420 202.39504048863017 L421 201.39679803886168 L422 200.39138604601754 L423 199.37878036988587 L424 198.35895669753234 L425 197.33189054271674 L426 196.29755724530486 L427 195.25593197067644 L428 194.20698970912872 L429 193.15070527527655 L430 192.08705330744675 L431 191.0160082670701 L432 189.93754443806733 L433 188.85163592623246 L434 187.75825665861038 L435 186.65738038287117 L436 185.54898066667988 L437 184.4330308970616 L438 183.30950427976256 L439 182.17837383860706 L440 181.03961241484944 L441 179.89319266652188 L442 178.7390870677786 L443 177.57726790823403 L444 176.40770729229814 L445 175.2303771385064 L446 174.04524917884572 L447 172.8522949580754 L448 171.65148583304426 L449 170.44279297200268 L450 169.22618735391052 L451 168.00163976774002 L452 166.76912081177483 L453 165.5286008929038 L454 164.2800502259105 L455 163.02343883275807 L456 161.75873654186944 L457 160.48591298740303 L458 159.20493760852338 L459 157.91577964866764 L460 156.61840815480696 L461 155.31279197670335 L462 153.99889976616168 L463 152.67669997627712 L464 151.34616086067757 L465 150.00725047276165 L466 148.65993666493114 L467 147.3041870878199 L468 145.93996918951626 L469 144.5672502147823 L470 143.18599720426653 L471 141.79617699371335 L472 140.39775621316625 L473 138.9907012861666 L474 137.57497842894782 L475 136.15055364962382 L476 134.71739274737308 L477 133.27546131161745 L478 131.82472472119593 L479 130.3651481435333 L480 128.896696533804 L481 127.41933463409032 L482 125.9330269725366 L483 124.43773786249636 L484 122.93343140167667 L485 121.42007147127532 L486 119.897621735114 L487 118.36604563876551 L488 116.82530640867662 L489 115.27536705128449 L490 113.71619035212893 L491 112.14773887495869 L492 110.56997496083244 L493 108.98286072721493 L494 107.38635806706719 L495 105.7804286479315 L496 104.16503391101128 L497 102.54013507024496 L498 100.90569311137506 L499 99.261668791011 " stroke = "blue" stroke-width = "4" fill = "none" /></svg>