<svg width="500" height="500" viewbox = "0 0 500 500"  xmlns="http://www.w3.org/2000/svg">

<!--
<topfunctions>


//put helper functions here, along with contsants and variables


function YofX(){
    
    X = currentjson.plotparams.g*(x - currentjson.plotparams.x0);
    eval(currentjson.YofXstring);
    y = currentjson.plotparams.y0 - currentjson.plotparams.G*(Y);

}




function plotfunction(){
    /*plot one function:*/
    currentStroke = currentjson.style.color;
    currentLineWidth = currentjson.style.linewidth;
    ctx.strokeStyle = currentStroke;
    ctx.lineWidth = currentLineWidth;
    ctx.beginPath();	
    x = 0;
    YofX();
    currentSVG += "	<path d = \"M";
    currentSVG += Math.round(x).toString() + " ";
    currentSVG += Math.round(y).toString() + " ";
    for(x = 1;x < currentjson.plotparams.plotwidth;x++){
        ctx.moveTo(x-1,y);
        YofX();
        ctx.lineTo(x,y);
        currentSVG += "L" + x + " " + y + " ";
    }
    ctx.stroke();
    currentSVG += "\""+ " stroke = \"" + currentStroke + "\" stroke-width = \"" + currentLineWidth.toString() + "\" fill = \"" + "none" + "\" "+"/>";
    /*finish plot one function*/

}





























</topfunctions>
-->

<!--
<currentjson>
{
    "constants": {},
    "YofXstring": "Y =  Math.cosh(X)",
    "style": {
        "linewidth": 4,
        "color": "blue",
        "fill": "none"
    },
    "plotparams": {
        "G": 202.09499381910777,
        "g": 0.0036437041205737153,
        "duration": 450.78888054094654,
        "plotwidth": 500,
        "plotheight": 500,
        "x0": "250",
        "y0": "500"
    },
    "funcparams": {},
    "image": {
        "url": "",
        "xoverw": 0.038011695906432746,
        "yoverw": -0.08771929824561403,
        "woverw": 0.8536631795472632,
        "angle": "0"
    }
}
</currentjson>
-->
	<path d = "M0 208 L1 208.861975939697 L2 209.6236506307083 L3 210.38147011270354 L4 211.13544444694463 L5 211.88558364364303 L6 212.63189766209263 L7 213.3743964108018 L8 214.11308974762545 L9 214.84798747989532 L10 215.5790993645506 L11 216.30643510826707 L12 217.03000436758663 L13 217.74981674904473 L14 218.46588180929842 L15 219.17820905525315 L16 219.88680794418866 L17 220.59168788388524 L18 221.29285823274773 L19 221.9903282999307 L20 222.68410734546114 L21 223.37420458036217 L22 224.06062916677473 L23 224.7433902180798 L24 225.42249679901892 L25 226.09795792581463 L26 226.76978256629042 L27 227.43797963998952 L28 228.10255801829345 L29 228.76352652453994 L30 229.42089393413954 L31 230.07466897469283 L32 230.72486032610584 L33 231.3714766207055 L34 232.014526443354 L35 232.654018331563 L36 233.28996077560708 L37 233.922362218636 L38 234.55123105678723 L39 235.1765756392973 L40 235.79840426861261 L41 236.41672520049963 L42 237.03154664415462 L43 237.64287676231248 L44 238.25072367135522 L45 238.85509544141985 L46 239.45600009650508 L47 240.05344561457832 L48 240.6474399276815 L49 241.23799092203603 L50 241.825106438148 L51 242.40879427091215 L52 242.98906216971483 L53 243.56591783853776 L54 244.1393689360597 L55 244.7094230757581 L56 245.27608782601075 L57 245.83937071019562 L58 246.39927920679116 L59 246.95582074947527 L60 247.50900272722436 L61 248.05883248441123 L62 248.6053173209025 L63 249.14846449215563 L64 249.68828120931545 L65 250.2247746393095 L66 250.7579519049434 L67 251.28782008499553 L68 251.81438621431082 L69 252.33765728389415 L70 252.85764024100328 L71 253.374341989241 L72 253.88776938864697 L73 254.39792925578837 L74 254.90482836385098 L75 255.40847344272854 L76 255.90887117911257 L77 256.40602821658086 L78 256.8999511556857 L79 257.39064655404167 L80 257.8781209264125 L81 258.3623807447978 L82 258.8434324385187 L83 259.32128239430335 L84 259.795936956372 L85 260.26740242652056 L86 260.735685064205 L87 261.2007910866239 L88 261.66272666880127 L89 262.1214979436685 L90 262.5771110021457 L91 263.02957189322274 L92 263.47888662403926 L93 263.9250611599647 L94 264.36810142467743 L95 264.80801330024343 L96 265.2448026271942 L97 265.6784752046044 L98 266.10903679016894 L99 266.5364931002795 L100 266.96084981010006 L101 267.3821125536425 L102 267.80028692384144 L103 268.21537847262846 L104 268.62739271100554 L105 269.0363351091187 L106 269.4422110963303 L107 269.84502606129126 L108 270.2447853520124 L109 270.64149427593566 L110 271.03515810000454 L111 271.425782050734 L112 271.81337131427995 L113 272.19793103650755 L114 272.5794663230604 L115 272.9579822394277 L116 273.33348381101183 L117 273.7059760231948 L118 274.0754638214047 L119 274.441952111181 L120 274.80544575824024 L121 275.1659495885401 L122 275.52346838834376 L123 275.87800690428315 L124 276.2295698434225 L125 276.57816187332037 L126 276.9237876220917 L127 277.26645167846937 L128 277.6061585918651 L129 277.9429128724297 L130 278.2767189911134 L131 278.60758137972437 L132 278.9355044309885 L133 279.26049249860716 L134 279.58254989731506 L135 279.9016809029376 L136 280.21788975244783 L137 280.53118064402236 L138 280.8415577370972 L139 281.1490251524232 L140 281.4535869721205 L141 281.7552472397329 L142 282.0540099602814 L143 282.3498791003174 L144 282.6428585879756 L145 282.9329523130257 L146 283.2201641269245 L147 283.5044978428667 L148 283.7859572358358 L149 284.064546042654 L150 284.3402679620318 L151 284.61312665461736 L152 284.88312574304496 L153 285.15026881198276 L154 285.41455940818116 L155 285.67600104051905 L156 285.9345971800511 L157 286.19035126005326 L158 286.4432666760687 L159 286.6933467859528 L160 286.940594909918 L161 287.185014330577 L162 287.42660829298757 L163 287.6653800046946 L164 287.9013326357734 L165 288.13446931887125 L166 288.36479314924935 L167 288.59230718482377 L168 288.8170144462062 L169 289.0389179167437 L170 289.25802054255865 L171 289.4743252325877 L172 289.68783485862065 L173 289.898552255338 L174 290.1064802203494 L175 290.31162151422984 L176 290.5139788605573 L177 290.7135549459481 L178 290.910352420093 L179 291.1043738957921 L180 291.29562194899006 L181 291.4840991188096 L182 291.66980790758566 L183 291.85275078089853 L184 292.03293016760654 L185 292.21034845987833 L186 292.3850080132246 L187 292.5569111465294 L188 292.7260601420809 L189 292.8924572456017 L190 293.05610466627866 L191 293.2170045767922 L192 293.3751591133452 L193 293.5305703756913 L194 293.6832404271628 L195 293.833171294698 L196 293.98036496886823 L197 294.1248234039042 L198 294.2665485177221 L199 294.4055421919486 L200 294.54180627194637 L201 294.67534256683837 L202 294.8061528495319 L203 294.9342388567419 L204 295.0596022890143 L205 295.1822448107487 L206 295.3021680502201 L207 295.4193735996006 L208 295.53386301498085 L209 295.64563781639026 L210 295.7546994878177 L211 295.8610494772305 L212 295.9646891965946 L213 296.0656200218924 L214 296.16384329314155 L215 296.2593603144125 L216 296.3521723538461 L217 296.44228064367013 L218 296.5296863802158 L219 296.61439072393364 L220 296.6963947994088 L221 296.77569969537615 L222 296.85230646473474 L223 296.9262161245615 L224 296.99742965612495 L225 297.0659480048983 L226 297.131772080572 L227 297.19490275706534 L228 297.25534087253897 L229 297.3130872294051 L230 297.3681425943387 L231 297.42050769828757 L232 297.47018323648183 L233 297.51716986844366 L234 297.56146821799535 L235 297.60307887326815 L236 297.6420023867099 L237 297.6782392750923 L238 297.7117900195177 L239 297.7426550654259 L240 297.7708348225995 L241 297.79632966516976 L242 297.81913993162124 L243 297.8392659247968 L244 297.8567079119008 L245 297.87146612450374 L246 297.88354075854426 L247 297.8929319743323 L248 297.89963989655143 L249 297.90366461425987 L250 297.9050061808922 L251 297.90366461425987 L252 297.89963989655143 L253 297.8929319743323 L254 297.88354075854426 L255 297.87146612450374 L256 297.8567079119008 L257 297.8392659247968 L258 297.81913993162124 L259 297.79632966516976 L260 297.7708348225995 L261 297.7426550654259 L262 297.7117900195177 L263 297.6782392750923 L264 297.6420023867099 L265 297.60307887326815 L266 297.56146821799535 L267 297.51716986844366 L268 297.47018323648183 L269 297.42050769828757 L270 297.3681425943387 L271 297.3130872294051 L272 297.25534087253897 L273 297.19490275706534 L274 297.131772080572 L275 297.0659480048983 L276 296.99742965612495 L277 296.9262161245615 L278 296.85230646473474 L279 296.77569969537615 L280 296.6963947994088 L281 296.61439072393364 L282 296.5296863802158 L283 296.44228064367013 L284 296.3521723538461 L285 296.2593603144125 L286 296.16384329314155 L287 296.0656200218924 L288 295.9646891965946 L289 295.8610494772305 L290 295.7546994878177 L291 295.64563781639026 L292 295.53386301498085 L293 295.4193735996006 L294 295.3021680502201 L295 295.1822448107487 L296 295.0596022890143 L297 294.9342388567419 L298 294.8061528495319 L299 294.67534256683837 L300 294.54180627194637 L301 294.4055421919486 L302 294.2665485177221 L303 294.1248234039042 L304 293.98036496886823 L305 293.833171294698 L306 293.6832404271628 L307 293.5305703756913 L308 293.3751591133452 L309 293.2170045767922 L310 293.05610466627866 L311 292.8924572456017 L312 292.7260601420809 L313 292.5569111465294 L314 292.3850080132246 L315 292.21034845987833 L316 292.03293016760654 L317 291.85275078089853 L318 291.66980790758566 L319 291.4840991188096 L320 291.29562194899006 L321 291.1043738957921 L322 290.910352420093 L323 290.7135549459481 L324 290.5139788605573 L325 290.31162151422984 L326 290.1064802203494 L327 289.898552255338 L328 289.68783485862065 L329 289.4743252325877 L330 289.25802054255865 L331 289.0389179167437 L332 288.8170144462062 L333 288.59230718482377 L334 288.36479314924935 L335 288.13446931887125 L336 287.9013326357734 L337 287.6653800046946 L338 287.42660829298757 L339 287.185014330577 L340 286.940594909918 L341 286.6933467859528 L342 286.4432666760687 L343 286.19035126005326 L344 285.9345971800511 L345 285.67600104051905 L346 285.41455940818116 L347 285.15026881198276 L348 284.88312574304496 L349 284.61312665461736 L350 284.3402679620318 L351 284.064546042654 L352 283.7859572358358 L353 283.5044978428667 L354 283.2201641269245 L355 282.9329523130257 L356 282.6428585879756 L357 282.3498791003174 L358 282.0540099602814 L359 281.7552472397329 L360 281.4535869721205 L361 281.1490251524232 L362 280.8415577370972 L363 280.53118064402236 L364 280.21788975244783 L365 279.9016809029376 L366 279.58254989731506 L367 279.26049249860716 L368 278.9355044309885 L369 278.60758137972437 L370 278.2767189911134 L371 277.9429128724297 L372 277.6061585918651 L373 277.26645167846937 L374 276.9237876220917 L375 276.57816187332037 L376 276.2295698434225 L377 275.87800690428315 L378 275.52346838834376 L379 275.1659495885401 L380 274.80544575824024 L381 274.441952111181 L382 274.0754638214047 L383 273.7059760231948 L384 273.33348381101183 L385 272.9579822394277 L386 272.5794663230604 L387 272.19793103650755 L388 271.81337131427995 L389 271.425782050734 L390 271.03515810000454 L391 270.64149427593566 L392 270.2447853520124 L393 269.84502606129126 L394 269.4422110963303 L395 269.0363351091187 L396 268.62739271100554 L397 268.21537847262846 L398 267.80028692384144 L399 267.3821125536425 L400 266.96084981010006 L401 266.5364931002795 L402 266.10903679016894 L403 265.6784752046044 L404 265.2448026271942 L405 264.80801330024343 L406 264.36810142467743 L407 263.9250611599647 L408 263.47888662403926 L409 263.02957189322274 L410 262.5771110021457 L411 262.1214979436685 L412 261.66272666880127 L413 261.2007910866239 L414 260.735685064205 L415 260.26740242652056 L416 259.795936956372 L417 259.32128239430335 L418 258.8434324385187 L419 258.3623807447978 L420 257.8781209264125 L421 257.39064655404167 L422 256.8999511556857 L423 256.40602821658086 L424 255.90887117911257 L425 255.40847344272854 L426 254.90482836385098 L427 254.39792925578837 L428 253.88776938864697 L429 253.374341989241 L430 252.85764024100328 L431 252.33765728389415 L432 251.81438621431082 L433 251.28782008499553 L434 250.7579519049434 L435 250.2247746393095 L436 249.68828120931545 L437 249.14846449215563 L438 248.6053173209025 L439 248.05883248441123 L440 247.50900272722436 L441 246.95582074947527 L442 246.39927920679116 L443 245.83937071019562 L444 245.27608782601075 L445 244.7094230757581 L446 244.1393689360597 L447 243.56591783853776 L448 242.98906216971483 L449 242.40879427091215 L450 241.825106438148 L451 241.23799092203603 L452 240.6474399276815 L453 240.05344561457832 L454 239.45600009650508 L455 238.85509544141985 L456 238.25072367135522 L457 237.64287676231248 L458 237.03154664415462 L459 236.41672520049963 L460 235.79840426861261 L461 235.1765756392973 L462 234.55123105678723 L463 233.922362218636 L464 233.28996077560708 L465 232.654018331563 L466 232.014526443354 L467 231.3714766207055 L468 230.72486032610584 L469 230.07466897469283 L470 229.42089393413954 L471 228.76352652453994 L472 228.10255801829345 L473 227.43797963998952 L474 226.76978256629042 L475 226.09795792581463 L476 225.42249679901892 L477 224.7433902180798 L478 224.06062916677473 L479 223.37420458036217 L480 222.68410734546114 L481 221.9903282999307 L482 221.29285823274773 L483 220.59168788388524 L484 219.88680794418866 L485 219.17820905525315 L486 218.46588180929842 L487 217.74981674904473 L488 217.03000436758663 L489 216.30643510826707 L490 215.5790993645506 L491 214.84798747989532 L492 214.11308974762545 L493 213.3743964108018 L494 212.63189766209263 L495 211.88558364364303 L496 211.13544444694463 L497 210.38147011270354 L498 209.6236506307083 L499 208.861975939697 " stroke = "blue" stroke-width = "4" fill = "none" /></svg>