<svg width="500" height="500" viewbox = "0 0 500 500"  xmlns="http://www.w3.org/2000/svg">

<!--
<topfunctions>



function YofX(){
    X = currentjson.plotparams.g*(x - currentjson.plotparams.x0);
    F1 = 0.5*(1 + Math.tanh(X/A));
    F2 = 0.5*(1 + Math.tanh((B - X)/A));
    Y = F1*F2*Math.cos(2*Math.PI*X);
    y = currentjson.plotparams.y0 - currentjson.plotparams.G*(Y);
}





function plotfunction(){
    
    /*plot one function:*/
    currentStroke = "red";
    currentLineWidth = 4;
    ctx.strokeStyle = currentStroke;
    ctx.lineWidth = currentLineWidth;
    ctx.beginPath();	
    x = 0;
    intx = x;
    YofX();
    currentSVG += "	<path d = \"M";
    currentSVG += Math.round(x).toString() + " ";
    currentSVG += Math.round(y).toString() + " ";
    for(x = 1;x < currentjson.plotparams.plotwidth;x++){
        ctx.moveTo(x-1,y);
        YofX();
        ctx.lineTo(x,y);
        currentSVG += "L" + x + " " + y + " ";
    }
    ctx.stroke();
    currentSVG += "\""+ " stroke = \"" + currentStroke + "\" stroke-width = \"" + currentLineWidth.toString() + "\" fill = \"" + "none" + "\" "+"/>";
    /*finish plot one function*/
    
    

}































</topfunctions>
-->

<!--
<currentjson>
{
    "constants": {},
    "YofXstring": "Y =  (1/Math.PI)*0.5/(X*X + 0.25);",
    "style": {
        "linewidth": 4,
        "color": "blue",
        "fill": "none"
    },
    "plotparams": {
        "G": 103.42365531743322,
        "g": 0.13050786078412682,
        "duration": 450.78888054094654,
        "plotwidth": 500,
        "plotheight": 500,
        "x0": 36,
        "y0": 255
    },
    "funcparams": {},
    "image": {
        "url": "",
        "xoverw": 0.038011695906432746,
        "yoverw": -0.08771929824561403,
        "woverw": 0.8536631795472632,
        "angle": "0"
    },
    "A": 4.931538819950572,
    "B": 16.45789430921728
}
</currentjson>
-->

<!--
<equation>
# Equations

$x$, $x_0$, $y$ and $y_0$ are all in pixels. x varies from 0 to the width in pixels of the plot.  Y and X are in the units of the system being studied.   

$$X = g(x - x_0)$$
$$Y = \sin{(X)}$$
$$y = y_0 - GY$$ 
</equation>
-->
	<path d = "M0 259 L1 267.7675837730122 L2 268.5482274903057 L3 260.35978764564146 L4 247.82298551551807 L5 238.9007619171796 L6 239.8848103575132 L7 251.03209712779477 L8 265.8363895179882 L9 274.75886696852103 L10 271.3270776127468 L11 256.7325676504856 L12 239.71434934014644 L13 231.387680940569 L14 238.03442592276903 L15 256.5004499657932 L16 275.50102815021074 L17 282.4617633661849 L18 271.78660860084 L19 249.1484666754292 L20 228.6149242343148 L21 223.95395081960942 L22 239.46037008766118 L23 266.38200934426396 L24 287.7539269553643 L25 289.0508256048519 L26 267.99455461883304 L27 236.93051623516385 L28 215.66640288643433 L29 218.87008945970584 L30 246.02635268511636 L31 280.7888425843284 L32 300.7689305768936 L33 291.9370117955857 L34 258.3833630772381 L35 220.69576271563523 L36 203.3533836409865 L37 218.83603519147005 L38 258.76014838892553 L39 298.27588128183135 L40 311.5304215669082 L41 288.5791698262542 L42 242.6822062923765 L43 202.717583221082 L44 194.99656485422577 L45 225.9410082569196 L46 277.03012854888414 L47 315.85586239202723 L48 316.7099809917899 L49 277.6061269913361 L50 222.46425059430595 L51 186.47691194213894 L52 193.6101336834693 L53 240.64798509167662 L54 298.40181384839997 L55 329.8465336315832 L56 313.8997781324118 L57 259.54412654199746 L58 200.83930704676786 L59 175.5421801544286 L60 200.77999054290885 L61 261.47796391975265 L62 319.3463828057064 L63 337.08039547198933 L64 302.44798272210335 L65 236.68767106197447 L66 181.47435650607645 L67 172.45968347688478 L68 216.21777907596197 L69 285.5250596355743 L70 336.32107004136617 L71 335.7666537583392 L72 283.50114039248643 L73 212.3225818292007 L74 167.5744759586924 L75 178.2156431069817 L76 238.059443308096 L77 309.3476962234455 L78 346.608967370287 L79 325.7026782447464 L80 259.472658391125 L81 189.85272155709544 L82 161.28044389515634 L83 192.29819481005163 L84 263.51205708880775 L85 329.7314848088707 L86 348.6809968044297 L87 308.01956942388335 L88 233.38056302692047 L89 172.19369083235026 L90 163.51210977586004 L91 213.06070059917818 L92 289.46317050672064 L93 344.1323021061835 L94 342.2003298283688 L95 284.77922668707316 L96 208.3262361910335 L97 161.47327410225364 L98 174.06145157596993 L99 238.1166049038036 L100 312.90576566531564 L101 350.86487287695485 L102 327.8779967500713 L103 258.61373108876126 L104 187.15598912169395 L105 158.91882837936566 L106 191.75508795045133 L107 264.6572338446389 L108 331.20956418323686 L109 349.17044524692596 L110 307.31217721114734 L111 232.44641012799664 L112 172.23407496200815 L113 164.81056419553585 L114 214.60494470699246 L115 289.70387036106195 L116 342.3258988320916 L117 339.2584513533817 L118 282.8461889090496 L119 209.24988420171286 L120 165.24066409438225 L121 178.43729370185744 L122 239.95092377610945 L123 310.3587629204474 L124 345.0016539255203 L125 322.35259961125905 L126 257.4091016777917 L127 191.76623868922013 L128 166.93734145102428 L129 198.0581731634719 L130 264.65882576817637 L131 324.13195698718664 L132 339.03465040650684 L133 300.7019151718637 L134 234.2532108995046 L135 182.11982198198515 L136 176.90180471614877 L137 220.94836573221312 L138 285.47478036136056 L139 329.3926013378417 L140 325.5233698552891 L141 277.4399536143354 L142 216.48467294679827 L143 181.3140266324445 L144 193.33598410918617 L145 243.67801530864142 L146 299.61980541994905 L147 325.8893643678439 L148 306.9428551086959 L149 256.1287601992742 L150 206.35706638395547 L151 188.75521644250313 L152 213.17349390147206 L153 262.76637944330975 L154 305.56079541803894 L155 315.09563792428264 L156 286.7915358151034 L157 239.91990960328985 L158 204.52240505818975 L159 202.13805537843845 L160 232.71472732429612 L161 275.6441537692747 L162 303.61770027003894 L163 300.00417196539405 L164 268.68735644034246 L165 230.58206440860417 L166 209.69760167554134 L167 218.0192590809393 L168 248.72111620448513 L169 281.48490173666687 L170 295.91441515617646 L171 284.2063562378484 L172 255.22487227090522 L173 227.9665364768507 L174 219.14363214343018 L175 232.9815346417957 L176 259.4272172786732 L177 281.3261021632508 L178 285.5106782903719 L179 270.6570853092771 L180 247.2660466358313 L181 230.3368435055247 L182 229.79240693999537 L183 244.7402184597367 L184 264.83166807339956 L185 277.348066297235 L186 275.2053036080081 L187 260.8700604220211 L188 244.0926841551343 L189 235.3406284268396 L190 239.31710702326845 L191 252.5449777219168 L192 266.1700729694718 L193 271.8322288079961 L194 266.7441174498218 L195 254.92731911737272 L196 244.17227861106457 L197 240.95034490544552 L198 246.57146984956933 L199 256.8329411048374 L200 265.069804131796 L201 266.4418837419818 L202 260.7262125639567 L203 252.0406774747185 L204 245.94227644683835 L205 245.90864508265432 L206 251.40698078857818 L207 258.5846815111321 L208 262.92075529306464 L209 262.0408246520973 L210 256.9642627021174 L211 251.1684935105526 L212 248.24358722038554 L213 249.69746734314737 L214 254.23422439947126 L215 258.80642260542015 L216 260.6335617487196 L217 258.86700986390304 L218 254.9220672738239 L219 251.40205483059256 L220 250.40306257191952 L221 252.289284088843 L222 255.63820945452915 L223 258.27650808913484 L224 258.6720774151053 L225 256.8021708128937 L226 254.02098102224852 L227 252.10409055828183 L228 252.12996563597338 L229 253.89343908864421 L230 256.1553962596787 L231 257.4955038054209 L232 257.1915180719223 L233 255.58897810057178 L234 253.78690899571805 L235 252.89733492470558 L236 253.3696784985478 L237 254.7834698400883 L238 256.1889830227642 L239 256.73521117194593 L240 256.17601718983684 L241 254.9595749619823 L242 253.88805482501888 L243 253.5963882091456 L244 254.18401441205452 L245 255.2076892174459 L246 256.00392027461197 L247 256.11289271269345 L248 255.53687222895036 L249 254.69291847800426 L250 254.11894635071883 L251 254.13578878174877 L252 254.67441937635718 L253 255.35658911901575 L254 255.75478148537374 L255 255.6561142980269 L256 255.16990311763473 L257 254.62930688386814 L258 254.36718210001177 L259 254.5144884452561 L260 254.94112008827608 L261 255.36078474793112 L262 255.52001349486835 L263 255.34840360175545 L264 254.98296164143488 L265 254.6643870508961 L266 254.58092214123405 L267 254.75959142244096 L268 255.06596398349274 L269 255.3017246185204 L270 255.3311707320658 L271 255.15712709857905 L272 254.90536544100826 L273 254.7361261051275 L274 254.7436264962314 L275 254.9056184470153 L276 255.10852912245724 L277 255.22538755524357 L278 255.19405606102123 L279 255.04836037264482 L280 254.88798762554143 L281 254.81151887383317 L282 254.85684499359385 L283 254.9843074196864 L284 255.10848895720792 L285 255.15452526062967 L286 255.10237879587882 L287 254.99347292835708 L288 254.8994443215201 L289 254.87573495717484 L290 254.9296459444964 L291 255.02074646203374 L292 255.0901440348215 L293 255.0979966581484 L294 255.04572562995952 L295 254.9710141913323 L296 254.92135133202973 L297 254.92429328772081 L298 254.97277892470575 L299 255.03287967996144 L300 255.06703972693805 L301 255.05717970399144 L302 255.01368850392566 L303 254.96627522258908 L304 254.944041284249 L305 254.9579210243947 L306 254.99588497903267 L307 255.03252893736192 L308 255.04579845914728 L309 255.03000604445612 L310 254.9976315086239 L311 254.96994166993596 L312 254.96323154141396 L313 254.97945732764117 L314 255.00649176115914 L315 255.02688098775246 L316 255.02894725251417 L317 255.0132794358227 L318 254.99114472263224 L319 254.9765943583081 L320 254.97767647317718 L321 254.9921660308867 L322 255.00994367544874 L323 255.01991545293225 L324 255.01682771188865 L325 255.00386149716147 L326 254.9898594631346 L327 254.98340336362938 L328 254.9876442972971 L329 254.99894022609058 L330 255.00974333943975 L331 255.0135622473387 L332 255.0087861859668 L333 254.99917010241677 L334 254.99102227452798 L335 254.98912843895616 L336 254.99400712035984 L337 255.00202426216407 L338 255.00801057912315 L339 255.00854555732735 L340 255.00385280497267 L341 254.99729866088865 L342 254.9930383569849 L343 254.99342095031315 L344 254.99774846905257 L345 255.00300454713698 L346 255.0059135738462 L347 255.00494998641162 L348 255.00108616403975 L349 254.9969527971774 L350 254.99507954701647 L351 254.9963735832892 L352 254.9997332934606 L353 255.0029170295298 L354 255.00401484304982 L355 255.00257156604204 L356 254.99971627625106 L357 254.99731956124623 L358 254.99678647418654 L359 254.99825259020082 L360 255.00062943064324 L361 255.0023864400011 L362 255.0025220785828 L363 255.00111707820253 L364 254.99917685569068 L365 254.99792989566942 L366 254.99806154758056 L367 254.99935362896034 L368 255.00090727993324 L369 255.00175555576973 L370 255.00145571097403 L371 255.00030461093343 L372 254.99908470270597 L373 254.99854150173115 L374 254.99893592247224 L375 254.9999349807908 L376 255.0008730558055 L377 255.00118830734553 L378 255.00075242279755 L379 254.9999047596686 L380 254.99919990375793 L381 254.99905027188225 L382 254.99949069066133 L383 255.00019523735142 L384 255.00071080792387 L385 255.00074422746923 L386 255.00032369140783 L387 254.99974941435045 L388 254.9993845396806 L389 254.99942895043478 L390 254.9998146470953 L391 255.0002738259237 L392 255.00052109232917 L393 255.0004280223454 L394 255.00008515108289 L395 254.9997251641258 L396 254.99956773777242 L397 254.99968784089546 L398 254.9999848795664 L399 255.00026123692513 L400 255.00035166744647 L401 255.0002200946797 L402 254.9999684796213 L403 254.99976122237607 L404 254.9997193530316 L405 254.99985160929654 L406 255.0000604254214 L407 255.00021168187448 L408 255.00021958078284 L409 255.00009373928256 L410 254.99992378275195 L411 254.9998170439278 L412 254.99983179878845 L413 254.99994691040354 L414 255.0000826031226 L415 255.00015465339135 L416 255.00012583037085 L417 255.00002371745492 L418 254.99991750138457 L419 254.99987190369868 L420 254.99990844305282 L421 254.99999674610348 L422 255.00007814961384 L423 255.00010406018527 L424 255.0000643640619 L425 254.99998968548272 L426 254.99992875303712 L427 254.9999170780392 L428 254.9999567815252 L429 255.00001866395684 L430 255.00006303033197 L431 255.0000647780725 L432 255.00002712984377 L433 254.9999768372228 L434 254.99994562036258 L435 254.99995046369372 L436 254.9999848126978 L437 255.00002490677596 L438 255.00004589357223 L439 255.0000369856988 L440 255.00000657928607 L441 254.99997524357806 L442 254.99996204438023 L443 254.9999731515243 L444 254.9999993986357 L445 255.00002337344347 L446 255.00003078844597 L447 255.0000188175273 L448 254.99999665580734 L449 254.9999787449018 L450 254.99997550214022 L451 254.99998741752987 L452 255.00000575423178 L453 255.00001876514716 L454 255.0000191076619 L455 255.00000784688183 L456 254.99999296623776 L457 254.9999838389369 L458 254.99998541328097 L459 254.99999566113794 L460 255.0000075066431 L461 255.00001361736153 L462 255.00001086954228 L463 255.00000181667562 L464 254.99999257320783 L465 254.9999887548174 L466 254.9999921284553 L467 254.99999992911768 L468 255.00000698915463 L469 255.00000910840134 L470 255.00000550002287 L471 254.99999892405592 L472 254.9999936600547 L473 254.9999927633708 L474 254.99999633823134 L475 255.00000177106097 L476 255.00000558588366 L477 255.00000563550535 L478 255.0000022680798 L479 254.99999786566963 L480 254.99999519770975 L481 254.99999570532057 L482 254.99999876219306 L483 255.0000022614567 L484 255.0000040400174 L485 255.0000031938679 L486 255.00000049895687 L487 254.99999777264009 L488 254.999996668743 L489 254.99999769266435 L490 255.00000001073266 L491 255.00000208946315 L492 255.00000269431183 L493 255.00000160711295 L494 254.99999965607864 L495 254.99999810924703 L496 254.99999786255967 L497 254.99999893478173 L498 255.00000054424902 L499 255.00000166253244 " stroke = "red" stroke-width = "4" fill = "none" /></svg>